<svg width="139" height="8" viewBox="0 0 139 8" fill="none" xmlns="http://www.w3.org/2000/svg">
<path d="M84.2708 1.69652H84.2516L84.2708 1.95556V7.59702H83.5527V0.794647H84.6346L86.9131 6.65678L89.2013 0.794647H90.2735V7.59702H89.5555V1.95556L89.5747 1.69652H89.5459L87.2195 7.59702H86.5972L84.2708 1.69652Z" fill="#692832"/>
<path d="M99.3116 3.76891V4.38296H95.6926V6.98304H99.7711V7.59708H94.9746V0.794647H99.6562V1.40869H95.6926V3.76891H99.3116Z" fill="#692832"/>
<path d="M106.443 0.794647C106.932 0.794647 107.573 0.794648 108.09 1.24559C108.368 1.48545 108.703 1.94598 108.703 2.75191C108.703 3.54824 108.387 4.00877 108.147 4.22945C107.602 4.74754 106.817 4.76673 106.424 4.76673H104.529V7.59708H103.811V0.794647H106.443ZM104.519 4.15269H106.29C106.664 4.15269 107.171 4.1239 107.516 3.84566C107.745 3.66337 107.966 3.32757 107.966 2.77109C107.966 2.2434 107.745 1.85962 107.496 1.67733C107.19 1.44706 106.711 1.41828 106.29 1.41828H104.519V4.15269Z" fill="#692832"/>
<path d="M117.233 3.76891V4.38296H113.605V6.98304H117.683V7.59708H112.887V0.794647H117.568V1.40869H113.605V3.76891H117.233Z" fill="#692832"/>
<path d="M124.75 4.13353L121.715 7.59711H120.834L124.051 3.96084L120.939 0.804291H121.791L124.75 3.86489V0.804291H125.468V3.86489L128.436 0.804291H129.288L126.176 3.96084L129.383 7.59711H128.512L125.468 4.13353V7.59711H124.75V4.13353Z" fill="#692832"/>
<path d="M133.088 7.59708H132.312L134.888 0.794647H135.692L138.267 7.59708H137.482L136.764 5.63982H133.806L133.088 7.59708ZM136.563 5.03537L135.29 1.49503L134.017 5.03537H136.563Z" fill="#692832"/>
<path d="M2.1282 3.90322C2.18564 3.22202 2.40584 2.26258 3.1143 1.59098C3.5547 1.17842 4.23444 0.794647 5.28756 0.794647C6.26409 0.794647 7.01085 1.14004 7.45125 1.5526C7.88207 1.94597 8.48522 2.82865 8.48522 4.47887C8.48522 5.1121 8.39906 6.38815 7.48954 7.25164C6.80023 7.91365 6.01517 8 5.33543 8C4.5408 8 3.76532 7.8465 3.1143 7.23246C2.40584 6.56086 2.10905 5.49588 2.10905 4.51726H1.05593V7.79853H0.337891V0.996128H1.05593V3.90322H2.1282ZM6.9917 6.73355C7.55656 6.15789 7.72889 5.31358 7.72889 4.45968C7.72889 2.85743 7.09701 2.17624 6.90554 2.00354C6.50344 1.62936 5.88114 1.40869 5.26841 1.40869C4.5791 1.40869 4.03339 1.66773 3.67916 2.01313C2.98984 2.68473 2.86538 3.79767 2.86538 4.40212C2.86538 5.55344 3.20047 6.34977 3.68873 6.80071C4.03339 7.12691 4.56952 7.39557 5.29713 7.39557C6.06304 7.39557 6.60875 7.11733 6.9917 6.73355Z" fill="#692832"/>
<path d="M15.7616 0.996175C16.1733 0.996175 16.8722 1.02496 17.3221 1.48549C17.5806 1.74454 17.7721 2.18588 17.7721 2.69438C17.7721 3.14532 17.6285 3.50032 17.3413 3.78815C17.0828 4.0472 16.7956 4.14314 16.6232 4.18152V4.20071C16.9583 4.24868 17.3508 4.41179 17.6093 4.68043C17.8295 4.89151 18.0593 5.26568 18.0593 5.89891C18.0593 6.55133 17.82 6.9543 17.571 7.19416C17.0253 7.76023 16.1637 7.77942 15.6754 7.77942H12.9277V0.97699H15.7616V0.996175ZM13.6458 3.96085H15.5893C15.8478 3.96085 16.3743 3.96085 16.719 3.63464C16.9009 3.45234 17.0445 3.13573 17.0445 2.76155C17.0445 2.37777 16.9009 2.10913 16.7381 1.95562C16.4892 1.71576 16.0488 1.61981 15.6467 1.61981H13.6458V3.96085ZM13.6458 7.18457H15.6467C16.4796 7.18457 16.8147 6.97348 16.9392 6.85835C17.2743 6.58971 17.3317 6.19634 17.3317 5.89891C17.3317 5.30406 17.1019 4.99704 16.8913 4.84353C16.5179 4.58448 15.7999 4.56529 15.6371 4.56529H13.6553V7.18457H13.6458Z" fill="#692832"/>
<path d="M26.9053 3.97041V4.58444H23.2864V7.18449H27.3648V7.79852H22.5684V0.996185H27.2499V1.61022H23.2864V3.97041H26.9053Z" fill="#692832"/>
<path d="M30.5059 7.16529C30.8601 7.23245 31.2143 7.12691 31.4537 6.90625C31.6164 6.76233 31.9036 6.40734 32.0281 5.49589C32.0951 5.01618 32.143 4.07594 32.143 3.53867V0.996185H36.1161V7.79852H35.3981V1.61981H32.8036V3.62501C32.8036 4.72835 32.7174 5.37117 32.6791 5.63981C32.5929 6.21547 32.411 6.91584 31.9324 7.38596C31.626 7.68338 31.2622 7.8273 30.8026 7.8273C30.7069 7.8273 30.6112 7.8177 30.5059 7.80811V7.16529Z" fill="#692832"/>
<path d="M41.5247 0.996185V7.79852H40.8066V0.996185H41.5247Z" fill="#692832"/>
<path d="M48.8494 0.996185C49.3377 0.996185 49.9791 0.996184 50.4961 1.43752C50.7738 1.68697 51.1088 2.1379 51.1088 2.94382C51.1088 3.74014 50.7929 4.19108 50.5536 4.42134C50.0078 4.93943 49.2324 4.95861 48.8303 4.95861H46.9251V7.79852H46.207V0.996185H48.8494ZM46.9346 4.35419H48.7058C49.0696 4.35419 49.5866 4.3254 49.9313 4.04716C50.161 3.86487 50.3717 3.52907 50.3717 2.9726C50.3717 2.44492 50.1515 2.06115 49.9121 1.87886C49.5962 1.64859 49.1271 1.61981 48.7058 1.61981H46.9346V4.35419Z" fill="#692832"/>
<path d="M56.0188 7.79852H55.3008V0.996185H56.0188V3.90325H59.6569V0.996185H60.3749V7.79852H59.6569V4.51729H56.0188V7.79852Z" fill="#692832"/>
<path d="M66.2442 7.79852H65.4688L68.0441 0.996185H68.8483L71.4237 7.79852H70.6386L69.9206 5.84128H66.9623L66.2442 7.79852ZM69.71 5.23686L68.4366 1.68697L67.1633 5.23686H69.71Z" fill="#692832"/>
</svg>
