<svg width="38" height="64" viewBox="0 0 38 64" fill="none" xmlns="http://www.w3.org/2000/svg">
<path fill-rule="evenodd" clip-rule="evenodd" d="M27.187 33.4362C30.3464 31.6612 32.2228 27.2958 33.5057 22.9496C35.3726 16.6077 35.8992 5.10412 36.0237 4.41333C36.8949 4.08712 37.5172 3.26201 37.5172 2.28339C37.5172 1.02653 36.5023 -6.10352e-05 35.2482 -6.10352e-05C33.994 -6.10352e-05 32.9696 1.02653 32.9696 2.28339C32.9696 3.18525 33.5057 3.97199 34.2812 4.33657C33.343 9.41197 31.5335 14.2379 30.1166 14.2955C29.7624 14.3147 27.9529 14.1899 25.4637 4.41333C26.22 4.04874 26.7562 3.2716 26.7562 2.36974C26.7562 1.11288 25.7318 0.0958822 24.4776 0.0958822C23.2234 0.0958822 22.199 1.12247 22.199 2.36974C22.199 3.21404 22.6777 3.9528 23.3575 4.33657C22.4288 9.37359 20.6385 14.4778 19.2216 14.6025C17.8142 14.4778 16.0143 9.364 15.0857 4.33657C15.775 3.94321 16.2441 3.21404 16.2441 2.36974C16.2441 1.11288 15.2197 0.0958822 13.9655 0.0958822C12.7114 0.0958822 11.6965 1.12247 11.6965 2.36974C11.6965 3.2716 12.2231 4.04874 12.989 4.41333C10.4902 14.1899 8.69035 14.3147 8.33612 14.2955C6.91919 14.2379 5.10016 9.41197 4.1715 4.33657C4.94698 3.97199 5.48312 3.19485 5.48312 2.28339C5.48312 1.02653 4.46829 -6.10352e-05 3.21412 -6.10352e-05C1.95994 -6.10352e-05 0.935547 1.02653 0.935547 2.28339C0.935547 3.26201 1.56742 4.09671 2.43864 4.41333C2.5631 5.10412 3.07051 16.6173 4.93741 22.9496C6.2203 27.2958 8.11592 31.6516 11.2849 33.4362C8.91055 36.2185 5.53099 41.8024 3.53006 52.3849C3.10881 54.6492 2.19929 62.3438 1.0983 63.5815C1.0983 63.5815 5.79905 63.8502 7.00535 59.8973C7.00535 59.8973 8.51802 49.996 9.41796 46.5036C12.1274 36.1226 15.909 32.1889 15.909 32.1889C15.909 32.1889 9.64773 30.3468 6.64155 22.4602C5.73204 20.0617 4.64062 14.8711 4.37255 10.688C5.35865 13.5855 6.42136 16.2719 8.29783 16.3295C8.33612 16.3295 8.35527 16.3295 8.38399 16.3295C10.4424 16.3295 12.2135 13.5279 13.9847 7.38757C14.9038 11.2445 16.5888 16.2335 19.2024 16.3295C19.212 16.3295 19.2216 16.3295 19.2407 16.3295C19.2503 16.3295 19.2694 16.3295 19.279 16.3295C21.8927 16.2335 23.5777 11.2541 24.4968 7.38757C26.2775 13.5279 28.0486 16.3295 30.0974 16.3295C30.1262 16.3295 30.1645 16.3295 30.1932 16.3295C32.0697 16.2623 33.1419 13.5759 34.1185 10.688C33.8504 14.8711 32.7685 20.0617 31.859 22.4602C28.8433 30.3468 22.5916 32.1889 22.5916 32.1889C22.5916 32.1889 26.3732 36.1226 29.0443 46.5036C29.9443 49.996 31.4569 59.8973 31.4569 59.8973C32.6728 63.8502 37.364 63.5815 37.364 63.5815C36.263 62.3438 35.3631 54.6588 34.9322 52.3849C32.9409 41.812 29.5613 36.2185 27.187 33.4362ZM35.2482 1.583C35.6503 1.583 35.9854 1.90921 35.9854 2.31217C35.9854 2.71513 35.6503 3.04134 35.2482 3.04134C34.8461 3.04134 34.5206 2.71513 34.5206 2.31217C34.5206 1.90921 34.8461 1.583 35.2482 1.583ZM3.24284 3.04134C2.84074 3.04134 2.51523 2.71513 2.51523 2.31217C2.51523 1.90921 2.84074 1.583 3.24284 1.583C3.64494 1.583 3.97045 1.90921 3.97045 2.31217C3.97045 2.71513 3.64494 3.04134 3.24284 3.04134ZM14.0038 3.04134C13.6017 3.04134 13.2762 2.71513 13.2762 2.31217C13.2762 1.90921 13.6017 1.583 14.0038 1.583C14.4155 1.583 14.7314 1.90921 14.7314 2.31217C14.7314 2.71513 14.4059 3.04134 14.0038 3.04134ZM24.4968 3.04134C24.0947 3.04134 23.7691 2.71513 23.7691 2.31217C23.7691 1.90921 24.0947 1.583 24.4968 1.583C24.8989 1.583 25.2244 1.90921 25.2244 2.31217C25.2339 2.71513 24.9084 3.04134 24.4968 3.04134Z" fill="#692832"/>
</svg>
