<svg width="191" height="38" viewBox="0 0 191 38" fill="none" xmlns="http://www.w3.org/2000/svg">
<path d="M10.1004 1.61279V2.23642C6.81657 2.59141 6.7304 5.07634 6.7304 6.669V19.1992L17.6829 7.38857C18.2573 6.72656 19.0998 5.56565 19.0998 4.50068C19.0998 3.64679 18.6977 2.23642 16.4 2.23642H16.3042V1.61279H26.2419V2.23642C25.5717 2.36115 23.6665 2.86005 21.4932 5.17228L13.9108 13.337C14.8394 15.3422 16.7925 19.6021 18.4296 22.5764C22.9102 30.9714 26.3185 34.3582 28.7981 36.3922L28.2236 37.1405C26.0983 35.8549 23.9633 34.1663 21.1773 31.1824C17.1467 26.913 14.0352 22.2981 10.8471 16.6087L6.7304 21.0029V27.6326C6.7304 29.2348 6.81657 31.7197 10.1004 32.0747V32.6983H0V32.0747C3.27425 31.7197 3.36999 29.2348 3.36999 27.6326V6.669C3.36999 5.07634 3.28382 2.59141 0 2.23642V1.61279H10.1004Z" fill="#692832"/>
<path d="M190.5 2.2364C187.216 2.59139 187.13 5.07632 187.13 6.66898V27.6422C187.13 29.2444 187.216 31.7294 190.5 32.0843V32.708H180.438V32.0843C183.636 31.7294 183.76 29.3212 183.76 27.6422V19.5542C182.477 19.8612 181.319 19.9091 179.902 19.9091C179.193 19.9091 178.485 19.8612 177.776 19.8228C176.886 22.6723 175.689 25.3012 174.32 27.4599C172.243 30.8851 169.227 34.3006 164.919 37.1501L164.564 36.6608C166.47 34.5789 168.595 31.9021 170.414 28.3042C173.028 23.1041 173.698 20.0914 173.918 19.0648C169.84 18.2589 166.738 14.8817 166.738 10.6698C166.738 7.33099 167.982 5.20105 169.753 3.82906C172.022 2.09249 175.297 1.60318 177.824 1.60318H190.5V2.2364ZM183.76 6.6306C183.76 4.45269 183.712 2.94638 180.658 2.94638H178.178C175.699 2.94638 173.794 3.96338 172.587 5.07632C170.73 6.81289 170.376 9.16351 170.376 10.5835C170.376 11.9651 170.558 13.8263 172.109 15.5629C174.454 18.4028 178.054 18.5755 180.486 18.5755C181.864 18.5755 182.707 18.5372 183.77 18.2301V6.6306H183.76Z" fill="#692832"/>
<path d="M61.6543 27.9972C61.7501 28.4385 62.851 31.95 66.0487 32.0843V32.708H55.3547V32.0843H55.8909C57.4418 32.0843 58.4184 31.1057 58.4184 29.8201C58.4184 29.4171 58.3322 29.1101 58.1982 28.7551L56.561 23.1137H44.4118L42.6311 28.7935C42.5832 28.9278 42.5449 29.1965 42.5449 29.5994C42.5449 30.6644 43.0811 32.0843 44.9863 32.0843V32.708H36.6953V32.0843C39.893 31.7294 40.8216 29.0621 41.0418 28.4865L48.5764 7.37899C48.7009 7.07198 48.7966 6.66902 48.7966 6.31403C48.7966 5.28743 48.002 4.93245 47.0638 4.88448H46.2692V4.19368C48.7009 3.88667 50.4816 2.41874 51.0178 0.15448H52.9708L61.6543 27.9972ZM44.9001 21.7801H56.0249L50.8837 5.07636L44.9001 21.7801Z" fill="#692832"/>
<path d="M94.9147 23.9963L103.56 1.61277H110.74V2.2364C108.127 2.45707 107.677 3.64677 107.677 4.80768C107.677 5.29699 107.763 5.69995 107.811 6.00697L111.487 28.2178C111.841 30.3957 113.402 31.9116 115.518 32.0843V32.7079H104.527V32.0843L104.929 32.1227C106.48 32.1227 107.945 31.192 107.945 29.4171C107.945 28.8414 107.772 28.3521 107.724 27.9492L104 5.24902L94.6084 29.3212H93.268L84.6707 5.99737L80.3242 27.4119C80.1902 27.8052 80.104 28.9182 80.104 29.3116C80.104 31.3072 82.2773 31.9404 83.5123 32.0747V32.6984H74.9629V32.0747C77.2223 31.9404 78.2946 30.4821 78.7733 27.9875L82.9857 6.97599C83.1198 6.31399 83.1198 5.9494 83.1198 5.28739C83.1198 4.66376 83.0719 2.43788 79.9317 2.2268V1.60318H87.1599L94.9147 23.9963Z" fill="#692832"/>
<path d="M150.281 1.61279L151.258 7.69559H150.281C149.918 6.85129 149.219 5.51768 148.328 4.67338C147.304 3.74273 145.753 2.9464 143.848 2.9464H137.194C135.461 2.9464 134.408 3.92502 134.408 5.83429V15.064H142.967C143.809 15.064 145.179 14.9777 145.935 13.7784C146.289 13.2891 146.375 12.6654 146.375 12.1377V11.8691H147.084V19.6021H146.375V19.3335C146.375 18.7962 146.289 18.1726 145.935 17.6833C145.179 16.484 143.809 16.3976 142.967 16.3976H134.408V28.6112C134.408 29.1389 134.494 31.3743 137.51 31.3743H143.809C145.628 31.3743 149.257 31.4127 151.612 26.4429H152.321L151.258 32.7079H127.668V32.0843C131 31.7293 131.038 29.3212 131.038 27.6422V6.669C131.038 4.98999 131 2.59141 127.668 2.23642V1.61279H150.281Z" fill="#692832"/>
</svg>
