<svg width="16" height="10" viewBox="0 0 16 10" fill="none" xmlns="http://www.w3.org/2000/svg">
<path d="M8 0C4.94303 0 2.17081 1.7536 0.125192 4.60192C-0.0417306 4.83528 -0.0417306 5.16129 0.125192 5.39465C2.17081 8.2464 4.94303 10 8 10C11.057 10 13.8292 8.2464 15.8748 5.39808C16.0417 5.16472 16.0417 4.83871 15.8748 4.60535C13.8292 1.7536 11.057 0 8 0ZM8.21929 8.52093C6.19004 8.65477 4.51427 6.90117 4.64191 4.77008C4.74665 3.01304 6.10494 1.58888 7.78071 1.47907C9.80996 1.34523 11.4857 3.09883 11.3581 5.22992C11.2501 6.98353 9.89179 8.40769 8.21929 8.52093ZM8.11783 6.8943C7.02465 6.96637 6.1213 6.02265 6.19331 4.87646C6.24895 3.92931 6.9821 3.16404 7.88545 3.10227C8.97862 3.0302 9.88197 3.97392 9.80996 5.12011C9.75105 6.07069 9.0179 6.83596 8.11783 6.8943Z" fill="#0A1E33" fill-opacity="0.8"/>
</svg>
