<svg width="48" height="48" viewBox="0 0 48 48" fill="none" xmlns="http://www.w3.org/2000/svg">
<path d="M48 40.9759C48 44.8554 44.8712 48 41.0117 48H6.98828C3.12872 48 0 44.8554 0 40.9759V7.02412C0 3.14477 3.12872 0 6.98828 0H41.0117C44.8713 0 48 3.14477 48 7.02412V40.9759Z" fill="#FAAB62"/>
<path d="M47.754 40.8018C47.754 44.6413 44.6573 47.7537 40.8375 47.7537H7.16349C3.34362 47.7537 0.24707 44.6413 0.24707 40.8018V7.19872C0.24707 3.35926 3.34374 0.246826 7.16349 0.246826H40.8375C44.6573 0.246826 47.754 3.35938 47.754 7.19872V40.8018Z" fill="#F7931E"/>
<path d="M23.9734 7.17407C19.2162 7.17407 15.3599 11.0503 15.3599 15.8318C15.3599 20.6134 19.2162 24.4899 23.9734 24.4899C28.7306 24.4899 32.5869 20.6134 32.5869 15.8318C32.5869 11.0503 28.7306 7.17407 23.9734 7.17407ZM23.9734 19.4109C22.0069 19.4109 20.4128 17.8084 20.4128 15.8319C20.4128 13.8554 22.0069 12.253 23.9734 12.253C25.9398 12.253 27.534 13.8554 27.534 15.8319C27.534 17.8084 25.9398 19.4109 23.9734 19.4109Z" fill="white"/>
<path d="M27.0142 31.3785C30.4626 30.6724 32.529 29.031 32.6383 28.9429C33.6474 28.1296 33.8095 26.648 33.0003 25.6336C32.1911 24.6194 30.7173 24.4565 29.708 25.2698C29.6866 25.2871 27.4827 26.9865 23.8563 26.989C20.2301 26.9865 17.9795 25.2871 17.9582 25.2698C16.9489 24.4565 15.475 24.6194 14.6659 25.6336C13.8567 26.648 14.0188 28.1296 15.0278 28.9429C15.1386 29.0323 17.2903 30.7164 20.8353 31.4059L15.8947 36.5957C14.9969 37.5316 15.0239 39.0219 15.955 39.9244C16.4095 40.3648 16.9952 40.5837 17.5805 40.5837C18.1941 40.5837 18.8071 40.3428 19.2666 39.8636L23.8564 34.9492L28.9098 39.8955C29.8254 40.8143 31.3081 40.8128 32.222 39.8929C33.1358 38.9728 33.1347 37.4823 32.2194 36.5638L27.0142 31.3785Z" fill="white"/>
<path d="M23.8566 26.9893C23.851 26.9893 23.862 27.489 23.8566 27.9893C23.8512 27.489 23.8622 26.9893 23.8566 26.9893Z" fill="white"/>
</svg>
