<svg width="48" height="48" viewBox="0 0 48 48" fill="none" xmlns="http://www.w3.org/2000/svg">
<path fill-rule="evenodd" clip-rule="evenodd" d="M16.64 0C30.08 0 17.92 0 31.36 0C44.8 0 48 3.2 48 16.64C48 30.08 48 17.92 48 31.36C48 44.8 44.8 48 31.36 48C17.92 48 30.08 48 16.64 48C3.2 48 0 44.8 0 31.36C0 17.92 0 24.1451 0 16.64C0 3.2 3.2 0 16.64 0Z" fill="#5181B8"/>
<path fill-rule="evenodd" clip-rule="evenodd" d="M39.3083 16.5363C39.5306 15.7947 39.3083 15.2498 38.2498 15.2498H34.7498C33.8599 15.2498 33.4496 15.7205 33.2271 16.2396C33.2271 16.2396 31.4472 20.578 28.9258 23.3961C28.1101 24.2118 27.7392 24.4713 27.2943 24.4713C27.0718 24.4713 26.7498 24.2118 26.7498 23.4702V16.5363C26.7498 15.6464 26.4915 15.2498 25.7498 15.2498H20.2498C19.6937 15.2498 19.3592 15.6628 19.3592 16.0542C19.3592 16.8979 20.6199 17.0924 20.7498 19.4656V24.6197C20.7498 25.7498 20.5457 25.9546 20.1008 25.9546C18.9143 25.9546 16.028 21.5969 14.3163 16.6104C13.9808 15.6413 13.6443 15.2498 12.7498 15.2498H9.24982C8.24982 15.2498 8.0498 15.7205 8.0498 16.2396C8.0498 17.1666 9.23638 21.7646 13.5747 27.8457C16.4669 31.9986 20.5418 34.2498 24.2498 34.2498C26.4746 34.2498 26.7498 33.7498 26.7498 32.8885V29.7498C26.7498 28.7498 26.9606 28.5502 27.6651 28.5502C28.1842 28.5502 29.0741 28.8097 31.1506 30.8121C33.5237 33.1852 33.915 34.2498 35.2498 34.2498H38.7498C39.7498 34.2498 40.2498 33.7498 39.9614 32.763C39.6457 31.7796 38.5127 30.3528 37.0093 28.6614C36.1935 27.6973 34.9699 26.6592 34.599 26.1399C34.0799 25.4726 34.2283 25.1759 34.599 24.5826C34.599 24.5826 38.8633 18.5757 39.3083 16.5363Z" fill="white"/>
</svg>
