<svg width="48" height="48" viewBox="0 0 48 48" fill="none" xmlns="http://www.w3.org/2000/svg">
<path d="M45.3333 0H2.66667C1.95942 0 1.28115 0.280951 0.781049 0.781046C0.280952 1.28114 0 1.95942 0 2.66666L0 45.3332C0 46.0405 0.280952 46.7187 0.781049 47.2188C1.28115 47.7189 1.95942 47.9999 2.66667 47.9999H25.64V29.4399H19.4067V22.1733H25.64V16.84C25.64 10.64 29.4267 7.25998 34.9733 7.25998C36.8394 7.25453 38.7043 7.35022 40.56 7.54665V14H36.7333C33.7267 14 33.14 15.4333 33.14 17.5333V22.1599H40.3333L39.4 29.4266H33.14V47.9999H45.3333C46.0406 47.9999 46.7189 47.7189 47.219 47.2188C47.7191 46.7187 48 46.0405 48 45.3332V2.66666C48 1.95942 47.7191 1.28114 47.219 0.781046C46.7189 0.280951 46.0406 0 45.3333 0V0Z" fill="#4267B2"/>
<path d="M33.1401 48V29.4401H39.4001L40.3334 22.1734H33.1401V17.5468C33.1401 15.4468 33.7267 14.0135 36.7334 14.0135H40.5467V7.53347C38.6911 7.33705 36.8261 7.24135 34.9601 7.2468C29.4267 7.2468 25.6267 10.6268 25.6267 16.8268V22.1601H19.4067V29.4267H25.6401V48H33.1401Z" fill="white"/>
</svg>
