<svg width="12" height="12" viewBox="0 0 12 12" fill="none" xmlns="http://www.w3.org/2000/svg">
<path d="M9.48885 7.43356C9.24282 7.17776 8.94606 7.041 8.63155 7.041C8.31958 7.041 8.02029 7.17523 7.76412 7.43103L6.96262 8.22882C6.89668 8.19337 6.83073 8.16044 6.76732 8.12752C6.67601 8.08193 6.58978 8.03887 6.51622 7.99328C5.76546 7.51714 5.08317 6.89663 4.42879 6.09377C4.11174 5.69361 3.89869 5.35676 3.74397 5.01485C3.95195 4.8249 4.14472 4.62735 4.33241 4.4374C4.40343 4.36648 4.47445 4.29303 4.54546 4.22212C5.0781 3.69026 5.0781 3.00137 4.54546 2.4695L3.85304 1.77808C3.77441 1.69957 3.69324 1.61852 3.61715 1.53748C3.46497 1.38045 3.30518 1.21836 3.14032 1.0664C2.89429 0.823259 2.60007 0.694092 2.29063 0.694092C1.9812 0.694092 1.6819 0.823259 1.42827 1.0664C1.42573 1.06893 1.42573 1.06893 1.42319 1.07146L0.560829 1.94017C0.236174 2.26436 0.0510187 2.65945 0.0104368 3.11787C-0.0504361 3.85741 0.167692 4.5463 0.335092 4.99712C0.745984 6.1039 1.35979 7.12964 2.27541 8.22882C3.38634 9.55342 4.72301 10.5994 6.2499 11.3364C6.83327 11.6125 7.61193 11.9392 8.48191 11.9949C8.53517 11.9975 8.59097 12 8.6417 12C9.2276 12 9.71966 11.7898 10.1052 11.3719C10.1077 11.3668 10.1128 11.3643 10.1153 11.3592C10.2472 11.1997 10.3994 11.0553 10.5592 10.9008C10.6683 10.797 10.7799 10.6881 10.8889 10.5741C11.14 10.3132 11.2719 10.0093 11.2719 9.69778C11.2719 9.38373 11.1375 9.08234 10.8813 8.82907L9.48885 7.43356ZM10.3969 10.1005C10.3943 10.103 10.3943 10.1005 10.3969 10.1005C10.2979 10.2068 10.1965 10.3031 10.0874 10.4095C9.92257 10.5665 9.75517 10.7311 9.59791 10.916C9.34174 11.1895 9.03991 11.3187 8.64424 11.3187C8.60619 11.3187 8.56561 11.3187 8.52756 11.3162C7.77426 11.268 7.07422 10.9743 6.5492 10.7235C5.11361 10.0296 3.85304 9.04435 2.80552 7.79573C1.94061 6.7548 1.36232 5.79238 0.97933 4.75905C0.743447 4.12841 0.657211 3.63707 0.695256 3.17359C0.72062 2.87726 0.834757 2.63159 1.04528 2.42138L1.91018 1.55774C2.03446 1.44123 2.16635 1.37792 2.29571 1.37792C2.4555 1.37792 2.58485 1.47416 2.66601 1.5552C2.66855 1.55774 2.67109 1.56027 2.67362 1.5628C2.82834 1.70717 2.97545 1.85659 3.13017 2.01615C3.2088 2.0972 3.28996 2.17824 3.37113 2.26182L4.06355 2.95325C4.33241 3.22171 4.33241 3.46991 4.06355 3.73838C3.99 3.81182 3.91898 3.88527 3.84543 3.95619C3.63237 4.174 3.42946 4.37661 3.2088 4.57416C3.20373 4.57923 3.19865 4.58176 3.19612 4.58683C2.97799 4.80464 3.01857 5.01738 3.06422 5.16174C3.06676 5.16934 3.0693 5.17694 3.07183 5.18454C3.25192 5.62016 3.50555 6.03046 3.89108 6.51926L3.89362 6.5218C4.59366 7.38291 5.33174 8.05407 6.14591 8.5682C6.2499 8.63405 6.35643 8.68724 6.45789 8.73789C6.5492 8.78348 6.63543 8.82654 6.70899 8.87212C6.71913 8.87719 6.72928 8.88479 6.73942 8.88985C6.82566 8.93291 6.90682 8.95317 6.99052 8.95317C7.20104 8.95317 7.33293 8.82147 7.37605 8.77842L8.24349 7.91224C8.32973 7.82613 8.46669 7.72229 8.62648 7.72229C8.78374 7.72229 8.91309 7.82106 8.99172 7.90717C8.99426 7.90971 8.99425 7.90971 8.99679 7.91224L10.3943 9.30775C10.6556 9.56608 10.6556 9.83201 10.3969 10.1005Z" fill="#007DFF"/>
<path d="M6.4857 2.85454C7.15023 2.96598 7.75389 3.28003 8.2358 3.76124C8.71771 4.24245 9.02968 4.84523 9.14382 5.50879C9.17172 5.67595 9.31629 5.79245 9.48116 5.79245C9.50145 5.79245 9.5192 5.78992 9.53949 5.78739C9.72718 5.757 9.85147 5.57971 9.82103 5.39229C9.68407 4.58943 9.30361 3.85748 8.72278 3.2775C8.14195 2.69751 7.40894 2.31761 6.60491 2.18085C6.41722 2.15045 6.24221 2.27456 6.20924 2.45944C6.17627 2.64433 6.29801 2.82415 6.4857 2.85454Z" fill="#007DFF"/>
<path d="M11.9947 5.29345C11.7689 3.97139 11.145 2.76837 10.1863 1.81102C9.2275 0.853661 8.02273 0.230621 6.69874 0.00521264C6.51359 -0.0277122 6.33858 0.0989219 6.30561 0.283808C6.27517 0.471226 6.39945 0.645981 6.58714 0.678906C7.76909 0.878988 8.84705 1.43871 9.70434 2.29223C10.5616 3.14827 11.1196 4.22466 11.32 5.40489C11.3479 5.57205 11.4925 5.68855 11.6573 5.68855C11.6776 5.68855 11.6954 5.68602 11.7157 5.68349C11.9008 5.65563 12.0277 5.47834 11.9947 5.29345Z" fill="#007DFF"/>
</svg>
