<svg width="120" height="80" viewBox="0 0 120 80" fill="none" xmlns="http://www.w3.org/2000/svg">
<path d="M83.1803 38V42H82.1311V38H83.1803Z" fill="#007DFF"/>
<path d="M37 38V42H38V38H37Z" fill="#007DFF"/>
<path fill-rule="evenodd" clip-rule="evenodd" d="M120 0V80H0V0H120ZM80 1H40V79H80V1ZM119 1H81V79H119V1ZM1 1H39V79H1V1Z" fill="#007DFF"/>
<path fill-rule="evenodd" clip-rule="evenodd" d="M5 5H35V75H5V5ZM36 4V76H4V4H36Z" fill="#0A1E33" fill-opacity="0.2"/>
<path fill-rule="evenodd" clip-rule="evenodd" d="M44.0303 5H76L75.9697 75H44.0303V5ZM77 4V76H43V4H77Z" fill="#0A1E33" fill-opacity="0.2"/>
<path fill-rule="evenodd" clip-rule="evenodd" d="M85 5H115V75H85V5ZM116 4V76H84V4H116Z" fill="#0A1E33" fill-opacity="0.2"/>
</svg>
