<?xml version="1.0" standalone="no"?>
<!DOCTYPE svg PUBLIC "-//W3C//DTD SVG 1.1//EN" "http://www.w3.org/Graphics/SVG/1.1/DTD/svg11.dtd" >
<svg>
<metadata>
Created by FontForge 20090622 at Thu Jul  7 10:40:35 2016
 By deploy user
Copyright (c) Frantisek Storm, www.stormtype.com, 2005. All rights reserved.
</metadata>
<defs>
<font id="ElektraTextPro-BoldItalic" horiz-adv-x="596" >
  <font-face 
    font-family="Elektra Text Pro"
    font-weight="700"
    font-style="italic"
    font-stretch="normal"
    units-per-em="1000"
    panose-1="2 0 8 3 4 0 0 9 0 4"
    ascent="800"
    descent="-200"
    x-height="511"
    cap-height="697"
    bbox="-237 -314 1409.46 899"
    underline-thickness="50"
    underline-position="-100"
    slope="-12"
    unicode-range="U+0020-U+FB04"
  />
<missing-glyph horiz-adv-x="545" 
d="M-50 0l148 697h545l-148 -697h-545zM313 432l149 168h-225zM354 350l77 -169l71 335zM131 99h225l-78 168zM162 516l-71 -335l148 169z" />
    <glyph glyph-name="ff" unicode="ff" horiz-adv-x="698" 
d="M610 528l-4 -17h158l-28 -132h-158l-80 -379h-154l80 379h-157l-80 -379h-153l80 379h-83l28 132h83l5 25q41 190 245 190q104 0 170 -28q51 29 131 29q79 0 149 -25l-59 -119q-38 14 -87 14q-37 0 -57.5 -15.5t-28.5 -53.5zM298 526l-3 -15h157l6 27q7 33 15 49
q-40 10 -77 10q-44 0 -66.5 -15.5t-31.5 -55.5z" />
    <glyph glyph-name="fi" unicode="fi" horiz-adv-x="614" 
d="M606 511l-108 -511h-154l80 379h-157l-80 -379h-153l80 379h-83l28 132h83l5 25q23 108 96.5 149.5t201.5 41.5q104 0 192 -30l-59 -118q-58 18 -137 18q-65 0 -99.5 -15t-43.5 -56l-3 -15h311z" />
    <glyph glyph-name="fl" unicode="fl" horiz-adv-x="620" 
d="M646 697l-117 -548q-16 -80 8 -125l-150 -48q-36 61 -13 168l95 445q-37 8 -73 8q-43 0 -66 -15.5t-32 -55.5l-3 -15h113l-28 -132h-113l-80 -379h-153l80 379h-83l28 132h83l5 25q23 108 92.5 149.5t187.5 41.5q109 0 219 -30z" />
    <glyph glyph-name="ffi" unicode="ffi" horiz-adv-x="924" 
d="M916 511l-108 -511h-153l80 379h-157l-80 -379h-154l80 379h-157l-80 -379h-153l80 379h-83l28 132h83l5 25q41 191 245 191q102 0 176 -35q67 35 188 35q103 0 191 -30l-58 -118q-60 18 -137 18q-65 0 -99.5 -15t-43.5 -56l-3 -15h310zM298 526l-3 -15h157l5 25
q6 28 17 50q-38 11 -78 11q-44 0 -66.5 -15.5t-31.5 -55.5z" />
    <glyph glyph-name="ffl" unicode="ffl" horiz-adv-x="930" 
d="M956 697l-117 -548q-16 -80 9 -125l-150 -48q-36 61 -13 168l95 445q-38 8 -74 8q-42 0 -65 -15.5t-32 -55.5l-3 -15h113l-28 -132h-113l-80 -379h-154l80 379h-157l-80 -379h-153l80 379h-83l28 132h83l5 25q41 191 245 191q90 0 173 -33q63 33 173 33q109 0 218 -30z
M457 536q8 32 17 50q-38 11 -78 11q-46 0 -68 -17t-31 -59l-2 -10h157z" />
    <glyph glyph-name="Th" unicode="Th" horiz-adv-x="1108" 
d="M1060 298l-63 -298h-154l61 288q13 60 -5 81t-61 21q-32 0 -55.5 -8.5t-26.5 -23.5l-76 -358h-154l118 556h-180l-118 -556h-162l118 556h-233l30 141h729l-43 -203q73 32 142 32q36 0 60.5 -5t45.5 -19.5t30 -39.5t9 -66t-12 -98z" />
    <glyph glyph-name="ffk" unicode="ffk" horiz-adv-x="1227" 
d="M1177 0h-178q-107 253 -134 270l-57 -270h-153l125 589q-38 8 -74 8q-42 0 -65 -15.5t-32 -55.5l-3 -15h113l-28 -132h-113l-80 -379h-154l80 379h-157l-80 -379h-153l80 379h-83l28 132h83l5 25q12 56 36 94.5t58 58.5t70.5 28.5t81.5 8.5q94 0 172 -32q63 33 173 33
q115 0 218 -30l-91 -427q48 38 228 241h178q-159 -182 -225 -232q17 -14 53.5 -88.5t77.5 -190.5zM457 536q8 32 17 50q-38 11 -78 11q-46 0 -68 -17t-31 -59l-2 -10h157z" />
    <glyph glyph-name="fk" unicode="fk" horiz-adv-x="916" 
d="M498 0h-154l125 589q-37 8 -73 8q-42 0 -65.5 -15.5t-32.5 -55.5l-3 -15h113l-28 -132h-113l-80 -379h-153l80 379h-83l28 132h83l5 25q23 108 92.5 149.5t187.5 41.5q113 0 219 -30l-91 -427zM867 0h-178q-107 252 -134 270q51 39 228 241h177q-163 -187 -225 -232
q17 -14 54 -88t78 -191z" />
    <glyph glyph-name="fj" unicode="fj" horiz-adv-x="614" 
d="M424 379h-157l-80 -379h-153l80 379h-83l28 132h83l5 25q23 108 96.5 149.5t201.5 41.5q104 0 192 -30l-59 -118q-58 18 -137 18q-65 0 -99.5 -15t-43.5 -56l-3 -15h311l-109 -514q-24 -112 -87.5 -156.5t-186.5 -44.5l26 124q79 0 93 73z" />
    <glyph glyph-name=".notdef" horiz-adv-x="545" 
d="M-50 0l148 697h545l-148 -697h-545zM313 432l149 168h-225zM354 350l77 -169l71 335zM131 99h225l-78 168zM162 516l-71 -335l148 169z" />
    <glyph glyph-name=".null" horiz-adv-x="0" 
 />
    <glyph glyph-name="nonmarkingreturn" horiz-adv-x="333" 
 />
    <glyph glyph-name="space" unicode=" " horiz-adv-x="257" 
 />
    <glyph glyph-name="exclam" unicode="!" horiz-adv-x="333" 
d="M172 697h184l-136 -462h-110zM151 164q55 0 71 -15.5t5 -66.5q-12 -55 -34.5 -72t-77.5 -17q-53 0 -68.5 17t-3.5 72q11 51 33 66.5t75 15.5z" />
    <glyph glyph-name="quotedbl" unicode="&#x22;" horiz-adv-x="402" 
d="M143 697h129l-71 -245h-99zM329 697h126l-71 -245h-98z" />
    <glyph glyph-name="numbersign" unicode="#" horiz-adv-x="738" 
d="M79 425l34 122h123l42 151h141l-42 -151h125l42 151h141l-42 -151h131l-33 -122h-132l-40 -142h133l-34 -121h-132l-45 -162h-141l45 162h-125l-45 -162h-141l45 162h-123l35 121h121l40 142h-123zM343 425l-39 -142h124l40 142h-125z" />
    <glyph glyph-name="dollar" unicode="$" horiz-adv-x="622" 
d="M382 825h102l-29 -137q114 -2 187 -29l-60 -132q-60 19 -157 22l-29 -136q99 -16 140.5 -62.5t23.5 -132.5q-21 -101 -80.5 -149.5t-169.5 -59.5l-31 -146h-102l31 142q-119 2 -191 29l61 133q61 -20 159 -23l30 141q-97 14 -140 56t-26 124q22 100 83 152.5t168 65.5z
M253 485q-5 -26 4 -38t40 -19l25 116q-60 -11 -69 -59zM409 208q6 27 -2 40.5t-41 20.5l-26 -121q58 11 69 60z" />
    <glyph glyph-name="percent" unicode="%" horiz-adv-x="1008" 
d="M752 697h140l-594 -697h-139zM324 714q110 0 143.5 -47.5t5.5 -178.5q-28 -134 -83 -185t-164 -51q-108 0 -141 51t-5 185q28 131 81.5 178.5t162.5 47.5zM249 359q39 0 55.5 23t34.5 105q16 81 9 101t-46 20t-55.5 -21.5t-33.5 -99.5q-17 -83 -10 -105.5t46 -22.5z
M829 448q110 0 143.5 -47.5t4.5 -179.5q-28 -134 -82.5 -184.5t-163.5 -50.5t-142 50.5t-5 184.5q29 132 82 179.5t163 47.5zM753 93q39 0 55.5 23t33.5 105q16 80 9.5 100.5t-45.5 20.5t-55.5 -21.5t-33.5 -99.5q-16 -83 -9 -105.5t45 -22.5z" />
    <glyph glyph-name="ampersand" unicode="&#x26;" horiz-adv-x="815" 
d="M816 394q-27 -130 -149 -241q10 -17 80 -153h-185q-20 42 -30 61q-135 -75 -271 -75q-153 0 -203 42.5t-27 152.5q35 167 228 176q-59 5 -87.5 26t-30.5 56t7 83q21 101 84.5 146.5t209.5 45.5q145 0 191 -40t26 -137q-16 -76 -63 -116.5t-139 -47.5q64 -5 134 -107
q45 59 59 128h166zM288 117q98 0 183 51q-74 131 -140 131q-54 0 -83.5 -22.5t-39.5 -72.5q-11 -50 5.5 -68.5t74.5 -18.5zM376 424q48 0 76 18.5t37 61.5q9 45 -8 60.5t-66 15.5q-51 0 -74.5 -15.5t-32.5 -59.5q-10 -45 5.5 -63t62.5 -18z" />
    <glyph glyph-name="quotesingle" unicode="'" horiz-adv-x="219" 
d="M143 697h129l-71 -245h-99z" />
    <glyph glyph-name="parenleft" unicode="(" horiz-adv-x="327" 
d="M70 249q91 425 341 522l46 -113q-49 -24 -86 -64.5t-74 -126.5t-65 -218q-28 -131 -27.5 -217.5t20 -127t58.5 -64.5l-94 -113q-209 97 -119 522z" />
    <glyph glyph-name="parenright" unicode=")" horiz-adv-x="327" 
d="M261 249q-90 -424 -340 -522l-46 113q49 24 86 64t73.5 126.5t64.5 218.5q28 131 28 217.5t-20 127t-59 64.5l94 113q210 -97 119 -522z" />
    <glyph glyph-name="asterisk" unicode="*" horiz-adv-x="532" 
d="M77 459l26 124h127l-40 111l122 62l41 -111l86 111l96 -62l-89 -111h128l-26 -124h-128l40 -111l-121 -61l-39 109l-87 -109l-96 62l87 110h-127z" />
    <glyph glyph-name="plus" unicode="+" horiz-adv-x="563" 
d="M47 290l31 147h171l37 172h147l-37 -172h172l-31 -147h-172l-36 -171h-147l36 171h-171z" />
    <glyph glyph-name="comma" unicode="," horiz-adv-x="299" 
d="M230 105l-174 -264h-136l134 264h176z" />
    <glyph glyph-name="hyphen" unicode="-" horiz-adv-x="317" 
d="M21 211l32 147h263l-32 -147h-263z" />
    <glyph glyph-name="hyphen" unicode="&#xad;" horiz-adv-x="317" 
d="M21 211l32 147h263l-32 -147h-263z" />
    <glyph glyph-name="period" unicode="." horiz-adv-x="299" 
d="M133 164q54 0 70 -15.5t5 -66.5q-12 -55 -34.5 -72t-76.5 -17q-53 0 -68.5 17t-3.5 72q11 51 33 66.5t75 15.5z" />
    <glyph glyph-name="slash" unicode="/" horiz-adv-x="487" 
d="M456 697h164l-505 -697h-163z" />
    <glyph glyph-name="zero" unicode="0" horiz-adv-x="628" 
d="M415 714q55 0 94 -10t67.5 -34t41 -64.5t11 -102t-19.5 -145.5q-44 -207 -126.5 -289.5t-221.5 -82.5q-55 0 -94 11t-67 37t-40.5 69t-10 106.5t20.5 148.5q29 138 77.5 217.5t111.5 109t156 29.5zM292 134q48 0 73.5 16.5t43.5 61.5t40 146q21 97 21 139.5t-18.5 56.5
t-67.5 14q-29 0 -46.5 -4t-33.5 -15t-27.5 -36t-21.5 -60.5t-23 -94.5q-13 -61 -18.5 -98.5t-5 -64t11.5 -39t27 -17.5t45 -5z" />
    <glyph glyph-name="one" unicode="1" horiz-adv-x="628" 
d="M380 0h-159l111 523l-170 -63l-13 136l385 133z" />
    <glyph glyph-name="two" unicode="2" horiz-adv-x="628" 
d="M161 542l-5 137q107 35 244 35q139 0 191 -44t26 -165q-16 -76 -49 -124t-102.5 -98.5t-224.5 -141.5h301l-29 -141h-523l27 131l164 105.5l110 74.5t75 56t40 41t25 39t11 41q10 47 -9.5 64t-80.5 17q-100 0 -191 -27z" />
    <glyph glyph-name="three" unicode="3" horiz-adv-x="628" 
d="M198 293l29 138h105q50 0 72 14t31 55q8 39 -15 53t-106 14q-103 0 -171 -19v141q118 25 240 25q153 0 202.5 -40t28.5 -141q-17 -80 -56.5 -119.5t-128.5 -46.5q92 -4 118 -48t7 -132q-24 -111 -98 -156t-228 -45q-127 0 -232 24l60 143q59 -19 165 -19q90 0 121.5 16
t41.5 63q10 46 -7.5 63t-70.5 17h-108z" />
    <glyph glyph-name="four" unicode="4" horiz-adv-x="626" 
d="M338 166h-345l11 55q228 296 395 476h206l-85 -396h90l-28 -135h-90l-35 -166h-154zM366 301l53 247q-95 -99 -206 -247h153z" />
    <glyph glyph-name="five" unicode="5" horiz-adv-x="628" 
d="M187 697h451l-30 -141h-299l-26 -120q36 3 70 3q146 0 190.5 -48.5t18.5 -169.5q-28 -135 -98.5 -185t-225.5 -50q-139 0 -228 24l60 143q54 -19 161 -19q86 0 115 15t39 66q12 54 -9 70t-109 16q-89 0 -167 -10z" />
    <glyph glyph-name="six" unicode="6" horiz-adv-x="628" 
d="M662 688l-61 -142q-55 20 -164 20q-74 0 -113 -26.5t-60 -108.5q54 8 109 8q148 0 193.5 -49t19.5 -169q-28 -136 -96.5 -185.5t-220.5 -49.5q-153 0 -196 77.5t1 290.5q30 144 77.5 221t120.5 108t196 31q107 0 194 -26zM300 134q60 0 84 18t34 65q10 50 -6 67.5
t-69 17.5q-57 0 -111 -6q-10 -53 -10.5 -85t9.5 -49t25.5 -22.5t43.5 -5.5z" />
    <glyph glyph-name="seven" unicode="7" horiz-adv-x="628" 
d="M709 697l-10 -46q-85 -101 -222.5 -305.5t-212.5 -345.5h-183q90 156 199.5 318t183.5 238h-340l30 141h555z" />
    <glyph glyph-name="eight" unicode="8" horiz-adv-x="628" 
d="M289 117q58 0 83 18.5t36 68.5q11 52 -6 74t-74 22q-58 0 -84.5 -22t-37.5 -74q-11 -50 6.5 -68.5t76.5 -18.5zM355 425q49 0 74 18t35 62q9 44 -8 59.5t-68 15.5q-53 0 -77 -15.5t-33 -59.5q-10 -44 8.5 -62t68.5 -18zM262 -14h-1q-151 0 -201 45t-26 156
q19 88 62.5 132t139.5 48q-87 7 -109.5 47t-5.5 119q21 99 82 140t212 41q103 0 155.5 -19t64.5 -59t-2 -103q-17 -80 -56 -119.5t-129 -46.5q93 -4 118 -47.5t6 -132.5q-24 -111 -91.5 -156t-218.5 -45z" />
    <glyph glyph-name="nine" unicode="9" horiz-adv-x="628" 
d="M112 0q187 158 263 264q-26 -2 -63 -2q-148 0 -193.5 47t-19.5 167q28 136 97 187t221 51q162 0 206 -50t14 -190q-29 -136 -112 -249.5t-216 -224.5h-197zM362 398q46 0 83 4q10 23 17 57q15 69 0 88.5t-76 19.5t-85 -18.5t-34 -67.5q-11 -52 6 -67.5t89 -15.5z" />
    <glyph glyph-name="colon" unicode=":" horiz-adv-x="299" 
d="M133 164q54 0 70 -15.5t5 -66.5q-12 -55 -34.5 -72t-76.5 -17q-53 0 -68.5 17t-3.5 72q11 51 33 66.5t75 15.5zM209 520q55 0 70.5 -15t4.5 -66q-12 -55 -34.5 -72t-76.5 -17q-53 0 -68.5 17t-3.5 72q11 51 33 66t75 15z" />
    <glyph glyph-name="semicolon" unicode=";" horiz-adv-x="299" 
d="M230 105l-174 -264h-136l134 264h176zM209 520q55 0 70.5 -15t4.5 -66q-12 -55 -34.5 -72t-76.5 -17q-53 0 -68.5 17t-3.5 72q11 51 33 66t75 15z" />
    <glyph glyph-name="less" unicode="&#x3c;" horiz-adv-x="563" 
d="M585 570l-286 -205l198 -209l-103 -112l-304 282l16 74l422 281z" />
    <glyph glyph-name="equal" unicode="=" horiz-adv-x="563" 
d="M15 141l32 147h490l-32 -147h-490zM79 440l31 147h490l-31 -147h-490z" />
    <glyph glyph-name="greater" unicode="&#x3e;" horiz-adv-x="563" 
d="M54 156l285 205l-198 208l103 113l306 -282l-16 -74l-423 -281z" />
    <glyph glyph-name="question" unicode="?" horiz-adv-x="506" 
d="M230 163q55 0 71 -15t5 -66q-12 -55 -34.5 -71.5t-77.5 -16.5q-53 0 -68.5 16.5t-3.5 71.5q11 51 33 66t75 15zM318 223h-154q93 87 136.5 145t59.5 133q6 31 -15.5 48t-80.5 17q-96 0 -150 -19l-1 142q93 25 198 25q149 0 203.5 -49.5t31.5 -157.5q-16 -75 -73.5 -142
t-154.5 -142z" />
    <glyph glyph-name="at" unicode="@" horiz-adv-x="942" 
d="M490 508q-77 0 -122 -8t-81 -34t-56.5 -71.5t-37.5 -124.5q-14 -66 -15 -108.5t10 -73t42 -46t76 -22t117 -6.5q173 0 244 59t108 234q25 117 17 173h133q3 -72 -19 -178q-49 -232 -165 -322t-343 -90q-77 0 -133.5 7.5t-101.5 24.5t-72 45t-40.5 70t-12 98.5t17.5 130.5
q23 108 64 181t102 113t131 56t164 16q60 0 98 -6.5t66.5 -24t39 -49.5t9 -81t-16.5 -121q-14 -68 -30.5 -112t-37 -73.5t-52.5 -44t-69 -20t-96 -5.5q-120 0 -154.5 34.5t-12.5 134.5q21 100 66.5 133t151.5 33q60 0 110 -10q9 52 -10 70t-89 18zM492 326
q-43 0 -60.5 -10.5t-25.5 -47.5q-7 -37 5.5 -48.5t59.5 -11.5q41 0 59.5 14t27.5 55l10 44q-38 5 -76 5z" />
    <glyph glyph-name="A" unicode="A" horiz-adv-x="689" 
d="M493 0q-11 52 -27 154h-287l-77 -154h-172q73 145 187.5 346.5t207.5 350.5h249q34 -385 97 -697h-178zM423 557h-26q-61 -103 -147 -264h200q-20 156 -27 264z" />
    <glyph glyph-name="B" unicode="B" horiz-adv-x="723" 
d="M222 137h195q51 0 67 77q17 83 -37 83h-191zM312 560l-29 -132h190q24 0 38 15t22 51q7 36 0 51t-31 15h-190zM530 367q93 -4 117.5 -47.5t5.5 -131.5q-21 -101 -77 -144.5t-146 -43.5h-398l148 697h395q99 0 127.5 -40t10.5 -127q-16 -79 -54.5 -117.5t-128.5 -45.5z
" />
    <glyph glyph-name="C" unicode="C" horiz-adv-x="588" 
d="M74 355q23 106 57 176t85.5 110.5t113.5 56.5t150 16q114 0 197 -25l-61 -142q-51 19 -133 19q-58 0 -91 -6t-63.5 -28t-49 -64.5t-33.5 -114.5q-12 -58 -13.5 -96.5t6 -63t29.5 -37t49.5 -17t73.5 -4.5q79 0 141 19v-145q-94 -23 -206 -23q-87 0 -142.5 17.5t-90 60.5
t-37 113.5t17.5 177.5z" />
    <glyph glyph-name="D" unicode="D" horiz-adv-x="753" 
d="M180 697h291q69 0 117.5 -10t86 -33.5t52.5 -62.5t18 -98.5t-17 -140.5q-41 -197 -136 -274.5t-269 -77.5h-291zM556 350q15 71 16.5 111t-16.5 61.5t-47 27.5t-87 6h-111l-88 -414h111q57 0 89.5 7t59.5 30t42.5 62.5t30.5 108.5z" />
    <glyph glyph-name="E" unicode="E" horiz-adv-x="626" 
d="M180 697h520l-30 -141h-359l-27 -125h257l-29 -138h-257l-33 -152h359l-29 -141h-520z" />
    <glyph glyph-name="F" unicode="F" horiz-adv-x="590" 
d="M180 697h508l-30 -141h-347l-35 -162h257l-29 -138h-257l-54 -256h-161z" />
    <glyph glyph-name="G" unicode="G" horiz-adv-x="712" 
d="M458 140l31 146h-138l30 138h303l-86 -405q-47 -14 -126 -23.5t-146 -9.5q-87 0 -142.5 17.5t-90 60.5t-37 113.5t17.5 177.5q23 105 60.5 176t93.5 110.5t122.5 56t157.5 16.5q130 0 213 -25l-59 -142q-23 8 -77.5 14t-91.5 6q-62 0 -97 -6t-66.5 -28.5t-50 -64.5
t-33.5 -115q-12 -58 -13.5 -96.5t6 -63t29.5 -37t49.5 -17t73.5 -4.5q22 0 67 5z" />
    <glyph glyph-name="H" unicode="H" horiz-adv-x="748" 
d="M255 294l-62 -294h-161l148 697h161l-54 -254h262l54 254h161l-148 -697h-161l62 294h-262z" />
    <glyph glyph-name="I" unicode="I" horiz-adv-x="325" 
d="M180 697h161l-148 -697h-161z" />
    <glyph glyph-name="J" unicode="J" horiz-adv-x="472" 
d="M492 697l-108 -505q-16 -77 -60 -125t-94 -64.5t-111 -16.5q-93 0 -164 26l58 144q52 -20 118 -20q78 0 96 82l102 479h163z" />
    <glyph glyph-name="K" unicode="K" horiz-adv-x="684" 
d="M341 697l-148 -697h-161l148 697h161zM650 0h-194q-53 160 -104.5 257t-79.5 111q38 27 125 116t190 213h192q-106 -123 -188.5 -208.5t-115.5 -111.5q25 -23 74.5 -123t100.5 -254z" />
    <glyph glyph-name="L" unicode="L" horiz-adv-x="553" 
d="M180 697h161l-118 -555h314l-30 -142h-475z" />
    <glyph glyph-name="M" unicode="M" horiz-adv-x="939" 
d="M488 289q129 218 261 408h206l-148 -697h-156l100 471q-118 -177 -260 -413h-128q-60 349 -75 413l-100 -471h-156l148 697h216q48 -170 92 -408z" />
    <glyph glyph-name="N" unicode="N" horiz-adv-x="796" 
d="M812 697l-148 -697h-200q-72 216 -173 476l-101 -476h-158l148 697h210q90 -228 164 -459l98 459h160z" />
    <glyph glyph-name="O" unicode="O" horiz-adv-x="775" 
d="M489 714q58 0 101.5 -7t79 -23t57.5 -43t33 -66.5t9 -94t-17 -124.5q-23 -106 -59 -178.5t-89 -114.5t-117.5 -59.5t-151.5 -17.5t-143.5 17.5t-93.5 60t-40.5 113.5t16.5 179q22 105 58 175t89 110t116.5 56.5t151.5 16.5zM366 133q56 0 87.5 7t56.5 32t39.5 65.5
t30.5 116.5q13 60 16 95.5t-0.5 60.5t-22.5 36.5t-44 15.5t-71 4q-57 0 -87.5 -6t-56 -29.5t-39 -63t-29.5 -113.5q-13 -61 -16.5 -97.5t0 -63t21.5 -38.5t44 -17t71 -5z" />
    <glyph glyph-name="P" unicode="P" horiz-adv-x="684" 
d="M267 350h172q70 0 92 102q23 107 -46 107h-174zM193 0h-161l148 697h389q190 0 139 -245q-22 -101 -84.5 -168t-155.5 -67h-229z" />
    <glyph glyph-name="Q" unicode="Q" horiz-adv-x="782" 
d="M492 714q58 0 101.5 -7t79 -23t57.5 -43t33 -66.5t9 -94t-17 -124.5q-32 -152 -93.5 -230.5t-156.5 -99.5q61 -20 159 -218h-186q-69 169 -141 178q-87 0 -143.5 17.5t-93 60t-40 114t16.5 178.5q22 105 58 175t89 110t116.5 56.5t151.5 16.5zM369 133q56 0 87.5 7
t56.5 32t39.5 65.5t30.5 116.5q13 60 16 95.5t-0.5 60.5t-22.5 36.5t-44 15.5t-71 4q-57 0 -87.5 -6t-56 -29.5t-39 -63t-29.5 -113.5q-13 -61 -16.5 -97.5t0 -63t21.5 -38.5t44 -17t71 -5z" />
    <glyph glyph-name="R" unicode="R" horiz-adv-x="722" 
d="M312 560l-39 -179h179q28 0 49.5 21.5t30.5 65.5q19 92 -39 92h-181zM501 299q33 -13 69 -76t97 -223h-201q-50 140 -83 194.5t-66 54.5h-72l-52 -249h-161l148 697h389q191 0 147 -204q-39 -185 -215 -194z" />
    <glyph glyph-name="S" unicode="S" horiz-adv-x="622" 
d="M665 681l-62 -138q-77 23 -186 23q-76 0 -108.5 -15.5t-40.5 -52.5q-7 -34 16.5 -49t109.5 -24q117 -14 161.5 -63.5t23.5 -148.5q-27 -127 -109 -177t-248 -50q-135 0 -219 33l62 138q80 -23 186 -23q79 0 111 14.5t40 53.5q8 35 -17 52t-116 27q-112 12 -155 56
t-23 138q27 128 113.5 183.5t244.5 55.5q133 0 216 -33z" />
    <glyph glyph-name="T" unicode="T" horiz-adv-x="629" 
d="M346 0h-162l118 556h-233l30 141h627l-30 -141h-232z" />
    <glyph glyph-name="U" unicode="U" horiz-adv-x="745" 
d="M607 697h162l-107 -502q-17 -81 -65.5 -128.5t-114 -64t-163.5 -16.5q-149 0 -214.5 45t-40.5 164l107 502h163l-90 -421q-10 -47 -11 -78t25.5 -46.5t91.5 -15.5q49 0 79.5 8t47.5 29t24 41.5t16 61.5z" />
    <glyph glyph-name="V" unicode="V" horiz-adv-x="653" 
d="M66 697h178q21 -102 42.5 -257t29.5 -267q123 204 283 524h172q-72 -142 -187.5 -343.5t-211.5 -353.5h-206q-40 429 -100 697z" />
    <glyph glyph-name="W" unicode="W" horiz-adv-x="1011" 
d="M548 421q-75 -173 -202 -421h-205q-14 444 -49 697h175q30 -236 33 -488q168 328 234 488h146q24 -301 26 -488q124 232 232 488h169q-142 -316 -347 -697h-206q3 139 -6 421z" />
    <glyph glyph-name="X" unicode="X" horiz-adv-x="688" 
d="M298 697l108 -202q108 118 177 202h201l-307 -342l171 -355h-203l-100 212l-206 -212h-201l335 352q-116 225 -186 345h211z" />
    <glyph glyph-name="Y" unicode="Y" horiz-adv-x="653" 
d="M257 697q62 -115 126 -247q158 170 219 247h199q-176 -204 -375 -413l-60 -284h-161l60 283q-156 308 -222 414h214z" />
    <glyph glyph-name="Z" unicode="Z" horiz-adv-x="628" 
d="M-35 0l7 34l454 522h-323l30 141h579l-7 -32q-83 -105 -230.5 -274.5t-225.5 -249.5h342l-29 -141h-597z" />
    <glyph glyph-name="bracketleft" unicode="[" horiz-adv-x="378" 
d="M202 755h305l-28 -133h-146l-160 -750h146l-28 -132h-305z" />
    <glyph glyph-name="backslash" unicode="\" horiz-adv-x="487" 
d="M78 697h164l208 -697h-163z" />
    <glyph glyph-name="bracketright" unicode="]" horiz-adv-x="378" 
d="M91 755h305l-216 -1015h-304l28 132h145l160 750h-146z" />
    <glyph glyph-name="asciicircum" unicode="^" horiz-adv-x="561" 
d="M392 296l-51 231l-150 -231h-164l278 401h144l109 -401h-166z" />
    <glyph glyph-name="underscore" unicode="_" horiz-adv-x="507" 
d="M-62 -184l31 147h453l-32 -147h-452z" />
    <glyph glyph-name="grave" unicode="`" horiz-adv-x="475" 
d="M438 568h-129l-123 129h158z" />
    <glyph glyph-name="a" unicode="a" 
d="M363 174l45 216q-29 14 -75 14q-57 0 -82.5 -27t-45.5 -122q-10 -44 -10 -74q0 -35 17 -49t57 -14q34 0 61.5 16t32.5 40zM347 48q-26 -27 -66 -43t-82 -16q-83 0 -123.5 33.5t-40.5 115.5q0 44 14 114q32 153 104 213.5t206 60.5q136 0 225 -36l-70 -323q-5 -23 -5 -40
q0 -40 30 -73l-129 -70q-49 12 -63 64z" />
    <glyph glyph-name="b" unicode="b" 
d="M246 358l-51 -236q33 -13 76 -13q57 0 82.5 27t45.5 122q17 81 3.5 108.5t-67.5 27.5q-35 0 -60.5 -10t-28.5 -26zM20 22l149 700h154l-48 -225q62 29 133 29q105 0 141.5 -58t4.5 -207q-33 -154 -104 -214.5t-205 -60.5q-138 0 -225 36z" />
    <glyph glyph-name="c" unicode="c" horiz-adv-x="472" 
d="M409 141l5 -129q-69 -26 -166 -26q-124 0 -176.5 62t-20.5 211q31 147 109.5 207t201.5 60q99 0 157 -22l-60 -130q-52 21 -112 21q-32 0 -51 -4t-37.5 -18t-31 -42.5t-22.5 -74.5q-18 -85 2 -111.5t82 -26.5q61 0 120 23z" />
    <glyph glyph-name="d" unicode="d" 
d="M352 127l50 235q4 16 -16.5 27.5t-54.5 11.5q-54 0 -81 -30t-44 -111q-18 -93 -4.5 -119t70.5 -26q50 0 80 12zM633 722l-149 -700q-103 -36 -239 -36q-135 0 -181 59.5t-14 212.5q31 146 101 207t173 61q60 0 109 -22l46 218h154z" />
    <glyph glyph-name="e" unicode="e" horiz-adv-x="556" 
d="M436 131l-2 -117q-89 -28 -190 -28q-118 0 -171.5 62.5t-21.5 210.5q31 147 105 207t192 60q54 0 89.5 -7.5t61.5 -27.5t34.5 -55.5t3.5 -90.5t-26 -134h-313q-11 -58 11 -77.5t82 -19.5q77 0 145 17zM335 410q-48 0 -71.5 -18.5t-40.5 -67.5h178q9 52 -5 69t-61 17z" />
    <glyph glyph-name="f" unicode="f" horiz-adv-x="387" 
d="M299 528l-4 -17h158l-28 -132h-158l-80 -379h-153l80 379h-83l28 132h83l6 27q15 73 53 116.5t82 57.5t103 14q83 0 145 -24l-59 -119q-39 13 -94 13q-34 0 -53 -16t-26 -52z" />
    <glyph glyph-name="g" unicode="g" 
d="M358 154l50 236q-29 14 -75 14q-57 0 -82.5 -27t-45.5 -122q-17 -81 -3.5 -109t67.5 -28q35 0 60.5 10t28.5 26zM329 18q-64 -29 -130 -29q-52 0 -85.5 12t-55.5 42t-22.5 80.5t13.5 128.5q32 153 104 213.5t206 60.5q136 0 225 -36l-96 -449q-16 -74 -47 -124t-77 -75.5
t-95.5 -35.5t-115.5 -10q-104 0 -180 30l52 120q82 -23 152 -23q66 0 103.5 21t48.5 74z" />
    <glyph glyph-name="h" unicode="h" horiz-adv-x="597" 
d="M417 526q35 0 60 -5t45.5 -20t29.5 -40t9 -66t-12 -98l-63 -297h-153l61 291q12 53 -4.5 76t-61.5 23q-32 0 -56 -8.5t-27 -23.5l-76 -358h-153l153 722h153l-48 -228q80 32 143 32z" />
    <glyph glyph-name="i" unicode="i" horiz-adv-x="284" 
d="M278 512l-108 -512h-154l108 512h154zM249 734q51 0 65.5 -13.5t5.5 -59.5q-11 -50 -32 -65.5t-72 -15.5t-66 15.5t-4 65.5q9 46 30 59.5t73 13.5z" />
    <glyph glyph-name="j" unicode="j" horiz-adv-x="284" 
d="M248 734q51 0 66 -13.5t6 -59.5q-11 -50 -32.5 -65.5t-72.5 -15.5t-65.5 15.5t-3.5 65.5q9 46 30 59.5t72 13.5zM278 512l-109 -514q-24 -112 -87.5 -156.5t-186.5 -44.5l26 124q79 0 93 73l110 518h154z" />
    <glyph glyph-name="k" unicode="k" horiz-adv-x="588" 
d="M539 0h-178q-108 255 -134 271l-57 -271h-154l153 722h154l-96 -451q48 38 228 241h177q-160 -185 -225 -232q18 -14 54 -88t78 -192z" />
    <glyph glyph-name="l" unicode="l" horiz-adv-x="292" 
d="M323 722l-122 -573q-15 -72 8 -124l-149 -50q-36 60 -14 170l123 577h154z" />
    <glyph glyph-name="m" unicode="m" horiz-adv-x="891" 
d="M250 380l-80 -380h-154l102 480q136 46 263 46q84 0 121 -33q101 33 184 33q109 0 146 -54t8 -189l-60 -283h-153l57 271q16 70 4 94t-64 24q-38 0 -79 -9q2 -42 -10 -97l-60 -283h-153l57 271q16 70 4 94t-64 24q-36 0 -69 -9z" />
    <glyph glyph-name="n" unicode="n" horiz-adv-x="597" 
d="M250 380l-80 -380h-154l102 480q136 46 269 46q110 0 149 -54.5t11 -188.5l-60 -283h-154l57 271q16 70 3 94t-68 24q-35 0 -75 -9z" />
    <glyph glyph-name="o" unicode="o" horiz-adv-x="590" 
d="M241 -14q-129 0 -176 60.5t-14 212.5q32 151 103.5 209t200.5 58q131 0 178.5 -58t15.5 -209q-33 -152 -105.5 -212.5t-202.5 -60.5zM330 406q-57 0 -81 -26.5t-44 -123.5q-19 -97 -7 -123.5t68 -26.5t81 28t45 122q19 100 7 125t-69 25z" />
    <glyph glyph-name="p" unicode="p" 
d="M252 386l-50 -235q-4 -17 16 -28t54 -11q55 0 82 29.5t44 110.5q18 93 4.5 119.5t-70.5 26.5q-47 0 -80 -12zM-25 -192l145 682q101 36 239 36q135 0 180.5 -58.5t13.5 -211.5q-31 -147 -101 -208.5t-173 -61.5q-58 0 -108 23l-42 -201h-154z" />
    <glyph glyph-name="q" unicode="q" 
d="M358 154l50 236q-29 14 -75 14q-57 0 -82.5 -27t-45.5 -122q-17 -81 -3.5 -109t67.5 -28q35 0 60.5 10t28.5 26zM584 490l-145 -682h-154l44 209q-64 -31 -134 -31q-105 0 -141.5 58.5t-4.5 207.5q32 153 104 213.5t206 60.5q136 0 225 -36z" />
    <glyph glyph-name="r" unicode="r" horiz-adv-x="397" 
d="M16 0l108 512h154l-8 -40q41 54 135 54q24 0 51 -3l-31 -143q-24 8 -70 8q-44 0 -76.5 -14t-37.5 -38l-71 -336h-154z" />
    <glyph glyph-name="s" unicode="s" horiz-adv-x="484" 
d="M494 498l-54 -114q-76 22 -146 22q-40 0 -58 -8t-24 -36q-4 -20 11.5 -28.5t72.5 -15.5q90 -12 122.5 -45.5t16.5 -110.5q-21 -97 -90 -136.5t-176 -39.5q-105 0 -177 28l55 116q69 -21 141 -21q49 0 70 8.5t27 36.5q5 22 -13 31.5t-79 15.5q-84 8 -116 40t-16 110
q21 97 89 136t175 39q97 0 169 -28z" />
    <glyph glyph-name="t" unicode="t" horiz-adv-x="427" 
d="M435 380h-160l-40 -191q-8 -40 3 -56.5t50 -16.5q40 0 85 14v-118q-67 -26 -159 -26q-91 0 -125.5 39t-11.5 148l44 207h-83l28 132h83l16 76l168 62l-30 -138h160z" />
    <glyph glyph-name="u" unicode="u" horiz-adv-x="597" 
d="M357 132l80 380h152l-102 -481q-140 -46 -269 -46q-110 0 -148.5 54.5t-9.5 188.5l60 284h152l-57 -272q-16 -69 -3 -93.5t68 -24.5q29 0 77 10z" />
    <glyph glyph-name="v" unicode="v" horiz-adv-x="512" 
d="M239 156q111 196 184 355h153q-132 -259 -288 -511h-183q-20 280 -58 511h155q28 -166 37 -355z" />
    <glyph glyph-name="w" unicode="w" horiz-adv-x="838" 
d="M431 297q-54 -124 -146 -297h-184q-16 258 -55 512h157q25 -160 33 -352q93 170 174 352h139q17 -154 21 -352q123 225 179 352h154q-145 -288 -284 -512h-184q2 155 -4 297z" />
    <glyph glyph-name="x" unicode="x" horiz-adv-x="520" 
d="M479 0h-169q-17 46 -63 140q-94 -99 -136 -140h-167q66 62 249 255q-82 165 -139 256h176q20 -33 71 -135q34 36 118 135h167q-75 -88 -227 -252q74 -152 120 -259z" />
    <glyph glyph-name="y" unicode="y" horiz-adv-x="512" 
d="M109 -25q-15 250 -62 536h155q26 -155 36 -356q121 214 185 356h153q-137 -273 -310 -542q-78 -121 -107 -161h-169q44 56 119 167z" />
    <glyph glyph-name="z" unicode="z" horiz-adv-x="498" 
d="M85 512h458l-5 -25q-148 -182 -313 -355h226l-28 -132h-463l5 25l177 192t138 163h-223z" />
    <glyph glyph-name="braceleft" unicode="{" horiz-adv-x="378" 
d="M485 659q-57 -20 -88.5 -61.5t-53.5 -144.5q-22 -101 -58.5 -147.5t-73.5 -56.5q19 -6 32.5 -24.5t21.5 -64t-10 -119.5q-17 -69 -12.5 -111.5t19 -61t48.5 -32.5l-97 -111q-160 58 -117 259q42 200 -68 200l27 128q111 0 154 201q43 202 227 260z" />
    <glyph glyph-name="bar" unicode="|" horiz-adv-x="401" 
d="M230 755h161l-215 -1011h-161z" />
    <glyph glyph-name="braceright" unicode="}" horiz-adv-x="378" 
d="M355 312l-27 -127q-111 0 -154 -200q-43 -202 -226 -260l-48 114q56 21 87 62.5t53 142.5q21 101 58 148t73 57q-13 4 -24 15t-21.5 35t-9.5 61.5t11 95.5q20 110 8 147t-61 58l96 112q160 -58 117 -260q-43 -201 68 -201z" />
    <glyph glyph-name="asciitilde" unicode="~" horiz-adv-x="563" 
d="M492 455l80 -77q-31 -52 -81 -86.5t-109 -34.5q-44 0 -101 41.5t-87 41.5q-39 0 -74 -57l-69 85q81 102 166 102q32 0 62.5 -12.5t49.5 -28t42 -28t42 -12.5q23 0 40 14t39 52z" />
    <glyph glyph-name="nbspace" unicode="&#xa0;" horiz-adv-x="257" 
 />
    <glyph glyph-name="exclamdown" unicode="&#xa1;" horiz-adv-x="333" 
d="M171 -177h-183l134 461h111zM191 356q-55 0 -70.5 15t-5.5 66q12 55 35 72t77 17q53 0 68.5 -17t3.5 -72q-10 -51 -32.5 -66t-75.5 -15z" />
    <glyph glyph-name="cent" unicode="&#xa2;" horiz-adv-x="455" 
d="M344 748h117l-22 -106q54 -5 91 -19l-56 -116q-22 10 -61 12l-61 -287q38 2 67 14l6 -115q-37 -14 -99 -22l-26 -119h-117l26 119q-90 14 -126 77t-8 192q27 128 90 189.5t157 73.5zM216 375q-22 -101 23 -124l53 250q-54 -23 -76 -126z" />
    <glyph glyph-name="sterling" unicode="&#xa3;" horiz-adv-x="615" 
d="M39 280l27 127h56l14 64q26 124 107.5 183.5t234.5 59.5q127 0 216 -33l-62 -138q-77 23 -186 23q-75 0 -106.5 -19t-40.5 -64l-16 -76h199l-27 -127h-199l-30 -139h328l-29 -141h-489l59 280h-56z" />
    <glyph glyph-name="currency" unicode="&#xa4;" horiz-adv-x="688" 
d="M316 83q-52 0 -85 11l-92 -94l-113 90l94 98q-18 58 5 168q22 100 61 159l-52 94l162 88l46 -84q41 11 89 11q43 0 83 -10l72 83l124 -87l-81 -89q17 -58 -5 -165q-22 -105 -65 -167l48 -99l-162 -90l-43 93q-37 -10 -86 -10zM404 496q-31 0 -48 -3.5t-34 -17.5t-28 -43
t-21 -79q-10 -48 -11.5 -76.5t9 -43t26.5 -18.5t46 -4q59 0 85.5 25t46.5 117q10 50 11.5 79t-9.5 43t-26.5 17.5t-46.5 3.5z" />
    <glyph glyph-name="yen" unicode="&#xa5;" horiz-adv-x="653" 
d="M95 260l23 109h103q-116 224 -178 328h214q62 -115 126 -247q158 170 219 247h199l-296 -328h94l-23 -109h-155l-15 -68h155l-23 -109h-155l-17 -83h-161l17 83h-165l23 109h165l15 68h-165z" />
    <glyph glyph-name="brokenbar" unicode="&#xa6;" horiz-adv-x="401" 
d="M230 755h161l-78 -367h-161zM93 111h161l-78 -367h-161z" />
    <glyph glyph-name="section" unicode="&#xa7;" horiz-adv-x="622" 
d="M654 682l-58 -129q-66 22 -173 22q-72 0 -103 -15t-38 -49q-7 -32 15 -45.5t104 -22.5q113 -13 161.5 -59.5t29.5 -136.5q-14 -66 -74 -119q24 -41 10 -106q-25 -117 -112.5 -171t-236.5 -54q-124 0 -201 31l59 130q69 -23 173 -23q71 0 102 15.5t39 49.5q6 32 -16 45.5
t-103 22.5q-113 13 -162 59.5t-29 136.5q15 70 71 123q-22 39 -9 102q48 225 350 225q124 0 201 -32zM232 316q-22 -13 -28 -42q-7 -34 19 -48t125 -23q33 -3 52 -10q24 19 29 44q7 33 -19.5 47.5t-124.5 23.5q-30 1 -53 8z" />
    <glyph glyph-name="dieresis" unicode="&#xa8;" horiz-adv-x="490" 
d="M221 694q41 0 52.5 -12t2.5 -52q-9 -44 -26 -57.5t-58 -13.5q-40 0 -51 13.5t-2 57.5q9 40 25.5 52t56.5 12zM447 694q40 0 51.5 -12t2.5 -52q-9 -44 -26 -57.5t-57 -13.5q-41 0 -52 13.5t-2 57.5q9 40 25.5 52t57.5 12z" />
    <glyph glyph-name="copyright" unicode="&#xa9;" horiz-adv-x="819" 
d="M511 714q60 0 105 -7t83 -23t61.5 -43t36.5 -66.5t11.5 -94t-16.5 -124.5q-44 -207 -148 -288.5t-287 -81.5q-60 0 -106 7.5t-83.5 24.5t-60.5 45.5t-35.5 69t-11 96.5t16.5 127q43 203 146 280.5t288 77.5zM378 94q70 0 111.5 9t77 37t57 79t39.5 137q14 67 15.5 111
t-7 72t-35 41.5t-59.5 18.5t-90 5q-56 0 -91.5 -5t-67.5 -18.5t-52.5 -41.5t-38 -72t-31.5 -111q-15 -69 -17 -114.5t6.5 -75.5t34 -45.5t59.5 -21t89 -5.5zM545 266l4 -102q-58 -21 -131 -21q-112 0 -149.5 43t-10.5 167q26 123 81.5 165t167.5 42q75 0 122 -19l-47 -103
q-36 13 -89 13q-50 0 -71 -18t-35 -82q-13 -60 1 -79.5t63 -19.5q55 0 94 14z" />
    <glyph glyph-name="ordfeminine" unicode="&#xaa;" horiz-adv-x="450" 
d="M462 578l-46 -219q-82 -28 -182 -28q-90 0 -117 24.5t-12 95.5t54.5 94.5t111.5 23.5q39 0 79 -8q8 38 -4 50t-63 12q-63 0 -114 -16l1 88q82 19 158 19q84 0 117 -30.5t17 -105.5zM320 421l15 69q-17 5 -55 5q-29 0 -42 -7.5t-19 -32.5q-5 -26 3 -35t38 -9q32 0 60 10z
" />
    <glyph glyph-name="guillemotleft" unicode="&#xab;" horiz-adv-x="705" 
d="M441 516l-197 -195l113 -199l-105 -90l-212 286l332 286zM741 516l-198 -195l114 -199l-106 -90l-211 286l332 286z" />
    <glyph glyph-name="logicalnot" unicode="&#xac;" horiz-adv-x="531" 
d="M452 0h-160l62 294h-315l31 147h475z" />
    <glyph glyph-name="registered" unicode="&#xae;" horiz-adv-x="573" 
d="M475 505q-9 -44 -30 -61t-57 -17q44 -22 37 -102h-94q4 28 -3 49t-17 21h-14l-14 -70h-89l57 269h170q36 0 49 -25t5 -64zM382 500q5 23 -12 23h-45l-10 -47h45q17 0 22 24zM581 459q-31 -144 -101 -200.5t-201 -56.5q-132 0 -178 56.5t-15 200.5q31 145 100.5 199.5
t201.5 54.5t178 -54.5t15 -199.5zM488 459q23 107 -2 138.5t-116 31.5q-90 0 -128 -31.5t-61 -138.5q-21 -102 4 -136t113 -34q89 0 129 34t61 136z" />
    <glyph glyph-name="macron" unicode="&#xaf;" horiz-adv-x="514" 
d="M187 572l23 106h292l-23 -106h-292z" />
    <glyph glyph-name="macron" unicode="&#x2c9;" horiz-adv-x="514" 
d="M187 572l23 106h292l-23 -106h-292z" />
    <glyph glyph-name="degree" unicode="&#xb0;" horiz-adv-x="448" 
d="M324 714q110 0 143.5 -47.5t5.5 -178.5q-28 -134 -83 -185t-164 -51q-108 0 -141 51t-5 185q28 131 81.5 178.5t162.5 47.5zM249 359q39 0 55.5 23t34.5 105q16 81 9 101t-46 20t-55.5 -21.5t-33.5 -99.5q-17 -83 -10 -105.5t46 -22.5z" />
    <glyph glyph-name="plusminus" unicode="&#xb1;" horiz-adv-x="563" 
d="M64 371l32 147h171l36 171h147l-36 -171h172l-32 -147h-172l-36 -171h-147l36 171h-171zM-13 8l31 147h490l-31 -147h-490z" />
    <glyph glyph-name="twosuperior" unicode="&#xb2;" horiz-adv-x="454" 
d="M142 582l4 110q65 21 157 21q96 0 135.5 -32t24.5 -107q-24 -106 -108 -134l-34 -10.5l-29.5 -9t-23 -7.5t-20.5 -8.5l-14 -8t-11.5 -10t-6.5 -11.5h205l-23 -107h-356q26 95 67 143.5t116 79.5q7 3 25.5 10t25 10t19.5 9.5t18.5 11.5t11 12.5t7.5 16.5q5 22 -9 30t-55 8
q-64 0 -126 -17z" />
    <glyph glyph-name="threesuperior" unicode="&#xb3;" horiz-adv-x="447" 
d="M178 442l21 97h61q31 0 43 8t17 29q4 20 -9.5 26.5t-62.5 6.5q-64 0 -106 -13l3 101q66 16 150 16q100 0 140.5 -26t27.5 -88q-11 -50 -38.5 -75.5t-84.5 -29.5q59 -3 78.5 -30.5t7.5 -82.5q-14 -68 -70.5 -97t-157.5 -29q-81 0 -146 15l41 103q37 -13 103 -13q52 0 70 8
t23 31q6 26 -4.5 34.5t-43.5 8.5h-63z" />
    <glyph glyph-name="acute" unicode="&#xb4;" horiz-adv-x="475" 
d="M288 568h-130l151 129h157z" />
    <glyph glyph-name="mu" unicode="&#xb5;" horiz-adv-x="597" 
d="M109 -192h-148l97 414l61 289h153l-57 -271q-16 -60 -3 -89t67 -29q37 0 77 10l80 379h153l-102 -480q-133 -45 -268 -45q-50 0 -74 10z" />
    <glyph glyph-name="mu" unicode="&#x3bc;" horiz-adv-x="597" 
d="M109 -192h-148l97 414l61 289h153l-57 -271q-16 -60 -3 -89t67 -29q37 0 77 10l80 379h153l-102 -480q-133 -45 -268 -45q-50 0 -74 10z" />
    <glyph glyph-name="paragraph" unicode="&#xb6;" horiz-adv-x="684" 
d="M552 0h-139l46 217h-80l-46 -217h-139l46 217h-32q-93 0 -127.5 67t-12.5 168q51 245 243 245h389z" />
    <glyph glyph-name="periodcentered" unicode="&#xb7;" horiz-adv-x="314" 
d="M189 391q59 0 76 -16t5 -71q-12 -59 -36.5 -77.5t-83.5 -18.5q-57 0 -73.5 18.5t-4.5 77.5q12 54 35.5 70.5t81.5 16.5z" />
    <glyph glyph-name="periodcentered" unicode="&#x2219;" horiz-adv-x="314" 
d="M189 391q59 0 76 -16t5 -71q-12 -59 -36.5 -77.5t-83.5 -18.5q-57 0 -73.5 18.5t-4.5 77.5q12 54 35.5 70.5t81.5 16.5z" />
    <glyph glyph-name="cedilla" unicode="&#xb8;" horiz-adv-x="635" 
d="M281 0h57l-9 -39q54 0 76 -18.5t12 -60.5q-10 -48 -45.5 -66.5t-115.5 -18.5q-59 0 -91 13l37 60q18 -9 60 -9q34 0 39 23q3 16 -14 21t-62 1z" />
    <glyph glyph-name="onesuperior" unicode="&#xb9;" horiz-adv-x="397" 
d="M292 270h-125l60 284l-103 -39l-12 105l276 103z" />
    <glyph glyph-name="ordmasculine" unicode="&#xba;" horiz-adv-x="470" 
d="M251 316q-90 0 -125.5 46t-13.5 154q23 107 78 152.5t145 45.5q92 0 128 -45t13 -153q-22 -108 -77.5 -154t-147.5 -46zM316 622q-39 0 -56.5 -20t-32.5 -88q-13 -66 -4 -86.5t47 -20.5q39 0 57.5 21t32.5 86q13 70 4.5 89t-48.5 19z" />
    <glyph glyph-name="guillemotright" unicode="&#xbb;" horiz-adv-x="705" 
d="M298 121l198 195l-114 199l106 90l211 -287l-331 -285zM-1 121l198 195l-114 199l105 90l211 -287l-331 -285z" />
    <glyph glyph-name="onequarter" unicode="&#xbc;" horiz-adv-x="901" 
d="M651 697h148l-597 -697h-148zM651 91h-229l12 56q116 146 254 292h160l-51 -239h57l-23 -109h-57l-19 -91h-123zM674 200l30 139q-72 -73 -123 -139h93zM270 270h-124l60 284l-104 -39l-11 105l275 103z" />
    <glyph glyph-name="onehalf" unicode="&#xbd;" horiz-adv-x="901" 
d="M570 314l4 110q63 21 156 21q96 0 136 -32t25 -107q-24 -106 -108 -134l-33.5 -10.5l-30 -9.5l-23.5 -7.5t-20.5 -8t-14 -8t-11.5 -10t-7 -11.5h206l-22 -107h-356q26 95 66 143.5t116 79.5q8 3 25 10t25 10t20 9.5t18 11.5t11.5 12.5t7.5 16.5q5 22 -9 30t-55 8
q-64 0 -126 -17zM649 697h148l-597 -697h-148zM268 270h-124l60 284l-104 -39l-11 105l275 103z" />
    <glyph glyph-name="threequarters" unicode="&#xbe;" horiz-adv-x="901" 
d="M717 697h148l-597 -697h-147zM673 91h-229l12 56q116 146 254 292h160l-51 -239h56l-23 -109h-56l-19 -91h-123zM696 200l30 139q-66 -66 -123 -139h93zM149 442l21 97h61q31 0 43 8t17 29q4 20 -9 26.5t-62 6.5q-63 0 -107 -13l4 101q66 16 150 16q99 0 139.5 -26
t27.5 -88q-11 -50 -38 -75.5t-84 -29.5q59 -3 78 -30.5t7 -82.5q-14 -68 -70.5 -97t-156.5 -29q-82 0 -147 15l41 103q37 -13 103 -13q52 0 70.5 8t23.5 31q6 26 -4.5 34.5t-44.5 8.5h-63z" />
    <glyph glyph-name="questiondown" unicode="&#xbf;" horiz-adv-x="506" 
d="M287 356q-55 0 -70.5 15t-5.5 66q12 55 34.5 71.5t77.5 16.5q53 0 68.5 -16.5t3.5 -71.5q-10 -51 -32.5 -66t-75.5 -15zM199 296h154q-93 -87 -136.5 -145t-59.5 -133q-6 -31 16 -48t81 -17q95 0 150 19v-142q-93 -25 -198 -25q-149 0 -203 49.5t-32 157.5
q16 75 73.5 142t154.5 142z" />
    <glyph glyph-name="Agrave" unicode="&#xc0;" horiz-adv-x="689" 
d="M493 0q-11 52 -27 154h-287l-77 -154h-172q73 145 187.5 346.5t207.5 350.5h249q34 -385 97 -697h-178zM423 557h-26q-61 -103 -147 -264h200q-20 156 -27 264zM558 747h-132l-129 129h160z" />
    <glyph glyph-name="Aacute" unicode="&#xc1;" horiz-adv-x="689" 
d="M493 0q-11 52 -27 154h-287l-77 -154h-172q73 145 187.5 346.5t207.5 350.5h249q34 -385 97 -697h-178zM423 557h-26q-61 -103 -147 -264h200q-20 156 -27 264zM474 747h-130l155 129h159z" />
    <glyph glyph-name="Acircumflex" unicode="&#xc2;" horiz-adv-x="689" 
d="M493 0q-11 52 -27 154h-287l-77 -154h-172q73 145 187.5 346.5t207.5 350.5h249q34 -385 97 -697h-178zM423 557h-26q-61 -103 -147 -264h200q-20 156 -27 264zM519 747l-51 72l-80 -72h-130l150 129h147l98 -129h-134z" />
    <glyph glyph-name="Atilde" unicode="&#xc3;" horiz-adv-x="689" 
d="M493 0q-11 52 -27 154h-287l-77 -154h-172q73 145 187.5 346.5t207.5 350.5h249q34 -385 97 -697h-178zM423 557h-26q-61 -103 -147 -264h200q-20 156 -27 264zM597 885l59 -58q-23 -41 -61.5 -67.5t-83.5 -26.5q-33 0 -72 23.5t-61 23.5q-28 0 -57 -45l-52 64
q62 79 127 79q40 0 80 -22.5t60 -22.5q17 0 30 11t31 41z" />
    <glyph glyph-name="Adieresis" unicode="&#xc4;" horiz-adv-x="689" 
d="M493 0q-11 52 -27 154h-287l-77 -154h-172q73 145 187.5 346.5t207.5 350.5h249q34 -385 97 -697h-178zM423 557h-26q-61 -103 -147 -264h200q-20 156 -27 264zM366 872q41 0 52.5 -11.5t2.5 -51.5q-9 -44 -26 -57.5t-58 -13.5q-40 0 -51 13.5t-2 57.5q9 40 25 51.5
t57 11.5zM592 872q40 0 51.5 -11.5t2.5 -51.5q-9 -44 -26 -57.5t-57 -13.5q-41 0 -52 13.5t-2 57.5q9 40 25.5 51.5t57.5 11.5z" />
    <glyph glyph-name="Aring" unicode="&#xc5;" horiz-adv-x="689" 
d="M493 0q-11 52 -27 154h-287l-77 -154h-172q73 145 187.5 346.5t207.5 350.5h249q34 -385 97 -697h-178zM423 557h-26q-61 -103 -147 -264h200q-20 156 -27 264zM486 899q65 0 89 -22t12 -78t-45.5 -78t-98.5 -22q-66 0 -91 22t-13 78t45.5 78t101.5 22zM472 837
q-28 0 -39 -8.5t-16 -30.5t3 -30.5t36 -8.5q27 0 38 9t16 30q5 22 -2.5 30.5t-35.5 8.5z" />
    <glyph glyph-name="AE" unicode="&#xc6;" horiz-adv-x="972" 
d="M425 697h621l-30 -141h-358l-27 -125h209l-29 -138h-209l-33 -152h358l-29 -141h-519l32 154h-295l-129 -154h-194l309 349.5zM497 557h-25l-236 -264h205z" />
    <glyph glyph-name="Ccedilla" unicode="&#xc7;" horiz-adv-x="588" 
d="M74 355q23 106 57 176t85.5 110.5t113.5 56.5t150 16q114 0 197 -25l-61 -142q-51 19 -133 19q-58 0 -91 -6t-63.5 -28t-49 -64.5t-33.5 -114.5q-12 -58 -13.5 -96.5t6 -63t29.5 -37t49.5 -17t73.5 -4.5q79 0 141 19v-145q-89 -21 -194 -23l-6 -25q54 0 76 -18.5
t12 -60.5q-10 -48 -45.5 -66.5t-115.5 -18.5q-59 0 -91 13l37 60q18 -9 60 -9q34 0 39 23q3 16 -14 21t-62 1l48 82q-144 9 -193.5 92t-8.5 275z" />
    <glyph glyph-name="Egrave" unicode="&#xc8;" horiz-adv-x="626" 
d="M180 697h520l-30 -141h-359l-27 -125h257l-29 -138h-257l-33 -152h359l-29 -141h-520zM590 747h-132l-129 129h160z" />
    <glyph glyph-name="Eacute" unicode="&#xc9;" horiz-adv-x="626" 
d="M180 697h520l-30 -141h-359l-27 -125h257l-29 -138h-257l-33 -152h359l-29 -141h-520zM483 747h-130l155 129h159z" />
    <glyph glyph-name="Ecircumflex" unicode="&#xca;" horiz-adv-x="626" 
d="M180 697h520l-30 -141h-359l-27 -125h257l-29 -138h-257l-33 -152h359l-29 -141h-520zM522 747l-51 72l-80 -72h-130l150 129h147l98 -129h-134z" />
    <glyph glyph-name="Edieresis" unicode="&#xcb;" horiz-adv-x="626" 
d="M180 697h520l-30 -141h-359l-27 -125h257l-29 -138h-257l-33 -152h359l-29 -141h-520zM369 872q41 0 52.5 -11.5t2.5 -51.5q-9 -44 -26 -57.5t-58 -13.5q-40 0 -51 13.5t-2 57.5q9 40 25 51.5t57 11.5zM595 872q40 0 51.5 -11.5t2.5 -51.5q-9 -44 -26 -57.5t-57 -13.5
q-41 0 -52 13.5t-2 57.5q9 40 25.5 51.5t57.5 11.5z" />
    <glyph glyph-name="Igrave" unicode="&#xcc;" horiz-adv-x="325" 
d="M180 697h161l-148 -697h-161zM368 747h-132l-129 129h160z" />
    <glyph glyph-name="Iacute" unicode="&#xcd;" horiz-adv-x="325" 
d="M180 697h161l-148 -697h-161zM307 747h-130l155 129h159z" />
    <glyph glyph-name="Icircumflex" unicode="&#xce;" horiz-adv-x="325" 
d="M180 697h161l-148 -697h-161zM335 747l-51 72l-80 -72h-130l150 129h147l98 -129h-134z" />
    <glyph glyph-name="Idieresis" unicode="&#xcf;" horiz-adv-x="325" 
d="M180 697h161l-148 -697h-161zM186 872q41 0 52.5 -11.5t2.5 -51.5q-9 -44 -26 -57.5t-58 -13.5q-40 0 -51 13.5t-2 57.5q9 40 25 51.5t57 11.5zM412 872q40 0 51.5 -11.5t2.5 -51.5q-9 -44 -26 -57.5t-57 -13.5q-41 0 -52 13.5t-2 57.5q9 40 25.5 51.5t57.5 11.5z" />
    <glyph glyph-name="Eth" unicode="&#xd0;" horiz-adv-x="753" 
d="M43 300l24 110h52l61 287h291q69 0 117.5 -10t86 -33.5t52.5 -62.5t18 -98.5t-17 -140.5q-41 -197 -136 -274.5t-269 -77.5h-291l63 300h-52zM556 350q10 48 13.5 80t-0.5 55.5t-12.5 36.5t-29.5 21t-44 10t-62 2h-111l-30 -145h158l-24 -110h-158l-33 -158h111
q57 0 89.5 7t59.5 30t42.5 62.5t30.5 108.5z" />
    <glyph glyph-name="Ntilde" unicode="&#xd1;" horiz-adv-x="796" 
d="M812 697l-148 -697h-200q-72 216 -173 476l-101 -476h-158l148 697h210q90 -228 164 -459l98 459h160zM655 885l59 -58q-23 -41 -61.5 -67.5t-83.5 -26.5q-33 0 -72 23.5t-61 23.5q-28 0 -57 -45l-52 64q62 79 127 79q40 0 80 -22.5t60 -22.5q17 0 30 11t31 41z" />
    <glyph glyph-name="Ograve" unicode="&#xd2;" horiz-adv-x="775" 
d="M489 714q58 0 101.5 -7t79 -23t57.5 -43t33 -66.5t9 -94t-17 -124.5q-23 -106 -59 -178.5t-89 -114.5t-117.5 -59.5t-151.5 -17.5t-143.5 17.5t-93.5 60t-40.5 113.5t16.5 179q22 105 58 175t89 110t116.5 56.5t151.5 16.5zM366 133q56 0 87.5 7t56.5 32t39.5 65.5
t30.5 116.5q13 60 16 95.5t-0.5 60.5t-22.5 36.5t-44 15.5t-71 4q-57 0 -87.5 -6t-56 -29.5t-39 -63t-29.5 -113.5q-13 -61 -16.5 -97.5t0 -63t21.5 -38.5t44 -17t71 -5zM602 747h-132l-129 129h160z" />
    <glyph glyph-name="Oacute" unicode="&#xd3;" horiz-adv-x="775" 
d="M489 714q58 0 101.5 -7t79 -23t57.5 -43t33 -66.5t9 -94t-17 -124.5q-23 -106 -59 -178.5t-89 -114.5t-117.5 -59.5t-151.5 -17.5t-143.5 17.5t-93.5 60t-40.5 113.5t16.5 179q22 105 58 175t89 110t116.5 56.5t151.5 16.5zM366 133q56 0 87.5 7t56.5 32t39.5 65.5
t30.5 116.5q13 60 16 95.5t-0.5 60.5t-22.5 36.5t-44 15.5t-71 4q-57 0 -87.5 -6t-56 -29.5t-39 -63t-29.5 -113.5q-13 -61 -16.5 -97.5t0 -63t21.5 -38.5t44 -17t71 -5zM483 747h-130l155 129h159z" />
    <glyph glyph-name="Ocircumflex" unicode="&#xd4;" horiz-adv-x="775" 
d="M489 714q58 0 101.5 -7t79 -23t57.5 -43t33 -66.5t9 -94t-17 -124.5q-23 -106 -59 -178.5t-89 -114.5t-117.5 -59.5t-151.5 -17.5t-143.5 17.5t-93.5 60t-40.5 113.5t16.5 179q22 105 58 175t89 110t116.5 56.5t151.5 16.5zM366 133q56 0 87.5 7t56.5 32t39.5 65.5
t30.5 116.5q13 60 16 95.5t-0.5 60.5t-22.5 36.5t-44 15.5t-71 4q-57 0 -87.5 -6t-56 -29.5t-39 -63t-29.5 -113.5q-13 -61 -16.5 -97.5t0 -63t21.5 -38.5t44 -17t71 -5zM558 747l-51 72l-80 -72h-130l150 129h147l98 -129h-134z" />
    <glyph glyph-name="Otilde" unicode="&#xd5;" horiz-adv-x="775" 
d="M489 714q58 0 101.5 -7t79 -23t57.5 -43t33 -66.5t9 -94t-17 -124.5q-23 -106 -59 -178.5t-89 -114.5t-117.5 -59.5t-151.5 -17.5t-143.5 17.5t-93.5 60t-40.5 113.5t16.5 179q22 105 58 175t89 110t116.5 56.5t151.5 16.5zM366 133q56 0 87.5 7t56.5 32t39.5 65.5
t30.5 116.5q13 60 16 95.5t-0.5 60.5t-22.5 36.5t-44 15.5t-71 4q-57 0 -87.5 -6t-56 -29.5t-39 -63t-29.5 -113.5q-13 -61 -16.5 -97.5t0 -63t21.5 -38.5t44 -17t71 -5zM644 885l59 -58q-23 -41 -61.5 -67.5t-83.5 -26.5q-33 0 -72 23.5t-61 23.5q-28 0 -57 -45l-52 64
q62 79 127 79q40 0 80 -22.5t60 -22.5q17 0 30 11t31 41z" />
    <glyph glyph-name="Odieresis" unicode="&#xd6;" horiz-adv-x="775" 
d="M489 714q58 0 101.5 -7t79 -23t57.5 -43t33 -66.5t9 -94t-17 -124.5q-23 -106 -59 -178.5t-89 -114.5t-117.5 -59.5t-151.5 -17.5t-143.5 17.5t-93.5 60t-40.5 113.5t16.5 179q22 105 58 175t89 110t116.5 56.5t151.5 16.5zM366 133q56 0 87.5 7t56.5 32t39.5 65.5
t30.5 116.5q13 60 16 95.5t-0.5 60.5t-22.5 36.5t-44 15.5t-71 4q-57 0 -87.5 -6t-56 -29.5t-39 -63t-29.5 -113.5q-13 -61 -16.5 -97.5t0 -63t21.5 -38.5t44 -17t71 -5zM408 872q41 0 52.5 -11.5t2.5 -51.5q-9 -44 -26 -57.5t-58 -13.5q-40 0 -51 13.5t-2 57.5
q9 40 25 51.5t57 11.5zM634 872q40 0 51.5 -11.5t2.5 -51.5q-9 -44 -26 -57.5t-57 -13.5q-41 0 -52 13.5t-2 57.5q9 40 25.5 51.5t57.5 11.5z" />
    <glyph glyph-name="multiply" unicode="&#xd7;" horiz-adv-x="563" 
d="M139 139l-82 104l147 121l-96 121l127 104l94 -121l147 122l83 -105l-148 -121l95 -121l-125 -104l-95 121z" />
    <glyph glyph-name="Oslash" unicode="&#xd8;" horiz-adv-x="775" 
d="M710 697h164l-120 -109q30 -80 -3 -232q-23 -107 -59 -179t-89 -114t-117 -59.5t-151 -17.5q-127 0 -192 39l-27 -25h-163l118 109q-32 86 2 247q22 105 58 175t89 110t117 56.5t152 16.5q131 0 196 -41q16 16 25 24zM458 566q-98 0 -136 -29t-64 -130q-1 -6 -5 -22.5
t-6 -25.5q-1 -4 -2.5 -13t-2.5 -13q-8 -45 -9 -76l318 294q-29 15 -93 15zM366 133q98 0 137 31.5t65 139.5l15 71q7 43 6 61l-312 -289q24 -14 89 -14z" />
    <glyph glyph-name="Ugrave" unicode="&#xd9;" horiz-adv-x="745" 
d="M607 697h162l-107 -502q-17 -81 -65.5 -128.5t-114 -64t-163.5 -16.5q-149 0 -214.5 45t-40.5 164l107 502h163l-90 -421q-10 -47 -11 -78t25.5 -46.5t91.5 -15.5q49 0 79.5 8t47.5 29t24 41.5t16 61.5zM599 747h-132l-129 129h160z" />
    <glyph glyph-name="Uacute" unicode="&#xda;" horiz-adv-x="745" 
d="M607 697h162l-107 -502q-17 -81 -65.5 -128.5t-114 -64t-163.5 -16.5q-149 0 -214.5 45t-40.5 164l107 502h163l-90 -421q-10 -47 -11 -78t25.5 -46.5t91.5 -15.5q49 0 79.5 8t47.5 29t24 41.5t16 61.5zM493 747h-130l155 129h159z" />
    <glyph glyph-name="Ucircumflex" unicode="&#xdb;" horiz-adv-x="745" 
d="M607 697h162l-107 -502q-17 -81 -65.5 -128.5t-114 -64t-163.5 -16.5q-149 0 -214.5 45t-40.5 164l107 502h163l-90 -421q-10 -47 -11 -78t25.5 -46.5t91.5 -15.5q49 0 79.5 8t47.5 29t24 41.5t16 61.5zM541 747l-51 72l-80 -72h-130l150 129h147l98 -129h-134z" />
    <glyph glyph-name="Udieresis" unicode="&#xdc;" horiz-adv-x="745" 
d="M607 697h162l-107 -502q-17 -81 -65.5 -128.5t-114 -64t-163.5 -16.5q-149 0 -214.5 45t-40.5 164l107 502h163l-90 -421q-10 -47 -11 -78t25.5 -46.5t91.5 -15.5q49 0 79.5 8t47.5 29t24 41.5t16 61.5zM392 872q41 0 52.5 -11.5t2.5 -51.5q-9 -44 -26 -57.5t-58 -13.5
q-40 0 -51 13.5t-2 57.5q9 40 25 51.5t57 11.5zM618 872q40 0 51.5 -11.5t2.5 -51.5q-9 -44 -26 -57.5t-57 -13.5q-41 0 -52 13.5t-2 57.5q9 40 25.5 51.5t57.5 11.5z" />
    <glyph glyph-name="Yacute" unicode="&#xdd;" horiz-adv-x="653" 
d="M257 697q62 -115 126 -247q158 170 219 247h199q-176 -204 -375 -413l-60 -284h-161l60 283q-156 308 -222 414h214zM471 747h-130l155 129h159z" />
    <glyph glyph-name="Thorn" unicode="&#xde;" horiz-adv-x="684" 
d="M180 697h161l-21 -96h228q192 0 139 -245q-22 -101 -84.5 -167.5t-155.5 -66.5h-229l-25 -122h-161zM246 254h172q72 0 93 102q23 107 -46 107h-174z" />
    <glyph glyph-name="germandbls" unicode="&#xdf;" horiz-adv-x="673" 
d="M434 714q151 0 206.5 -41t34.5 -140q-17 -80 -56 -119.5t-128 -46.5q92 -4 117.5 -48t6.5 -132q-24 -111 -97.5 -156t-227.5 -45q-43 0 -78 4l46 131q38 -4 67 -4q63 0 89 19t37 68q12 54 -7 75t-74 21h-46l27 124h42q55 0 79.5 20t33.5 61q9 43 -12 58.5t-89 15.5
q-112 0 -130 -83l-105 -496h-154l111 523q21 104 98.5 147.5t208.5 43.5z" />
    <glyph glyph-name="agrave" unicode="&#xe0;" 
d="M363 174l45 216q-29 14 -75 14q-57 0 -82.5 -27t-45.5 -122q-10 -44 -10 -74q0 -35 17 -49t57 -14q34 0 61.5 16t32.5 40zM347 48q-26 -27 -66 -43t-82 -16q-83 0 -123.5 33.5t-40.5 115.5q0 44 14 114q32 153 104 213.5t206 60.5q136 0 225 -36l-70 -323q-5 -23 -5 -40
q0 -40 30 -73l-129 -70q-49 12 -63 64zM494 568h-129l-123 129h158z" />
    <glyph glyph-name="aacute" unicode="&#xe1;" 
d="M363 174l45 216q-29 14 -75 14q-57 0 -82.5 -27t-45.5 -122q-10 -44 -10 -74q0 -35 17 -49t57 -14q34 0 61.5 16t32.5 40zM347 48q-26 -27 -66 -43t-82 -16q-83 0 -123.5 33.5t-40.5 115.5q0 44 14 114q32 153 104 213.5t206 60.5q136 0 225 -36l-70 -323q-5 -23 -5 -40
q0 -40 30 -73l-129 -70q-49 12 -63 64zM411 568h-130l151 129h157z" />
    <glyph glyph-name="acircumflex" unicode="&#xe2;" 
d="M363 174l45 216q-29 14 -75 14q-57 0 -82.5 -27t-45.5 -122q-10 -44 -10 -74q0 -35 17 -49t57 -14q34 0 61.5 16t32.5 40zM347 48q-26 -27 -66 -43t-82 -16q-83 0 -123.5 33.5t-40.5 115.5q0 44 14 114q32 153 104 213.5t206 60.5q136 0 225 -36l-70 -323q-5 -23 -5 -40
q0 -40 30 -73l-129 -70q-49 12 -63 64zM429 568l-51 71l-79 -71h-131l150 129h147l98 -129h-134z" />
    <glyph glyph-name="atilde" unicode="&#xe3;" 
d="M363 174l45 216q-29 14 -75 14q-57 0 -82.5 -27t-45.5 -122q-10 -44 -10 -74q0 -35 17 -49t57 -14q34 0 61.5 16t32.5 40zM347 48q-26 -27 -66 -43t-82 -16q-83 0 -123.5 33.5t-40.5 115.5q0 44 14 114q32 153 104 213.5t206 60.5q136 0 225 -36l-70 -323q-5 -23 -5 -40
q0 -40 30 -73l-129 -70q-49 12 -63 64zM518 708l60 -58q-24 -42 -61.5 -68t-82.5 -26q-33 0 -71 23.5t-60 23.5q-29 0 -58 -46l-52 65q61 80 128 80q41 0 79 -23t57 -23q17 0 30 11t31 41z" />
    <glyph glyph-name="adieresis" unicode="&#xe4;" 
d="M363 174l45 216q-29 14 -75 14q-57 0 -82.5 -27t-45.5 -122q-10 -44 -10 -74q0 -35 17 -49t57 -14q34 0 61.5 16t32.5 40zM347 48q-26 -27 -66 -43t-82 -16q-83 0 -123.5 33.5t-40.5 115.5q0 44 14 114q32 153 104 213.5t206 60.5q136 0 225 -36l-70 -323q-5 -23 -5 -40
q0 -40 30 -73l-129 -70q-49 12 -63 64zM285 694q41 0 52.5 -12t2.5 -52q-9 -44 -26 -57.5t-58 -13.5q-40 0 -51 13.5t-2 57.5q9 40 25.5 52t56.5 12zM511 694q40 0 51.5 -12t2.5 -52q-9 -44 -26 -57.5t-57 -13.5q-41 0 -52 13.5t-2 57.5q9 40 25.5 52t57.5 12z" />
    <glyph glyph-name="aring" unicode="&#xe5;" 
d="M363 174l45 216q-29 14 -75 14q-57 0 -82.5 -27t-45.5 -122q-10 -44 -10 -74q0 -35 17 -49t57 -14q34 0 61.5 16t32.5 40zM347 48q-26 -27 -66 -43t-82 -16q-83 0 -123.5 33.5t-40.5 115.5q0 44 14 114q32 153 104 213.5t206 60.5q136 0 225 -36l-70 -323q-5 -23 -5 -40
q0 -40 30 -73l-129 -70q-49 12 -63 64zM417 742q65 0 89.5 -22t12.5 -78t-45.5 -78t-98.5 -22q-66 0 -91 22t-13 78t45 78t101 22zM404 680q-28 0 -39 -8.5t-16 -30.5t3 -30t36 -8q27 0 38 8.5t16 29.5q5 22 -2.5 30.5t-35.5 8.5z" />
    <glyph glyph-name="ae" unicode="&#xe6;" horiz-adv-x="863" 
d="M743 131l-1 -117q-91 -28 -190 -28q-88 0 -133 31q-95 -31 -207 -31q-128 0 -166.5 35t-16.5 135q21 100 76.5 133.5t158.5 33.5q53 0 113 -13q12 55 -5 71.5t-92 16.5q-90 0 -163 -21l2 122q112 27 225 27q116 0 152 -46q57 46 159 46q68 0 108 -12.5t63.5 -46.5
t20.5 -96t-29 -160h-313q-11 -58 11 -77.5t82 -19.5q79 0 145 17zM351 118q-7 38 3 93q-25 7 -77 7q-44 0 -61.5 -10t-25.5 -47q-8 -38 2.5 -49.5t56.5 -11.5q60 0 102 18zM643 410q-47 0 -71 -18t-42 -68h178q9 52 -5 69t-60 17z" />
    <glyph glyph-name="ccedilla" unicode="&#xe7;" horiz-adv-x="472" 
d="M409 141l5 -129q-63 -24 -156 -26l-6 -25q54 0 76 -18.5t12 -60.5q-10 -48 -45.5 -66.5t-115.5 -18.5q-59 0 -91 13l37 60q18 -9 60 -9q34 0 39 23q3 16 -14 21t-62 1l49 83q-96 10 -135.5 73.5t-10.5 196.5q31 147 109.5 207t201.5 60q99 0 157 -22l-60 -130
q-52 21 -112 21q-32 0 -51 -4t-37.5 -18t-31 -42.5t-22.5 -74.5q-18 -85 2 -111.5t82 -26.5q61 0 120 23z" />
    <glyph glyph-name="egrave" unicode="&#xe8;" horiz-adv-x="556" 
d="M436 131l-2 -117q-89 -28 -190 -28q-118 0 -171.5 62.5t-21.5 210.5q31 147 105 207t192 60q54 0 89.5 -7.5t61.5 -27.5t34.5 -55.5t3.5 -90.5t-26 -134h-313q-11 -58 11 -77.5t82 -19.5q77 0 145 17zM335 410q-48 0 -71.5 -18.5t-40.5 -67.5h178q9 52 -5 69t-61 17z
M466 568h-129l-123 129h158z" />
    <glyph glyph-name="eacute" unicode="&#xe9;" horiz-adv-x="556" 
d="M436 131l-2 -117q-89 -28 -190 -28q-118 0 -171.5 62.5t-21.5 210.5q31 147 105 207t192 60q54 0 89.5 -7.5t61.5 -27.5t34.5 -55.5t3.5 -90.5t-26 -134h-313q-11 -58 11 -77.5t82 -19.5q77 0 145 17zM335 410q-48 0 -71.5 -18.5t-40.5 -67.5h178q9 52 -5 69t-61 17z
M396 568h-130l151 129h157z" />
    <glyph glyph-name="ecircumflex" unicode="&#xea;" horiz-adv-x="556" 
d="M436 131l-2 -117q-89 -28 -190 -28q-118 0 -171.5 62.5t-21.5 210.5q31 147 105 207t192 60q54 0 89.5 -7.5t61.5 -27.5t34.5 -55.5t3.5 -90.5t-26 -134h-313q-11 -58 11 -77.5t82 -19.5q77 0 145 17zM335 410q-48 0 -71.5 -18.5t-40.5 -67.5h178q9 52 -5 69t-61 17z
M431 568l-51 71l-79 -71h-131l150 129h147l98 -129h-134z" />
    <glyph glyph-name="edieresis" unicode="&#xeb;" horiz-adv-x="556" 
d="M436 131l-2 -117q-89 -28 -190 -28q-118 0 -171.5 62.5t-21.5 210.5q31 147 105 207t192 60q54 0 89.5 -7.5t61.5 -27.5t34.5 -55.5t3.5 -90.5t-26 -134h-313q-11 -58 11 -77.5t82 -19.5q77 0 145 17zM335 410q-48 0 -71.5 -18.5t-40.5 -67.5h178q9 52 -5 69t-61 17z
M279 694q41 0 52.5 -12t2.5 -52q-9 -44 -26 -57.5t-58 -13.5q-40 0 -51 13.5t-2 57.5q9 40 25.5 52t56.5 12zM505 694q40 0 51.5 -12t2.5 -52q-9 -44 -26 -57.5t-57 -13.5q-41 0 -52 13.5t-2 57.5q9 40 25.5 52t57.5 12z" />
    <glyph glyph-name="igrave" unicode="&#xec;" horiz-adv-x="284" 
d="M278 512l-108 -512h-154l108 512h154zM310 568h-129l-123 129h158z" />
    <glyph glyph-name="iacute" unicode="&#xed;" horiz-adv-x="284" 
d="M278 512l-108 -512h-154l108 512h154zM240 568h-130l151 129h157z" />
    <glyph glyph-name="icircumflex" unicode="&#xee;" horiz-adv-x="284" 
d="M278 512l-108 -512h-154l108 512h154zM277 568l-51 71l-79 -71h-131l150 129h147l98 -129h-134z" />
    <glyph glyph-name="idieresis" unicode="&#xef;" horiz-adv-x="284" 
d="M278 512l-108 -512h-154l108 512h154zM128 694q41 0 52.5 -12t2.5 -52q-9 -44 -26 -57.5t-58 -13.5q-40 0 -51 13.5t-2 57.5q9 40 25.5 52t56.5 12zM354 694q40 0 51.5 -12t2.5 -52q-9 -44 -26 -57.5t-57 -13.5q-41 0 -52 13.5t-2 57.5q9 40 25.5 52t57.5 12z" />
    <glyph glyph-name="eth" unicode="&#xf0;" horiz-adv-x="628" 
d="M298 475l-41 74l78 40q-19 30 -75 108h197q8 -10 24 -32l61 33l41 -73l-57 -30q100 -176 58 -372q-20 -95 -53 -145t-95.5 -72.5t-173.5 -22.5q-152 0 -199 51t-19 187q26 120 91.5 167t213.5 47q38 0 62 -2q-14 42 -36 83zM341 299q-72 0 -96 -15.5t-35 -67.5
q-10 -50 6 -68t77 -18t84 19.5t38 88.5q7 33 7 57q-35 4 -81 4z" />
    <glyph glyph-name="ntilde" unicode="&#xf1;" horiz-adv-x="597" 
d="M250 380l-80 -380h-154l102 480q136 46 269 46q110 0 149 -54.5t11 -188.5l-60 -283h-154l57 271q16 70 3 94t-68 24q-35 0 -75 -9zM517 708l60 -58q-24 -42 -61.5 -68t-82.5 -26q-33 0 -71 23.5t-60 23.5q-29 0 -58 -46l-52 65q61 80 128 80q40 0 78.5 -23t57.5 -23
q17 0 30 11t31 41z" />
    <glyph glyph-name="ograve" unicode="&#xf2;" horiz-adv-x="590" 
d="M241 -14q-129 0 -176 60.5t-14 212.5q32 151 103.5 209t200.5 58q131 0 178.5 -58t15.5 -209q-33 -152 -105.5 -212.5t-202.5 -60.5zM330 406q-57 0 -81 -26.5t-44 -123.5q-19 -97 -7 -123.5t68 -26.5t81 28t45 122q19 100 7 125t-69 25zM472 568h-129l-123 129h158z" />
    <glyph glyph-name="oacute" unicode="&#xf3;" horiz-adv-x="590" 
d="M241 -14q-129 0 -176 60.5t-14 212.5q32 151 103.5 209t200.5 58q131 0 178.5 -58t15.5 -209q-33 -152 -105.5 -212.5t-202.5 -60.5zM330 406q-57 0 -81 -26.5t-44 -123.5q-19 -97 -7 -123.5t68 -26.5t81 28t45 122q19 100 7 125t-69 25zM388 568h-130l151 129h157z" />
    <glyph glyph-name="ocircumflex" unicode="&#xf4;" horiz-adv-x="590" 
d="M241 -14q-129 0 -176 60.5t-14 212.5q32 151 103.5 209t200.5 58q131 0 178.5 -58t15.5 -209q-33 -152 -105.5 -212.5t-202.5 -60.5zM330 406q-57 0 -81 -26.5t-44 -123.5q-19 -97 -7 -123.5t68 -26.5t81 28t45 122q19 100 7 125t-69 25zM426 568l-51 71l-79 -71h-131
l150 129h147l98 -129h-134z" />
    <glyph glyph-name="otilde" unicode="&#xf5;" horiz-adv-x="590" 
d="M241 -14q-129 0 -176 60.5t-14 212.5q32 151 103.5 209t200.5 58q131 0 178.5 -58t15.5 -209q-33 -152 -105.5 -212.5t-202.5 -60.5zM330 406q-57 0 -81 -26.5t-44 -123.5q-19 -97 -7 -123.5t68 -26.5t81 28t45 122q19 100 7 125t-69 25zM511 708l60 -58
q-24 -42 -61.5 -68t-82.5 -26q-33 0 -71 23.5t-60 23.5q-29 0 -58 -46l-52 65q61 80 128 80q40 0 78 -23t58 -23q17 0 30 11t31 41z" />
    <glyph glyph-name="odieresis" unicode="&#xf6;" horiz-adv-x="590" 
d="M241 -14q-129 0 -176 60.5t-14 212.5q32 151 103.5 209t200.5 58q131 0 178.5 -58t15.5 -209q-33 -152 -105.5 -212.5t-202.5 -60.5zM330 406q-57 0 -81 -26.5t-44 -123.5q-19 -97 -7 -123.5t68 -26.5t81 28t45 122q19 100 7 125t-69 25zM278 694q41 0 52.5 -12t2.5 -52
q-9 -44 -26 -57.5t-58 -13.5q-40 0 -51 13.5t-2 57.5q9 40 25.5 52t56.5 12zM504 694q40 0 51.5 -12t2.5 -52q-9 -44 -26 -57.5t-57 -13.5q-41 0 -52 13.5t-2 57.5q9 40 25.5 52t57.5 12z" />
    <glyph glyph-name="divide" unicode="&#xf7;" horiz-adv-x="563" 
d="M47 290l31 147h490l-31 -147h-490zM277 232q54 0 69.5 -15t5.5 -66q-12 -55 -34.5 -72t-76.5 -17q-53 0 -68.5 17t-3.5 72q10 51 32.5 66t75.5 15zM369 664q55 0 70 -15t4 -67q-12 -55 -34 -71.5t-76 -16.5q-53 0 -69 17t-4 71q11 51 33 66.5t76 15.5z" />
    <glyph glyph-name="oslash" unicode="&#xf8;" horiz-adv-x="590" 
d="M511 511h136l-94 -85q18 -62 -5 -168q-32 -152 -104 -212t-203 -60q-89 0 -139 27l-14 -13h-136l93 85q-19 61 4 173q32 151 104.5 209.5t201.5 58.5q95 0 141 -28zM330 406q-53 0 -78 -22t-41 -93q-7 -32 -10 -65l182 169q-16 11 -53 11zM266 106q56 0 81 31.5t41 103.5
q1 6 3.5 19.5t3.5 21.5l-181 -167q14 -9 52 -9z" />
    <glyph glyph-name="ugrave" unicode="&#xf9;" horiz-adv-x="597" 
d="M357 132l80 380h152l-102 -481q-140 -46 -269 -46q-110 0 -148.5 54.5t-9.5 188.5l60 284h152l-57 -272q-16 -69 -3 -93.5t68 -24.5q29 0 77 10zM471 568h-129l-123 129h158z" />
    <glyph glyph-name="uacute" unicode="&#xfa;" horiz-adv-x="597" 
d="M357 132l80 380h152l-102 -481q-140 -46 -269 -46q-110 0 -148.5 54.5t-9.5 188.5l60 284h152l-57 -272q-16 -69 -3 -93.5t68 -24.5q29 0 77 10zM396 568h-130l151 129h157z" />
    <glyph glyph-name="ucircumflex" unicode="&#xfb;" horiz-adv-x="597" 
d="M357 132l80 380h152l-102 -481q-140 -46 -269 -46q-110 0 -148.5 54.5t-9.5 188.5l60 284h152l-57 -272q-16 -69 -3 -93.5t68 -24.5q29 0 77 10zM435 568l-51 71l-79 -71h-131l150 129h147l98 -129h-134z" />
    <glyph glyph-name="udieresis" unicode="&#xfc;" horiz-adv-x="597" 
d="M357 132l80 380h152l-102 -481q-140 -46 -269 -46q-110 0 -148.5 54.5t-9.5 188.5l60 284h152l-57 -272q-16 -69 -3 -93.5t68 -24.5q29 0 77 10zM281 694q41 0 52.5 -12t2.5 -52q-9 -44 -26 -57.5t-58 -13.5q-40 0 -51 13.5t-2 57.5q9 40 25.5 52t56.5 12zM507 694
q40 0 51.5 -12t2.5 -52q-9 -44 -26 -57.5t-57 -13.5q-41 0 -52 13.5t-2 57.5q9 40 25.5 52t57.5 12z" />
    <glyph glyph-name="yacute" unicode="&#xfd;" horiz-adv-x="512" 
d="M109 -25q-15 250 -62 536h155q26 -155 36 -356q121 214 185 356h153q-137 -273 -310 -542q-78 -121 -107 -161h-169q44 56 119 167zM370 568h-130l151 129h157z" />
    <glyph glyph-name="thorn" unicode="&#xfe;" 
d="M-25 -192l190 895h154l-39 -183q39 6 79 6q135 0 180.5 -58.5t13.5 -211.5q-31 -147 -101 -208.5t-173 -61.5q-58 0 -108 23l-42 -201h-154zM252 386l-50 -235q-4 -17 16 -28t54 -11q55 0 82 29.5t44 110.5q18 93 4.5 119.5t-70.5 26.5q-47 0 -80 -12z" />
    <glyph glyph-name="ydieresis" unicode="&#xff;" horiz-adv-x="512" 
d="M109 -25q-15 250 -62 536h155q26 -155 36 -356q121 214 185 356h153q-137 -273 -310 -542q-78 -121 -107 -161h-169q44 56 119 167zM245 694q41 0 52.5 -12t2.5 -52q-9 -44 -26 -57.5t-58 -13.5q-40 0 -51 13.5t-2 57.5q9 40 25.5 52t56.5 12zM471 694q40 0 51.5 -12
t2.5 -52q-9 -44 -26 -57.5t-57 -13.5q-41 0 -52 13.5t-2 57.5q9 40 25.5 52t57.5 12z" />
    <glyph glyph-name="Amacron" unicode="&#x100;" horiz-adv-x="689" 
d="M493 0q-11 52 -27 154h-287l-77 -154h-172q73 145 187.5 346.5t207.5 350.5h249q34 -385 97 -697h-178zM423 557h-26q-61 -103 -147 -264h200q-20 156 -27 264zM307 745l23 107h292l-23 -107h-292z" />
    <glyph glyph-name="amacron" unicode="&#x101;" 
d="M363 174l45 216q-29 14 -75 14q-57 0 -82.5 -27t-45.5 -122q-10 -44 -10 -74q0 -35 17 -49t57 -14q34 0 61.5 16t32.5 40zM347 48q-26 -27 -66 -43t-82 -16q-83 0 -123.5 33.5t-40.5 115.5q0 44 14 114q32 153 104 213.5t206 60.5q136 0 225 -36l-70 -323q-5 -23 -5 -40
q0 -40 30 -73l-129 -70q-49 12 -63 64zM228 572l23 106h292l-23 -106h-292z" />
    <glyph glyph-name="Abreve" unicode="&#x102;" horiz-adv-x="689" 
d="M493 0q-11 52 -27 154h-287l-77 -154h-172q73 145 187.5 346.5t207.5 350.5h249q34 -385 97 -697h-178zM423 557h-26q-61 -103 -147 -264h200q-20 156 -27 264zM320 871h101q-7 -31 5 -41.5t44 -10.5q31 0 47.5 10.5t23.5 41.5h94q-31 -143 -189 -143q-75 0 -108 35.5
t-18 107.5z" />
    <glyph glyph-name="abreve" unicode="&#x103;" 
d="M363 174l45 216q-29 14 -75 14q-57 0 -82.5 -27t-45.5 -122q-10 -44 -10 -74q0 -35 17 -49t57 -14q34 0 61.5 16t32.5 40zM347 48q-26 -27 -66 -43t-82 -16q-83 0 -123.5 33.5t-40.5 115.5q0 44 14 114q32 153 104 213.5t206 60.5q136 0 225 -36l-70 -323q-5 -23 -5 -40
q0 -40 30 -73l-129 -70q-49 12 -63 64zM235 697h101q-6 -31 5.5 -41.5t43.5 -10.5t48.5 10.5t22.5 41.5h94q-31 -143 -189 -143q-75 0 -108 35.5t-18 107.5z" />
    <glyph glyph-name="Aogonek" unicode="&#x104;" horiz-adv-x="689" 
d="M493 0q-11 52 -27 154h-287l-77 -154h-172q73 145 187.5 346.5t207.5 350.5h249q34 -385 97 -697h-64q-40 -23 -56.5 -42t-22.5 -44q-4 -21 6 -29.5t43 -8.5q46 0 84 26l24 -70q-57 -35 -142 -35q-76 0 -100.5 21.5t-15.5 67.5q8 35 38.5 65t81.5 49h-54zM423 557h-26
q-61 -103 -147 -264h200q-20 156 -27 264z" />
    <glyph glyph-name="aogonek" unicode="&#x105;" 
d="M347 48q-26 -27 -66 -43t-82 -16q-83 0 -123.5 33.5t-40.5 115.5q0 44 14 114q32 153 104 213.5t206 60.5q136 0 225 -36l-70 -323q-5 -23 -5 -40q0 -40 30 -73l-112 -60q-34 -21 -48.5 -39t-19.5 -41q-4 -21 6 -29.5t43 -8.5q46 0 84 26l24 -70q-57 -35 -142 -35
q-76 0 -100.5 21.5t-15.5 67.5q17 76 120 114q-24 20 -31 48zM363 174l45 216q-29 14 -75 14q-57 0 -82.5 -27t-45.5 -122q-10 -44 -10 -74q0 -35 17 -49t57 -14q34 0 61.5 16t32.5 40z" />
    <glyph glyph-name="Cacute" unicode="&#x106;" horiz-adv-x="588" 
d="M74 355q23 106 57 176t85.5 110.5t113.5 56.5t150 16q114 0 197 -25l-61 -142q-51 19 -133 19q-58 0 -91 -6t-63.5 -28t-49 -64.5t-33.5 -114.5q-12 -58 -13.5 -96.5t6 -63t29.5 -37t49.5 -17t73.5 -4.5q79 0 141 19v-145q-94 -23 -206 -23q-87 0 -142.5 17.5t-90 60.5
t-37 113.5t17.5 177.5zM475 747h-130l155 129h159z" />
    <glyph glyph-name="cacute" unicode="&#x107;" horiz-adv-x="472" 
d="M409 141l5 -129q-69 -26 -166 -26q-124 0 -176.5 62t-20.5 211q31 147 109.5 207t201.5 60q99 0 157 -22l-60 -130q-52 21 -112 21q-32 0 -51 -4t-37.5 -18t-31 -42.5t-22.5 -74.5q-18 -85 2 -111.5t82 -26.5q61 0 120 23zM377 568h-130l151 129h157z" />
    <glyph glyph-name="Ccircumflex" unicode="&#x108;" horiz-adv-x="588" 
d="M74 355q23 106 57 176t85.5 110.5t113.5 56.5t150 16q114 0 197 -25l-61 -142q-51 19 -133 19q-58 0 -91 -6t-63.5 -28t-49 -64.5t-33.5 -114.5q-12 -58 -13.5 -96.5t6 -63t29.5 -37t49.5 -17t73.5 -4.5q79 0 141 19v-145q-94 -23 -206 -23q-87 0 -142.5 17.5t-90 60.5
t-37 113.5t17.5 177.5zM546 747l-51 72l-80 -72h-130l150 129h147l98 -129h-134z" />
    <glyph glyph-name="ccircumflex" unicode="&#x109;" horiz-adv-x="472" 
d="M409 141l5 -129q-69 -26 -166 -26q-124 0 -176.5 62t-20.5 211q31 147 109.5 207t201.5 60q99 0 157 -22l-60 -130q-52 21 -112 21q-32 0 -51 -4t-37.5 -18t-31 -42.5t-22.5 -74.5q-18 -85 2 -111.5t82 -26.5q61 0 120 23zM427 568l-51 71l-79 -71h-131l150 129h147
l98 -129h-134z" />
    <glyph glyph-name="Cdotaccent" unicode="&#x10a;" horiz-adv-x="588" 
d="M74 355q23 106 57 176t85.5 110.5t113.5 56.5t150 16q114 0 197 -25l-61 -142q-51 19 -133 19q-58 0 -91 -6t-63.5 -28t-49 -64.5t-33.5 -114.5q-12 -58 -13.5 -96.5t6 -63t29.5 -37t49.5 -17t73.5 -4.5q79 0 141 19v-145q-94 -23 -206 -23q-87 0 -142.5 17.5t-90 60.5
t-37 113.5t17.5 177.5zM516 877q41 0 52.5 -12t2.5 -52q-9 -44 -26 -57.5t-58 -13.5q-40 0 -51 13.5t-2 57.5q9 40 25.5 52t56.5 12z" />
    <glyph glyph-name="cdotaccent" unicode="&#x10b;" horiz-adv-x="472" 
d="M409 141l5 -129q-69 -26 -166 -26q-124 0 -176.5 62t-20.5 211q31 147 109.5 207t201.5 60q99 0 157 -22l-60 -130q-52 21 -112 21q-32 0 -51 -4t-37.5 -18t-31 -42.5t-22.5 -74.5q-18 -85 2 -111.5t82 -26.5q61 0 120 23zM389 694q40 0 51.5 -12t2.5 -52
q-9 -44 -26 -57.5t-57 -13.5t-51.5 13.5t-2.5 57.5q9 40 25.5 52t57.5 12z" />
    <glyph glyph-name="Ccaron" unicode="&#x10c;" horiz-adv-x="588" 
d="M74 355q23 106 57 176t85.5 110.5t113.5 56.5t150 16q114 0 197 -25l-61 -142q-51 19 -133 19q-58 0 -91 -6t-63.5 -28t-49 -64.5t-33.5 -114.5q-12 -58 -13.5 -96.5t6 -63t29.5 -37t49.5 -17t73.5 -4.5q79 0 141 19v-145q-94 -23 -206 -23q-87 0 -142.5 17.5t-90 60.5
t-37 113.5t17.5 177.5zM435 876l51 -72l81 72h130l-150 -129h-147l-98 129h133z" />
    <glyph glyph-name="ccaron" unicode="&#x10d;" horiz-adv-x="472" 
d="M409 141l5 -129q-69 -26 -166 -26q-124 0 -176.5 62t-20.5 211q31 147 109.5 207t201.5 60q99 0 157 -22l-60 -130q-52 21 -112 21q-32 0 -51 -4t-37.5 -18t-31 -42.5t-22.5 -74.5q-18 -85 2 -111.5t82 -26.5q61 0 120 23zM325 697l51 -71l79 71h130l-150 -129h-147
l-98 129h135z" />
    <glyph glyph-name="Dcaron" unicode="&#x10e;" horiz-adv-x="753" 
d="M180 697h291q69 0 117.5 -10t86 -33.5t52.5 -62.5t18 -98.5t-17 -140.5q-41 -197 -136 -274.5t-269 -77.5h-291zM556 350q15 71 16.5 111t-16.5 61.5t-47 27.5t-87 6h-111l-88 -414h111q57 0 89.5 7t59.5 30t42.5 62.5t30.5 108.5zM422 876l51 -72l81 72h130l-150 -129
h-147l-98 129h133z" />
    <glyph glyph-name="dcaron" unicode="&#x10f;" 
d="M352 127l50 235q4 16 -16.5 27.5t-54.5 11.5q-54 0 -81 -30t-44 -111q-18 -93 -4.5 -119t70.5 -26q50 0 80 12zM633 722l-149 -700q-103 -36 -239 -36q-135 0 -181 59.5t-14 212.5q31 146 101 207t173 61q60 0 109 -22l46 218h154zM689 722h130l-99 -192h-91z" />
    <glyph glyph-name="Dcroat" unicode="&#x110;" horiz-adv-x="753" 
d="M43 300l24 110h52l61 287h291q69 0 117.5 -10t86 -33.5t52.5 -62.5t18 -98.5t-17 -140.5q-41 -197 -136 -274.5t-269 -77.5h-291l63 300h-52zM556 350q10 48 13.5 80t-0.5 55.5t-12.5 36.5t-29.5 21t-44 10t-62 2h-111l-30 -145h158l-24 -110h-158l-33 -158h111
q57 0 89.5 7t59.5 30t42.5 62.5t30.5 108.5z" />
    <glyph glyph-name="dcroat" unicode="&#x111;" 
d="M368 572l22 105h79l10 45h154l-10 -45h50l-22 -105h-50l-117 -550q-103 -36 -239 -36q-135 0 -181 59.5t-14 212.5q31 146 101 207t173 61q60 0 109 -22l14 68h-79zM352 127l50 235q4 16 -16.5 27.5t-54.5 11.5q-54 0 -81 -30t-44 -111q-18 -93 -4.5 -119t70.5 -26
q50 0 80 12z" />
    <glyph glyph-name="Emacron" unicode="&#x112;" horiz-adv-x="626" 
d="M180 697h520l-30 -141h-359l-27 -125h257l-29 -138h-257l-33 -152h359l-29 -141h-520zM304 745l23 107h292l-23 -107h-292z" />
    <glyph glyph-name="emacron" unicode="&#x113;" horiz-adv-x="556" 
d="M436 131l-2 -117q-89 -28 -190 -28q-118 0 -171.5 62.5t-21.5 210.5q31 147 105 207t192 60q54 0 89.5 -7.5t61.5 -27.5t34.5 -55.5t3.5 -90.5t-26 -134h-313q-11 -58 11 -77.5t82 -19.5q77 0 145 17zM335 410q-48 0 -71.5 -18.5t-40.5 -67.5h178q9 52 -5 69t-61 17z
M223 572l23 106h292l-23 -106h-292z" />
    <glyph glyph-name="Ebreve" unicode="&#x114;" horiz-adv-x="626" 
d="M180 697h520l-30 -141h-359l-27 -125h257l-29 -138h-257l-33 -152h359l-29 -141h-520zM333 871h101q-7 -31 5 -41.5t44 -10.5q31 0 47.5 10.5t23.5 41.5h94q-31 -143 -189 -143q-75 0 -108 35.5t-18 107.5z" />
    <glyph glyph-name="ebreve" unicode="&#x115;" horiz-adv-x="556" 
d="M436 131l-2 -117q-89 -28 -190 -28q-118 0 -171.5 62.5t-21.5 210.5q31 147 105 207t192 60q54 0 89.5 -7.5t61.5 -27.5t34.5 -55.5t3.5 -90.5t-26 -134h-313q-11 -58 11 -77.5t82 -19.5q77 0 145 17zM335 410q-48 0 -71.5 -18.5t-40.5 -67.5h178q9 52 -5 69t-61 17z
M233 697h101q-6 -31 5.5 -41.5t43.5 -10.5t48.5 10.5t22.5 41.5h94q-31 -143 -189 -143q-75 0 -108 35.5t-18 107.5z" />
    <glyph glyph-name="Edotaccent" unicode="&#x116;" horiz-adv-x="626" 
d="M180 697h520l-30 -141h-359l-27 -125h257l-29 -138h-257l-33 -152h359l-29 -141h-520zM498 877q41 0 52.5 -12t2.5 -52q-9 -44 -26 -57.5t-58 -13.5q-40 0 -51 13.5t-2 57.5q9 40 25.5 52t56.5 12z" />
    <glyph glyph-name="edotaccent" unicode="&#x117;" horiz-adv-x="556" 
d="M436 131l-2 -117q-89 -28 -190 -28q-118 0 -171.5 62.5t-21.5 210.5q31 147 105 207t192 60q54 0 89.5 -7.5t61.5 -27.5t34.5 -55.5t3.5 -90.5t-26 -134h-313q-11 -58 11 -77.5t82 -19.5q77 0 145 17zM335 410q-48 0 -71.5 -18.5t-40.5 -67.5h178q9 52 -5 69t-61 17z
M392 694q40 0 51.5 -12t2.5 -52q-9 -44 -26 -57.5t-57 -13.5t-51.5 13.5t-2.5 57.5q9 40 25.5 52t57.5 12z" />
    <glyph glyph-name="Eogonek" unicode="&#x118;" horiz-adv-x="626" 
d="M180 697h520l-30 -141h-359l-27 -125h257l-29 -138h-257l-33 -152h359l-29 -141h-56q-40 -23 -56.5 -42t-22.5 -44q-4 -21 6 -29.5t43 -8.5q46 0 84 26l24 -70q-57 -35 -142 -35q-76 0 -100.5 21.5t-15.5 67.5q8 35 38.5 65t81.5 49h-404z" />
    <glyph glyph-name="eogonek" unicode="&#x119;" horiz-adv-x="556" 
d="M436 131l-2 -117q-7 -3 -45 -12q-43 -24 -60.5 -43t-22.5 -45q-4 -21 6 -29.5t43 -8.5q46 0 84 26l24 -70q-57 -35 -142 -35q-76 0 -100.5 21.5t-15.5 67.5q15 65 94 103q-28 -3 -55 -3q-118 0 -171.5 62.5t-21.5 210.5q31 147 105 207t192 60q54 0 89.5 -7.5t61.5 -27.5
t34.5 -55.5t3.5 -90.5t-26 -134h-313q-11 -58 11 -77.5t82 -19.5q77 0 145 17zM335 410q-48 0 -71.5 -18.5t-40.5 -67.5h178q9 52 -5 69t-61 17z" />
    <glyph glyph-name="Ecaron" unicode="&#x11a;" horiz-adv-x="626" 
d="M180 697h520l-30 -141h-359l-27 -125h257l-29 -138h-257l-33 -152h359l-29 -141h-520zM422 876l51 -72l81 72h130l-150 -129h-147l-98 129h133z" />
    <glyph glyph-name="ecaron" unicode="&#x11b;" horiz-adv-x="556" 
d="M436 131l-2 -117q-89 -28 -190 -28q-118 0 -171.5 62.5t-21.5 210.5q31 147 105 207t192 60q54 0 89.5 -7.5t61.5 -27.5t34.5 -55.5t3.5 -90.5t-26 -134h-313q-11 -58 11 -77.5t82 -19.5q77 0 145 17zM335 410q-48 0 -71.5 -18.5t-40.5 -67.5h178q9 52 -5 69t-61 17z
M327 697l51 -71l79 71h130l-150 -129h-147l-98 129h135z" />
    <glyph glyph-name="Gcircumflex" unicode="&#x11c;" horiz-adv-x="712" 
d="M458 140l31 146h-138l30 138h303l-86 -405q-47 -14 -126 -23.5t-146 -9.5q-87 0 -142.5 17.5t-90 60.5t-37 113.5t17.5 177.5q23 105 60.5 176t93.5 110.5t122.5 56t157.5 16.5q130 0 213 -25l-59 -142q-23 8 -77.5 14t-91.5 6q-62 0 -97 -6t-66.5 -28.5t-50 -64.5
t-33.5 -115q-12 -58 -13.5 -96.5t6 -63t29.5 -37t49.5 -17t73.5 -4.5q22 0 67 5zM562 747l-51 72l-80 -72h-130l150 129h147l98 -129h-134z" />
    <glyph glyph-name="gcircumflex" unicode="&#x11d;" 
d="M358 154l50 236q-29 14 -75 14q-57 0 -82.5 -27t-45.5 -122q-17 -81 -3.5 -109t67.5 -28q35 0 60.5 10t28.5 26zM329 18q-64 -29 -130 -29q-52 0 -85.5 12t-55.5 42t-22.5 80.5t13.5 128.5q32 153 104 213.5t206 60.5q136 0 225 -36l-96 -449q-16 -74 -47 -124t-77 -75.5
t-95.5 -35.5t-115.5 -10q-104 0 -180 30l52 120q82 -23 152 -23q66 0 103.5 21t48.5 74zM437 568l-51 71l-79 -71h-131l150 129h147l98 -129h-134z" />
    <glyph glyph-name="Gbreve" unicode="&#x11e;" horiz-adv-x="712" 
d="M458 140l31 146h-138l30 138h303l-86 -405q-47 -14 -126 -23.5t-146 -9.5q-87 0 -142.5 17.5t-90 60.5t-37 113.5t17.5 177.5q23 105 60.5 176t93.5 110.5t122.5 56t157.5 16.5q130 0 213 -25l-59 -142q-23 8 -77.5 14t-91.5 6q-62 0 -97 -6t-66.5 -28.5t-50 -64.5
t-33.5 -115q-12 -58 -13.5 -96.5t6 -63t29.5 -37t49.5 -17t73.5 -4.5q22 0 67 5zM362 871h101q-7 -31 5 -41.5t44 -10.5q31 0 47.5 10.5t23.5 41.5h94q-31 -143 -189 -143q-75 0 -108 35.5t-18 107.5z" />
    <glyph glyph-name="gbreve" unicode="&#x11f;" 
d="M358 154l50 236q-29 14 -75 14q-57 0 -82.5 -27t-45.5 -122q-17 -81 -3.5 -109t67.5 -28q35 0 60.5 10t28.5 26zM329 18q-64 -29 -130 -29q-52 0 -85.5 12t-55.5 42t-22.5 80.5t13.5 128.5q32 153 104 213.5t206 60.5q136 0 225 -36l-96 -449q-16 -74 -47 -124t-77 -75.5
t-95.5 -35.5t-115.5 -10q-104 0 -180 30l52 120q82 -23 152 -23q66 0 103.5 21t48.5 74zM241 697h101q-6 -31 5.5 -41.5t43.5 -10.5t48.5 10.5t22.5 41.5h94q-31 -143 -189 -143q-75 0 -108 35.5t-18 107.5z" />
    <glyph glyph-name="Gdotaccent" unicode="&#x120;" horiz-adv-x="712" 
d="M458 140l31 146h-138l30 138h303l-86 -405q-47 -14 -126 -23.5t-146 -9.5q-87 0 -142.5 17.5t-90 60.5t-37 113.5t17.5 177.5q23 105 60.5 176t93.5 110.5t122.5 56t157.5 16.5q130 0 213 -25l-59 -142q-23 8 -77.5 14t-91.5 6q-62 0 -97 -6t-66.5 -28.5t-50 -64.5
t-33.5 -115q-12 -58 -13.5 -96.5t6 -63t29.5 -37t49.5 -17t73.5 -4.5q22 0 67 5zM537 877q41 0 52.5 -12t2.5 -52q-9 -44 -26 -57.5t-58 -13.5q-40 0 -51 13.5t-2 57.5q9 40 25.5 52t56.5 12z" />
    <glyph glyph-name="gdotaccent" unicode="&#x121;" 
d="M358 154l50 236q-29 14 -75 14q-57 0 -82.5 -27t-45.5 -122q-17 -81 -3.5 -109t67.5 -28q35 0 60.5 10t28.5 26zM329 18q-64 -29 -130 -29q-52 0 -85.5 12t-55.5 42t-22.5 80.5t13.5 128.5q32 153 104 213.5t206 60.5q136 0 225 -36l-96 -449q-16 -74 -47 -124t-77 -75.5
t-95.5 -35.5t-115.5 -10q-104 0 -180 30l52 120q82 -23 152 -23q66 0 103.5 21t48.5 74zM392 694q40 0 51.5 -12t2.5 -52q-9 -44 -26 -57.5t-57 -13.5t-51.5 13.5t-2.5 57.5q9 40 25.5 52t57.5 12z" />
    <glyph glyph-name="Gcommaaccent" unicode="&#x122;" horiz-adv-x="712" 
d="M458 140l31 146h-138l30 138h303l-86 -405q-47 -14 -126 -23.5t-146 -9.5q-87 0 -142.5 17.5t-90 60.5t-37 113.5t17.5 177.5q23 105 60.5 176t93.5 110.5t122.5 56t157.5 16.5q130 0 213 -25l-59 -142q-23 8 -77.5 14t-91.5 6q-62 0 -97 -6t-66.5 -28.5t-50 -64.5
t-33.5 -115q-12 -58 -13.5 -96.5t6 -63t29.5 -37t49.5 -17t73.5 -4.5q22 0 67 5zM427 -51l-147 -167h-120l108 167h159z" />
    <glyph glyph-name="gcommaaccent" unicode="&#x123;" 
d="M358 154l50 236q-29 14 -75 14q-57 0 -82.5 -27t-45.5 -122q-17 -81 -3.5 -109t67.5 -28q35 0 60.5 10t28.5 26zM329 18q-64 -29 -130 -29q-52 0 -85.5 12t-55.5 42t-22.5 80.5t13.5 128.5q32 153 104 213.5t206 60.5q136 0 225 -36l-96 -449q-16 -74 -47 -124t-77 -75.5
t-95.5 -35.5t-115.5 -10q-104 0 -180 30l52 120q82 -23 152 -23q66 0 103.5 21t48.5 74zM556 754l-147 -167h-120l108 167h159z" />
    <glyph glyph-name="Hcircumflex" unicode="&#x124;" horiz-adv-x="748" 
d="M255 294l-62 -294h-161l148 697h161l-54 -254h262l54 254h161l-148 -697h-161l62 294h-262zM543 747l-51 72l-80 -72h-130l150 129h147l98 -129h-134z" />
    <glyph glyph-name="hcircumflex" unicode="&#x125;" horiz-adv-x="597" 
d="M417 526q35 0 60 -5t45.5 -20t29.5 -40t9 -66t-12 -98l-63 -297h-153l61 291q12 53 -4.5 76t-61.5 23q-32 0 -56 -8.5t-27 -23.5l-76 -358h-153l153 722h153l-48 -228q80 32 143 32zM393 747l-51 72l-80 -72h-130l150 129h147l98 -129h-134z" />
    <glyph glyph-name="Hbar" unicode="&#x126;" horiz-adv-x="748" 
d="M85 511l28 129h55l12 57h161l-12 -57h262l12 57h161l-12 -57h55l-28 -129h-55l-108 -511h-161l62 294h-262l-62 -294h-161l108 511h-55zM287 443h262l14 68h-262z" />
    <glyph glyph-name="hbar" unicode="&#x127;" horiz-adv-x="597" 
d="M93 574l22 104h45l9 44h154l-9 -44h92l-22 -104h-92l-17 -80q73 32 142 32q36 0 60.5 -5t45.5 -19.5t30 -39.5t9 -66t-12 -98l-63 -298h-154l61 288q13 60 -5 81t-61 21q-32 0 -55.5 -8.5t-26.5 -23.5l-76 -358h-154l122 574h-45z" />
    <glyph glyph-name="Itilde" unicode="&#x128;" horiz-adv-x="325" 
d="M180 697h161l-148 -697h-161zM420 885l59 -58q-23 -41 -61.5 -67.5t-83.5 -26.5q-33 0 -72 23.5t-61 23.5q-28 0 -57 -45l-52 64q62 79 127 79q40 0 80 -22.5t60 -22.5q17 0 30 11t31 41z" />
    <glyph glyph-name="itilde" unicode="&#x129;" horiz-adv-x="284" 
d="M278 512l-108 -512h-154l108 512h154zM361 708l60 -58q-24 -42 -61.5 -68t-82.5 -26q-33 0 -71 23.5t-60 23.5q-29 0 -58 -46l-52 65q61 80 128 80q40 0 78 -23t58 -23q17 0 30 11t31 41z" />
    <glyph glyph-name="Imacron" unicode="&#x12a;" horiz-adv-x="325" 
d="M180 697h161l-148 -697h-161zM125 745l23 107h292l-23 -107h-292z" />
    <glyph glyph-name="imacron" unicode="&#x12b;" horiz-adv-x="284" 
d="M278 512l-108 -512h-154l108 512h154zM68 572l23 106h292l-23 -106h-292z" />
    <glyph glyph-name="Ibreve" unicode="&#x12c;" horiz-adv-x="325" 
d="M180 697h161l-148 -697h-161zM141 871h101q-7 -31 5 -41.5t44 -10.5q31 0 47.5 10.5t23.5 41.5h94q-31 -143 -189 -143q-75 0 -108 35.5t-18 107.5z" />
    <glyph glyph-name="ibreve" unicode="&#x12d;" horiz-adv-x="284" 
d="M278 512l-108 -512h-154l108 512h154zM83 697h101q-6 -31 5.5 -41.5t43.5 -10.5t48.5 10.5t22.5 41.5h94q-31 -143 -189 -143q-75 0 -108 35.5t-18 107.5z" />
    <glyph glyph-name="Iogonek" unicode="&#x12e;" horiz-adv-x="325" 
d="M180 697h161l-148 -697h-57q-40 -23 -56.5 -42t-22.5 -44q-4 -21 6 -29.5t43 -8.5q46 0 84 26l24 -70q-57 -35 -142 -35q-76 0 -100.5 21.5t-15.5 67.5q18 76 120 114h-44z" />
    <glyph glyph-name="iogonek" unicode="&#x12f;" horiz-adv-x="284" 
d="M278 512l-108 -512h-42q-40 -23 -56.5 -42t-22.5 -44q-4 -21 6 -29.5t43 -8.5q46 0 84 26l24 -70q-57 -35 -142 -35q-76 0 -100.5 21.5t-15.5 67.5q18 76 120 114h-52l108 512h154zM249 734q51 0 65.5 -13.5t5.5 -59.5q-11 -50 -32 -65.5t-72 -15.5t-66 15.5t-4 65.5
q9 46 30 59.5t73 13.5z" />
    <glyph glyph-name="Idotaccent" unicode="&#x130;" horiz-adv-x="325" 
d="M180 697h161l-148 -697h-161zM297 877q41 0 52.5 -12t2.5 -52q-9 -44 -26 -57.5t-58 -13.5q-40 0 -51 13.5t-2 57.5q9 40 25.5 52t56.5 12z" />
    <glyph glyph-name="dotlessi" unicode="&#x131;" horiz-adv-x="284" 
d="M278 512l-108 -512h-154l108 512h154z" />
    <glyph glyph-name="IJ" unicode="&#x132;" horiz-adv-x="796" 
d="M180 697h161l-148 -697h-161zM815 697l-107 -505q-16 -77 -60 -125t-94 -64.5t-111 -16.5q-93 0 -164 26l58 144q52 -20 117 -20q79 0 97 82l102 479h162z" />
    <glyph glyph-name="ij" unicode="&#x133;" horiz-adv-x="570" 
d="M278 512l-108 -512h-154l108 512h154zM249 734q51 0 65.5 -13.5t5.5 -59.5q-11 -50 -32 -65.5t-72 -15.5t-66 15.5t-4 65.5q9 46 30 59.5t73 13.5zM533 734q51 0 65.5 -13.5t5.5 -59.5q-11 -50 -32 -65.5t-72 -15.5t-66 15.5t-4 65.5q9 46 30 59.5t73 13.5zM562 512
l-109 -514q-24 -112 -87.5 -156.5t-186.5 -44.5l26 124q79 0 93 73l110 518h154z" />
    <glyph glyph-name="Jcircumflex" unicode="&#x134;" horiz-adv-x="472" 
d="M492 697l-108 -505q-16 -77 -60 -125t-94 -64.5t-111 -16.5q-93 0 -164 26l58 144q52 -20 118 -20q78 0 96 82l102 479h163zM482 747l-51 72l-80 -72h-130l150 129h147l98 -129h-134z" />
    <glyph glyph-name="jcircumflex" unicode="&#x135;" horiz-adv-x="284" 
d="M407 568h-135l-51 71l-79 -71h-130l150 129h147zM278 512l-109 -514q-24 -112 -87.5 -156.5t-186.5 -44.5l26 124q79 0 93 73l110 518h154z" />
    <glyph glyph-name="Kcommaaccent" unicode="&#x136;" horiz-adv-x="684" 
d="M341 697l-148 -697h-161l148 697h161zM650 0h-194q-53 160 -104.5 257t-79.5 111q38 27 125 116t190 213h192q-106 -123 -188.5 -208.5t-115.5 -111.5q25 -23 74.5 -123t100.5 -254zM377 -51l-147 -167h-120l108 167h159z" />
    <glyph glyph-name="kcommaaccent" unicode="&#x137;" horiz-adv-x="588" 
d="M539 0h-178q-108 255 -134 271l-57 -271h-154l153 722h154l-96 -451q48 38 228 241h177q-160 -185 -225 -232q18 -14 54 -88t78 -192zM329 -51l-147 -167h-120l108 167h159z" />
    <glyph glyph-name="Lacute" unicode="&#x139;" horiz-adv-x="553" 
d="M180 697h161l-118 -555h314l-30 -142h-475zM339 747h-130l155 129h159z" />
    <glyph glyph-name="lacute" unicode="&#x13a;" horiz-adv-x="292" 
d="M323 722l-122 -573q-15 -72 8 -124l-149 -50q-36 60 -14 170l123 577h154zM296 747h-130l155 129h159z" />
    <glyph glyph-name="Lcommaaccent" unicode="&#x13b;" horiz-adv-x="553" 
d="M180 697h161l-118 -555h314l-30 -142h-475zM347 -51l-147 -167h-120l108 167h159z" />
    <glyph glyph-name="lcommaaccent" unicode="&#x13c;" horiz-adv-x="292" 
d="M323 722l-122 -573q-15 -72 8 -124l-149 -50q-36 60 -14 170l123 577h154zM205 -51l-147 -167h-120l108 167h159z" />
    <glyph glyph-name="Lcaron" unicode="&#x13d;" horiz-adv-x="553" 
d="M180 697h161l-118 -555h314l-30 -142h-475zM440 722h130l-99 -192h-91z" />
    <glyph glyph-name="lcaron" unicode="&#x13e;" horiz-adv-x="292" 
d="M323 722l-122 -573q-15 -72 8 -124l-149 -50q-36 60 -14 170l123 577h154zM389 722h130l-99 -192h-91z" />
    <glyph glyph-name="Ldot" unicode="&#x13f;" horiz-adv-x="553" 
d="M180 697h161l-118 -555h314l-30 -142h-475zM427 484q40 0 51.5 -12t3.5 -52q-10 -44 -26.5 -57.5t-56.5 -13.5t-51.5 13.5t-2.5 57.5q8 40 24.5 52t57.5 12z" />
    <glyph glyph-name="ldot" unicode="&#x140;" horiz-adv-x="292" 
d="M323 722l-122 -573q-15 -72 8 -124l-149 -50q-36 60 -14 170l123 577h154zM363 474q40 0 51.5 -12t2.5 -52q-9 -44 -26 -57.5t-57 -13.5t-51.5 13.5t-2.5 57.5q9 40 25.5 52t57.5 12z" />
    <glyph glyph-name="Lslash" unicode="&#x141;" horiz-adv-x="553" 
d="M467 574l-32 -148l-179 -127l-33 -157h314l-30 -142h-475l35 169l-75 -53l32 148l75 53l81 380h161l-53 -250z" />
    <glyph glyph-name="lslash" unicode="&#x142;" horiz-adv-x="302" 
d="M332 722l-45 -212l80 70l-32 -148l-80 -70l-45 -213q-15 -76 9 -125l-150 -48q-36 56 -21 129l20 94l-74 -64l32 148l73 63l80 376h153z" />
    <glyph glyph-name="Nacute" unicode="&#x143;" horiz-adv-x="796" 
d="M812 697l-148 -697h-200q-72 216 -173 476l-101 -476h-158l148 697h210q90 -228 164 -459l98 459h160zM533 747h-130l155 129h159z" />
    <glyph glyph-name="nacute" unicode="&#x144;" horiz-adv-x="597" 
d="M250 380l-80 -380h-154l102 480q136 46 269 46q110 0 149 -54.5t11 -188.5l-60 -283h-154l57 271q16 70 3 94t-68 24q-35 0 -75 -9zM385 568h-130l151 129h157z" />
    <glyph glyph-name="Ncommaaccent" unicode="&#x145;" horiz-adv-x="796" 
d="M812 697l-148 -697h-200q-72 216 -173 476l-101 -476h-158l148 697h210q90 -228 164 -459l98 459h160zM421 -51l-147 -167h-120l108 167h159z" />
    <glyph glyph-name="ncommaaccent" unicode="&#x146;" horiz-adv-x="597" 
d="M250 380l-80 -380h-154l102 480q136 46 269 46q110 0 149 -54.5t11 -188.5l-60 -283h-154l57 271q16 70 3 94t-68 24q-35 0 -75 -9zM322 -51l-147 -167h-120l108 167h159z" />
    <glyph glyph-name="Ncaron" unicode="&#x147;" horiz-adv-x="796" 
d="M812 697l-148 -697h-200q-72 216 -173 476l-101 -476h-158l148 697h210q90 -228 164 -459l98 459h160zM483 876l51 -72l81 72h130l-150 -129h-147l-98 129h133z" />
    <glyph glyph-name="ncaron" unicode="&#x148;" horiz-adv-x="597" 
d="M250 380l-80 -380h-154l102 480q136 46 269 46q110 0 149 -54.5t11 -188.5l-60 -283h-154l57 271q16 70 3 94t-68 24q-35 0 -75 -9zM332 697l51 -71l79 71h130l-150 -129h-147l-98 129h135z" />
    <glyph glyph-name="Omacron" unicode="&#x14c;" horiz-adv-x="775" 
d="M489 714q58 0 101.5 -7t79 -23t57.5 -43t33 -66.5t9 -94t-17 -124.5q-23 -106 -59 -178.5t-89 -114.5t-117.5 -59.5t-151.5 -17.5t-143.5 17.5t-93.5 60t-40.5 113.5t16.5 179q22 105 58 175t89 110t116.5 56.5t151.5 16.5zM366 133q56 0 87.5 7t56.5 32t39.5 65.5
t30.5 116.5q13 60 16 95.5t-0.5 60.5t-22.5 36.5t-44 15.5t-71 4q-57 0 -87.5 -6t-56 -29.5t-39 -63t-29.5 -113.5q-13 -61 -16.5 -97.5t0 -63t21.5 -38.5t44 -17t71 -5zM350 745l23 107h292l-23 -107h-292z" />
    <glyph glyph-name="omacron" unicode="&#x14d;" horiz-adv-x="590" 
d="M241 -14q-129 0 -176 60.5t-14 212.5q32 151 103.5 209t200.5 58q131 0 178.5 -58t15.5 -209q-33 -152 -105.5 -212.5t-202.5 -60.5zM330 406q-57 0 -81 -26.5t-44 -123.5q-19 -97 -7 -123.5t68 -26.5t81 28t45 122q19 100 7 125t-69 25zM219 572l23 106h292l-23 -106
h-292z" />
    <glyph glyph-name="Obreve" unicode="&#x14e;" horiz-adv-x="775" 
d="M489 714q58 0 101.5 -7t79 -23t57.5 -43t33 -66.5t9 -94t-17 -124.5q-23 -106 -59 -178.5t-89 -114.5t-117.5 -59.5t-151.5 -17.5t-143.5 17.5t-93.5 60t-40.5 113.5t16.5 179q22 105 58 175t89 110t116.5 56.5t151.5 16.5zM366 133q56 0 87.5 7t56.5 32t39.5 65.5
t30.5 116.5q13 60 16 95.5t-0.5 60.5t-22.5 36.5t-44 15.5t-71 4q-57 0 -87.5 -6t-56 -29.5t-39 -63t-29.5 -113.5q-13 -61 -16.5 -97.5t0 -63t21.5 -38.5t44 -17t71 -5zM366 871h101q-7 -31 5 -41.5t44 -10.5q31 0 47.5 10.5t23.5 41.5h94q-31 -143 -189 -143
q-75 0 -108 35.5t-18 107.5z" />
    <glyph glyph-name="obreve" unicode="&#x14f;" horiz-adv-x="590" 
d="M241 -14q-129 0 -176 60.5t-14 212.5q32 151 103.5 209t200.5 58q131 0 178.5 -58t15.5 -209q-33 -152 -105.5 -212.5t-202.5 -60.5zM330 406q-57 0 -81 -26.5t-44 -123.5q-19 -97 -7 -123.5t68 -26.5t81 28t45 122q19 100 7 125t-69 25zM234 697h101q-6 -31 5.5 -41.5
t43.5 -10.5t48.5 10.5t22.5 41.5h94q-31 -143 -189 -143q-75 0 -108 35.5t-18 107.5z" />
    <glyph glyph-name="Ohungarumlaut" unicode="&#x150;" horiz-adv-x="775" 
d="M489 714q58 0 101.5 -7t79 -23t57.5 -43t33 -66.5t9 -94t-17 -124.5q-23 -106 -59 -178.5t-89 -114.5t-117.5 -59.5t-151.5 -17.5t-143.5 17.5t-93.5 60t-40.5 113.5t16.5 179q22 105 58 175t89 110t116.5 56.5t151.5 16.5zM366 133q56 0 87.5 7t56.5 32t39.5 65.5
t30.5 116.5q13 60 16 95.5t-0.5 60.5t-22.5 36.5t-44 15.5t-71 4q-57 0 -87.5 -6t-56 -29.5t-39 -63t-29.5 -113.5q-13 -61 -16.5 -97.5t0 -63t21.5 -38.5t44 -17t71 -5zM421 747h-102l122 129h126zM599 747h-102l121 129h127z" />
    <glyph glyph-name="ohungarumlaut" unicode="&#x151;" horiz-adv-x="590" 
d="M241 -14q-129 0 -176 60.5t-14 212.5q32 151 103.5 209t200.5 58q131 0 178.5 -58t15.5 -209q-33 -152 -105.5 -212.5t-202.5 -60.5zM330 406q-57 0 -81 -26.5t-44 -123.5q-19 -97 -7 -123.5t68 -26.5t81 28t45 122q19 100 7 125t-69 25zM292 568h-102l122 129h126z
M470 568h-102l121 129h127z" />
    <glyph glyph-name="OE" unicode="&#x152;" horiz-adv-x="1093" 
d="M635 697h532l-30 -141h-377q15 -47 4 -125h197l-29 -138h-196q-26 -95 -69 -152h381l-29 -141h-546q-60 -14 -138 -14q-87 0 -143.5 17.5t-93.5 60t-40.5 113.5t16.5 179q22 105 58 175t89 110t116.5 56.5t151.5 16.5t146 -17zM366 133q56 0 87.5 7t56.5 32t39.5 65.5
t30.5 116.5q13 60 16 95.5t-0.5 60.5t-22.5 36.5t-44 15.5t-71 4q-57 0 -87.5 -6t-56 -29.5t-39 -63t-29.5 -113.5q-13 -61 -16.5 -97.5t0 -63t21.5 -38.5t44 -17t71 -5z" />
    <glyph glyph-name="oe" unicode="&#x153;" horiz-adv-x="895" 
d="M775 131l-2 -117q-89 -28 -189 -28q-115 0 -156 57q-63 -57 -187 -57q-129 0 -176 60.5t-14 212.5q32 151 103.5 209t200.5 58q121 0 161 -52q62 52 171 52q54 0 89.5 -7.5t61.5 -27.5t34.5 -55.5t3.5 -90.5t-26 -134h-313q-11 -58 11 -77.5t82 -19.5q77 0 145 17z
M330 406q-57 0 -81 -26.5t-44 -123.5q-19 -97 -7 -123.5t68 -26.5t81 28t45 122q19 100 7 125t-69 25zM674 410q-47 0 -70.5 -18t-41.5 -68h178q9 52 -5 69t-61 17z" />
    <glyph glyph-name="Racute" unicode="&#x154;" horiz-adv-x="722" 
d="M312 560l-39 -179h179q28 0 49.5 21.5t30.5 65.5q19 92 -39 92h-181zM501 299q33 -13 69 -76t97 -223h-201q-50 140 -83 194.5t-66 54.5h-72l-52 -249h-161l148 697h389q191 0 147 -204q-39 -185 -215 -194zM469 747h-130l155 129h159z" />
    <glyph glyph-name="racute" unicode="&#x155;" horiz-adv-x="397" 
d="M16 0l108 512h154l-8 -40q41 54 135 54q24 0 51 -3l-31 -143q-24 8 -70 8q-44 0 -76.5 -14t-37.5 -38l-71 -336h-154zM349 568h-130l151 129h157z" />
    <glyph glyph-name="Rcommaaccent" unicode="&#x156;" horiz-adv-x="722" 
d="M312 560l-39 -179h179q28 0 49.5 21.5t30.5 65.5q19 92 -39 92h-181zM501 299q33 -13 69 -76t97 -223h-201q-50 140 -83 194.5t-66 54.5h-72l-52 -249h-161l148 697h389q191 0 147 -204q-39 -185 -215 -194zM396 -51l-147 -167h-120l108 167h159z" />
    <glyph glyph-name="rcommaaccent" unicode="&#x157;" horiz-adv-x="397" 
d="M16 0l108 512h154l-8 -40q41 54 135 54q24 0 51 -3l-31 -143q-24 8 -70 8q-44 0 -76.5 -14t-37.5 -38l-71 -336h-154zM191 -51l-147 -167h-120l108 167h159z" />
    <glyph glyph-name="Rcaron" unicode="&#x158;" horiz-adv-x="722" 
d="M312 560l-39 -179h179q28 0 49.5 21.5t30.5 65.5q19 92 -39 92h-181zM501 299q33 -13 69 -76t97 -223h-201q-50 140 -83 194.5t-66 54.5h-72l-52 -249h-161l148 697h389q191 0 147 -204q-39 -185 -215 -194zM420 876l51 -72l81 72h130l-150 -129h-147l-98 129h133z" />
    <glyph glyph-name="rcaron" unicode="&#x159;" horiz-adv-x="397" 
d="M16 0l108 512h154l-8 -40q41 54 135 54q24 0 51 -3l-31 -143q-24 8 -70 8q-44 0 -76.5 -14t-37.5 -38l-71 -336h-154zM276 697l51 -71l79 71h130l-150 -129h-147l-98 129h135z" />
    <glyph glyph-name="Sacute" unicode="&#x15a;" horiz-adv-x="622" 
d="M665 681l-62 -138q-77 23 -186 23q-76 0 -108.5 -15.5t-40.5 -52.5q-7 -34 16.5 -49t109.5 -24q117 -14 161.5 -63.5t23.5 -148.5q-27 -127 -109 -177t-248 -50q-135 0 -219 33l62 138q80 -23 186 -23q79 0 111 14.5t40 53.5q8 35 -17 52t-116 27q-112 12 -155 56
t-23 138q27 128 113.5 183.5t244.5 55.5q133 0 216 -33zM449 747h-130l155 129h159z" />
    <glyph glyph-name="sacute" unicode="&#x15b;" horiz-adv-x="484" 
d="M494 498l-54 -114q-76 22 -146 22q-40 0 -58 -8t-24 -36q-4 -20 11.5 -28.5t72.5 -15.5q90 -12 122.5 -45.5t16.5 -110.5q-21 -97 -90 -136.5t-176 -39.5q-105 0 -177 28l55 116q69 -21 141 -21q49 0 70 8.5t27 36.5q5 22 -13 31.5t-79 15.5q-84 8 -116 40t-16 110
q21 97 89 136t175 39q97 0 169 -28zM337 568h-130l151 129h157z" />
    <glyph glyph-name="Scircumflex" unicode="&#x15c;" horiz-adv-x="622" 
d="M665 681l-62 -138q-77 23 -186 23q-76 0 -108.5 -15.5t-40.5 -52.5q-7 -34 16.5 -49t109.5 -24q117 -14 161.5 -63.5t23.5 -148.5q-27 -127 -109 -177t-248 -50q-135 0 -219 33l62 138q80 -23 186 -23q79 0 111 14.5t40 53.5q8 35 -17 52t-116 27q-112 12 -155 56
t-23 138q27 128 113.5 183.5t244.5 55.5q133 0 216 -33zM500 747l-51 72l-80 -72h-130l150 129h147l98 -129h-134z" />
    <glyph glyph-name="scircumflex" unicode="&#x15d;" horiz-adv-x="484" 
d="M494 498l-54 -114q-76 22 -146 22q-40 0 -58 -8t-24 -36q-4 -20 11.5 -28.5t72.5 -15.5q90 -12 122.5 -45.5t16.5 -110.5q-21 -97 -90 -136.5t-176 -39.5q-105 0 -177 28l55 116q69 -21 141 -21q49 0 70 8.5t27 36.5q5 22 -13 31.5t-79 15.5q-84 8 -116 40t-16 110
q21 97 89 136t175 39q97 0 169 -28zM391 568l-51 71l-79 -71h-131l150 129h147l98 -129h-134z" />
    <glyph glyph-name="Scedilla" unicode="&#x15e;" horiz-adv-x="622" 
d="M665 681l-62 -138q-77 23 -186 23q-76 0 -108.5 -15.5t-40.5 -52.5q-7 -34 16.5 -49t109.5 -24q117 -14 161.5 -63.5t23.5 -148.5q-25 -115 -94.5 -166t-204.5 -59l-6 -27q54 0 76 -18.5t12 -60.5q-10 -48 -45.5 -66.5t-115.5 -18.5q-59 0 -91 13l37 60q18 -9 60 -9
q34 0 39 23q3 16 -14 21t-62 1l47 80q-131 2 -214 33l62 138q80 -23 186 -23q79 0 111 14.5t40 53.5q8 35 -17 52t-116 27q-112 12 -155 56t-23 138q27 128 113.5 183.5t244.5 55.5q133 0 216 -33z" />
    <glyph glyph-name="Scedilla" unicode="&#xf6c1;" horiz-adv-x="622" 
d="M665 681l-62 -138q-77 23 -186 23q-76 0 -108.5 -15.5t-40.5 -52.5q-7 -34 16.5 -49t109.5 -24q117 -14 161.5 -63.5t23.5 -148.5q-25 -115 -94.5 -166t-204.5 -59l-6 -27q54 0 76 -18.5t12 -60.5q-10 -48 -45.5 -66.5t-115.5 -18.5q-59 0 -91 13l37 60q18 -9 60 -9
q34 0 39 23q3 16 -14 21t-62 1l47 80q-131 2 -214 33l62 138q80 -23 186 -23q79 0 111 14.5t40 53.5q8 35 -17 52t-116 27q-112 12 -155 56t-23 138q27 128 113.5 183.5t244.5 55.5q133 0 216 -33z" />
    <glyph glyph-name="scedilla" unicode="&#x15f;" horiz-adv-x="484" 
d="M494 498l-54 -114q-76 22 -146 22q-40 0 -58 -8t-24 -36q-4 -20 11.5 -28.5t72.5 -15.5q90 -12 122.5 -45.5t16.5 -110.5q-35 -160 -222 -174l-6 -27q54 0 76 -18.5t12 -60.5q-10 -48 -45.5 -66.5t-115.5 -18.5q-59 0 -91 13l37 60q18 -9 60 -9q34 0 39 23q3 16 -14 21
t-62 1l48 80q-96 4 -159 28l55 116q69 -21 141 -21q49 0 70 8.5t27 36.5q5 22 -13 31.5t-79 15.5q-84 8 -116 40t-16 110q21 97 89 136t175 39q97 0 169 -28z" />
    <glyph glyph-name="scedilla" unicode="&#xf6c2;" horiz-adv-x="484" 
d="M494 498l-54 -114q-76 22 -146 22q-40 0 -58 -8t-24 -36q-4 -20 11.5 -28.5t72.5 -15.5q90 -12 122.5 -45.5t16.5 -110.5q-35 -160 -222 -174l-6 -27q54 0 76 -18.5t12 -60.5q-10 -48 -45.5 -66.5t-115.5 -18.5q-59 0 -91 13l37 60q18 -9 60 -9q34 0 39 23q3 16 -14 21
t-62 1l48 80q-96 4 -159 28l55 116q69 -21 141 -21q49 0 70 8.5t27 36.5q5 22 -13 31.5t-79 15.5q-84 8 -116 40t-16 110q21 97 89 136t175 39q97 0 169 -28z" />
    <glyph glyph-name="Scaron" unicode="&#x160;" horiz-adv-x="622" 
d="M665 681l-62 -138q-77 23 -186 23q-76 0 -108.5 -15.5t-40.5 -52.5q-7 -34 16.5 -49t109.5 -24q117 -14 161.5 -63.5t23.5 -148.5q-27 -127 -109 -177t-248 -50q-135 0 -219 33l62 138q80 -23 186 -23q79 0 111 14.5t40 53.5q8 35 -17 52t-116 27q-112 12 -155 56
t-23 138q27 128 113.5 183.5t244.5 55.5q133 0 216 -33zM395 876l51 -72l81 72h130l-150 -129h-147l-98 129h133z" />
    <glyph glyph-name="scaron" unicode="&#x161;" horiz-adv-x="484" 
d="M494 498l-54 -114q-76 22 -146 22q-40 0 -58 -8t-24 -36q-4 -20 11.5 -28.5t72.5 -15.5q90 -12 122.5 -45.5t16.5 -110.5q-21 -97 -90 -136.5t-176 -39.5q-105 0 -177 28l55 116q69 -21 141 -21q49 0 70 8.5t27 36.5q5 22 -13 31.5t-79 15.5q-84 8 -116 40t-16 110
q21 97 89 136t175 39q97 0 169 -28zM285 697l51 -71l79 71h130l-150 -129h-147l-98 129h135z" />
    <glyph glyph-name="Tcommaaccent" unicode="&#x162;" horiz-adv-x="629" 
d="M346 0h-162l118 556h-233l30 141h627l-30 -141h-232zM360 -51l-147 -167h-120l108 167h159z" />
    <glyph glyph-name="Tcommaaccent" unicode="&#x21a;" horiz-adv-x="629" 
d="M346 0h-162l118 556h-233l30 141h627l-30 -141h-232zM360 -51l-147 -167h-120l108 167h159z" />
    <glyph glyph-name="tcommaaccent" unicode="&#x163;" horiz-adv-x="427" 
d="M435 380h-160l-40 -191q-8 -40 3 -56.5t50 -16.5q40 0 85 14v-118q-67 -26 -159 -26q-91 0 -125.5 39t-11.5 148l44 207h-83l28 132h83l16 76l168 62l-30 -138h160zM260 -51l-147 -167h-120l108 167h159z" />
    <glyph glyph-name="tcommaaccent" unicode="&#x21b;" horiz-adv-x="427" 
d="M435 380h-160l-40 -191q-8 -40 3 -56.5t50 -16.5q40 0 85 14v-118q-67 -26 -159 -26q-91 0 -125.5 39t-11.5 148l44 207h-83l28 132h83l16 76l168 62l-30 -138h160zM260 -51l-147 -167h-120l108 167h159z" />
    <glyph glyph-name="Tcaron" unicode="&#x164;" horiz-adv-x="629" 
d="M346 0h-162l118 556h-233l30 141h627l-30 -141h-232zM390 876l51 -72l81 72h130l-150 -129h-147l-98 129h133z" />
    <glyph glyph-name="tcaron" unicode="&#x165;" horiz-adv-x="427" 
d="M435 380h-160l-40 -191q-8 -40 3 -56.5t50 -16.5q40 0 85 14v-118q-67 -26 -159 -26q-91 0 -125.5 39t-11.5 148l44 207h-83l28 132h83l16 76l168 62l-30 -138h160zM444 771h130l-99 -192h-91z" />
    <glyph glyph-name="Tbar" unicode="&#x166;" horiz-adv-x="629" 
d="M163 227l22 107h69l47 221h-233l31 142h627l-31 -142h-232l-47 -221h62l-22 -107h-62l-48 -227h-162l48 227h-69z" />
    <glyph glyph-name="tbar" unicode="&#x167;" horiz-adv-x="427" 
d="M34 212l19 92h52l16 76h-83l28 132h83l16 76l168 62l-30 -138h160l-28 -132h-160l-16 -76h86l-19 -92h-86l-5 -23q-8 -40 3.5 -56.5t51.5 -16.5q38 0 83 14v-118q-67 -26 -157 -26q-92 0 -127 39.5t-12 147.5l9 39h-52z" />
    <glyph glyph-name="Utilde" unicode="&#x168;" horiz-adv-x="745" 
d="M607 697h162l-107 -502q-17 -81 -65.5 -128.5t-114 -64t-163.5 -16.5q-149 0 -214.5 45t-40.5 164l107 502h163l-90 -421q-10 -47 -11 -78t25.5 -46.5t91.5 -15.5q49 0 79.5 8t47.5 29t24 41.5t16 61.5zM630 885l59 -58q-23 -41 -61.5 -67.5t-83.5 -26.5q-33 0 -72 23.5
t-61 23.5q-28 0 -57 -45l-52 64q62 79 127 79q40 0 80 -22.5t60 -22.5q17 0 30 11t31 41z" />
    <glyph glyph-name="utilde" unicode="&#x169;" horiz-adv-x="597" 
d="M357 132l80 380h152l-102 -481q-140 -46 -269 -46q-110 0 -148.5 54.5t-9.5 188.5l60 284h152l-57 -272q-16 -69 -3 -93.5t68 -24.5q29 0 77 10zM516 708l60 -58q-24 -42 -61.5 -68t-82.5 -26q-33 0 -71 23.5t-60 23.5q-29 0 -58 -46l-52 65q61 80 128 80q41 0 78.5 -23
t57.5 -23q17 0 30 11t31 41z" />
    <glyph glyph-name="Umacron" unicode="&#x16a;" horiz-adv-x="745" 
d="M607 697h162l-107 -502q-17 -81 -65.5 -128.5t-114 -64t-163.5 -16.5q-149 0 -214.5 45t-40.5 164l107 502h163l-90 -421q-10 -47 -11 -78t25.5 -46.5t91.5 -15.5q49 0 79.5 8t47.5 29t24 41.5t16 61.5zM331 745l23 107h292l-23 -107h-292z" />
    <glyph glyph-name="umacron" unicode="&#x16b;" horiz-adv-x="597" 
d="M357 132l80 380h152l-102 -481q-140 -46 -269 -46q-110 0 -148.5 54.5t-9.5 188.5l60 284h152l-57 -272q-16 -69 -3 -93.5t68 -24.5q29 0 77 10zM219 572l23 106h292l-23 -106h-292z" />
    <glyph glyph-name="Ubreve" unicode="&#x16c;" horiz-adv-x="745" 
d="M607 697h162l-107 -502q-17 -81 -65.5 -128.5t-114 -64t-163.5 -16.5q-149 0 -214.5 45t-40.5 164l107 502h163l-90 -421q-10 -47 -11 -78t25.5 -46.5t91.5 -15.5q49 0 79.5 8t47.5 29t24 41.5t16 61.5zM348 871h101q-7 -31 5 -41.5t44 -10.5q31 0 47.5 10.5t23.5 41.5
h94q-31 -143 -189 -143q-75 0 -108 35.5t-18 107.5z" />
    <glyph glyph-name="ubreve" unicode="&#x16d;" horiz-adv-x="597" 
d="M357 132l80 380h152l-102 -481q-140 -46 -269 -46q-110 0 -148.5 54.5t-9.5 188.5l60 284h152l-57 -272q-16 -69 -3 -93.5t68 -24.5q29 0 77 10zM235 697h101q-6 -31 5.5 -41.5t43.5 -10.5t48.5 10.5t22.5 41.5h94q-31 -143 -189 -143q-75 0 -108 35.5t-18 107.5z" />
    <glyph glyph-name="Uring" unicode="&#x16e;" horiz-adv-x="745" 
d="M607 697h162l-107 -502q-17 -81 -65.5 -128.5t-114 -64t-163.5 -16.5q-149 0 -214.5 45t-40.5 164l107 502h163l-90 -421q-10 -47 -11 -78t25.5 -46.5t91.5 -15.5q49 0 79.5 8t47.5 29t24 41.5t16 61.5zM511 899q65 0 89 -22t12 -78t-45.5 -78t-98.5 -22q-66 0 -91 22
t-13 78t45.5 78t101.5 22zM497 837q-28 0 -39 -8.5t-16 -30.5t3 -30.5t36 -8.5q27 0 38 9t16 30q5 22 -2.5 30.5t-35.5 8.5z" />
    <glyph glyph-name="uring" unicode="&#x16f;" horiz-adv-x="597" 
d="M357 132l80 380h152l-102 -481q-140 -46 -269 -46q-110 0 -148.5 54.5t-9.5 188.5l60 284h152l-57 -272q-16 -69 -3 -93.5t68 -24.5q29 0 77 10zM405 742q65 0 89.5 -22t12.5 -78t-45.5 -78t-98.5 -22q-66 0 -91 22t-13 78t45 78t101 22zM392 680q-28 0 -39 -8.5
t-16 -30.5t3 -30t36 -8q27 0 38 8.5t16 29.5q5 22 -2.5 30.5t-35.5 8.5z" />
    <glyph glyph-name="Uhungarumlaut" unicode="&#x170;" horiz-adv-x="745" 
d="M607 697h162l-107 -502q-17 -81 -65.5 -128.5t-114 -64t-163.5 -16.5q-149 0 -214.5 45t-40.5 164l107 502h163l-90 -421q-10 -47 -11 -78t25.5 -46.5t91.5 -15.5q49 0 79.5 8t47.5 29t24 41.5t16 61.5zM410 747h-102l122 129h126zM588 747h-102l121 129h127z" />
    <glyph glyph-name="uhungarumlaut" unicode="&#x171;" horiz-adv-x="597" 
d="M357 132l80 380h152l-102 -481q-140 -46 -269 -46q-110 0 -148.5 54.5t-9.5 188.5l60 284h152l-57 -272q-16 -69 -3 -93.5t68 -24.5q29 0 77 10zM290 568h-102l122 129h126zM468 568h-102l121 129h127z" />
    <glyph glyph-name="Uogonek" unicode="&#x172;" horiz-adv-x="745" 
d="M607 697h162l-107 -502q-16 -74 -57.5 -120t-98 -65t-139.5 -23q-49 -31 -58 -73q-4 -21 6 -29.5t43 -8.5q46 0 84 26l24 -70q-57 -35 -142 -35q-76 0 -100.5 21.5t-15.5 67.5q13 61 89 100q-138 3 -198 49t-35 160l107 502h163l-90 -421q-10 -47 -11 -78t25.5 -46.5
t91.5 -15.5q49 0 79.5 8t47.5 29t24 41.5t16 61.5z" />
    <glyph glyph-name="uogonek" unicode="&#x173;" horiz-adv-x="597" 
d="M357 132l80 380h152l-102 -481q-28 -10 -79 -22q-51 -28 -70.5 -48t-25.5 -47q-4 -21 6 -29.5t43 -8.5q46 0 84 26l24 -70q-57 -35 -142 -35q-76 0 -100.5 21.5t-15.5 67.5q15 66 100 106q-56 -7 -93 -7q-110 0 -148.5 54.5t-9.5 188.5l60 284h152l-57 -272
q-16 -69 -3 -93.5t68 -24.5q29 0 77 10z" />
    <glyph glyph-name="Wcircumflex" unicode="&#x174;" horiz-adv-x="1011" 
d="M548 421q-75 -173 -202 -421h-205q-14 444 -49 697h175q30 -236 33 -488q168 328 234 488h146q24 -301 26 -488q124 232 232 488h169q-142 -316 -347 -697h-206q3 139 -6 421zM680 747l-51 72l-80 -72h-130l150 129h147l98 -129h-134z" />
    <glyph glyph-name="wcircumflex" unicode="&#x175;" horiz-adv-x="838" 
d="M431 297q-54 -124 -146 -297h-184q-16 258 -55 512h157q25 -160 33 -352q93 170 174 352h139q17 -154 21 -352q123 225 179 352h154q-145 -288 -284 -512h-184q2 155 -4 297zM553 568l-51 71l-79 -71h-131l150 129h147l98 -129h-134z" />
    <glyph glyph-name="Ycircumflex" unicode="&#x176;" horiz-adv-x="653" 
d="M257 697q62 -115 126 -247q158 170 219 247h199q-176 -204 -375 -413l-60 -284h-161l60 283q-156 308 -222 414h214zM509 747l-51 72l-80 -72h-130l150 129h147l98 -129h-134z" />
    <glyph glyph-name="ycircumflex" unicode="&#x177;" horiz-adv-x="512" 
d="M109 -25q-15 250 -62 536h155q26 -155 36 -356q121 214 185 356h153q-137 -273 -310 -542q-78 -121 -107 -161h-169q44 56 119 167zM391 568l-51 71l-79 -71h-131l150 129h147l98 -129h-134z" />
    <glyph glyph-name="Ydieresis" unicode="&#x178;" horiz-adv-x="653" 
d="M257 697q62 -115 126 -247q158 170 219 247h199q-176 -204 -375 -413l-60 -284h-161l60 283q-156 308 -222 414h214zM359 872q41 0 52.5 -11.5t2.5 -51.5q-9 -44 -26 -57.5t-58 -13.5q-40 0 -51 13.5t-2 57.5q9 40 25 51.5t57 11.5zM585 872q40 0 51.5 -11.5t2.5 -51.5
q-9 -44 -26 -57.5t-57 -13.5q-41 0 -52 13.5t-2 57.5q9 40 25.5 51.5t57.5 11.5z" />
    <glyph glyph-name="Zacute" unicode="&#x179;" horiz-adv-x="628" 
d="M-35 0l7 34l454 522h-323l30 141h579l-7 -32q-83 -105 -230.5 -274.5t-225.5 -249.5h342l-29 -141h-597zM449 747h-130l155 129h159z" />
    <glyph glyph-name="zacute" unicode="&#x17a;" horiz-adv-x="498" 
d="M85 512h458l-5 -25q-148 -182 -313 -355h226l-28 -132h-463l5 25l177 192t138 163h-223zM364 568h-130l151 129h157z" />
    <glyph glyph-name="Zdotaccent" unicode="&#x17b;" horiz-adv-x="628" 
d="M-35 0l7 34l454 522h-323l30 141h579l-7 -32q-83 -105 -230.5 -274.5t-225.5 -249.5h342l-29 -141h-597zM458 877q41 0 52.5 -12t2.5 -52q-9 -44 -26 -57.5t-58 -13.5q-40 0 -51 13.5t-2 57.5q9 40 25.5 52t56.5 12z" />
    <glyph glyph-name="zdotaccent" unicode="&#x17c;" horiz-adv-x="498" 
d="M85 512h458l-5 -25q-148 -182 -313 -355h226l-28 -132h-463l5 25l177 192t138 163h-223zM351 694q40 0 51.5 -12t2.5 -52q-9 -44 -26 -57.5t-57 -13.5t-51.5 13.5t-2.5 57.5q9 40 25.5 52t57.5 12z" />
    <glyph glyph-name="Zcaron" unicode="&#x17d;" horiz-adv-x="628" 
d="M-35 0l7 34l454 522h-323l30 141h579l-7 -32q-83 -105 -230.5 -274.5t-225.5 -249.5h342l-29 -141h-597zM401 876l51 -72l81 72h130l-150 -129h-147l-98 129h133z" />
    <glyph glyph-name="zcaron" unicode="&#x17e;" horiz-adv-x="498" 
d="M85 512h458l-5 -25q-148 -182 -313 -355h226l-28 -132h-463l5 25l177 192t138 163h-223zM288 697l51 -71l79 71h130l-150 -129h-147l-98 129h135z" />
    <glyph glyph-name="florin" unicode="&#x192;" horiz-adv-x="387" 
d="M309 528l-3 -17h165l-24 -131h-166l-73 -387q-18 -93 -86.5 -144t-151.5 -51q-112 0 -169 24l47 113q52 -18 101 -18q44 0 71.5 16t35.5 60l72 387h-91l25 131h90l5 27q19 98 80.5 143t151.5 45q91 0 154 -24l-54 -119q-39 14 -94 14q-73 0 -86 -69z" />
    <glyph glyph-name="Scommaaccent" unicode="&#x218;" horiz-adv-x="622" 
d="M665 681l-62 -138q-77 23 -186 23q-76 0 -108.5 -15.5t-40.5 -52.5q-7 -34 16.5 -49t109.5 -24q117 -14 161.5 -63.5t23.5 -148.5q-27 -127 -109 -177t-248 -50q-135 0 -219 33l62 138q80 -23 186 -23q79 0 111 14.5t40 53.5q8 35 -17 52t-116 27q-112 12 -155 56
t-23 138q27 128 113.5 183.5t244.5 55.5q133 0 216 -33zM351 -51l-147 -167h-120l108 167h159z" />
    <glyph glyph-name="scommaaccent" unicode="&#x219;" horiz-adv-x="484" 
d="M494 498l-54 -114q-76 22 -146 22q-40 0 -58 -8t-24 -36q-4 -20 11.5 -28.5t72.5 -15.5q90 -12 122.5 -45.5t16.5 -110.5q-21 -97 -90 -136.5t-176 -39.5q-105 0 -177 28l55 116q69 -21 141 -21q49 0 70 8.5t27 36.5q5 22 -13 31.5t-79 15.5q-84 8 -116 40t-16 110
q21 97 89 136t175 39q97 0 169 -28zM281 -51l-147 -167h-120l108 167h159z" />
    <glyph glyph-name="circumflex" unicode="&#x2c6;" horiz-adv-x="651" 
d="M472 568l-51 71l-79 -71h-131l150 129h147l98 -129h-134z" />
    <glyph glyph-name="caron" unicode="&#x2c7;" horiz-adv-x="647" 
d="M374 697l51 -71l79 71h130l-150 -129h-147l-98 129h135z" />
    <glyph glyph-name="breve" unicode="&#x2d8;" horiz-adv-x="518" 
d="M189 697h101q-6 -31 5.5 -41.5t43.5 -10.5t48.5 10.5t22.5 41.5h94q-31 -143 -189 -143q-75 0 -108 35.5t-18 107.5z" />
    <glyph glyph-name="dotaccent" unicode="&#x2d9;" horiz-adv-x="490" 
d="M322 694q40 0 51.5 -12t2.5 -52q-9 -44 -26 -57.5t-57 -13.5t-51.5 13.5t-2.5 57.5q9 40 25.5 52t57.5 12z" />
    <glyph glyph-name="ring" unicode="&#x2da;" horiz-adv-x="708" 
d="M467 742q65 0 89.5 -22t12.5 -78t-45.5 -78t-98.5 -22q-66 0 -91 22t-13 78t45 78t101 22zM454 680q-28 0 -39 -8.5t-16 -30.5t3 -30t36 -8q27 0 38 8.5t16 29.5q5 22 -2.5 30.5t-35.5 8.5z" />
    <glyph glyph-name="ogonek" unicode="&#x2db;" horiz-adv-x="635" 
d="M397 12h43q-54 -29 -74.5 -49.5t-26.5 -48.5q-4 -21 6 -29.5t43 -8.5q46 0 84 26l24 -70q-57 -35 -142 -35q-76 0 -100.5 21.5t-15.5 67.5q9 42 49.5 75.5t109.5 50.5z" />
    <glyph glyph-name="tilde" unicode="&#x2dc;" horiz-adv-x="709" 
d="M549 708l60 -58q-24 -42 -61.5 -68t-82.5 -26q-33 0 -71 23.5t-60 23.5q-29 0 -58 -46l-52 65q61 80 128 80q40 0 78 -23t58 -23q17 0 30 11t31 41z" />
    <glyph glyph-name="hungarumlaut" unicode="&#x2dd;" horiz-adv-x="509" 
d="M328 568h-102l122 129h126zM506 568h-102l121 129h127z" />
    <glyph glyph-name="Delta" unicode="&#x394;" horiz-adv-x="653" 
d="M624 0h-705q163 320 399 697h206q38 -427 100 -697zM373 523q-79 -129 -212 -382h259q-34 206 -47 382z" />
    <glyph glyph-name="Delta" unicode="&#x2206;" horiz-adv-x="653" 
d="M624 0h-705q163 320 399 697h206q38 -427 100 -697zM373 523q-79 -129 -212 -382h259q-34 206 -47 382z" />
    <glyph glyph-name="Omega" unicode="&#x3a9;" horiz-adv-x="810" 
d="M-43 0l31 147h146q-29 24 -38 94t8 155q38 176 134 247t267 71t238 -71t29 -247q-18 -82 -57.5 -153t-78.5 -96h147l-31 -147h-339l29 139q66 16 99 74t59 181q23 110 0 141t-126 31t-139.5 -31t-59.5 -141q-27 -111 -18.5 -175t66.5 -80l-29 -139h-337z" />
    <glyph glyph-name="Omega" unicode="&#x2126;" horiz-adv-x="810" 
d="M-43 0l31 147h146q-29 24 -38 94t8 155q38 176 134 247t267 71t238 -71t29 -247q-18 -82 -57.5 -153t-78.5 -96h147l-31 -147h-339l29 139q66 16 99 74t59 181q23 110 0 141t-126 31t-139.5 -31t-59.5 -141q-27 -111 -18.5 -175t66.5 -80l-29 -139h-337z" />
    <glyph glyph-name="pi" unicode="&#x3c0;" horiz-adv-x="654" 
d="M49 365l31 147h610l-31 -147h-82l-77 -365h-153l77 365h-143l-54 -256q-24 -113 -109 -161l-84 99q29 18 38 60l55 258h-78z" />
    <glyph glyph-name="afii10023" unicode="&#x401;" horiz-adv-x="626" 
d="M180 697h520l-30 -141h-359l-27 -125h257l-29 -138h-257l-33 -152h359l-29 -141h-520zM359 872q41 0 52.5 -11.5t2.5 -51.5q-9 -44 -26 -57.5t-58 -13.5q-40 0 -51 13.5t-2 57.5q9 40 25 51.5t57 11.5zM585 872q40 0 51.5 -11.5t2.5 -51.5q-9 -44 -26 -57.5t-57 -13.5
q-41 0 -52 13.5t-2 57.5q9 40 25.5 51.5t57.5 11.5z" />
    <glyph glyph-name="afii10051" unicode="&#x402;" horiz-adv-x="767" 
d="M696 556h-232l-26 -122q73 32 143 32q39 0 65 -6t47 -24t29 -49t5.5 -82t-17.5 -122q-61 -290 -227 -372l-93 102q56 30 93 85.5t63 178.5q19 102 7.5 127.5t-61.5 25.5q-30 0 -54 -8t-29 -22l-63 -300h-162l118 556h-233l30 141h627z" />
    <glyph glyph-name="afii10052" unicode="&#x403;" horiz-adv-x="553" 
d="M193 0h-161l148 697h490l-30 -141h-329zM462 747h-129l154 129h160z" />
    <glyph glyph-name="afii10053" unicode="&#x404;" horiz-adv-x="620" 
d="M511 293h-274q-13 -97 24.5 -127.5t136.5 -30.5q87 0 149 19v-145q-99 -23 -214 -23q-69 0 -118.5 11t-86.5 37t-53.5 68.5t-19 105t17.5 147.5q23 106 58.5 176.5t88.5 110.5t116 56t151 16q116 0 205 -25l-61 -142q-55 19 -141 19q-97 0 -145.5 -25.5t-77.5 -109.5h273
z" />
    <glyph glyph-name="afii10054" unicode="&#x405;" horiz-adv-x="622" 
d="M665 681l-62 -138q-77 23 -186 23q-76 0 -108.5 -15.5t-40.5 -52.5q-7 -34 16.5 -49t109.5 -24q117 -14 161.5 -63.5t23.5 -148.5q-27 -127 -109 -177t-248 -50q-135 0 -219 33l62 138q80 -23 186 -23q79 0 111 14.5t40 53.5q8 35 -17 52t-116 27q-112 12 -155 56
t-23 138q27 128 113.5 183.5t244.5 55.5q133 0 216 -33z" />
    <glyph glyph-name="afii10055" unicode="&#x406;" horiz-adv-x="325" 
d="M180 697h161l-148 -697h-161z" />
    <glyph glyph-name="afii10056" unicode="&#x407;" horiz-adv-x="325" 
d="M180 697h161l-148 -697h-161zM185 872q41 0 52.5 -11.5t2.5 -51.5q-9 -44 -26 -57.5t-58 -13.5q-40 0 -51 13.5t-2 57.5q9 40 25 51.5t57 11.5zM411 872q40 0 51.5 -11.5t2.5 -51.5q-9 -44 -26 -57.5t-57 -13.5q-41 0 -52 13.5t-2 57.5q9 40 25.5 51.5t57.5 11.5z" />
    <glyph glyph-name="afii10057" unicode="&#x408;" horiz-adv-x="472" 
d="M492 697l-108 -505q-16 -77 -60 -125t-94 -64.5t-111 -16.5q-93 0 -164 26l58 144q52 -20 118 -20q78 0 96 82l102 479h163z" />
    <glyph glyph-name="afii10058" unicode="&#x409;" horiz-adv-x="1091" 
d="M549 548h-168q-86 -280 -235 -548h-171q212 395 289 697h478l-49 -227h224q94 0 127.5 -65t11.5 -168q-51 -237 -235 -237h-388zM836 339h-170l-43 -202h172q64 0 85 101t-44 101z" />
    <glyph glyph-name="afii10059" unicode="&#x40a;" horiz-adv-x="1103" 
d="M262 328l-69 -328h-161l148 697h161l-50 -233h252l50 233h161l-50 -233h224q94 0 127.5 -64t11.5 -167q-49 -233 -234 -233h-388l69 328h-252zM845 328h-170l-40 -191h172q33 0 53 22t31 74q20 95 -46 95z" />
    <glyph glyph-name="afii10060" unicode="&#x40b;" horiz-adv-x="774" 
d="M713 238l-50 -238h-154l48 228q13 60 -4.5 81t-60.5 21q-30 0 -54 -8t-29 -22l-63 -300h-162l118 556h-233l30 141h627l-30 -141h-232l-26 -122q73 32 143 32q36 0 60.5 -5t45 -19.5t29.5 -39.5t9 -66t-12 -98z" />
    <glyph glyph-name="afii10061" unicode="&#x40c;" horiz-adv-x="687" 
d="M649 0h-191q-17 126 -43.5 195.5t-61 96.5t-91.5 33l-69 -325h-161l148 697h161l-71 -334q154 138 317 334h192q-217 -252 -295 -313q30 -12 50 -30t43 -57.5t41 -113.5t31 -183zM518 747h-130l155 129h159z" />
    <glyph glyph-name="afii10062" unicode="&#x40e;" horiz-adv-x="627" 
d="M217 180q-1 6 -11 56q-56 275 -128 461h194q53 -156 83 -340q133 189 218 340h186q-103 -170 -239.5 -362t-252.5 -335h-205q83 87 155 180zM307 871h101q-7 -31 5 -41.5t44 -10.5q8 0 11 1q26 2 40 13t20 38h94q-30 -143 -189 -143q-156 0 -126 143z" />
    <glyph glyph-name="afii10145" unicode="&#x40f;" horiz-adv-x="748" 
d="M616 0h-217l-62 -190h-105l20 190h-219l148 697h161l-117 -549h262l117 549h160z" />
    <glyph glyph-name="afii10017" unicode="&#x410;" horiz-adv-x="689" 
d="M493 0q-11 52 -27 154h-287l-77 -154h-172q73 145 187.5 346.5t207.5 350.5h249q34 -385 97 -697h-178zM423 557h-26q-61 -103 -147 -264h200q-20 156 -27 264z" />
    <glyph glyph-name="afii10018" unicode="&#x411;" horiz-adv-x="723" 
d="M222 137h195q51 0 67 77q17 83 -37 83h-191zM711 697l-30 -141h-370l-28 -128h234q187 0 142 -215q-25 -118 -81.5 -165.5t-147.5 -47.5h-398l148 697h531z" />
    <glyph glyph-name="afii10019" unicode="&#x412;" horiz-adv-x="723" 
d="M222 137h195q51 0 67 77q17 83 -37 83h-191zM312 560l-29 -132h190q24 0 38 15t22 51q7 36 0 51t-31 15h-190zM530 367q93 -4 117.5 -47.5t5.5 -131.5q-21 -101 -77 -144.5t-146 -43.5h-398l148 697h395q99 0 127.5 -40t10.5 -127q-16 -79 -54.5 -117.5t-128.5 -45.5z
" />
    <glyph glyph-name="afii10020" unicode="&#x413;" horiz-adv-x="550" 
d="M193 0h-161l148 697h490l-30 -141h-329z" />
    <glyph glyph-name="afii10021" unicode="&#x414;" horiz-adv-x="822" 
d="M797 697l-117 -549h123l-86 -302h-143l33 154h-484l-33 -154h-143l41 302h112q141 263 215 549h482zM520 148l87 408h-174q-75 -244 -159 -408h246z" />
    <glyph glyph-name="afii10022" unicode="&#x415;" horiz-adv-x="626" 
d="M180 697h520l-30 -141h-359l-27 -125h257l-29 -138h-257l-33 -152h359l-29 -141h-520z" />
    <glyph glyph-name="afii10024" unicode="&#x416;" horiz-adv-x="1007" 
d="M128 0h-190q58 110 105 183t84.5 113t64.5 58t60 30q-44 53 -148 313h190q71 -193 156 -331l71 331h161l-71 -331q132 126 298 331h190q-218 -261 -282 -313q28 -12 47 -30t40 -58t37 -113t28 -183h-190q-15 127 -37.5 196t-54 96t-84.5 33l-69 -325h-161l69 325
q-56 -6 -99.5 -33t-95 -96t-119.5 -196z" />
    <glyph glyph-name="afii10025" unicode="&#x417;" horiz-adv-x="645" 
d="M198 293l29 138h117q53 0 77 14t33 55q8 39 -18.5 53t-112.5 14q-113 0 -180 -19v141q118 25 249 25q155 0 208.5 -40.5t32.5 -140.5q-17 -80 -56 -119.5t-128 -46.5q92 -4 118 -48t7 -132q-24 -110 -102.5 -155.5t-233.5 -45.5q-137 0 -242 24l60 143q59 -19 175 -19
q91 0 127 16.5t46 62.5q9 45 -11.5 62.5t-73.5 17.5h-121z" />
    <glyph glyph-name="afii10026" unicode="&#x418;" horiz-adv-x="796" 
d="M812 697l-148 -697h-159l97 459q-183 -247 -359 -459h-211l148 697h158l-102 -478l379 478h197z" />
    <glyph glyph-name="afii10027" unicode="&#x419;" horiz-adv-x="796" 
d="M812 697l-148 -697h-159l97 459q-183 -247 -359 -459h-211l148 697h158l-102 -478l379 478h197zM373 871h101q-7 -31 5 -41.5t44 -10.5q31 0 47.5 10.5t23.5 41.5h94q-31 -143 -189 -143q-75 0 -108 35.5t-18 107.5z" />
    <glyph glyph-name="afii10028" unicode="&#x41a;" horiz-adv-x="687" 
d="M649 0h-191q-17 126 -43.5 195.5t-61 96.5t-91.5 33l-69 -325h-161l148 697h161l-71 -334q154 138 317 334h192q-217 -252 -295 -313q30 -12 50 -30t43 -57.5t41 -113.5t31 -183z" />
    <glyph glyph-name="afii10029" unicode="&#x41b;" horiz-adv-x="736" 
d="M561 556h-178q-91 -295 -237 -556h-171q212 395 289 697h488l-148 -697h-161z" />
    <glyph glyph-name="afii10030" unicode="&#x41c;" horiz-adv-x="939" 
d="M488 289q129 218 261 408h206l-148 -697h-156l100 471q-118 -177 -260 -413h-128q-60 349 -75 413l-100 -471h-156l148 697h216q48 -170 92 -408z" />
    <glyph glyph-name="afii10031" unicode="&#x41d;" horiz-adv-x="748" 
d="M255 294l-62 -294h-161l148 697h161l-54 -254h262l54 254h161l-148 -697h-161l62 294h-262z" />
    <glyph glyph-name="afii10032" unicode="&#x41e;" horiz-adv-x="775" 
d="M489 714q58 0 101.5 -7t79 -23t57.5 -43t33 -66.5t9 -94t-17 -124.5q-23 -106 -59 -178.5t-89 -114.5t-117.5 -59.5t-151.5 -17.5t-143.5 17.5t-93.5 60t-40.5 113.5t16.5 179q22 105 58 175t89 110t116.5 56.5t151.5 16.5zM366 133q56 0 87.5 7t56.5 32t39.5 65.5
t30.5 116.5q13 60 16 95.5t-0.5 60.5t-22.5 36.5t-44 15.5t-71 4q-57 0 -87.5 -6t-56 -29.5t-39 -63t-29.5 -113.5q-13 -61 -16.5 -97.5t0 -63t21.5 -38.5t44 -17t71 -5z" />
    <glyph glyph-name="afii10033" unicode="&#x41f;" horiz-adv-x="748" 
d="M311 556l-118 -556h-161l148 697h584l-148 -697h-161l118 556h-262z" />
    <glyph glyph-name="afii10034" unicode="&#x420;" horiz-adv-x="684" 
d="M267 350h172q70 0 92 102q23 107 -46 107h-174zM193 0h-161l148 697h389q190 0 139 -245q-22 -101 -84.5 -168t-155.5 -67h-229z" />
    <glyph glyph-name="afii10035" unicode="&#x421;" horiz-adv-x="588" 
d="M74 355q23 106 57 176t85.5 110.5t113.5 56.5t150 16q114 0 197 -25l-61 -142q-51 19 -133 19q-58 0 -91 -6t-63.5 -28t-49 -64.5t-33.5 -114.5q-12 -58 -13.5 -96.5t6 -63t29.5 -37t49.5 -17t73.5 -4.5q79 0 141 19v-145q-94 -23 -206 -23q-87 0 -142.5 17.5t-90 60.5
t-37 113.5t17.5 177.5z" />
    <glyph glyph-name="afii10036" unicode="&#x422;" horiz-adv-x="629" 
d="M346 0h-162l118 556h-233l30 141h627l-30 -141h-232z" />
    <glyph glyph-name="afii10037" unicode="&#x423;" horiz-adv-x="641" 
d="M357 358q130 187 216 339h187q-102 -168 -238 -359.5t-255 -337.5h-205q83 86 155 180q-18 105 -59.5 262t-79.5 255h194q54 -158 85 -339z" />
    <glyph glyph-name="afii10038" unicode="&#x424;" horiz-adv-x="829" 
d="M425 697h161l-17 -80q170 -9 222.5 -69.5t23.5 -197.5q-29 -138 -107.5 -198t-252.5 -69l-17 -83h-161l17 82q-114 6 -171.5 35t-71 86.5t6.5 146.5q29 139 103.5 198.5t246.5 68.5zM649 350q17 79 -2 106t-106 29l-58 -272q61 2 93.5 16.5t47 40.5t25.5 80zM221 350
q-16 -77 2.5 -105t98.5 -32l58 272q-82 -3 -112.5 -30.5t-46.5 -104.5z" />
    <glyph glyph-name="afii10039" unicode="&#x425;" horiz-adv-x="688" 
d="M298 697l108 -202q108 118 177 202h201l-307 -342l171 -355h-203l-100 212l-206 -212h-201l335 352q-116 225 -186 345h211z" />
    <glyph glyph-name="afii10040" unicode="&#x426;" horiz-adv-x="788" 
d="M341 697l-117 -549h262l117 549h161l-117 -549h122l-86 -302h-143l33 154h-541l148 697h161z" />
    <glyph glyph-name="afii10041" unicode="&#x427;" horiz-adv-x="701" 
d="M491 398l64 299h161l-148 -697h-161l45 214q-63 -28 -175 -28q-37 0 -66.5 4.5t-57 15.5t-44 29.5t-29 46.5t-11 66.5t10.5 89.5l55 259h162l-54 -253q-13 -64 8.5 -85.5t95.5 -21.5q132 0 144 61z" />
    <glyph glyph-name="afii10042" unicode="&#x428;" horiz-adv-x="1009" 
d="M1025 697l-148 -697h-845l148 697h161l-117 -549h181l117 549h162l-117 -549h181l117 549h160z" />
    <glyph glyph-name="afii10043" unicode="&#x429;" horiz-adv-x="1050" 
d="M341 697l-117 -549h181l117 549h162l-117 -549h181l117 549h160l-117 -549h123l-87 -302h-142l33 154h-803l148 697h161z" />
    <glyph glyph-name="afii10044" unicode="&#x42a;" horiz-adv-x="742" 
d="M116 697h267l-48 -225h234q93 0 126.5 -65.5t11.5 -169.5q-9 -43 -24 -77q-58 -160 -211 -160h-398l118 556h-106zM264 137h182q64 0 85 100q21 99 -45 99h-180z" />
    <glyph glyph-name="afii10045" unicode="&#x42b;" horiz-adv-x="969" 
d="M222 137h182q64 0 85 100q21 99 -45 99h-180zM180 697h161l-48 -225h234q93 0 126.5 -65.5t11.5 -169.5q-50 -237 -235 -237h-398zM823 697h162l-148 -697h-162z" />
    <glyph glyph-name="afii10046" unicode="&#x42c;" horiz-adv-x="700" 
d="M222 137h182q64 0 85 100q21 99 -45 99h-180zM180 697h161l-48 -225h234q93 0 126.5 -65.5t11.5 -169.5q-50 -237 -235 -237h-398z" />
    <glyph glyph-name="afii10047" unicode="&#x42d;" horiz-adv-x="620" 
d="M407 293h-275l29 138h273q8 84 -30 109.5t-135 25.5q-88 0 -148 -19q-1 24 -1.5 71t-0.5 71q102 25 215 25q58 0 101.5 -7t79.5 -23t57.5 -43t32.5 -66.5t8.5 -94t-17.5 -125.5q-43 -206 -142 -287.5t-274 -81.5q-114 0 -206 23q13 28 35.5 81t27.5 64q54 -19 140 -19
q100 0 151 30.5t79 127.5z" />
    <glyph glyph-name="afii10048" unicode="&#x42e;" horiz-adv-x="989" 
d="M760 714q55 0 95 -10t70.5 -34.5t45 -64.5t14 -102t-18.5 -145q-44 -206 -131.5 -289t-228.5 -83q-130 0 -186.5 70t-30.5 238h-134l-62 -294h-161l148 697h161l-54 -254h135q46 151 128.5 211t209.5 60zM638 134q48 0 73.5 16t45 62.5t41.5 145.5q20 96 19.5 139.5
t-19.5 57t-68 13.5q-37 0 -58 -6t-40.5 -28.5t-33 -63t-28.5 -112.5q-21 -98 -20.5 -145t20.5 -63t68 -16z" />
    <glyph glyph-name="afii10049" unicode="&#x42f;" horiz-adv-x="722" 
d="M509 381l39 179h-181q-60 0 -79 -92q-18 -87 42 -87h179zM247 300q-91 5 -120.5 57.5t-12.5 135.5q44 204 235 204h389l-148 -697h-161l52 249h-101q-40 0 -68.5 -17.5t-64 -71t-87.5 -160.5h-187q68 125 115.5 189t80 84.5t78.5 26.5z" />
    <glyph glyph-name="afii10065" unicode="&#x430;" 
d="M363 174l45 216q-29 14 -75 14q-57 0 -82.5 -27t-45.5 -122q-10 -44 -10 -74q0 -35 17 -49t57 -14q34 0 61.5 16t32.5 40zM347 48q-26 -27 -66 -43t-82 -16q-83 0 -123.5 33.5t-40.5 115.5q0 44 14 114q32 153 104 213.5t206 60.5q136 0 225 -36l-70 -323q-5 -23 -5 -40
q0 -40 30 -73l-129 -70q-49 12 -63 64z" />
    <glyph glyph-name="afii10066" unicode="&#x431;" horiz-adv-x="580" 
d="M206 246q-16 -86 -4.5 -112t57.5 -26q55 0 79 24t43 115q16 79 3 103t-65 24q-53 0 -75 -25.5t-38 -102.5zM249 449q53 54 137 54q40 0 69 -6.5t52 -23.5t33.5 -45.5t10.5 -72.5t-13 -105q-32 -150 -103 -207t-206 -57q-47 0 -79 7t-58 27t-37.5 55t-10.5 91.5t18 134.5
q18 85 36.5 146t42.5 105t48 71.5t59.5 44.5t71.5 24t89 11q128 10 206 37l-28 -132q-55 -22 -195 -34q-64 -5 -92.5 -33t-50.5 -92z" />
    <glyph glyph-name="afii10067" unicode="&#x432;" horiz-adv-x="594" 
d="M194 114h128q22 0 34 10t17 35q6 28 -3 39t-32 11h-124zM254 398l-17 -82h123q38 0 46 41q5 23 -2 32t-27 9h-123zM423 269q76 -3 97.5 -34.5t7.5 -96.5q-29 -138 -183 -138h-329l108 512h326q84 0 109.5 -29.5t11.5 -93.5q-12 -58 -43.5 -86.5t-104.5 -33.5z" />
    <glyph glyph-name="afii10068" unicode="&#x433;" horiz-adv-x="437" 
d="M250 380l-80 -380h-154l108 512h370l-28 -132h-216z" />
    <glyph glyph-name="afii10069" unicode="&#x434;" horiz-adv-x="683" 
d="M221 512h416l-80 -380h101l-94 -280h-125l32 148h-359l-32 -148h-126l26 280h96q101 215 145 380zM456 380h-124q-31 -110 -96 -248h168z" />
    <glyph glyph-name="afii10070" unicode="&#x435;" horiz-adv-x="556" 
d="M436 131l-2 -117q-89 -28 -190 -28q-118 0 -171.5 62.5t-21.5 210.5q31 147 105 207t192 60q54 0 89.5 -7.5t61.5 -27.5t34.5 -55.5t3.5 -90.5t-26 -134h-313q-11 -58 11 -77.5t82 -19.5q77 0 145 17zM335 410q-48 0 -71.5 -18.5t-40.5 -67.5h178q9 52 -5 69t-61 17z" />
    <glyph glyph-name="afii10072" unicode="&#x436;" horiz-adv-x="860" 
d="M128 0h-174q61 103 110 164.5t74.5 80.5t56.5 32q-19 22 -54 84.5t-70 150.5h175q63 -152 114 -243l51 243h154l-51 -243q103 107 215 243h175q-72 -88 -133.5 -150.5t-90.5 -84.5q26 -13 44 -32t41 -80.5t41 -164.5h-174q-25 115 -55.5 166.5t-70.5 64.5l-49 -231h-154
l49 231q-47 -13 -100 -64.5t-124 -166.5z" />
    <glyph glyph-name="afii10073" unicode="&#x437;" horiz-adv-x="525" 
d="M147 210l24 111h80q44 0 62 7.5t23 29.5q5 23 -10.5 31.5t-67.5 8.5q-89 0 -170 -23l-1 131q100 20 201 20q142 0 187.5 -28t28.5 -106q-13 -60 -44.5 -89t-101.5 -34q71 -4 93.5 -37t9.5 -97q-18 -86 -80.5 -117.5t-206.5 -31.5q-101 0 -196 19l58 136q65 -26 161 -26
q59 0 80 10t27 39q6 27 -12 36.5t-65 9.5h-80z" />
    <glyph glyph-name="afii10074" unicode="&#x438;" horiz-adv-x="613" 
d="M343 0l56 268q-100 -134 -230 -268h-153l108 511h153l-59 -280q89 86 233 280h153l-108 -511h-153z" />
    <glyph glyph-name="afii10075" unicode="&#x439;" horiz-adv-x="613" 
d="M343 0l56 268q-100 -134 -230 -268h-153l108 511h153l-59 -280q89 86 233 280h153l-108 -511h-153zM245 697h100q-6 -31 5.5 -41.5t44.5 -10.5q8 0 11 1q49 3 59 51h94q-30 -143 -188 -143q-156 0 -126 143z" />
    <glyph glyph-name="afii10076" unicode="&#x43a;" horiz-adv-x="588" 
d="M534 0h-176q-27 121 -59 169.5t-80 61.5l-49 -231h-154l108 512h154l-52 -246q81 79 229 246h177q-167 -193 -227 -235q27 -12 45 -32t40.5 -80t43.5 -165z" />
    <glyph glyph-name="afii10077" unicode="&#x43b;" horiz-adv-x="595" 
d="M406 380h-118q-57 -201 -148 -380h-161q112 223 192 512h416l-108 -512h-153z" />
    <glyph glyph-name="afii10078" unicode="&#x43c;" horiz-adv-x="788" 
d="M403 245q94 159 169 267h207l-108 -512h-151l70 333q-92 -137 -189 -306h-110q-24 189 -53 306l-70 -333h-152l108 512h216q24 -81 63 -267z" />
    <glyph glyph-name="afii10079" unicode="&#x43d;" horiz-adv-x="603" 
d="M375 201h-164l-42 -201h-153l108 511h153l-38 -179h164l38 179h153l-108 -511h-153z" />
    <glyph glyph-name="afii10080" unicode="&#x43e;" horiz-adv-x="590" 
d="M241 -14q-129 0 -176 60.5t-14 212.5q32 151 103.5 209t200.5 58q131 0 178.5 -58t15.5 -209q-33 -152 -105.5 -212.5t-202.5 -60.5zM330 406q-57 0 -81 -26.5t-44 -123.5q-19 -97 -7 -123.5t68 -26.5t81 28t45 122q19 100 7 125t-69 25z" />
    <glyph glyph-name="afii10081" unicode="&#x43f;" horiz-adv-x="603" 
d="M250 380l-80 -380h-154l108 512h471l-108 -512h-154l80 380h-163z" />
    <glyph glyph-name="afii10082" unicode="&#x440;" 
d="M252 386l-50 -235q-4 -17 16 -28t54 -11q55 0 82 29.5t44 110.5q18 93 4.5 119.5t-70.5 26.5q-47 0 -80 -12zM-25 -192l145 682q101 36 239 36q135 0 180.5 -58.5t13.5 -211.5q-31 -147 -101 -208.5t-173 -61.5q-58 0 -108 23l-42 -201h-154z" />
    <glyph glyph-name="afii10083" unicode="&#x441;" horiz-adv-x="472" 
d="M409 141l5 -129q-69 -26 -166 -26q-124 0 -176.5 62t-20.5 211q31 147 109.5 207t201.5 60q99 0 157 -22l-60 -130q-52 21 -112 21q-32 0 -51 -4t-37.5 -18t-31 -42.5t-22.5 -74.5q-18 -85 2 -111.5t82 -26.5q61 0 120 23z" />
    <glyph glyph-name="afii10084" unicode="&#x442;" horiz-adv-x="487" 
d="M350 380l-80 -380h-153l80 380h-165l28 132h482l-28 -132h-164z" />
    <glyph glyph-name="afii10085" unicode="&#x443;" horiz-adv-x="512" 
d="M109 -25q-15 250 -62 536h155q26 -155 36 -356q121 214 185 356h153q-137 -273 -310 -542q-78 -121 -107 -161h-169q44 56 119 167z" />
    <glyph glyph-name="afii10086" unicode="&#x444;" horiz-adv-x="836" 
d="M401 520l42 196h154l-42 -196q24 6 64 6q129 0 168 -58t7 -212q-31 -148 -94 -209t-160 -61q-54 0 -94 23l-42 -201h-154l42 201q-46 -23 -102 -23q-97 0 -134 61t-6 209q32 154 96 212t193 58q40 0 62 -6zM249 112q31 0 50.5 10.5t22.5 26.5l51 240q-25 9 -61 9
q-48 0 -72.5 -28.5t-43.5 -117.5q-16 -81 -3.5 -110.5t56.5 -29.5zM533 112q44 0 70 30.5t43 109.5q17 93 5.5 119.5t-59.5 26.5q-35 0 -65 -9l-51 -241q-3 -16 12 -26t45 -10z" />
    <glyph glyph-name="afii10087" unicode="&#x445;" horiz-adv-x="520" 
d="M479 0h-169q-17 46 -63 140q-94 -99 -136 -140h-167q66 62 249 255q-82 165 -139 256h176q20 -33 71 -135q34 36 118 135h167q-75 -88 -227 -252q74 -152 120 -259z" />
    <glyph glyph-name="afii10088" unicode="&#x446;" horiz-adv-x="663" 
d="M515 132h124l-95 -280h-125l32 148h-435l108 512h154l-80 -380h163l80 380h154z" />
    <glyph glyph-name="afii10089" unicode="&#x447;" horiz-adv-x="571" 
d="M64 377l28 135h154l-26 -125q-13 -60 4.5 -81t60.5 -21q32 0 55.5 8.5t27.5 23.5l41 195h154l-108 -512h-154l38 181q-75 -32 -143 -32q-36 0 -60.5 5t-45 19.5t-29.5 39.5t-9 66t12 98z" />
    <glyph glyph-name="afii10090" unicode="&#x448;" horiz-adv-x="893" 
d="M885 512l-108 -512h-761l108 512h154l-80 -380h150l80 380h153l-80 -380h151l80 380h153z" />
    <glyph glyph-name="afii10091" unicode="&#x449;" horiz-adv-x="954" 
d="M709 -147l32 147h-725l108 511h153l-80 -379h151l80 379h153l-80 -379h150l80 379h154l-80 -379h124l-95 -279h-125z" />
    <glyph glyph-name="afii10092" unicode="&#x44a;" horiz-adv-x="620" 
d="M268 336h171q75 0 107 -43.5t15 -125.5q-19 -90 -67 -128.5t-126 -38.5h-325l80 380h-86l28 132h240zM220 109h126q43 0 56 57q11 55 -36 55h-123z" />
    <glyph glyph-name="afii10093" unicode="&#x44b;" horiz-adv-x="814" 
d="M318 108q44 0 57 57q11 56 -36 56h-124l-24 -113h127zM240 336h171q76 0 108 -43.5t15 -125.5q-20 -90 -67.5 -128.5t-126.5 -38.5h-324l108 511h153zM806 511l-108 -511h-154l108 511h154z" />
    <glyph glyph-name="afii10094" unicode="&#x44c;" horiz-adv-x="593" 
d="M318 108q44 0 57 57q11 56 -36 56h-124l-24 -113h127zM240 336h171q76 0 108 -43.5t15 -125.5q-20 -90 -67.5 -128.5t-126.5 -38.5h-324l108 511h153z" />
    <glyph glyph-name="afii10095" unicode="&#x44d;" horiz-adv-x="480" 
d="M-29 12l56 117q42 -17 115 -17q48 0 79 21t49 77h-188l24 114h186q1 45 -21 61t-67 16q-70 0 -123 -17l-5 120q68 22 166 22q119 0 173.5 -60.5t23.5 -206.5q-32 -148 -112 -210.5t-199 -62.5q-100 0 -157 26z" />
    <glyph glyph-name="afii10096" unicode="&#x44e;" horiz-adv-x="869" 
d="M522 -14q-115 0 -163.5 48t-34.5 167h-112l-42 -201h-154l108 512h154l-38 -180h113q37 108 104.5 151t178.5 43q129 0 176.5 -58t15.5 -209q-33 -152 -105 -212.5t-201 -60.5zM611 406q-55 0 -79 -26.5t-44 -123.5q-19 -97 -7 -123.5t66 -26.5q55 0 79.5 28t44.5 122
q19 100 7.5 125t-67.5 25z" />
    <glyph glyph-name="afii10097" unicode="&#x44f;" horiz-adv-x="615" 
d="M405 284l23 107h-124q-47 0 -59 -53q-11 -54 37 -54h123zM198 217q-142 8 -114 145q32 150 195 150h328l-108 -512h-154l35 166h-68q-46 0 -79.5 -32.5t-87.5 -133.5h-175q72 124 117.5 166.5t110.5 50.5z" />
    <glyph glyph-name="afii10071" unicode="&#x451;" horiz-adv-x="556" 
d="M436 131l-2 -117q-89 -28 -190 -28q-118 0 -171.5 62.5t-21.5 210.5q31 147 105 207t192 60q54 0 89.5 -7.5t61.5 -27.5t34.5 -55.5t3.5 -90.5t-26 -134h-313q-11 -58 11 -77.5t82 -19.5q77 0 145 17zM335 410q-48 0 -71.5 -18.5t-40.5 -67.5h178q9 52 -5 69t-61 17z
M273 694q41 0 52.5 -12t2.5 -52q-9 -44 -26 -57.5t-58 -13.5q-40 0 -51 13.5t-2 57.5q9 40 25.5 52t56.5 12zM499 694q40 0 51.5 -12t2.5 -52q-9 -44 -26 -57.5t-57 -13.5q-41 0 -52 13.5t-2 57.5q9 40 25.5 52t57.5 12z" />
    <glyph glyph-name="afii10099" unicode="&#x452;" horiz-adv-x="591" 
d="M292 574l-21 -97q71 32 143 32q48 0 77.5 -11.5t50 -43t18 -88.5t-18.5 -147q-34 -161 -100 -267.5t-134 -140.5l-93 102q114 61 164 300q8 41 10.5 68t0.5 44t-11.5 25.5t-21.5 11.5t-33 3q-73 0 -82 -29l-71 -336h-154l122 574h-45l22 104h45l9 44h154l-9 -44h92
l-22 -104h-92z" />
    <glyph glyph-name="afii10100" unicode="&#x453;" horiz-adv-x="437" 
d="M250 380l-80 -380h-154l108 512h370l-28 -132h-216zM351 568h-130l151 129h157z" />
    <glyph glyph-name="afii10101" unicode="&#x454;" horiz-adv-x="480" 
d="M407 129l6 -117q-69 -26 -165 -26q-120 0 -174.5 62.5t-22.5 210.5q31 146 110.5 206.5t198.5 60.5q100 0 158 -22l-57 -120q-46 17 -115 17q-45 0 -74.5 -16t-47.5 -61h186l-24 -114h-188q-6 -56 16 -77t70 -21q75 0 123 17z" />
    <glyph glyph-name="afii10102" unicode="&#x455;" horiz-adv-x="484" 
d="M494 498l-54 -114q-76 22 -146 22q-40 0 -58 -8t-24 -36q-4 -20 11.5 -28.5t72.5 -15.5q90 -12 122.5 -45.5t16.5 -110.5q-21 -97 -90 -136.5t-176 -39.5q-105 0 -177 28l55 116q69 -21 141 -21q49 0 70 8.5t27 36.5q5 22 -13 31.5t-79 15.5q-84 8 -116 40t-16 110
q21 97 89 136t175 39q97 0 169 -28z" />
    <glyph glyph-name="afii10103" unicode="&#x456;" horiz-adv-x="284" 
d="M278 512l-108 -512h-154l108 512h154zM249 734q51 0 65.5 -13.5t5.5 -59.5q-11 -50 -32 -65.5t-72 -15.5t-66 15.5t-4 65.5q9 46 30 59.5t73 13.5z" />
    <glyph glyph-name="afii10104" unicode="&#x457;" horiz-adv-x="284" 
d="M278 512l-108 -512h-154l108 512h154zM127 694q41 0 52.5 -12t2.5 -52q-9 -44 -26 -57.5t-58 -13.5q-40 0 -51 13.5t-2 57.5q9 40 25.5 52t56.5 12zM353 694q40 0 51.5 -12t2.5 -52q-9 -44 -26 -57.5t-57 -13.5q-41 0 -52 13.5t-2 57.5q9 40 25.5 52t57.5 12z" />
    <glyph glyph-name="afii10105" unicode="&#x458;" horiz-adv-x="284" 
d="M248 734q51 0 66 -13.5t6 -59.5q-11 -50 -32.5 -65.5t-72.5 -15.5t-65.5 15.5t-3.5 65.5q9 46 30 59.5t72 13.5zM278 512l-109 -514q-24 -112 -87.5 -156.5t-186.5 -44.5l26 124q79 0 93 73l110 518h154z" />
    <glyph glyph-name="afii10106" unicode="&#x459;" horiz-adv-x="903" 
d="M406 380h-118q-57 -201 -148 -380h-161q112 223 192 512h416l-37 -176h171q76 0 108 -43.5t15 -125.5q-19 -90 -67 -128.5t-127 -38.5h-324zM502 109h127q43 0 56 57q11 55 -36 55h-124z" />
    <glyph glyph-name="afii10107" unicode="&#x45a;" horiz-adv-x="910" 
d="M558 336h171q75 0 107 -43.5t15 -125.5q-19 -90 -67 -128.5t-126 -38.5h-325l46 221h-163l-46 -221h-154l108 512h154l-37 -176h163l37 176h154zM510 109h126q44 0 56 57q11 55 -36 55h-123z" />
    <glyph glyph-name="afii10108" unicode="&#x45b;" horiz-adv-x="597" 
d="M93 574l22 104h45l9 44h154l-9 -44h92l-22 -104h-92l-17 -80q73 32 142 32q36 0 60.5 -5t45.5 -19.5t30 -39.5t9 -66t-12 -98l-63 -298h-154l61 288q13 60 -5 81t-61 21q-32 0 -55.5 -8.5t-26.5 -23.5l-76 -358h-154l122 574h-45z" />
    <glyph glyph-name="afii10109" unicode="&#x45c;" horiz-adv-x="588" 
d="M534 0h-176q-27 121 -59 169.5t-80 61.5l-49 -231h-154l108 512h154l-52 -246q81 79 229 246h177q-167 -193 -227 -235q27 -12 45 -32t40.5 -80t43.5 -165zM419 568h-130l151 129h157z" />
    <glyph glyph-name="afii10110" unicode="&#x45e;" horiz-adv-x="512" 
d="M109 -25q-15 250 -62 536h155q26 -155 36 -356q121 214 185 356h153q-137 -273 -310 -542q-78 -121 -107 -161h-169q44 56 119 167zM195 698h101q-6 -31 5.5 -41.5t43.5 -10.5t48.5 10.5t22.5 41.5h94q-31 -143 -189 -143q-75 0 -108 35.5t-18 107.5z" />
    <glyph glyph-name="afii10193" unicode="&#x45f;" horiz-adv-x="603" 
d="M278 512l-80 -380h163l80 380h154l-108 -512h-160l-61 -185h-106l19 185h-163l108 512h154z" />
    <glyph glyph-name="afii10050" unicode="&#x490;" horiz-adv-x="550" 
d="M32 0l148 697h347l76 185h106l-69 -326h-329l-118 -556h-161z" />
    <glyph glyph-name="afii10098" unicode="&#x491;" horiz-adv-x="437" 
d="M466 379h-217l-80 -379h-153l108 511h243l73 174h91z" />
    <glyph glyph-name="endash" unicode="&#x2013;" 
d="M41 211l32 147h502l-32 -147h-502z" />
    <glyph glyph-name="emdash" unicode="&#x2014;" horiz-adv-x="879" 
d="M41 211l32 147h785l-32 -147h-785z" />
    <glyph glyph-name="quoteleft" unicode="&#x2018;" horiz-adv-x="275" 
d="M81 505l165 264h120l-134 -264h-151z" />
    <glyph glyph-name="quoteright" unicode="&#x2019;" horiz-adv-x="275" 
d="M363 762l-165 -265h-120l134 265h151z" />
    <glyph glyph-name="quotesinglbase" unicode="&#x201a;" horiz-adv-x="260" 
d="M216 105l-165 -264h-119l133 264h151z" />
    <glyph glyph-name="quotedblleft" unicode="&#x201c;" horiz-adv-x="486" 
d="M81 505l165 264h120l-134 -264h-151zM291 505l165 264h120l-134 -264h-151z" />
    <glyph glyph-name="quotedblright" unicode="&#x201d;" horiz-adv-x="486" 
d="M575 763l-165 -264h-120l134 264h151zM365 763l-165 -264h-120l134 264h151z" />
    <glyph glyph-name="quotedblbase" unicode="&#x201e;" horiz-adv-x="486" 
d="M433 98l-165 -265h-120l134 265h151zM223 98l-165 -265h-119l133 265h151z" />
    <glyph glyph-name="dagger" unicode="&#x2020;" horiz-adv-x="460" 
d="M77 459l26 124h137l30 138h124l-30 -138h138l-26 -124h-138l-46 -215h-124l46 215h-137z" />
    <glyph glyph-name="daggerdbl" unicode="&#x2021;" horiz-adv-x="460" 
d="M77 459l26 124h137l30 138h124l-30 -138h138l-26 -124h-138l-17 -79h138l-26 -124h-138l-29 -138h-124l29 138h-137l26 124h137l17 79h-137z" />
    <glyph glyph-name="bullet" unicode="&#x2022;" horiz-adv-x="590" 
d="M255 56q-129 0 -175.5 60.5t-14.5 212.5q32 151 104 209t201 58q131 0 178 -58t15 -209q-32 -152 -104.5 -212.5t-203.5 -60.5z" />
    <glyph glyph-name="ellipsis" unicode="&#x2026;" horiz-adv-x="1106" 
d="M185 164q55 0 71 -15.5t5 -66.5q-12 -55 -34.5 -72t-77.5 -17q-53 0 -68.5 17t-3.5 72q11 51 33 66.5t75 15.5zM535 164q55 0 71 -15.5t5 -66.5q-12 -55 -34.5 -72t-77.5 -17q-53 0 -68.5 17t-3.5 72q11 51 33 66.5t75 15.5zM887 164q54 0 70 -15.5t5 -66.5
q-12 -55 -34.5 -72t-76.5 -17q-53 0 -68.5 17t-3.5 72q11 51 33 66.5t75 15.5z" />
    <glyph glyph-name="perthousand" unicode="&#x2030;" horiz-adv-x="1427" 
d="M752 697h140l-594 -697h-139zM324 714q110 0 143.5 -47.5t5.5 -178.5q-28 -134 -83 -185t-164 -51q-108 0 -141 51t-5 185q28 131 81.5 178.5t162.5 47.5zM249 359q39 0 55.5 23t34.5 105q16 81 9 101t-46 20t-55.5 -21.5t-33.5 -99.5q-17 -83 -10 -105.5t46 -22.5z
M829 448q110 0 143.5 -47.5t4.5 -179.5q-28 -134 -82.5 -184.5t-163.5 -50.5t-142 50.5t-5 184.5q29 132 82 179.5t163 47.5zM753 93q39 0 55.5 23t33.5 105q16 80 9.5 100.5t-45.5 20.5t-55.5 -21.5t-33.5 -99.5q-16 -83 -9 -105.5t45 -22.5zM1248 448q110 0 143.5 -47.5
t4.5 -179.5q-28 -134 -82.5 -184.5t-163.5 -50.5t-142 50.5t-5 184.5q29 132 82 179.5t163 47.5zM1172 93q39 0 55.5 23t33.5 105q16 80 9.5 100.5t-45.5 20.5t-55.5 -21.5t-33.5 -99.5q-16 -83 -9 -105.5t45 -22.5z" />
    <glyph glyph-name="guilsinglleft" unicode="&#x2039;" horiz-adv-x="405" 
d="M441 516l-197 -195l113 -199l-105 -90l-212 286l332 286z" />
    <glyph glyph-name="guilsinglright" unicode="&#x203a;" horiz-adv-x="405" 
d="M-1 121l198 195l-114 199l105 90l211 -287l-331 -285z" />
    <glyph glyph-name="fraction" unicode="&#x2044;" horiz-adv-x="625" 
d="M575 697h140l-608 -697h-140z" />
    <glyph glyph-name="fraction" unicode="&#x2215;" horiz-adv-x="625" 
d="M575 697h140l-608 -697h-140z" />
    <glyph glyph-name="franc" unicode="&#x20a3;" horiz-adv-x="575" 
d="M17 95l22 106h35l106 496h508l-30 -141h-347l-35 -162h210l-29 -138h-210l-12 -55h87l-22 -106h-87l-20 -95h-161l20 95h-35z" />
    <glyph glyph-name="Euro" unicode="&#x20ac;" horiz-adv-x="588" 
d="M74 355q23 106 57 176t85.5 110.5t113.5 56.5t150 16q114 0 197 -25l-61 -142q-51 19 -133 19q-78 0 -120.5 -15t-69.5 -64h212l-21 -99h-231q0 -1 -2 -9.5t-3.5 -15.5t-1.5 -10q-1 -3 -2.5 -10.5t-3.5 -15t-2 -8.5h231l-21 -98h-212q6 -52 41.5 -69t113.5 -17
q79 0 141 19v-145q-94 -23 -206 -23q-87 0 -142.5 17.5t-90 60.5t-37 113.5t17.5 177.5z" />
    <glyph glyph-name="afii61352" unicode="&#x2116;" horiz-adv-x="1212" 
d="M812 697l-148 -697h-200q-72 216 -173 476l-101 -476h-158l148 697h210q90 -228 164 -459l98 459h160zM762 92l25 117h353l-25 -117h-353zM1070 714q111 0 144.5 -46t7.5 -173q-27 -129 -82 -178t-165 -49q-111 0 -143.5 48.5t-5.5 178.5q26 127 79.5 173t164.5 46z
M998 375q40 0 56.5 21t33.5 99q15 77 8 95t-48 18q-42 0 -58 -19t-31 -94q-17 -79 -9.5 -99.5t48.5 -20.5z" />
    <glyph glyph-name="trademark" unicode="&#x2122;" horiz-adv-x="873" 
d="M247 333h-106l58 271h-117l20 93h340l-20 -93h-117zM612 697l45 -217l133 217h128l-78 -364h-101l48 223l-128 -202h-73l-36 202l-48 -223h-101l78 364h133z" />
    <glyph glyph-name="estimated" unicode="&#x212e;" horiz-adv-x="721" 
d="M691 285h-459q-14 -93 16.5 -122.5t125.5 -29.5q35 0 92 6.5t83 14.5v-145q-99 -23 -206 -23q-69 0 -119.5 11t-89.5 37t-56.5 68.5t-21 105.5t16.5 148q43 202 138.5 280t257.5 78t218.5 -91.5t13.5 -293.5q-1 -6 -4.5 -21zM438 566q-77 0 -114 -25.5t-60 -108.5h286
q13 82 -12 108t-100 26z" />
    <glyph glyph-name="arrowleft" unicode="&#x2190;" horiz-adv-x="774" 
d="M401 -3l-389 365l389 365l111 -109l-198 -183h448v-146h-448l198 -182z" />
    <glyph glyph-name="arrowup" unicode="&#x2191;" horiz-adv-x="778" 
d="M24 347l365 389l365 -388l-109 -111l-183 198v-448h-146v448l-183 -198z" />
    <glyph glyph-name="arrowright" unicode="&#x2192;" horiz-adv-x="774" 
d="M373 726l389 -364l-389 -365l-111 109l198 182h-448v146h448l-198 183z" />
    <glyph glyph-name="arrowdown" unicode="&#x2193;" horiz-adv-x="778" 
d="M754 376l-365 -389l-365 389l109 111l183 -199v448h146v-448l182 199z" />
    <glyph glyph-name="partialdiff" unicode="&#x2202;" horiz-adv-x="628" 
d="M349 435q29 0 61 -3q-31 107 -150 265h196q86 -112 121.5 -225t6.5 -249q-20 -95 -53 -145t-96 -72.5t-174 -22.5q-151 0 -198.5 51t-19.5 186q26 120 92 167.5t214 47.5zM415 238q7 33 7 57q-35 4 -81 4q-72 0 -96 -15.5t-35 -68.5q-10 -50 5.5 -67.5t76.5 -17.5
q62 0 85 19.5t38 88.5z" />
    <glyph glyph-name="product" unicode="&#x220f;" horiz-adv-x="748" 
d="M309 548l-116 -548h-161l148 697h584l-148 -697h-161l116 548h-262z" />
    <glyph glyph-name="summation" unicode="&#x2211;" horiz-adv-x="629" 
d="M439 345q-121 -139 -185 -205h339l-29 -140h-612q66 73 297 348q-92 217 -134 349h589l-30 -141h-322z" />
    <glyph glyph-name="minus" unicode="&#x2212;" horiz-adv-x="563" 
d="M47 290l31 147h490l-31 -147h-490z" />
    <glyph glyph-name="radical" unicode="&#x221a;" horiz-adv-x="597" 
d="M58 512h184q28 -168 37 -356l156 285.5t130 255.5h153q-65 -128 -191 -353.5t-199 -343.5h-183q-15 200 -37 359h-82z" />
    <glyph glyph-name="infinity" unicode="&#x221e;" horiz-adv-x="774" 
d="M351 351q9 43 -5.5 62t-61.5 19q-46 0 -66 -18t-29 -63t3 -63t58 -18t69 18.5t32 62.5zM391 258q-24 -77 -71 -104t-129 -27q-104 0 -136.5 46t-4.5 178t80.5 178t156.5 46q82 0 117 -26.5t27 -104.5q24 77 71 104t129 27q52 0 83 -9.5t51.5 -34t19.5 -68t-13 -111.5
q-28 -132 -80.5 -178.5t-156.5 -46.5q-82 0 -117 27t-27 104zM471 351q-9 -43 5.5 -62t61.5 -19q46 0 66 18t29 63q10 46 -2 63.5t-59 17.5q-46 0 -69 -18.5t-32 -62.5z" />
    <glyph glyph-name="integral" unicode="&#x222b;" horiz-adv-x="332" 
d="M471 583q-39 14 -94 14q-38 0 -58.5 -15t-28.5 -54l-114 -535q-13 -55 -39.5 -95t-62.5 -61t-73.5 -30.5t-79.5 -9.5q-24 0 -48 3q-66 5 -110 22l51 113q51 -18 115 -18q7 0 11 2q68 5 82 74l117 545q8 37 21 60q52 129 214 129q2 0 47 -3q70 -7 109 -22
q-9 -17 -28.5 -57z" />
    <glyph glyph-name="approxequal" unicode="&#x2248;" horiz-adv-x="563" 
d="M464 323l80 -77q-31 -52 -81 -87t-109 -35q-44 0 -101 42t-87 42q-39 0 -74 -57l-69 85q81 102 166 102q41 0 77.5 -20.5t65.5 -41t53 -20.5q23 0 40 14t39 53zM512 549l80 -77q-31 -52 -81 -86.5t-109 -34.5q-44 0 -101 42t-87 42q-38 0 -74 -58l-69 85q81 102 166 102
q32 0 62.5 -12.5t49.5 -28t42 -28t42 -12.5q23 0 40 14t39 52z" />
    <glyph glyph-name="notequal" unicode="&#x2260;" horiz-adv-x="563" 
d="M452 667h148l-59 -80h59l-31 -147h-133l-109 -152h210l-32 -147h-283l-61 -83h-147l60 83h-59l32 147h132l109 152h-209l31 147h283z" />
    <glyph glyph-name="lessequal" unicode="&#x2264;" horiz-adv-x="563" 
d="M-13 8l31 147h490l-31 -147h-490zM581 626l-276 -177l200 -179l-99 -99l-310 245l14 64l412 243z" />
    <glyph glyph-name="greaterequal" unicode="&#x2265;" horiz-adv-x="563" 
d="M509 155l-31 -147h-490l31 147h490zM349 449l-201 177l99 97l310 -243l-14 -64l-414 -245l-57 99z" />
    <glyph glyph-name="lozenge" unicode="&#x25ca;" horiz-adv-x="648" 
d="M640 258q-165 -249 -273 -438h-249q-57 212 -100 438q141 232 287 440h249q26 -181 86 -440zM472 259q-5 29 -20 101.5l-27 134t-15 89.5h-26q-131 -199 -205 -325q17 -102 66 -325h26q21 38 106 173t95 152z" />
    <glyph glyph-name="caron.alt" unicode="&#xe01e;" horiz-adv-x="321" 
d="M423 722h130l-99 -192h-91z" />
    <glyph glyph-name="commaaccent" unicode="&#xf6c3;" horiz-adv-x="261" 
d="M230 -51l-147 -167h-120l108 167h159z" />
    <glyph glyph-name="Acute" unicode="&#xf6c9;" horiz-adv-x="439" 
d="M339 747h-130l155 129h159z" />
    <glyph glyph-name="Caron" unicode="&#xf6ca;" horiz-adv-x="647" 
d="M422 876l51 -72l81 72h130l-150 -129h-147l-98 129h133z" />
    <glyph glyph-name="Dieresis" unicode="&#xf6cb;" horiz-adv-x="478" 
d="M280 872q41 0 52.5 -11.5t2.5 -51.5q-9 -44 -26 -57.5t-58 -13.5q-40 0 -51 13.5t-2 57.5q9 40 25 51.5t57 11.5zM506 872q40 0 51.5 -11.5t2.5 -51.5q-9 -44 -26 -57.5t-57 -13.5q-41 0 -52 13.5t-2 57.5q9 40 25.5 51.5t57.5 11.5z" />
    <glyph glyph-name="Grave" unicode="&#xf6ce;" horiz-adv-x="439" 
d="M517 747h-132l-129 129h160z" />
    <glyph glyph-name="Hungarumlaut" unicode="&#xf6cf;" horiz-adv-x="612" 
d="M366 747h-102l122 129h126zM544 747h-102l121 129h127z" />
    <glyph glyph-name="Macron" unicode="&#xf6d0;" horiz-adv-x="320" 
d="M224 745l23 107h292l-23 -107h-292z" />
    <glyph glyph-name="Lslashsmall" unicode="&#xf6f9;" horiz-adv-x="448" 
d="M221 243l-23 -107h231l-28 -136h-385l25 118l-46 -33l26 125l46 33l57 269h154l-30 -142l105 76l-27 -127z" />
    <glyph glyph-name="OEsmall" unicode="&#xf6fa;" horiz-adv-x="813" 
d="M837 512l-26 -122h-255q8 -32 4 -70h172l-25 -115h-172q-14 -53 -38 -84h257l-25 -121h-372q-49 -14 -116 -14q-129 0 -176 60.5t-14 212.5q32 151 103.5 209t200.5 58q70 0 113 -14h369zM330 406q-57 0 -81 -26.5t-44 -123.5q-19 -97 -7 -123.5t68 -26.5t81 28t45 122
q19 100 7 125t-69 25z" />
    <glyph glyph-name="Scaronsmall" unicode="&#xf6fd;" horiz-adv-x="484" 
d="M494 498l-54 -114q-76 22 -146 22q-40 0 -58 -8t-24 -36q-4 -20 11.5 -28.5t72.5 -15.5q90 -12 122.5 -45.5t16.5 -110.5q-21 -97 -90 -136.5t-176 -39.5q-105 0 -177 28l55 116q69 -21 141 -21q49 0 70 8.5t27 36.5q5 22 -13 31.5t-79 15.5q-84 8 -116 40t-16 110
q21 97 89 136t175 39q97 0 169 -28zM285 697l51 -71l79 71h130l-150 -129h-147l-98 129h135z" />
    <glyph glyph-name="Zcaronsmall" unicode="&#xf6ff;" horiz-adv-x="498" 
d="M85 512h458l-5 -25q-148 -182 -313 -355h226l-28 -132h-463l5 25l177 192t138 163h-223zM288 697l51 -71l79 71h130l-150 -129h-147l-98 129h135z" />
    <glyph glyph-name="exclamsmall" unicode="&#xf721;" horiz-adv-x="326" 
d="M135 512h170l-92 -287h-111zM146 160q55 0 70.5 -15t4.5 -66q-12 -55 -35 -72.5t-77 -17.5q-53 0 -68.5 17.5t-3.5 72.5q11 51 33.5 66t75.5 15z" />
    <glyph glyph-name="ampersandsmall" unicode="&#xf726;" horiz-adv-x="723" 
d="M655 0h-168l-27 50q-131 -64 -250 -64q-137 0 -178.5 30t-22.5 118q27 128 171 135q-68 5 -84 33.5t-3 89.5q12 55 34 81.5t72.5 39.5t146.5 13t140.5 -12t57 -41.5t-1.5 -80.5q-12 -59 -47 -88.5t-107 -35.5q53 -5 110 -56q41 41 56 87h167q-26 -91 -136 -176
q36 -50 70 -123zM240 100q91 0 158 47q-55 62 -134 62q-38 0 -60 -12t-29 -43q-7 -32 7.5 -43t57.5 -11zM304 324q40 0 59.5 10t25.5 36q5 26 -7.5 35.5t-55.5 9.5q-44 0 -62 -9.5t-23 -35.5q-6 -26 8 -36t55 -10z" />
    <glyph glyph-name="zerooldstyle" unicode="&#xf730;" horiz-adv-x="628" 
d="M261 -14q-117 0 -162 61t-13 212q31 149 101.5 208t187.5 59q119 0 164 -58.5t13 -208.5q-32 -151 -102.5 -212t-188.5 -61zM350 406q-46 0 -68 -27t-42 -123q-19 -97 -9 -123.5t55 -26.5q47 0 67.5 27.5t41.5 122.5q19 100 10 125t-55 25z" />
    <glyph glyph-name="oneoldstyle" unicode="&#xf731;" horiz-adv-x="628" 
d="M406 0h-154l70 330l-170 -64l-16 128l381 132z" />
    <glyph glyph-name="twooldstyle" unicode="&#xf732;" horiz-adv-x="628" 
d="M144 364l-6 138q103 24 232 24q131 0 172.5 -35.5t23.5 -123.5q-16 -73 -80 -130.5t-208 -115.5h249l-25 -121h-470l23 110q147 73 217 113.5t93 62t28 47.5q7 32 -10 44.5t-73 12.5q-34 0 -85.5 -8t-80.5 -18z" />
    <glyph glyph-name="threeoldstyle" unicode="&#xf733;" horiz-adv-x="628" 
d="M158 106l30 139h104q51 0 72.5 13.5t30.5 53.5q8 40 -15 54t-106 14q-98 0 -171 -19v141q122 24 240 24q152 0 202 -40t29 -141q-17 -79 -56.5 -118.5t-128.5 -46.5q93 -4 119 -47.5t7 -131.5q-24 -111 -98.5 -156t-228.5 -45q-127 0 -232 24l59 143q62 -19 165 -19
q90 0 122 16t42 63q10 46 -7.5 62.5t-70.5 16.5h-108z" />
    <glyph glyph-name="fouroldstyle" unicode="&#xf734;" horiz-adv-x="628" 
d="M307 0h-342l11 52q231 294 387 460h205l-82 -387h90l-26 -125h-90l-41 -192h-153zM333 125l52 244q-91 -96 -203 -244h151z" />
    <glyph glyph-name="fiveoldstyle" unicode="&#xf735;" horiz-adv-x="628" 
d="M147 512h451l-30 -141h-299l-25 -120q33 3 68 3q147 0 192 -48.5t19 -169.5q-29 -136 -100.5 -187.5t-225.5 -51.5q-138 0 -229 24l61 143q54 -19 162 -19q85 0 114.5 16.5t40.5 68.5q12 54 -9 70.5t-109 16.5q-93 0 -167 -11z" />
    <glyph glyph-name="sixoldstyle" unicode="&#xf736;" horiz-adv-x="628" 
d="M662 688l-61 -142q-55 20 -164 20q-74 0 -113 -26.5t-60 -108.5q54 8 109 8q148 0 193.5 -49t19.5 -169q-28 -136 -96.5 -185.5t-220.5 -49.5q-153 0 -196 77.5t1 290.5q30 144 77.5 221t120.5 108t196 31q107 0 194 -26zM300 134q60 0 84 18t34 65q10 50 -6 67.5
t-69 17.5q-57 0 -111 -6q-10 -53 -10.5 -85t9.5 -49t25.5 -22.5t43.5 -5.5z" />
    <glyph glyph-name="sevenoldstyle" unicode="&#xf737;" horiz-adv-x="628" 
d="M666 512l-10 -47q-87 -105 -229 -312.5t-216 -344.5h-182q86 150 202 318t191 245h-341l30 141h555z" />
    <glyph glyph-name="eightoldstyle" unicode="&#xf738;" horiz-adv-x="628" 
d="M289 117q58 0 83 18.5t36 68.5q11 52 -6 74t-74 22q-58 0 -84.5 -22t-37.5 -74q-11 -50 6.5 -68.5t76.5 -18.5zM355 425q49 0 74 18t35 62q9 44 -8 59.5t-68 15.5q-53 0 -77 -15.5t-33 -59.5q-10 -44 8.5 -62t68.5 -18zM262 -14h-1q-151 0 -201 45t-26 156
q19 88 62.5 132t139.5 48q-87 7 -109.5 47t-5.5 119q21 99 82 140t212 41q103 0 155.5 -19t64.5 -59t-2 -103q-17 -80 -56 -119.5t-129 -46.5q93 -4 118 -47.5t6 -132.5q-24 -111 -91.5 -156t-218.5 -45z" />
    <glyph glyph-name="nineoldstyle" unicode="&#xf739;" horiz-adv-x="628" 
d="M67 -192q193 163 268 269q-19 -3 -63 -3q-148 0 -193.5 47.5t-19.5 167.5q28 135 97 186t221 51q162 0 206 -50t14 -190q-29 -136 -114 -251t-219 -227h-197zM322 210q46 0 83 4q10 24 17 57q15 69 0 88.5t-76 19.5t-84.5 -18t-34.5 -67q-11 -53 6 -68.5t89 -15.5z" />
    <glyph glyph-name="questionsmall" unicode="&#xf73f;" horiz-adv-x="491" 
d="M215 163q55 0 71 -15t5 -66q-12 -55 -34.5 -71.5t-77.5 -16.5q-53 0 -68.5 16.5t-3.5 71.5q11 51 33 66t75 15zM299 217h-145q14 10 40.5 27.5t37 25t27.5 21t24.5 23t15 22.5t10.5 27q5 23 -8.5 33t-59.5 10q-81 0 -156 -20l6 126q116 20 192 20q126 0 173.5 -29.5
t32.5 -100.5q-12 -57 -54.5 -98.5t-135.5 -86.5z" />
    <glyph glyph-name="Asmall" unicode="&#xf761;" horiz-adv-x="577" 
d="M373 0q-7 23 -19 108h-203q-39 -78 -53 -108h-156q106 214 289 511h231q24 -297 69 -511h-158zM325 391h-20q-41 -67 -96 -172h131q-9 77 -15 172z" />
    <glyph glyph-name="Bsmall" unicode="&#xf762;" horiz-adv-x="594" 
d="M194 114h128q22 0 34 10t17 35q6 28 -3 39t-32 11h-124zM254 398l-17 -82h123q38 0 46 41q5 23 -2 32t-27 9h-123zM423 269q76 -3 97.5 -34.5t7.5 -96.5q-29 -138 -183 -138h-329l108 512h326q84 0 109.5 -29.5t11.5 -93.5q-12 -58 -43.5 -86.5t-104.5 -33.5z" />
    <glyph glyph-name="Csmall" unicode="&#xf763;" horiz-adv-x="472" 
d="M409 141l5 -129q-69 -26 -166 -26q-124 0 -176.5 62t-20.5 211q31 147 109.5 207t201.5 60q99 0 157 -22l-60 -130q-52 21 -112 21q-32 0 -51 -4t-37.5 -18t-31 -42.5t-22.5 -74.5q-18 -85 2 -111.5t82 -26.5q61 0 120 23z" />
    <glyph glyph-name="Dsmall" unicode="&#xf764;" horiz-adv-x="598" 
d="M124 512h238q130 0 177.5 -55t16.5 -199q-30 -144 -101 -201t-201 -57h-238zM320 398h-66l-60 -284h66q59 0 90.5 28t49.5 114q8 37 9 63t-4 41.5t-18 24t-28 11t-39 2.5z" />
    <glyph glyph-name="Esmall" unicode="&#xf765;" horiz-adv-x="512" 
d="M536 512l-26 -122h-258l-14 -70h193l-25 -115h-193l-18 -84h258l-25 -121h-412l108 512h412z" />
    <glyph glyph-name="Fsmall" unicode="&#xf766;" horiz-adv-x="484" 
d="M16 0l108 511h412l-26 -121h-259l-20 -96h193l-25 -117h-193l-37 -177h-153z" />
    <glyph glyph-name="Gsmall" unicode="&#xf767;" horiz-adv-x="578" 
d="M531 308l-61 -287q-114 -35 -227 -35q-121 0 -172.5 62t-19.5 211q31 146 113.5 206.5t207.5 60.5q114 0 175 -22l-66 -124q-52 21 -129 21q-62 0 -95 -28t-52 -117q-18 -85 1.5 -114.5t75.5 -29.5q43 0 77 13l14 65h-92l25 118h225z" />
    <glyph glyph-name="Hsmall" unicode="&#xf768;" horiz-adv-x="603" 
d="M375 201h-164l-42 -201h-153l108 511h153l-38 -179h164l38 179h153l-108 -511h-153z" />
    <glyph glyph-name="Ismall" unicode="&#xf769;" horiz-adv-x="284" 
d="M278 512l-108 -512h-154l108 512h154z" />
    <glyph glyph-name="Jsmall" unicode="&#xf76a;" horiz-adv-x="443" 
d="M436 512l-69 -328q-16 -74 -58.5 -120t-91 -62t-106.5 -16q-92 0 -159 24l54 129q49 -19 114 -19q79 0 95 77l67 315h154z" />
    <glyph glyph-name="Ksmall" unicode="&#xf76b;" horiz-adv-x="588" 
d="M539 0h-178q-107 256 -134 271l-57 -271h-154l108 512h154l-51 -241q51 39 228 241h177q-160 -185 -225 -232q18 -14 54 -88t78 -192z" />
    <glyph glyph-name="Lsmall" unicode="&#xf76c;" horiz-adv-x="448" 
d="M278 512l-80 -376h231l-28 -136h-385l108 512h154z" />
    <glyph glyph-name="Msmall" unicode="&#xf76d;" horiz-adv-x="788" 
d="M403 245q94 159 169 267h207l-108 -512h-151l70 333q-92 -137 -189 -306h-110q-24 189 -53 306l-70 -333h-152l108 512h216q24 -81 63 -267z" />
    <glyph glyph-name="Nsmall" unicode="&#xf76e;" horiz-adv-x="613" 
d="M394 243l57 268h153l-108 -511h-153q-60 187 -116 276l-58 -276h-153l108 511h150q79 -140 120 -268z" />
    <glyph glyph-name="Osmall" unicode="&#xf76f;" horiz-adv-x="590" 
d="M241 -14q-129 0 -176 60.5t-14 212.5q32 151 103.5 209t200.5 58q131 0 178.5 -58t15.5 -209q-33 -152 -105.5 -212.5t-202.5 -60.5zM330 406q-57 0 -81 -26.5t-44 -123.5q-19 -97 -7 -123.5t68 -26.5t81 28t45 122q19 100 7 125t-69 25z" />
    <glyph glyph-name="Psmall" unicode="&#xf770;" horiz-adv-x="571" 
d="M376 397h-123l-24 -112h123q41 0 53 55q12 57 -29 57zM381 176h-175l-37 -176h-153l108 511h313q86 0 115.5 -42t11.5 -126q-35 -167 -183 -167z" />
    <glyph glyph-name="Qsmall" unicode="&#xf771;" horiz-adv-x="590" 
d="M226 -14q-115 0 -161 61.5t-14 211.5q32 151 103.5 209t200.5 58q131 0 178.5 -58t15.5 -209q-41 -192 -163 -246q33 -10 62.5 -51.5t74.5 -143.5h-166q-66 168 -131 168zM330 406q-57 0 -81 -26.5t-44 -123.5q-19 -97 -7 -123.5t68 -26.5t81 28t45 122q19 100 7 125
t-69 25z" />
    <glyph glyph-name="Rsmall" unicode="&#xf772;" horiz-adv-x="592" 
d="M449 511q156 0 124 -150q-28 -138 -167 -145q41 -11 66 -50.5t67 -165.5h-176q-29 98 -51 131.5t-49 33.5h-59l-35 -165h-153l108 511h325zM229 284h121q8 0 13 3q38 5 47 51q3 9 1 18q0 35 -36 35h-123z" />
    <glyph glyph-name="Ssmall" unicode="&#xf773;" horiz-adv-x="484" 
d="M494 498l-54 -114q-76 22 -146 22q-40 0 -58 -8t-24 -36q-4 -20 11.5 -28.5t72.5 -15.5q90 -12 122.5 -45.5t16.5 -110.5q-21 -97 -90 -136.5t-176 -39.5q-105 0 -177 28l55 116q69 -21 141 -21q49 0 70 8.5t27 36.5q5 22 -13 31.5t-79 15.5q-84 8 -116 40t-16 110
q21 97 89 136t175 39q97 0 169 -28z" />
    <glyph glyph-name="Tsmall" unicode="&#xf774;" horiz-adv-x="487" 
d="M350 380l-80 -380h-153l80 380h-165l28 132h482l-28 -132h-164z" />
    <glyph glyph-name="Usmall" unicode="&#xf775;" horiz-adv-x="592" 
d="M272 122q48 0 68.5 20t30.5 69l64 301h153l-62 -293q-28 -130 -90.5 -181.5t-191.5 -51.5q-130 0 -172 51.5t-14 181.5l62 293h152l-64 -301q-10 -48 3 -68.5t61 -20.5z" />
    <glyph glyph-name="Vsmall" unicode="&#xf776;" horiz-adv-x="529" 
d="M252 156q109 190 185 355h153q-124 -244 -288 -511h-184q-18 269 -59 511h157q26 -158 36 -355z" />
    <glyph glyph-name="Wsmall" unicode="&#xf777;" horiz-adv-x="838" 
d="M431 297q-54 -124 -146 -297h-184q-16 258 -55 512h157q25 -160 33 -352q93 170 174 352h139q17 -154 21 -352q123 225 179 352h154q-145 -288 -284 -512h-184q2 155 -4 297z" />
    <glyph glyph-name="Xsmall" unicode="&#xf778;" horiz-adv-x="520" 
d="M479 0h-169q-17 46 -63 140q-94 -99 -136 -140h-167q66 62 249 255q-82 165 -139 256h176q20 -33 71 -135q34 36 118 135h167q-75 -88 -227 -252q74 -152 120 -259z" />
    <glyph glyph-name="Ysmall" unicode="&#xf779;" horiz-adv-x="495" 
d="M281 353q71 73 141 159h165q-141 -166 -259 -283l-48 -229h-153l48 229q-94 190 -151 283h174q40 -64 83 -159z" />
    <glyph glyph-name="Zsmall" unicode="&#xf77a;" horiz-adv-x="498" 
d="M85 512h458l-5 -25q-148 -182 -313 -355h226l-28 -132h-463l5 25l177 192t138 163h-223z" />
    <glyph glyph-name="exclamdownsmall" unicode="&#xf7a1;" horiz-adv-x="326" 
d="M198 0h-170l92 287h111zM187 352q-54 0 -69.5 15.5t-4.5 66.5q12 55 34.5 72t76.5 17q53 0 68.5 -17t3.5 -72q-11 -51 -33.5 -66.5t-75.5 -15.5z" />
    <glyph glyph-name="questiondownsmall" unicode="&#xf7bf;" horiz-adv-x="491" 
d="M282 357q-55 0 -70.5 15t-4.5 66q12 55 34 71.5t77 16.5q53 0 69 -16.5t4 -71.5q-11 -51 -33.5 -66t-75.5 -15zM199 303h145l-40.5 -27.5l-36.5 -25t-28 -21t-24.5 -23t-15 -22.5t-10.5 -27q-5 -23 8.5 -33t59.5 -10q79 0 156 20l-7 -126q-116 -20 -191 -20
q-126 0 -174 29.5t-32 100.5q12 57 54.5 98.5t135.5 86.5z" />
    <glyph glyph-name="Agravesmall" unicode="&#xf7e0;" horiz-adv-x="577" 
d="M373 0q-7 23 -19 108h-203q-39 -78 -53 -108h-156q106 214 289 511h231q24 -297 69 -511h-158zM325 391h-20q-41 -67 -96 -172h131q-9 77 -15 172zM472 568h-129l-123 129h158z" />
    <glyph glyph-name="Aacutesmall" unicode="&#xf7e1;" horiz-adv-x="577" 
d="M373 0q-7 23 -19 108h-203q-39 -78 -53 -108h-156q106 214 289 511h231q24 -297 69 -511h-158zM325 391h-20q-41 -67 -96 -172h131q-9 77 -15 172zM370 568h-130l151 129h157z" />
    <glyph glyph-name="Acircumflexsmall" unicode="&#xf7e2;" horiz-adv-x="577" 
d="M373 0q-7 23 -19 108h-203q-39 -78 -53 -108h-156q106 214 289 511h231q24 -297 69 -511h-158zM325 391h-20q-41 -67 -96 -172h131q-9 77 -15 172zM419 568l-51 71l-79 -71h-131l150 129h147l98 -129h-134z" />
    <glyph glyph-name="Atildesmall" unicode="&#xf7e3;" horiz-adv-x="577" 
d="M373 0q-7 23 -19 108h-203q-39 -78 -53 -108h-156q106 214 289 511h231q24 -297 69 -511h-158zM325 391h-20q-41 -67 -96 -172h131q-9 77 -15 172zM502 708l60 -58q-24 -42 -61.5 -68t-82.5 -26q-33 0 -71 23.5t-60 23.5q-29 0 -58 -46l-52 65q61 80 128 80q41 0 79 -23
t57 -23q17 0 30 11t31 41z" />
    <glyph glyph-name="Adieresissmall" unicode="&#xf7e4;" horiz-adv-x="577" 
d="M373 0q-7 23 -19 108h-203q-39 -78 -53 -108h-156q106 214 289 511h231q24 -297 69 -511h-158zM325 391h-20q-41 -67 -96 -172h131q-9 77 -15 172zM269 694q41 0 52.5 -12t2.5 -52q-9 -44 -26 -57.5t-58 -13.5q-40 0 -51 13.5t-2 57.5q9 40 25.5 52t56.5 12zM495 694
q40 0 51.5 -12t2.5 -52q-9 -44 -26 -57.5t-57 -13.5q-41 0 -52 13.5t-2 57.5q9 40 25.5 52t57.5 12z" />
    <glyph glyph-name="Aringsmall" unicode="&#xf7e5;" horiz-adv-x="577" 
d="M373 0q-7 23 -19 108h-203q-39 -78 -53 -108h-156q106 214 289 511h231q24 -297 69 -511h-158zM325 391h-20q-41 -67 -96 -172h131q-9 77 -15 172zM389 742q65 0 89.5 -22t12.5 -78t-45.5 -78t-98.5 -22q-66 0 -91 22t-13 78t45 78t101 22zM376 680q-28 0 -39 -8.5
t-16 -30.5t3 -30t36 -8q27 0 38 8.5t16 29.5q5 22 -2.5 30.5t-35.5 8.5z" />
    <glyph glyph-name="AEsmall" unicode="&#xf7e6;" horiz-adv-x="832" 
d="M750 320l-25 -115h-193l-18 -84h259l-25 -121h-412l23 112h-218l-92 -112h-162q177 214 459 511h510l-26 -121h-259l-14 -70h193zM397 403l-160 -180h146l38 180h-24z" />
    <glyph glyph-name="Ccedillasmall" unicode="&#xf7e7;" horiz-adv-x="472" 
d="M409 141l5 -129q-62 -22 -153 -26l-6 -25q54 0 76 -18.5t12 -60.5q-10 -48 -45.5 -66.5t-115.5 -18.5q-59 0 -91 13l37 60q18 -9 60 -9q34 0 39 23q3 16 -14 21t-62 1l49 83q-98 10 -138 73t-11 197q31 147 109.5 207t201.5 60q99 0 157 -22l-60 -130q-52 21 -112 21
q-32 0 -51 -4t-37.5 -18t-31 -42.5t-22.5 -74.5q-18 -85 2 -111.5t82 -26.5q61 0 120 23z" />
    <glyph glyph-name="Egravesmall" unicode="&#xf7e8;" horiz-adv-x="512" 
d="M536 512l-26 -122h-258l-14 -70h193l-25 -115h-193l-18 -84h258l-25 -121h-412l108 512h412zM466 568h-129l-123 129h158z" />
    <glyph glyph-name="Eacutesmall" unicode="&#xf7e9;" horiz-adv-x="512" 
d="M536 512l-26 -122h-258l-14 -70h193l-25 -115h-193l-18 -84h258l-25 -121h-412l108 512h412zM368 568h-130l151 129h157z" />
    <glyph glyph-name="Ecircumflexsmall" unicode="&#xf7ea;" horiz-adv-x="512" 
d="M536 512l-26 -122h-258l-14 -70h193l-25 -115h-193l-18 -84h258l-25 -121h-412l108 512h412zM419 568l-51 71l-79 -71h-131l150 129h147l98 -129h-134z" />
    <glyph glyph-name="Edieresissmall" unicode="&#xf7eb;" horiz-adv-x="512" 
d="M536 512l-26 -122h-258l-14 -70h193l-25 -115h-193l-18 -84h258l-25 -121h-412l108 512h412zM267 694q41 0 52.5 -12t2.5 -52q-9 -44 -26 -57.5t-58 -13.5q-40 0 -51 13.5t-2 57.5q9 40 25.5 52t56.5 12zM493 694q40 0 51.5 -12t2.5 -52q-9 -44 -26 -57.5t-57 -13.5
q-41 0 -52 13.5t-2 57.5q9 40 25.5 52t57.5 12z" />
    <glyph glyph-name="Igravesmall" unicode="&#xf7ec;" horiz-adv-x="284" 
d="M278 512l-108 -512h-154l108 512h154zM310 568h-129l-123 129h158z" />
    <glyph glyph-name="Iacutesmall" unicode="&#xf7ed;" horiz-adv-x="284" 
d="M278 512l-108 -512h-154l108 512h154zM240 568h-130l151 129h157z" />
    <glyph glyph-name="Icircumflexsmall" unicode="&#xf7ee;" horiz-adv-x="284" 
d="M278 512l-108 -512h-154l108 512h154zM277 568l-51 71l-79 -71h-131l150 129h147l98 -129h-134z" />
    <glyph glyph-name="Idieresissmall" unicode="&#xf7ef;" horiz-adv-x="284" 
d="M278 512l-108 -512h-154l108 512h154zM128 694q41 0 52.5 -12t2.5 -52q-9 -44 -26 -57.5t-58 -13.5q-40 0 -51 13.5t-2 57.5q9 40 25.5 52t56.5 12zM354 694q40 0 51.5 -12t2.5 -52q-9 -44 -26 -57.5t-57 -13.5q-41 0 -52 13.5t-2 57.5q9 40 25.5 52t57.5 12z" />
    <glyph glyph-name="Ethsmall" unicode="&#xf7f0;" horiz-adv-x="598" 
d="M18 210l23 106h42l41 196h238q130 0 177.5 -55t16.5 -199q-30 -144 -101 -201t-201 -57h-238l44 210h-42zM320 398h-66l-17 -82h69l-23 -106h-69l-20 -96h66q59 0 90.5 28t49.5 114q8 37 9 63t-4 41.5t-18 24t-28 11t-39 2.5z" />
    <glyph glyph-name="Ntildesmall" unicode="&#xf7f1;" horiz-adv-x="613" 
d="M394 243l57 268h153l-108 -511h-153q-60 187 -116 276l-58 -276h-153l108 511h150q79 -140 120 -268zM531 708l60 -58q-24 -42 -61.5 -68t-82.5 -26q-33 0 -71 23.5t-60 23.5q-29 0 -58 -46l-52 65q61 80 128 80q40 0 78.5 -23t57.5 -23q17 0 30 11t31 41z" />
    <glyph glyph-name="Ogravesmall" unicode="&#xf7f2;" horiz-adv-x="590" 
d="M241 -14q-129 0 -176 60.5t-14 212.5q32 151 103.5 209t200.5 58q131 0 178.5 -58t15.5 -209q-33 -152 -105.5 -212.5t-202.5 -60.5zM330 406q-57 0 -81 -26.5t-44 -123.5q-19 -97 -7 -123.5t68 -26.5t81 28t45 122q19 100 7 125t-69 25zM472 568h-129l-123 129h158z" />
    <glyph glyph-name="Oacutesmall" unicode="&#xf7f3;" horiz-adv-x="590" 
d="M241 -14q-129 0 -176 60.5t-14 212.5q32 151 103.5 209t200.5 58q131 0 178.5 -58t15.5 -209q-33 -152 -105.5 -212.5t-202.5 -60.5zM330 406q-57 0 -81 -26.5t-44 -123.5q-19 -97 -7 -123.5t68 -26.5t81 28t45 122q19 100 7 125t-69 25zM388 568h-130l151 129h157z" />
    <glyph glyph-name="Ocircumflexsmall" unicode="&#xf7f4;" horiz-adv-x="590" 
d="M241 -14q-129 0 -176 60.5t-14 212.5q32 151 103.5 209t200.5 58q131 0 178.5 -58t15.5 -209q-33 -152 -105.5 -212.5t-202.5 -60.5zM330 406q-57 0 -81 -26.5t-44 -123.5q-19 -97 -7 -123.5t68 -26.5t81 28t45 122q19 100 7 125t-69 25zM426 568l-51 71l-79 -71h-131
l150 129h147l98 -129h-134z" />
    <glyph glyph-name="Otildesmall" unicode="&#xf7f5;" horiz-adv-x="590" 
d="M241 -14q-129 0 -176 60.5t-14 212.5q32 151 103.5 209t200.5 58q131 0 178.5 -58t15.5 -209q-33 -152 -105.5 -212.5t-202.5 -60.5zM330 406q-57 0 -81 -26.5t-44 -123.5q-19 -97 -7 -123.5t68 -26.5t81 28t45 122q19 100 7 125t-69 25zM511 708l60 -58
q-24 -42 -61.5 -68t-82.5 -26q-33 0 -71 23.5t-60 23.5q-29 0 -58 -46l-52 65q61 80 128 80q40 0 78 -23t58 -23q17 0 30 11t31 41z" />
    <glyph glyph-name="Odieresissmall" unicode="&#xf7f6;" horiz-adv-x="590" 
d="M241 -14q-129 0 -176 60.5t-14 212.5q32 151 103.5 209t200.5 58q131 0 178.5 -58t15.5 -209q-33 -152 -105.5 -212.5t-202.5 -60.5zM330 406q-57 0 -81 -26.5t-44 -123.5q-19 -97 -7 -123.5t68 -26.5t81 28t45 122q19 100 7 125t-69 25zM278 694q41 0 52.5 -12t2.5 -52
q-9 -44 -26 -57.5t-58 -13.5q-40 0 -51 13.5t-2 57.5q9 40 25.5 52t56.5 12zM504 694q40 0 51.5 -12t2.5 -52q-9 -44 -26 -57.5t-57 -13.5q-41 0 -52 13.5t-2 57.5q9 40 25.5 52t57.5 12z" />
    <glyph glyph-name="Oslashsmall" unicode="&#xf7f8;" horiz-adv-x="590" 
d="M511 511h136l-94 -85q18 -62 -5 -168q-32 -152 -104 -212t-203 -60q-89 0 -139 27l-14 -13h-136l93 85q-19 61 4 173q32 151 104.5 209.5t201.5 58.5q95 0 141 -28zM330 406q-53 0 -78 -22t-41 -93q-7 -32 -10 -65l182 169q-16 11 -53 11zM266 106q56 0 81 31.5t41 103.5
q1 6 3.5 19.5t3.5 21.5l-181 -167q14 -9 52 -9z" />
    <glyph glyph-name="Ugravesmall" unicode="&#xf7f9;" horiz-adv-x="592" 
d="M272 122q48 0 68.5 20t30.5 69l64 301h153l-62 -293q-28 -130 -90.5 -181.5t-191.5 -51.5q-130 0 -172 51.5t-14 181.5l62 293h152l-64 -301q-10 -48 3 -68.5t61 -20.5zM468 568h-129l-123 129h158z" />
    <glyph glyph-name="Uacutesmall" unicode="&#xf7fa;" horiz-adv-x="592" 
d="M272 122q48 0 68.5 20t30.5 69l64 301h153l-62 -293q-28 -130 -90.5 -181.5t-191.5 -51.5q-130 0 -172 51.5t-14 181.5l62 293h152l-64 -301q-10 -48 3 -68.5t61 -20.5zM382 568h-130l151 129h157z" />
    <glyph glyph-name="Ucircumflexsmall" unicode="&#xf7fb;" horiz-adv-x="592" 
d="M272 122q48 0 68.5 20t30.5 69l64 301h153l-62 -293q-28 -130 -90.5 -181.5t-191.5 -51.5q-130 0 -172 51.5t-14 181.5l62 293h152l-64 -301q-10 -48 3 -68.5t61 -20.5zM430 568l-51 71l-79 -71h-131l150 129h147l98 -129h-134z" />
    <glyph glyph-name="Udieresissmall" unicode="&#xf7fc;" horiz-adv-x="592" 
d="M272 122q48 0 68.5 20t30.5 69l64 301h153l-62 -293q-28 -130 -90.5 -181.5t-191.5 -51.5q-130 0 -172 51.5t-14 181.5l62 293h152l-64 -301q-10 -48 3 -68.5t61 -20.5zM281 694q41 0 52.5 -12t2.5 -52q-9 -44 -26 -57.5t-58 -13.5q-40 0 -51 13.5t-2 57.5q9 40 25.5 52
t56.5 12zM507 694q40 0 51.5 -12t2.5 -52q-9 -44 -26 -57.5t-57 -13.5q-41 0 -52 13.5t-2 57.5q9 40 25.5 52t57.5 12z" />
    <glyph glyph-name="Yacutesmall" unicode="&#xf7fd;" horiz-adv-x="495" 
d="M281 353q71 73 141 159h165q-141 -166 -259 -283l-48 -229h-153l48 229q-94 190 -151 283h174q40 -64 83 -159zM344 568h-130l151 129h157z" />
    <glyph glyph-name="Thornsmall" unicode="&#xf7fe;" horiz-adv-x="571" 
d="M188 92l-19 -92h-153l108 511h153l-18 -84h160q86 0 116 -41.5t12 -126.5q-37 -167 -184 -167h-175zM358 313h-123l-24 -112h123q41 0 53 55q12 57 -29 57z" />
    <glyph glyph-name="Ydieresissmall" unicode="&#xf7ff;" horiz-adv-x="495" 
d="M281 353q71 73 141 159h165q-141 -166 -259 -283l-48 -229h-153l48 229q-94 190 -151 283h174q40 -64 83 -159zM242 694q41 0 52.5 -12t2.5 -52q-9 -44 -26 -57.5t-58 -13.5q-40 0 -51 13.5t-2 57.5q9 40 25.5 52t56.5 12zM468 694q40 0 51.5 -12t2.5 -52
q-9 -44 -26 -57.5t-57 -13.5q-41 0 -52 13.5t-2 57.5q9 40 25.5 52t57.5 12z" />
    <glyph glyph-name="Gcedilla" horiz-adv-x="712" 
d="M458 140l31 146h-138l30 138h303l-86 -405q-91 -27 -233 -32l-6 -26q54 0 76 -18.5t12 -60.5q-10 -48 -45.5 -66.5t-115.5 -18.5q-59 0 -91 13l37 60q18 -9 60 -9q34 0 39 23q3 16 -14 21t-62 1l48 80q-80 2 -131.5 21.5t-82.5 62.5t-32.5 112.5t17.5 172.5
q23 105 60.5 176t93.5 110.5t122.5 56t157.5 16.5q130 0 213 -25l-59 -142q-23 8 -77.5 14t-91.5 6q-62 0 -97 -6t-66.5 -28.5t-50 -64.5t-33.5 -115q-12 -58 -13.5 -96.5t6 -63t29.5 -37t49.5 -17t73.5 -4.5q22 0 67 5z" />
    <glyph glyph-name="Idot" horiz-adv-x="325" 
d="M180 697h161l-148 -697h-161zM298 877q41 0 52.5 -12t2.5 -52q-9 -44 -26 -57.5t-58 -13.5q-40 0 -51 13.5t-2 57.5q9 40 25.5 52t56.5 12z" />
    <glyph glyph-name="Breve" horiz-adv-x="317" 
d="M249 871h101q-7 -31 5 -41.5t44 -10.5q31 0 47.5 10.5t23.5 41.5h94q-31 -143 -189 -143q-75 0 -108 35.5t-18 107.5z" />
    <glyph glyph-name="Circumflex" horiz-adv-x="651" 
d="M522 747l-51 72l-80 -72h-130l150 129h147l98 -129h-134z" />
    <glyph glyph-name="Dotaccent" horiz-adv-x="285" 
d="M292 877q41 0 52.5 -12t2.5 -52q-9 -44 -26 -57.5t-58 -13.5q-40 0 -51 13.5t-2 57.5q9 40 25.5 52t56.5 12z" />
    <glyph glyph-name="gacute" 
d="M358 154l50 236q-29 14 -75 14q-57 0 -82.5 -27t-45.5 -122q-17 -81 -3.5 -109t67.5 -28q35 0 60.5 10t28.5 26zM329 18q-64 -29 -130 -29q-52 0 -85.5 12t-55.5 42t-22.5 80.5t13.5 128.5q32 153 104 213.5t206 60.5q136 0 225 -36l-96 -449q-16 -74 -47 -124t-77 -75.5
t-95.5 -35.5t-115.5 -10q-104 0 -180 30l52 120q82 -23 152 -23q66 0 103.5 21t48.5 74zM394 568h-130l151 129h157z" />
    <glyph glyph-name="ldotaccent" horiz-adv-x="292" 
d="M323 722l-122 -573q-15 -72 8 -124l-149 -50q-36 60 -14 170l123 577h154zM365 469q40 0 51.5 -12t2.5 -52q-9 -44 -26 -57.5t-57 -13.5t-51.5 13.5t-2.5 57.5q9 40 25.5 52t57.5 12z" />
    <glyph glyph-name="Ring" horiz-adv-x="708" 
d="M501 899q65 0 89 -22t12 -78t-45.5 -78t-98.5 -22q-66 0 -91 22t-13 78t45.5 78t101.5 22zM487 837q-28 0 -39 -8.5t-16 -30.5t3 -30.5t36 -8.5q27 0 38 9t16 30q5 22 -2.5 30.5t-35.5 8.5z" />
    <glyph glyph-name="Tilde" horiz-adv-x="702" 
d="M660 885l59 -58q-23 -41 -61.5 -67.5t-83.5 -26.5q-33 0 -72 23.5t-61 23.5q-28 0 -57 -45l-52 64q62 79 127 79q40 0 80 -22.5t60 -22.5q17 0 30 11t31 41z" />
    <glyph glyph-name="Dmacron" horiz-adv-x="753" 
d="M180 697h291q69 0 117.5 -10t86 -33.5t52.5 -62.5t18 -98.5t-17 -140.5q-41 -197 -136 -274.5t-269 -77.5h-291zM556 350q15 71 16.5 111t-16.5 61.5t-47 27.5t-87 6h-111l-88 -414h111q57 0 89.5 7t59.5 30t42.5 62.5t30.5 108.5zM323 745l23 107h292l-23 -107h-292z
" />
    <glyph glyph-name="zerop" horiz-adv-x="637" 
d="M419 714q55 0 94 -10t68 -34t41.5 -64.5t11 -102t-19.5 -145.5q-44 -207 -127 -289.5t-222 -82.5q-55 0 -93.5 11t-66.5 37t-40.5 69t-10 106.5t20.5 148.5q22 104 53.5 174t75.5 110t95 56t120 16zM297 134q48 0 73.5 16.5t43.5 61.5t40 146q21 97 21 139.5t-18.5 56.5
t-67.5 14q-48 0 -72 -13.5t-42.5 -56.5t-38.5 -140q-22 -100 -22.5 -146t17.5 -62t66 -16z" />
    <glyph glyph-name="onep" horiz-adv-x="427" 
d="M295 0h-158l111 523l-170 -63l-14 136l385 133z" />
    <glyph glyph-name="twop" horiz-adv-x="619" 
d="M159 542l-4 137q107 35 244 35q138 0 190.5 -44t26.5 -165q-12 -57 -29.5 -93.5t-61.5 -78.5t-105.5 -82.5t-179.5 -109.5h301l-29 -141h-523l27 131l163.5 105.5l110 75t75 55.5t40 41t24.5 39t11 41q10 47 -9 64t-80 17q-99 0 -192 -27z" />
    <glyph glyph-name="threep" horiz-adv-x="605" 
d="M192 293l29 138h105q51 0 72.5 14t30.5 55q9 39 -14.5 53t-106.5 14q-104 0 -170 -19v141q118 25 240 25q152 0 202 -40t29 -141q-17 -79 -56.5 -119t-129.5 -47q92 -4 118.5 -48t7.5 -132q-24 -111 -98 -156t-229 -45q-126 0 -232 24l60 143q59 -19 165 -19q90 0 122 16
t42 63q10 46 -8 63t-70 17h-109z" />
    <glyph glyph-name="fourp" horiz-adv-x="618" 
d="M341 166h-344l11 55q233 302 394 476h207l-85 -396h90l-28 -135h-90l-35 -166h-155zM369 301l53 247q-100 -106 -206 -247h153z" />
    <glyph glyph-name="fivep" horiz-adv-x="608" 
d="M182 697h451l-30 -141h-299l-26 -120q36 3 70 3q147 0 191 -48.5t18 -169.5q-28 -135 -98.5 -185t-225.5 -50q-137 0 -228 24l60 143q54 -19 161 -19q87 0 115 15t39 66q12 54 -8.5 70t-109.5 16q-87 0 -167 -10z" />
    <glyph glyph-name="sixp" horiz-adv-x="629" 
d="M612 688l-61 -142q-55 20 -164 20q-74 0 -113 -26.5t-60 -108.5q54 8 109 8q148 0 193.5 -49t19.5 -169q-28 -136 -96.5 -185.5t-220.5 -49.5q-153 0 -196 77.5t1 290.5q30 144 77.5 221t120.5 108t196 31q107 0 194 -26zM250 134q60 0 84 18t34 65q10 50 -6 67.5
t-69 17.5q-57 0 -111 -6q-10 -53 -10.5 -85t9.5 -49t25.5 -22.5t43.5 -5.5z" />
    <glyph glyph-name="sevenp" horiz-adv-x="544" 
d="M665 697l-10 -46q-85 -101 -222.5 -305.5t-212.5 -345.5h-183q90 156 199.5 318t183.5 238h-340l30 141h555z" />
    <glyph glyph-name="eightp" horiz-adv-x="635" 
d="M292 117q59 0 84 18.5t36 68.5q11 52 -6.5 74t-74.5 22t-83.5 -22t-37.5 -74q-11 -50 6.5 -68.5t75.5 -18.5zM358 425q50 0 74.5 18t34.5 62q9 44 -8 59.5t-68 15.5q-52 0 -76 -15.5t-33 -59.5q-10 -44 8 -62t68 -18zM265 -14q-151 0 -201 45t-26 156q19 88 62.5 132
t139.5 48q-87 7 -109.5 47t-5.5 119q21 99 82 140t212 41q103 0 155.5 -19t64.5 -59t-2 -103q-17 -80 -56 -119.5t-129 -46.5q93 -4 118 -47.5t6 -132.5q-24 -111 -91.5 -156t-219.5 -45z" />
    <glyph glyph-name="ninep" horiz-adv-x="628" 
d="M111 0q183 155 263 264q-26 -2 -63 -2q-148 0 -194 47t-20 167q28 136 97 187t221 51q163 0 207 -50t14 -190q-29 -136 -112.5 -249.5t-216.5 -224.5h-196zM361 398q46 0 83 4q10 23 17 57q15 69 0 88.5t-77 19.5q-61 0 -84.5 -18.5t-33.5 -67.5q-11 -52 6 -67.5
t89 -15.5z" />
    <glyph glyph-name="g.2" 
d="M596 493l-24 -112q-22 -106 -101.5 -156t-198.5 -50q-37 0 -56 5q-6 -7 -8 -20q-4 -19 24 -26.5t110 -10.5q98 -5 137.5 -39.5t24.5 -102.5q-11 -52 -38.5 -89t-70.5 -57.5t-94.5 -29.5t-118.5 -9q-129 0 -208 27l58 132q77 -28 171 -28q133 0 142 42q4 20 -14.5 26
t-92.5 8q-121 5 -159.5 28t-25.5 86q12 49 51 87q-54 35 -31 142q38 180 290 180q60 0 127 -9.5t106 -23.5zM415 364l6 29q-33 12 -90 12q-50 0 -73 -12.5t-30 -44.5q-6 -31 11 -41.5t64 -10.5q98 0 112 68z" />
    <glyph glyph-name="ct" horiz-adv-x="853" 
d="M504 173l44 207q-56 0 -127 8.5t-82 8.5q-59 0 -87 -26t-47 -115q-8 -45 -10 -72.5t9.5 -42.5t28.5 -20t46 -5q63 0 112 18l4 -122q-69 -26 -155 -26q-118 0 -169.5 62t-19.5 211q31 147 108 207t195 60q24 0 97 -7t125 -7l16 76l167 62l-30 -138h160l-28 -132h-160
l-40 -191q-8 -40 4 -56.5t52 -16.5q37 0 82 14l1 -118q-68 -26 -158 -26q-91 0 -126 39.5t-12 147.5z" />
    <glyph glyph-name="arrowupleft" horiz-adv-x="682" 
d="M84 97l-16 532l532 -16l2 -156l-269 10l317 -316l-104 -104l-316 317l11 -269z" />
    <glyph glyph-name="arrowupright" horiz-adv-x="681" 
d="M87 612l532 17l-16 -533l-156 -2l10 269l-316 -317l-103 105l317 316l-270 -11z" />
    <glyph glyph-name="arrowdownleft" horiz-adv-x="682" 
d="M68 47l16 533l157 1l-11 -269l316 317l104 -103l-317 -317l269 10l-2 -156z" />
    <glyph glyph-name="arrowdownright" horiz-adv-x="681" 
d="M619 45l-532 18l-2 156l270 -11l-317 316l103 104l316 -317l-10 269l156 -1z" />
    <glyph glyph-name="dmacron" 
d="M368 572l22 105h79l10 45h154l-10 -45h50l-22 -105h-50l-117 -550q-103 -36 -239 -36q-135 0 -181 59.5t-14 212.5q31 146 101 207t173 61q60 0 109 -22l14 68h-79zM352 127l50 235q4 16 -16.5 27.5t-54.5 11.5q-54 0 -81 -30t-44 -111q-18 -93 -4.5 -119t70.5 -26
q50 0 80 12z" />
    <glyph glyph-name="Ldotaccent" horiz-adv-x="553" 
d="M180 697h161l-118 -555h314l-30 -142h-475zM427 484q40 0 51.5 -12t3.5 -52q-10 -44 -26.5 -57.5t-56.5 -13.5t-51.5 13.5t-2.5 57.5q8 40 24.5 52t57.5 12z" />
    <glyph glyph-name="st" horiz-adv-x="897" 
d="M548 173l44 207q-79 0 -181 13t-117 13q-40 0 -58 -8t-24 -36q-4 -20 11.5 -28.5t72.5 -15.5q90 -12 122.5 -45.5t16.5 -110.5q-21 -97 -90 -136.5t-176 -39.5q-105 0 -177 28l55 116q69 -21 141 -21q49 0 70 8.5t27 36.5q5 22 -13 31.5t-79 15.5q-84 8 -116 40t-16 110
q21 97 89 136t175 39q20 0 125.5 -7t169.5 -7l16 76l168 62l-30 -138h160l-28 -132h-160l-40 -191q-8 -40 3.5 -56.5t51.5 -16.5q37 0 83 14v-118q-68 -26 -157 -26q-92 0 -127 39.5t-12 147.5z" />
    <glyph glyph-name="orn1" horiz-adv-x="626" 
d="M234 -125q-7 29 -37 48t-63.5 29t-65.5 36.5t-42.5 71t4.5 132.5q23 107 73.5 163t124.5 56q54 0 114 -28q79 28 129 28q150 0 104 -216q-14 -68 -41 -116t-58 -70.5t-67 -39.5t-67 -25.5t-61 -26t-47 -42.5zM316 262q-43 26 -64 26q-46 0 -65 -95q-13 -51 -3.5 -79
t24.5 -35t34 -19t25 -30q14 18 38 29.5t43 18.5t39.5 35.5t31.5 80.5q10 51 4.5 72t-27.5 21q-23 0 -80 -25zM345 392q17 35 23 60q10 50 -14.5 77t-79.5 27h-206l26 124h626l-26 -124h-247q8 -14 3 -40q-7 -34 -35 -69t-70 -55z" />
    <glyph glyph-name="orn2" horiz-adv-x="626" 
d="M238 -125q-7 29 -37 48.5t-63.5 29.5t-66 37t-43 72t4.5 133q46 216 196 216q52 0 117 -28q74 28 126 28q74 0 100.5 -56t3.5 -163q-14 -68 -41 -115.5t-57 -70t-66 -39t-66.5 -25t-60.5 -25.5t-47 -42zM347 392q-33 20 -46 55t-6 69q5 25 20 40h-247l26 124h626
l-26 -124h-206q-55 0 -91 -27t-46 -77q-8 -34 -4 -60z" />
    <glyph glyph-name="orn3" horiz-adv-x="626" 
d="M405 681q7 -29 37 -48.5t63.5 -29.5t66 -37t43 -72t-4.5 -133q-46 -216 -196 -216q-50 0 -117 28q-75 -29 -126 -29q-74 0 -100.5 56.5t-3.5 163.5q17 80 51 131t74 73t79 34.5t77 31t57 47.5zM323 294q49 -26 68 -26q44 0 63 93q13 53 3 81t-25 35t-34.5 18.5
t-25.5 30.5q-14 -19 -37.5 -30.5t-42.5 -18.5t-38.5 -35t-30.5 -79q-21 -95 24 -95q26 0 76 26zM296 163q34 -19 47 -54t6 -69q-5 -25 -20 -40h247l-27 -125h-625l26 125h206q55 0 91 27t47 77q6 34 2 59z" />
    <glyph glyph-name="orn4" horiz-adv-x="626" 
d="M409 681q6 -25 28.5 -42.5t50 -26t56.5 -24.5t49 -39.5t28 -69.5t-8 -115q-48 -220 -198 -220q-50 0 -114 29q-78 -28 -129 -28q-150 0 -104 216q14 68 41.5 116t58 70.5t66.5 39.5t67.5 25.5t61 26t46.5 42.5zM298 163q-16 -31 -21 -59q-11 -50 13.5 -77t79.5 -27h206
l-27 -125h-625l26 125h247q-8 14 -3 40q7 34 34.5 69t69.5 54z" />
    <glyph glyph-name="orn5" horiz-adv-x="881" 
d="M21 280q32 13 57.5 47t46.5 70.5t50 72t85 58.5t136 23q107 0 155 -38.5t33 -112.5q-12 -54 -55 -120q12 -72 2 -123q-32 -150 -248 -150q-68 0 -112 17t-61.5 42.5t-27.5 58t-12.5 62t-14 56t-34.5 37.5zM408 280q35 45 41 70q5 22 -15.5 33.5t-70.5 11.5q-51 0 -82 -14
t-41.5 -31.5t-26.5 -38.5t-37 -31q14 -8 20.5 -24t9.5 -31t11 -29.5t32.5 -23.5t66.5 -9q93 0 102 43q4 19 -10 74zM539 279q27 -10 57 -10q50 0 83.5 30.5t44.5 85.5l44 206h125l-133 -626h-125l53 247q-18 -12 -43 -12q-34 0 -64.5 20.5t-41.5 58.5z" />
    <glyph glyph-name="orn6" horiz-adv-x="881" 
d="M20 276q28 11 51 37t37.5 55.5t38.5 62t52 58.5t79.5 43t119.5 17q107 0 153.5 -37.5t30.5 -112.5q-10 -51 -54 -123q14 -71 4 -120q-32 -151 -252 -151q-68 0 -111.5 16.5t-60.5 42t-27 58t-12.5 61.5t-14 55t-34.5 38zM538 277q28 38 67 58t73 20q26 0 38 -11l52 247
h125l-133 -626h-125l44 206q11 55 -9.5 85t-70.5 30q-31 0 -61 -9z" />
    <glyph glyph-name="orn7" horiz-adv-x="881" 
d="M878 280q-32 -13 -57.5 -47t-46.5 -71t-50.5 -72.5t-86 -59t-137.5 -23.5q-107 0 -153.5 37.5t-30.5 112.5q10 51 54 123q-14 69 -2 120q32 151 251 151q59 0 99.5 -12t60.5 -32.5t31 -46t15 -53t8 -51.5t14.5 -45t30.5 -31zM491 280q-36 -51 -41 -74q-5 -22 14.5 -32.5
t69.5 -10.5q42 0 70 9t42.5 23.5t24 29.5t22 31t30.5 24q-16 10 -23 31.5t-10.5 39t-28.5 31.5t-76 14q-95 0 -105 -46q-5 -21 11 -70zM361 279q-28 -37 -67.5 -57.5t-73.5 -20.5q-26 0 -37 11l-53 -247h-124l133 626h124l-44 -206q-11 -55 9.5 -85t70.5 -30q31 0 62 9z" />
    <glyph glyph-name="orn8" horiz-adv-x="881" 
d="M877 276q-27 -11 -49.5 -37t-37 -55.5t-38 -61.5t-51.5 -58t-79 -42.5t-119 -16.5q-107 0 -155 38.5t-32 112.5q10 51 53 120q-12 72 -2 123q33 150 248 150q68 0 112 -17t61.5 -42.5t27.5 -58t12.5 -62t14 -56t34.5 -37.5zM360 277q-29 10 -57 10q-50 0 -84 -30.5
t-45 -85.5l-44 -206h-124l133 626h124l-52 -247q16 12 42 12q34 0 65 -20.5t42 -58.5z" />
    <glyph glyph-name="publish" horiz-adv-x="819" 
d="M792 356q-44 -206 -148.5 -288t-287.5 -82q-72 0 -123.5 11t-92 36.5t-58.5 68t-22 105.5t17 149q22 105 59.5 175.5t93.5 110t122.5 56t157.5 16.5q60 0 105.5 -7t83.5 -23t61.5 -43t36.5 -66.5t11.5 -94t-16.5 -124.5zM513 403q6 23 0.5 34t-24.5 11h-72l-19 -89h71
q19 0 29 10.5t15 33.5zM633 400q-32 -145 -142 -145h-115l-23 -107h-122l85 401h236q112 0 81 -149zM487 604q-70 0 -110.5 -7.5t-76 -34t-56 -75t-38.5 -131.5q-15 -69 -17 -115t6.5 -75.5t34 -45t59.5 -21t89 -5.5q70 0 111.5 8.5t77 37t57 79.5t39.5 137
q14 67 15.5 110.5t-7 71.5t-35 42t-60 19t-89.5 5z" />
    <glyph glyph-name="zerob" horiz-adv-x="775" 
d="M466 609q-100 0 -157.5 -54.5t-88.5 -198.5q-31 -148 3 -207t133 -59t158 59t90 207q31 144 -3.5 198.5t-134.5 54.5zM379 195q-50 0 -58 28.5t13 132.5q21 99 40.5 124.5t70.5 25.5t59 -24.5t-13 -125.5q-22 -103 -42 -132t-70 -29zM489 714q58 0 101.5 -7t79 -23
t57.5 -43t33 -66.5t9 -94t-17 -124.5q-23 -106 -59 -178.5t-89 -114.5t-117.5 -59.5t-151.5 -17.5t-143.5 17.5t-93.5 60t-40.5 113.5t16.5 179q22 105 58 175t89 110t116.5 56.5t151.5 16.5z" />
    <glyph glyph-name="oneb" horiz-adv-x="775" 
d="M320 105h112l110 519l-273 -95l10 -95l120 45zM489 714q58 0 101.5 -7t79 -23t57.5 -43t33 -66.5t9 -94t-17 -124.5q-23 -106 -59 -178.5t-89 -114.5t-117.5 -59.5t-151.5 -17.5t-143.5 17.5t-93.5 60t-40.5 113.5t16.5 179q22 105 58 175t89 110t116.5 56.5t151.5 16.5z
" />
    <glyph glyph-name="twob" horiz-adv-x="775" 
d="M489 714q58 0 101.5 -7t79 -23t57.5 -43t33 -66.5t9 -94t-17 -124.5q-23 -106 -59 -178.5t-89 -114.5t-117.5 -59.5t-151.5 -17.5t-143.5 17.5t-93.5 60t-40.5 113.5t16.5 179q22 105 58 175t89 110t116.5 56.5t151.5 16.5zM282 587l4 -97q59 18 136 18q43 0 57 -12
t7 -45q-5 -22 -12.5 -36.5t-20.5 -31t-51.5 -43.5l-82.5 -56.5l-136 -88.5l-20 -93h372l21 100h-216q160 94 207.5 138.5t63.5 121.5q18 87 -19.5 118t-136.5 31q-98 0 -173 -24z" />
    <glyph glyph-name="threeb" horiz-adv-x="775" 
d="M340 408l-21 -98h76q39 0 51.5 -12t5.5 -46t-29.5 -45.5t-87.5 -11.5q-74 0 -118 13l-43 -100q79 -18 166 -18q110 0 162.5 32t69.5 112q14 62 -4.5 93.5t-84.5 34.5q63 5 91 33.5t40 84.5q15 72 -20.5 100.5t-143.5 28.5q-82 0 -171 -17l1 -100q53 14 121 14
q60 0 76.5 -10t10.5 -39q-7 -29 -22 -39t-52 -10h-74zM489 714q58 0 101.5 -7t79 -23t57.5 -43t33 -66.5t9 -94t-17 -124.5q-23 -106 -59 -178.5t-89 -114.5t-117.5 -59.5t-151.5 -17.5t-143.5 17.5t-93.5 60t-40.5 113.5t16.5 179q22 105 58 175t89 110t116.5 56.5
t151.5 16.5z" />
    <glyph glyph-name="fourb" horiz-adv-x="775" 
d="M154 219h246l-25 -119h109l25 119h65l20 95h-65l60 283h-146q-107 -116 -281 -339zM458 492l-38 -178h-110q74 100 148 178zM489 714q58 0 101.5 -7t79 -23t57.5 -43t33 -66.5t9 -94t-17 -124.5q-23 -106 -59 -178.5t-89 -114.5t-117.5 -59.5t-151.5 -17.5t-143.5 17.5
t-93.5 60t-40.5 113.5t16.5 179q22 105 58 175t89 110t116.5 56.5t151.5 16.5z" />
    <glyph glyph-name="fiveb" horiz-adv-x="775" 
d="M623 594h-321l-61 -288q53 8 119 8q62 0 77 -12t7 -51q-8 -37 -28 -47.5t-82 -10.5q-75 0 -116 13l-43 -101q65 -17 163 -17q109 0 159.5 35.5t71.5 131.5q18 87 -13 121.5t-136 34.5q-24 0 -51 -3l19 87h214zM489 714q58 0 101.5 -7t79 -23t57.5 -43t33 -66.5t9 -94
t-17 -124.5q-23 -106 -59 -178.5t-89 -114.5t-117.5 -59.5t-151.5 -17.5t-143.5 17.5t-93.5 60t-40.5 113.5t16.5 179q22 105 58 175t89 110t116.5 56.5t151.5 16.5z" />
    <glyph glyph-name="sixb" horiz-adv-x="775" 
d="M594 491l43 100q-59 18 -138 18q-128 0 -188 -53t-92 -203q-31 -151 -0.5 -207t138.5 -56t157 36t69 132q18 85 -14.5 120t-137.5 35q-49 0 -78 -6q18 62 43.5 80t80.5 18q79 0 117 -14zM464 253q-7 -34 -24 -46t-61 -12q-27 0 -39 8t-16.5 34t7.5 75q32 5 65 5
q50 0 63 -13.5t5 -50.5zM489 714q58 0 101.5 -7t79 -23t57.5 -43t33 -66.5t9 -94t-17 -124.5q-23 -106 -59 -178.5t-89 -114.5t-117.5 -59.5t-151.5 -17.5t-143.5 17.5t-93.5 60t-40.5 113.5t16.5 179q22 105 58 175t89 110t116.5 56.5t151.5 16.5z" />
    <glyph glyph-name="sevenb" horiz-adv-x="775" 
d="M235 100h126q131 233 320 497h-399l-21 -100h232q-137 -185 -258 -397zM489 714q58 0 101.5 -7t79 -23t57.5 -43t33 -66.5t9 -94t-17 -124.5q-23 -106 -59 -178.5t-89 -114.5t-117.5 -59.5t-151.5 -17.5t-143.5 17.5t-93.5 60t-40.5 113.5t16.5 179q22 105 58 175t89 110
t116.5 56.5t151.5 16.5z" />
    <glyph glyph-name="eightb" horiz-adv-x="775" 
d="M377 184q-43 0 -55.5 13t-4.5 49q8 38 26.5 53t60.5 15q41 0 54 -15.5t5 -52.5q-7 -36 -25.5 -49t-60.5 -13zM423 403q-37 0 -49.5 12.5t-5.5 45.5q7 32 24 43t55 11q37 0 49 -11t5 -43t-25 -45t-53 -13zM356 90h1q107 0 155 32t65 112q14 63 -3.5 94t-84.5 34
q64 5 92.5 33.5t40.5 84.5q15 71 -16.5 100t-139.5 29q-107 0 -150.5 -29t-58.5 -100q-12 -56 3.5 -84.5t77.5 -33.5q-67 -3 -98 -34t-45 -94q-17 -80 18 -112t143 -32zM489 714q58 0 101.5 -7t79 -23t57.5 -43t33 -66.5t9 -94t-17 -124.5q-23 -106 -59 -178.5t-89 -114.5
t-117.5 -59.5t-151.5 -17.5t-143.5 17.5t-93.5 60t-40.5 113.5t16.5 179q22 105 58 175t89 110t116.5 56.5t151.5 16.5z" />
    <glyph glyph-name="nineb" horiz-adv-x="775" 
d="M394 289q14 0 46 2q-57 -78 -189 -189h139q95 79 155 160t81 178q21 100 -10.5 135.5t-147.5 35.5q-107 0 -156 -36.5t-70 -132.5q-18 -86 14.5 -119.5t137.5 -33.5zM503 429q-6 -24 -14 -41q-28 -3 -60 -3q-52 0 -64 11t-4 50q8 36 24.5 49t60.5 13t55.5 -15t1.5 -64z
M335 -14q-70 0 -119.5 11t-87 36.5t-54 68t-19 105.5t17.5 149q22 105 58 175t89 110t117 56.5t152 16.5q58 0 101.5 -7t79 -23t57 -43t32.5 -66.5t9 -94t-17 -124.5q-23 -107 -59 -179t-89 -114t-117 -59.5t-151 -17.5z" />
    <glyph glyph-name="apple" horiz-adv-x="904" 
d="M210 -14q-103 0 -147 61.5t-13 207.5q14 68 42 117t63.5 77t76 47t84 33t83.5 28.5t78.5 40t64.5 61.5q12 -41 46.5 -69.5t75 -42t84 -34t73.5 -46.5t44.5 -79.5t-4.5 -132.5q-31 -146 -101 -207.5t-173 -61.5q-53 0 -109 23l-42 -201h-151l42 201q-65 -23 -117 -23z
M570 442l-62 -292q-3 -16 17.5 -27t54.5 -11q54 0 81.5 30t44.5 110q10 39 6 66.5t-12.5 41t-26 24t-34 16t-36.5 16.5t-33 26zM357 150l62 292q-26 -20 -64.5 -34.5l-63.5 -24t-50 -42t-37 -89.5q-17 -81 -3 -110.5t68 -29.5q34 0 59.5 11t28.5 27z" />
    <glyph glyph-name="sp" horiz-adv-x="1078" 
d="M457 -192l117 550q-173 48 -280 48q-40 0 -58 -8t-24 -36q-4 -20 11.5 -28.5t72.5 -15.5q90 -12 122.5 -45.5t16.5 -110.5q-21 -97 -90 -136.5t-176 -39.5q-105 0 -177 28l55 116q69 -21 141 -21q49 0 70 8.5t27 36.5q5 22 -13 31.5t-79 15.5q-84 8 -116 40t-16 110
q21 97 89 136t175 39q141 0 277 -36q101 36 239 36q135 0 180.5 -58.5t13.5 -211.5q-31 -147 -101 -208.5t-173 -61.5q-58 0 -108 23l-42 -201h-154zM734 386l-50 -235q-4 -17 16 -28t54 -11q55 0 82 29.5t44 110.5q18 93 4.5 119.5t-70.5 26.5q-47 0 -80 -12z" />
    <glyph glyph-name="at.2" horiz-adv-x="949" 
d="M734 441l-65 -306q-110 -40 -242 -40q-121 0 -157 34.5t-14 134.5q21 100 73.5 133t147.5 33q46 0 109 -13q12 55 -4.5 73t-89.5 18q-78 0 -122.5 -8t-79 -34.5t-53 -71t-35.5 -124.5q-12 -55 -15 -93t3.5 -68t22 -47t46 -28.5t70.5 -15.5t100 -4q121 0 187.5 24.5
t100 77t55.5 154.5q23 107 15 163h129q3 -73 -17 -167q-24 -115 -60.5 -187t-97 -114.5t-139 -58.5t-198.5 -16q-77 0 -133.5 7.5t-101.5 24.5t-72 45t-40.5 70t-12 98.5t17.5 130.5q23 109 63.5 181.5t102 112.5t134 56t174.5 16q129 0 175 -42t23 -149zM545 222l20 97
q-31 7 -74 7q-41 0 -59 -10.5t-26 -46.5t3.5 -48.5t52.5 -12.5q46 0 83 14z" />
    <glyph glyph-name="ampersand.2" horiz-adv-x="769" 
d="M657 294l-54 -256q-148 -52 -326 -52q-138 0 -200.5 46.5t-39.5 154.5q19 88 64 132t140 48q-82 7 -103 46.5t-4 118.5q20 97 91 139.5t194 42.5q75 0 169 -24l-73 -141q-50 18 -101 18q-59 0 -82.5 -14t-31.5 -53q-8 -40 6.5 -55t61.5 -15h163l16 74l168 62l-29 -136
h132l-29 -136h-132zM471 147l31 147h-174q-50 0 -74.5 -17.5t-34.5 -63.5t12.5 -62.5t99.5 -16.5q78 0 140 13z" />
    <glyph glyph-name="Abrevesmall" horiz-adv-x="577" 
d="M373 0q-7 23 -19 108h-203q-39 -78 -53 -108h-156q106 214 289 511h231q24 -297 69 -511h-158zM325 391h-20q-41 -67 -96 -172h131q-9 77 -15 172zM223 697h101q-6 -31 5.5 -41.5t43.5 -10.5t48.5 10.5t22.5 41.5h94q-31 -143 -189 -143q-75 0 -108 35.5t-18 107.5z" />
    <glyph glyph-name="Amacronsmall" horiz-adv-x="577" 
d="M373 0q-7 23 -19 108h-203q-39 -78 -53 -108h-156q106 214 289 511h231q24 -297 69 -511h-158zM325 391h-20q-41 -67 -96 -172h131q-9 77 -15 172zM206 572l23 106h292l-23 -106h-292z" />
    <glyph glyph-name="Aogoneksmall" horiz-adv-x="577" 
d="M373 0q-7 23 -19 108h-203q-39 -78 -53 -108h-156q106 214 289 511h231q24 -297 69 -511h-69q-40 -23 -56.5 -42t-22.5 -44q-4 -21 6 -29.5t43 -8.5q46 0 84 26l24 -70q-57 -35 -142 -35q-76 0 -100.5 21.5t-15.5 67.5q8 35 38.5 65t81.5 49h-29zM325 391h-20
q-41 -67 -96 -172h131q-9 77 -15 172z" />
    <glyph glyph-name="bracketleftsmall" horiz-adv-x="406" 
d="M183 668h305l-28 -133h-146l-119 -560h146l-28 -132h-305z" />
    <glyph glyph-name="braceleftsmall" horiz-adv-x="373" 
d="M32 190l26 121q47 0 81 32t53 121q35 166 204 209l40 -109q-34 -11 -54.5 -25.5t-38.5 -48t-30 -90.5q-29 -134 -128 -149q92 -18 63 -153q-9 -42 -10 -70t7.5 -45.5t21.5 -27.5t36 -19l-87 -107q-150 43 -114 209q19 88 -2 120t-68 32z" />
    <glyph glyph-name="Dcaronsmall" horiz-adv-x="598" 
d="M124 512h238q130 0 177.5 -55t16.5 -199q-30 -144 -101 -201t-201 -57h-238zM320 398h-66l-60 -284h66q59 0 90.5 28t49.5 114q8 37 9 63t-4 41.5t-18 24t-28 11t-39 2.5zM324 697l51 -71l79 71h130l-150 -129h-147l-98 129h135z" />
    <glyph glyph-name="Dcroatsmall" horiz-adv-x="598" 
d="M18 210l23 106h42l41 196h238q130 0 177.5 -55t16.5 -199q-30 -144 -101 -201t-201 -57h-238l44 210h-42zM320 398h-66l-17 -82h69l-23 -106h-69l-20 -96h66q59 0 90.5 28t49.5 114q8 37 9 63t-4 41.5t-18 24t-28 11t-39 2.5z" />
    <glyph glyph-name="Dmacronsmall" horiz-adv-x="598" 
d="M124 512h238q130 0 177.5 -55t16.5 -199q-30 -144 -101 -201t-201 -57h-238zM320 398h-66l-60 -284h66q59 0 90.5 28t49.5 114q8 37 9 63t-4 41.5t-18 24t-28 11t-39 2.5zM212 572l23 106h292l-23 -106h-292z" />
    <glyph glyph-name="Emacronsmall" horiz-adv-x="512" 
d="M536 512l-26 -122h-258l-14 -70h193l-25 -115h-193l-18 -84h258l-25 -121h-412l108 512h412zM203 572l23 106h292l-23 -106h-292z" />
    <glyph glyph-name="Eurosmall" horiz-adv-x="465" 
d="M391 119l8 -107q-69 -26 -159 -26q-118 0 -169.5 62t-19.5 211q31 147 108 207t195 60q92 0 150 -22l-55 -109q-40 17 -105 17q-69 0 -102 -52h166l-16 -74h-180q-5 -14 -7 -30q-4 -18 -5 -26h180l-15 -73h-166q9 -56 79 -56q65 0 113 18z" />
    <glyph glyph-name="Eogoneksmall" horiz-adv-x="512" 
d="M536 512l-26 -122h-258l-14 -70h193l-25 -115h-193l-18 -84h258l-25 -121h-66q-40 -23 -56.5 -42t-22.5 -44q-4 -21 6 -29.5t43 -8.5q46 0 84 26l24 -70q-57 -35 -142 -35q-76 0 -100.5 21.5t-15.5 67.5q8 35 38.5 65t81.5 49h-286l108 512h412z" />
    <glyph glyph-name="Ecaronsmall" horiz-adv-x="512" 
d="M536 512l-26 -122h-258l-14 -70h193l-25 -115h-193l-18 -84h258l-25 -121h-412l108 512h412zM327 697l51 -71l79 71h130l-150 -129h-147l-98 129h135z" />
    <glyph glyph-name="Edotaccentsmall" horiz-adv-x="512" 
d="M536 512l-26 -122h-258l-14 -70h193l-25 -115h-193l-18 -84h258l-25 -121h-412l108 512h412zM381 694q40 0 51.5 -12t2.5 -52q-9 -44 -26 -57.5t-57 -13.5t-51.5 13.5t-2.5 57.5q9 40 25.5 52t57.5 12z" />
    <glyph glyph-name="Ebrevesmall" horiz-adv-x="512" 
d="M536 512l-26 -122h-258l-14 -70h193l-25 -115h-193l-18 -84h258l-25 -121h-412l108 512h412zM224 697h101q-6 -31 5.5 -41.5t43.5 -10.5t48.5 10.5t22.5 41.5h94q-31 -143 -189 -143q-75 0 -108 35.5t-18 107.5z" />
    <glyph glyph-name="Gacutesmall" horiz-adv-x="578" 
d="M531 308l-61 -287q-114 -35 -227 -35q-121 0 -172.5 62t-19.5 211q31 146 113.5 206.5t207.5 60.5q114 0 175 -22l-66 -124q-52 21 -129 21q-62 0 -95 -28t-52 -117q-18 -85 1.5 -114.5t75.5 -29.5q43 0 77 13l14 65h-92l25 118h225zM388 568h-130l151 129h157z" />
    <glyph glyph-name="Gbrevesmall" horiz-adv-x="578" 
d="M531 308l-61 -287q-114 -35 -227 -35q-121 0 -172.5 62t-19.5 211q31 146 113.5 206.5t207.5 60.5q114 0 175 -22l-66 -124q-52 21 -129 21q-62 0 -95 -28t-52 -117q-18 -85 1.5 -114.5t75.5 -29.5q43 0 77 13l14 65h-92l25 118h225zM253 697h101q-6 -31 5.5 -41.5
t43.5 -10.5t48.5 10.5t22.5 41.5h94q-31 -143 -189 -143q-75 0 -108 35.5t-18 107.5z" />
    <glyph glyph-name="Gcircumflexsmall" horiz-adv-x="578" 
d="M531 308l-61 -287q-114 -35 -227 -35q-121 0 -172.5 62t-19.5 211q31 146 113.5 206.5t207.5 60.5q114 0 175 -22l-66 -124q-52 21 -129 21q-62 0 -95 -28t-52 -117q-18 -85 1.5 -114.5t75.5 -29.5q43 0 77 13l14 65h-92l25 118h225zM443 568l-51 71l-79 -71h-131
l150 129h147l98 -129h-134z" />
    <glyph glyph-name="Gcommaaccentsmall" horiz-adv-x="578" 
d="M531 308l-61 -287q-114 -35 -227 -35q-121 0 -172.5 62t-19.5 211q31 146 113.5 206.5t207.5 60.5q114 0 175 -22l-66 -124q-52 21 -129 21q-62 0 -95 -28t-52 -117q-18 -85 1.5 -114.5t75.5 -29.5q43 0 77 13l14 65h-92l25 118h225zM333 -51l-147 -167h-120l108 167h159
z" />
    <glyph glyph-name="Gdotaccentsmall" horiz-adv-x="578" 
d="M531 308l-61 -287q-114 -35 -227 -35q-121 0 -172.5 62t-19.5 211q31 146 113.5 206.5t207.5 60.5q114 0 175 -22l-66 -124q-52 21 -129 21q-62 0 -95 -28t-52 -117q-18 -85 1.5 -114.5t75.5 -29.5q43 0 77 13l14 65h-92l25 118h225zM406 694q40 0 51.5 -12t2.5 -52
q-9 -44 -26 -57.5t-57 -13.5t-51.5 13.5t-2.5 57.5q9 40 25.5 52t57.5 12z" />
    <glyph glyph-name="Germandblssmall" horiz-adv-x="968" 
d="M978 498l-54 -114q-76 22 -146 22q-40 0 -58 -8t-24 -36q-4 -20 11.5 -28.5t72.5 -15.5q90 -12 122.5 -45.5t16.5 -110.5q-21 -97 -90 -136.5t-176 -39.5q-105 0 -177 28l55 116q69 -21 141 -21q49 0 70 8.5t27 36.5q5 22 -13 31.5t-79 15.5q-84 8 -116 40t-16 110
q21 97 89 136t175 39q97 0 169 -28zM494 498l-54 -114q-76 22 -146 22q-40 0 -58 -8t-24 -36q-4 -20 11.5 -28.5t72.5 -15.5q90 -12 122.5 -45.5t16.5 -110.5q-21 -97 -90 -136.5t-176 -39.5q-105 0 -177 28l55 116q69 -21 141 -21q49 0 70 8.5t27 36.5q5 22 -13 31.5
t-79 15.5q-84 8 -116 40t-16 110q21 97 89 136t175 39q97 0 169 -28z" />
    <glyph glyph-name="Hbarsmall" horiz-adv-x="603" 
d="M45 376l20 92h50l9 44h154l-9 -44h163l9 44h154l-9 -44h51l-20 -92h-51l-79 -376h-154l42 201h-163l-42 -201h-154l79 376h-50zM240 332h163l9 44h-163z" />
    <glyph glyph-name="Hcircumflexsmall" horiz-adv-x="603" 
d="M375 201h-164l-42 -201h-153l108 511h153l-38 -179h164l38 179h153l-108 -511h-153zM435 568l-51 71l-79 -71h-131l150 129h147l98 -129h-134z" />
    <glyph glyph-name="IJsmall" horiz-adv-x="726" 
d="M278 512l-108 -512h-154l108 512h154zM719 512l-69 -328q-16 -74 -58.5 -120t-91 -62t-106.5 -16q-92 0 -159 24l54 129q49 -19 114 -19q79 0 95 77l67 315h154z" />
    <glyph glyph-name="Imacronsmall" horiz-adv-x="284" 
d="M278 512l-108 -512h-154l108 512h154zM68 572l23 106h292l-23 -106h-292z" />
    <glyph glyph-name="Iogoneksmall" horiz-adv-x="284" 
d="M278 512l-108 -512h-51q-40 -23 -56.5 -42t-22.5 -44q-4 -21 6 -29.5t43 -8.5q46 0 84 26l24 -70q-57 -35 -142 -35q-76 0 -100.5 21.5t-15.5 67.5q18 76 120 114h-43l108 512h154z" />
    <glyph glyph-name="Itildesmall" horiz-adv-x="284" 
d="M278 512l-108 -512h-154l108 512h154zM364 708l60 -58q-24 -42 -61.5 -68t-82.5 -26q-33 0 -71 23.5t-60 23.5q-29 0 -58 -46l-52 65q61 80 128 80q40 0 78.5 -23t57.5 -23q17 0 30 11t31 41z" />
    <glyph glyph-name="Jcircumflexsmall" horiz-adv-x="443" 
d="M436 512l-69 -328q-16 -74 -58.5 -120t-91 -62t-106.5 -16q-92 0 -159 24l54 129q49 -19 114 -19q79 0 95 77l67 315h154zM431 568l-51 71l-79 -71h-131l150 129h147l98 -129h-134z" />
    <glyph glyph-name="Kcommaaccentsmall" horiz-adv-x="588" 
d="M539 0h-178q-107 256 -134 271l-57 -271h-154l108 512h154l-51 -241q51 39 228 241h177q-160 -185 -225 -232q18 -14 54 -88t78 -192zM343 -51l-147 -167h-120l108 167h159z" />
    <glyph glyph-name="Lacutesmall" horiz-adv-x="448" 
d="M278 512l-80 -376h231l-28 -136h-385l108 512h154zM292 568h-130l151 129h157z" />
    <glyph glyph-name="Lcaronsmall" horiz-adv-x="448" 
d="M278 512l-80 -376h231l-28 -136h-385l108 512h154zM353 536h130l-99 -192h-91z" />
    <glyph glyph-name="Lcommaaccentsmall" horiz-adv-x="448" 
d="M278 512l-80 -376h231l-28 -136h-385l108 512h154zM276 -51l-147 -167h-120l108 167h159z" />
    <glyph glyph-name="Ldotsmall" horiz-adv-x="448" 
d="M278 512l-80 -376h231l-28 -136h-385l108 512h154zM369 403q40 0 51.5 -12t2.5 -52q-9 -44 -26 -57.5t-57 -13.5t-51.5 13.5t-2.5 57.5q9 40 25.5 52t57.5 12z" />
    <glyph glyph-name="Nacutesmall" horiz-adv-x="613" 
d="M394 243l57 268h153l-108 -511h-153q-60 187 -116 276l-58 -276h-153l108 511h150q79 -140 120 -268zM410 568h-130l151 129h157z" />
    <glyph glyph-name="Ncaronsmall" horiz-adv-x="613" 
d="M394 243l57 268h153l-108 -511h-153q-60 187 -116 276l-58 -276h-153l108 511h150q79 -140 120 -268zM343 697l51 -71l79 71h130l-150 -129h-147l-98 129h135z" />
    <glyph glyph-name="Ncommaaccentsmall" horiz-adv-x="613" 
d="M394 243l57 268h153l-108 -511h-153q-60 187 -116 276l-58 -276h-153l108 511h150q79 -140 120 -268zM334 -51l-147 -167h-120l108 167h159z" />
    <glyph glyph-name="Obrevesmall" horiz-adv-x="590" 
d="M241 -14q-129 0 -176 60.5t-14 212.5q32 151 103.5 209t200.5 58q131 0 178.5 -58t15.5 -209q-33 -152 -105.5 -212.5t-202.5 -60.5zM330 406q-57 0 -81 -26.5t-44 -123.5q-19 -97 -7 -123.5t68 -26.5t81 28t45 122q19 100 7 125t-69 25zM235 697h100q-6 -31 5.5 -41.5
t43.5 -10.5t48.5 10.5t22.5 41.5h94q-31 -143 -189 -143q-156 0 -125 143z" />
    <glyph glyph-name="Ohungarumlautsmall" horiz-adv-x="590" 
d="M241 -14q-129 0 -176 60.5t-14 212.5q32 151 103.5 209t200.5 58q131 0 178.5 -58t15.5 -209q-33 -152 -105.5 -212.5t-202.5 -60.5zM330 406q-57 0 -81 -26.5t-44 -123.5q-19 -97 -7 -123.5t68 -26.5t81 28t45 122q19 100 7 125t-69 25zM300 568h-102l122 129h126z
M478 568h-102l121 129h127z" />
    <glyph glyph-name="Omacronsmall" horiz-adv-x="590" 
d="M241 -14q-129 0 -176 60.5t-14 212.5q32 151 103.5 209t200.5 58q131 0 178.5 -58t15.5 -209q-33 -152 -105.5 -212.5t-202.5 -60.5zM330 406q-57 0 -81 -26.5t-44 -123.5q-19 -97 -7 -123.5t68 -26.5t81 28t45 122q19 100 7 125t-69 25zM220 572l23 106h292l-23 -106
h-292z" />
    <glyph glyph-name="parenleftsmall" horiz-adv-x="369" 
d="M71 250q37 175 120 276.5t194 136.5l46 -113q-49 -19 -81.5 -45.5t-64 -89.5t-53.5 -165q-16 -77 -18 -131t10.5 -87t31 -50.5t48.5 -31.5l-94 -113q-97 35 -137 136.5t-2 276.5z" />
    <glyph glyph-name="Racutesmall" horiz-adv-x="592" 
d="M449 511q156 0 124 -150q-28 -138 -167 -145q41 -11 66 -50.5t67 -165.5h-176q-29 98 -51 131.5t-49 33.5h-59l-35 -165h-153l108 511h325zM229 284h121q8 0 13 3q38 5 47 51q3 9 1 18q0 35 -36 35h-123zM370 568h-130l151 129h157z" />
    <glyph glyph-name="Rcaronsmall" horiz-adv-x="592" 
d="M449 511q156 0 124 -150q-28 -138 -167 -145q41 -11 66 -50.5t67 -165.5h-176q-29 98 -51 131.5t-49 33.5h-59l-35 -165h-153l108 511h325zM229 284h121q8 0 13 3q38 5 47 51q3 9 1 18q0 35 -36 35h-123zM335 697l51 -71l79 71h130l-150 -129h-147l-98 129h135z" />
    <glyph glyph-name="Rcommaaccentsmall" horiz-adv-x="592" 
d="M449 511q156 0 124 -150q-28 -138 -167 -145q41 -11 66 -50.5t67 -165.5h-176q-29 98 -51 131.5t-49 33.5h-59l-35 -165h-153l108 511h325zM229 284h121q8 0 13 3q38 5 47 51q3 9 1 18q0 35 -36 35h-123zM333 -51l-147 -167h-120l108 167h159z" />
    <glyph glyph-name="sterlingsmall" horiz-adv-x="513" 
d="M16 196l22 105h46l8 35q40 190 286 190q96 0 169 -26l-56 -121q-64 19 -142 19q-57 0 -81 -16.5t-31 -49.5l-7 -31h154l-22 -105h-154l-15 -70h253l-26 -126h-399l41 196h-46z" />
    <glyph glyph-name="summationsmall" horiz-adv-x="498" 
d="M514 379h-223q9 -24 51 -119q-92 -102 -118 -128h227l-28 -132h-464l5 24q83 87 212 235q-51 106 -97 227l5 25h458z" />
    <glyph glyph-name="Tbarsmall" horiz-adv-x="487" 
d="M81 158l23 106h68l24 115h-164l28 132h482l-28 -132h-164l-24 -115h69l-23 -106h-69l-33 -158h-154l33 158h-68z" />
    <glyph glyph-name="Tcommaaccentsmall" horiz-adv-x="487" 
d="M350 380l-80 -380h-153l80 380h-165l28 132h482l-28 -132h-164zM280 -51l-147 -167h-120l108 167h159z" />
    <glyph glyph-name="Tcaronsmall" horiz-adv-x="487" 
d="M350 380l-80 -380h-153l80 380h-165l28 132h482l-28 -132h-164zM281 697l51 -71l79 71h130l-150 -129h-147l-98 129h135z" />
    <glyph glyph-name="Utildesmall" horiz-adv-x="592" 
d="M272 122q48 0 68.5 20t30.5 69l64 301h153l-62 -293q-28 -130 -90.5 -181.5t-191.5 -51.5q-130 0 -172 51.5t-14 181.5l62 293h152l-64 -301q-10 -48 3 -68.5t61 -20.5zM514 708l60 -58q-24 -42 -61.5 -68t-82.5 -26q-33 0 -71 23.5t-60 23.5q-29 0 -58 -46l-52 65
q61 80 128 80q41 0 79 -23t57 -23q17 0 30 11t31 41z" />
    <glyph glyph-name="Uringsmall" horiz-adv-x="592" 
d="M272 122q48 0 68.5 20t30.5 69l64 301h153l-62 -293q-28 -130 -90.5 -181.5t-191.5 -51.5q-130 0 -172 51.5t-14 181.5l62 293h152l-64 -301q-10 -48 3 -68.5t61 -20.5zM404 742q65 0 89.5 -22t12.5 -78t-45.5 -78t-98.5 -22q-66 0 -91 22t-13 78t45 78t101 22zM391 680
q-28 0 -39 -8.5t-16 -30.5t3 -30t36 -8q27 0 38 8.5t16 29.5q5 22 -2.5 30.5t-35.5 8.5z" />
    <glyph glyph-name="Uogoneksmall" horiz-adv-x="592" 
d="M272 122q48 0 68.5 20t30.5 69l64 301h153l-62 -293q-25 -117 -77 -169.5t-152 -60.5q-30 -19 -42.5 -36t-17.5 -39q-4 -21 6 -29.5t43 -8.5q46 0 84 26l24 -70q-57 -35 -142 -35q-76 0 -100.5 21.5t-15.5 67.5q13 62 89 101q-118 3 -156 54.5t-11 177.5l62 293h152
l-64 -301q-10 -48 3 -68.5t61 -20.5z" />
    <glyph glyph-name="Umacronsmall" horiz-adv-x="592" 
d="M272 122q48 0 68.5 20t30.5 69l64 301h153l-62 -293q-28 -130 -90.5 -181.5t-191.5 -51.5q-130 0 -172 51.5t-14 181.5l62 293h152l-64 -301q-10 -48 3 -68.5t61 -20.5zM223 572l23 106h292l-23 -106h-292z" />
    <glyph glyph-name="Ubrevesmall" horiz-adv-x="592" 
d="M272 122q48 0 68.5 20t30.5 69l64 301h153l-62 -293q-28 -130 -90.5 -181.5t-191.5 -51.5q-130 0 -172 51.5t-14 181.5l62 293h152l-64 -301q-10 -48 3 -68.5t61 -20.5zM238 697h101q-6 -31 5.5 -41.5t43.5 -10.5t48.5 10.5t22.5 41.5h94q-31 -143 -189 -143
q-75 0 -108 35.5t-18 107.5z" />
    <glyph glyph-name="Uhungarumlautsmall" horiz-adv-x="592" 
d="M272 122q48 0 68.5 20t30.5 69l64 301h153l-62 -293q-28 -130 -90.5 -181.5t-191.5 -51.5q-130 0 -172 51.5t-14 181.5l62 293h152l-64 -301q-10 -48 3 -68.5t61 -20.5zM299 568h-102l122 129h126zM477 568h-102l121 129h127z" />
    <glyph glyph-name="yensmall" horiz-adv-x="495" 
d="M43 217l14 69h90q-74 147 -123 226h174q33 -52 83 -159q71 73 141 159h164q-88 -106 -203 -226h77l-14 -69h-120l-13 -59h120l-14 -68h-120l-19 -90h-153l19 90h-130l14 68h130l13 59h-130z" />
    <glyph glyph-name="Ycircumflexsmall" horiz-adv-x="495" 
d="M281 353q71 73 141 159h165q-141 -166 -259 -283l-48 -229h-153l48 229q-94 190 -151 283h174q40 -64 83 -159zM387 568l-51 71l-79 -71h-131l150 129h147l98 -129h-134z" />
    <glyph glyph-name="zerosmall" horiz-adv-x="570" 
d="M231 -14q-115 0 -159 61t-12 212q31 149 100.5 208t184.5 59q117 0 161 -59t13 -208q-32 -151 -102 -212t-186 -61zM320 406q-42 0 -63.5 -27.5t-41.5 -122.5q-19 -97 -9.5 -123.5t50.5 -26.5q43 0 64.5 28.5t41.5 121.5q18 100 9.5 125t-51.5 25z" />
    <glyph glyph-name="onesmall" horiz-adv-x="570" 
d="M367 0h-155l70 330l-170 -64l-15 128l381 132z" />
    <glyph glyph-name="twosmall" horiz-adv-x="570" 
d="M114 364l-7 138q103 24 229 24q127 0 168.5 -35.5t23.5 -123.5q-16 -73 -75 -128t-205 -118h240l-25 -121h-461l23 110q149 78 215.5 117t87.5 59.5t26 46.5q7 32 -9 44.5t-69 12.5q-34 0 -83.5 -8t-78.5 -18z" />
    <glyph glyph-name="foursmall" horiz-adv-x="570" 
d="M288 112h-296l14 64q137 157 319 336h190l-60 -282h87l-25 -118h-87l-23 -112h-142zM313 230l35 162q-89 -86 -155 -162h120z" />
    <glyph glyph-name="fivesmall" horiz-adv-x="570" 
d="M148 512h400l-26 -126h-247l-14 -66q25 3 61 3q114 0 151 -35t18 -124q-21 -101 -88.5 -139.5t-205.5 -38.5q-122 0 -186 18l52 124q22 -7 70.5 -12.5t77.5 -5.5q65 0 92.5 10.5t34.5 39.5q7 33 -14 43.5t-88 10.5q-81 0 -153 -9z" />
    <glyph glyph-name="sixsmall" horiz-adv-x="570" 
d="M512 153q-20 -94 -83.5 -130.5t-185.5 -36.5q-39 0 -67.5 4t-54.5 14t-41.5 29.5t-24 48.5t-6.5 72.5t14 101.5q32 150 112 210t214 60q97 0 186 -26l-61 -124q-81 25 -148 25q-72 0 -102.5 -20t-42.5 -73q65 12 122 12q108 0 149 -35t20 -132zM355 157q7 36 -7 47.5
t-60 11.5q-48 0 -88 -8q-14 -65 3.5 -86.5t56.5 -21.5q48 0 68 12t27 45z" />
    <glyph glyph-name="sevensmall" horiz-adv-x="570" 
d="M103 512h504l-5 -26q-190 -225 -348 -486h-178q135 206 287 380h-288z" />
    <glyph glyph-name="eightsmall" horiz-adv-x="570" 
d="M256 102q50 0 69 11t25 42q7 32 -8 42.5t-63 10.5q-47 0 -67 -10.5t-27 -42.5q-6 -31 8 -42t63 -11zM232 -14q-141 0 -183.5 30.5t-23.5 118.5q13 64 50.5 97t110.5 37q-68 5 -87.5 34t-6.5 89q12 55 34.5 82t72.5 39.5t147 12.5q140 0 177.5 -27t20.5 -107
q-13 -59 -45 -88.5t-102 -34.5q71 -4 94 -37t10 -97q-19 -88 -73.5 -118.5t-195.5 -30.5zM304 325q44 0 62 9.5t23 35.5q6 27 -7.5 36t-58.5 9q-46 0 -63 -9t-23 -36q-5 -26 9 -35.5t58 -9.5z" />
    <glyph glyph-name="ninesmall" horiz-adv-x="570" 
d="M218 177q-96 0 -134.5 37.5t-17.5 134.5q20 96 85.5 136.5t186.5 40.5q137 0 184.5 -43.5t20.5 -171.5q-18 -85 -80 -156t-174 -155h-197q200 139 230 187q-62 -10 -104 -10zM383 317q12 56 -2 76t-59 20q-49 0 -70 -14t-28 -49t6.5 -46t60.5 -11q37 0 74 5q12 12 18 19z
" />
    <glyph glyph-name="threesmall" horiz-adv-x="570" 
d="M173 210l24 111h79q45 0 63.5 7.5t23.5 29.5q5 23 -11 31.5t-68 8.5q-89 0 -170 -23l-1 131q100 20 201 20q143 0 188.5 -28t28.5 -106q-13 -59 -45.5 -88.5t-102.5 -34.5q72 -4 94.5 -37t9.5 -97q-18 -86 -81 -117.5t-207 -31.5q-100 0 -195 19l57 136q67 -26 162 -26
q59 0 80 10t27 39q6 27 -12 36.5t-66 9.5h-79z" />
    <glyph glyph-name="atsmall" horiz-adv-x="728" 
d="M375 431q-105 0 -146.5 -30.5t-64.5 -137.5q-24 -112 9 -146t156 -34q122 0 173 41.5t77 165.5q18 81 12 132h113q5 -56 -12 -136q-36 -171 -124.5 -237.5t-258.5 -66.5q-58 0 -100 5.5t-76 18t-54.5 33.5t-31 52t-9.5 73t13 97q17 80 47.5 134t76.5 83t98 41t123 12
q46 0 74.5 -5t50 -17.5t29.5 -36.5t7.5 -60.5t-12.5 -90.5q-26 -121 -67.5 -155.5t-148.5 -34.5q-91 0 -117 25.5t-10 101.5q16 75 51 100.5t115 25.5q42 0 74 -5q5 30 -8.5 41t-58.5 11zM376 299q-27 0 -38 -7t-16 -30q-5 -24 3 -31t38 -7q26 0 38 9t17 35l6 28
q-42 3 -48 3z" />
    <glyph glyph-name="backslashsmall" horiz-adv-x="427" 
d="M48 512h164l178 -512h-164z" />
    <glyph glyph-name="slashsmall" horiz-adv-x="427" 
d="M334 512h165l-395 -512h-164z" />
    <glyph glyph-name="barsmall" horiz-adv-x="401" 
d="M214 678h161l-181 -851h-161z" />
    <glyph glyph-name="bracketrightsmall" horiz-adv-x="406" 
d="M100 668h305l-175 -825h-304l27 132h146l119 560h-146z" />
    <glyph glyph-name="bracerightsmall" horiz-adv-x="373" 
d="M347 311l-26 -121q-47 0 -81 -32t-53 -120q-36 -167 -204 -210l-40 110q34 11 54.5 25.5t38.5 47.5t30 90q9 43 24.5 73.5t35 45.5t34.5 21.5t34 9.5q-93 15 -64 152q15 55 9.5 89t-19 48t-44.5 26l87 107q149 -43 114 -209q-19 -89 2 -121t68 -32z" />
    <glyph glyph-name="Cdotaccentsmall" horiz-adv-x="472" 
d="M409 141l5 -129q-69 -26 -166 -26q-124 0 -176.5 62t-20.5 211q31 147 109.5 207t201.5 60q99 0 157 -22l-60 -130q-52 21 -112 21q-32 0 -51 -4t-37.5 -18t-31 -42.5t-22.5 -74.5q-18 -85 2 -111.5t82 -26.5q61 0 120 23zM389 694q40 0 51.5 -12t2.5 -52
q-9 -44 -26 -57.5t-57 -13.5t-51.5 13.5t-2.5 57.5q9 40 25.5 52t57.5 12z" />
    <glyph glyph-name="Cacutesmall" horiz-adv-x="472" 
d="M409 141l5 -129q-69 -26 -166 -26q-124 0 -176.5 62t-20.5 211q31 147 109.5 207t201.5 60q99 0 157 -22l-60 -130q-52 21 -112 21q-32 0 -51 -4t-37.5 -18t-31 -42.5t-22.5 -74.5q-18 -85 2 -111.5t82 -26.5q61 0 120 23zM388 568h-130l151 129h157z" />
    <glyph glyph-name="Ccaronsmall" horiz-adv-x="472" 
d="M409 141l5 -129q-69 -26 -166 -26q-124 0 -176.5 62t-20.5 211q31 147 109.5 207t201.5 60q99 0 157 -22l-60 -130q-52 21 -112 21q-32 0 -51 -4t-37.5 -18t-31 -42.5t-22.5 -74.5q-18 -85 2 -111.5t82 -26.5q61 0 120 23zM325 697l51 -71l79 71h130l-150 -129h-147
l-98 129h135z" />
    <glyph glyph-name="centsmall" horiz-adv-x="402" 
d="M264 526h73l-16 -75q52 -4 79 -14l-44 -85q-10 5 -54 10l-42 -201q34 2 58 10l8 -84q-34 -11 -86 -17l-17 -84h-73l18 85q-152 20 -116 192q37 167 196 188zM168 261q-8 -38 -2 -62t23 -27l38 179q-18 -2 -34.5 -26.5t-24.5 -63.5z" />
    <glyph glyph-name="daggersmall" horiz-adv-x="460" 
d="M62 388l26 123h137l29 138h124l-29 -138h138l-26 -123h-138l-46 -216h-124l46 216h-137z" />
    <glyph glyph-name="degreesmall" horiz-adv-x="343" 
d="M232 526q80 0 107.5 -32t8.5 -120q-19 -90 -61 -124.5t-121 -34.5t-105 34t-7 125q19 88 59 120t119 32zM183 293q25 0 35.5 14.5t21.5 66.5q10 49 6 62.5t-30 13.5q-24 0 -35 -14t-21 -62q-11 -52 -6.5 -66.5t29.5 -14.5z" />
    <glyph glyph-name="dollarsmall" horiz-adv-x="502" 
d="M295 623h75l-21 -100q83 -2 151 -26l-53 -113q-50 15 -124 18l-19 -87q84 -14 118.5 -48.5t19.5 -105.5q-32 -150 -206 -169l-24 -113h-75l23 109q-105 4 -161 25l55 116q53 -16 132 -19l19 92q-82 9 -117.5 42t-19.5 108q32 149 205 168zM203 361q-6 -28 29 -35l16 75
q-36 -5 -45 -40zM308 154q6 28 -30 37l-16 -78q39 8 46 41z" />
    <glyph glyph-name="numbersignsmall" horiz-adv-x="616" 
d="M57 307l27 101h97l30 104h126l-30 -104h86l30 104h125l-30 -104h105l-27 -101h-105l-27 -95h106l-29 -100h-105l-31 -112h-126l31 112h-86l-31 -112h-125l30 112h-96l29 100h96l27 95h-97zM280 307l-28 -95h86l28 95h-86z" />
    <glyph glyph-name="parenrightsmall" horiz-adv-x="369" 
d="M304 250q-38 -175 -121 -276.5t-195 -136.5l-45 112q29 11 50 23.5t44 35.5t40.5 53.5t35 78t30.5 110.5q16 77 18 131t-11 86.5t-32 50.5t-49 32l94 113q97 -35 137.5 -136.5t3.5 -276.5z" />
    <glyph glyph-name="percentsmall" horiz-adv-x="752" 
d="M565 512h120l-492 -512h-121zM232 526q80 0 107.5 -32t8.5 -120q-19 -90 -61 -124.5t-121 -34.5t-105 34t-7 125q19 88 59 120t119 32zM183 293q25 0 35.5 14.5t21.5 66.5q10 49 6 62.5t-30 13.5q-24 0 -35 -14t-21 -62q-11 -52 -6.5 -66.5t29.5 -14.5zM593 297
q80 0 107 -32.5t8 -119.5q-19 -90 -60.5 -124.5t-120.5 -34.5t-105.5 34.5t-7.5 124.5q19 87 59.5 119.5t119.5 32.5zM543 64q26 0 36.5 14.5t20.5 65.5q10 50 6 63.5t-30 13.5q-24 0 -35 -14t-21 -63q-10 -51 -5.5 -65.5t28.5 -14.5z" />
    <glyph glyph-name="sectionsmall" horiz-adv-x="481" 
d="M484 505l-47 -91q-61 19 -128 19q-47 0 -66.5 -7.5t-22.5 -23.5q-4 -15 10.5 -20t71.5 -10q84 -7 121.5 -33.5t25.5 -82.5q-9 -40 -50 -76q17 -24 9 -62q-15 -71 -76.5 -101.5t-172.5 -30.5q-88 0 -155 20l47 92q48 -19 128 -19q47 0 66.5 7t23.5 24q3 15 -11.5 20.5
t-71.5 10.5q-84 8 -120.5 34.5t-25.5 81.5q9 46 47 77q-14 28 -7 60q15 71 76.5 101.5t173.5 30.5q94 0 154 -21zM186 290q-12 -7 -15 -20q-3 -14 13.5 -21t55.5 -13q18 -3 66 -13q11 8 14 20q3 14 -14 21t-61 14q-29 4 -59 12z" />
    <glyph glyph-name="Sacutesmall" horiz-adv-x="484" 
d="M494 498l-54 -114q-76 22 -146 22q-40 0 -58 -8t-24 -36q-4 -20 11.5 -28.5t72.5 -15.5q90 -12 122.5 -45.5t16.5 -110.5q-21 -97 -90 -136.5t-176 -39.5q-105 0 -177 28l55 116q69 -21 141 -21q49 0 70 8.5t27 36.5q5 22 -13 31.5t-79 15.5q-84 8 -116 40t-16 110
q21 97 89 136t175 39q97 0 169 -28zM337 568h-130l151 129h157z" />
    <glyph glyph-name="Scedillasmall" horiz-adv-x="484" 
d="M494 498l-54 -114q-76 22 -146 22q-40 0 -58 -8t-24 -36q-4 -20 11.5 -28.5t72.5 -15.5q90 -12 122.5 -45.5t16.5 -110.5q-35 -160 -222 -174l-6 -27q54 0 76 -18.5t12 -60.5q-10 -48 -45.5 -66.5t-115.5 -18.5q-59 0 -91 13l37 60q18 -9 60 -9q34 0 39 23q3 16 -14 21
t-62 1l48 80q-96 4 -159 28l55 116q69 -21 141 -21q49 0 70 8.5t27 36.5q5 22 -13 31.5t-79 15.5q-84 8 -116 40t-16 110q21 97 89 136t175 39q97 0 169 -28z" />
    <glyph glyph-name="Scircumflexsmall" horiz-adv-x="484" 
d="M494 498l-54 -114q-76 22 -146 22q-40 0 -58 -8t-24 -36q-4 -20 11.5 -28.5t72.5 -15.5q90 -12 122.5 -45.5t16.5 -110.5q-21 -97 -90 -136.5t-176 -39.5q-105 0 -177 28l55 116q69 -21 141 -21q49 0 70 8.5t27 36.5q5 22 -13 31.5t-79 15.5q-84 8 -116 40t-16 110
q21 97 89 136t175 39q97 0 169 -28zM391 568l-51 71l-79 -71h-131l150 129h147l98 -129h-134z" />
    <glyph glyph-name="Scommaaccentsmall" horiz-adv-x="484" 
d="M494 498l-54 -114q-76 22 -146 22q-40 0 -58 -8t-24 -36q-4 -20 11.5 -28.5t72.5 -15.5q90 -12 122.5 -45.5t16.5 -110.5q-21 -97 -90 -136.5t-176 -39.5q-105 0 -177 28l55 116q69 -21 141 -21q49 0 70 8.5t27 36.5q5 22 -13 31.5t-79 15.5q-84 8 -116 40t-16 110
q21 97 89 136t175 39q97 0 169 -28zM281 -51l-147 -167h-120l108 167h159z" />
    <glyph glyph-name="Wcircumflexsmall" horiz-adv-x="838" 
d="M431 297q-54 -124 -146 -297h-184q-16 258 -55 512h157q25 -160 33 -352q93 170 174 352h139q17 -154 21 -352q123 225 179 352h154q-145 -288 -284 -512h-184q2 155 -4 297zM553 568l-51 71l-79 -71h-131l150 129h147l98 -129h-134z" />
    <glyph glyph-name="Zacutesmall" horiz-adv-x="498" 
d="M85 512h458l-5 -25q-148 -182 -313 -355h226l-28 -132h-463l5 25l177 192t138 163h-223zM364 568h-130l151 129h157z" />
    <glyph glyph-name="Zdotaccentsmall" horiz-adv-x="498" 
d="M85 512h458l-5 -25q-148 -182 -313 -355h226l-28 -132h-463l5 25l177 192t138 163h-223zM351 694q40 0 51.5 -12t2.5 -52q-9 -44 -26 -57.5t-57 -13.5t-51.5 13.5t-2.5 57.5q9 40 25.5 52t57.5 12z" />
    <glyph glyph-name="zeroop" horiz-adv-x="558" 
d="M226 -14q-117 0 -162 61t-13 212q31 149 101.5 208t187.5 59q119 0 164 -58.5t13 -208.5q-32 -151 -102.5 -212t-188.5 -61zM315 406q-46 0 -68 -27t-42 -123q-19 -97 -9 -123.5t55 -26.5q47 0 67.5 27.5t41.5 122.5q19 100 10 125t-55 25z" />
    <glyph glyph-name="oneop" horiz-adv-x="408" 
d="M291 0h-154l70 330l-170 -64l-16 128l381 132z" />
    <glyph glyph-name="twoop" horiz-adv-x="583" 
d="M123 364l-7 138q105 24 233 24q131 0 172.5 -35.5t23.5 -123.5q-16 -73 -80 -130.5t-208 -115.5h248l-25 -121h-469l23 110q146 73 216 113.5t93 62t28 47.5q7 32 -9.5 44.5t-72.5 12.5q-35 0 -86 -8t-80 -18z" />
    </font>
</defs>
</svg>
