<?xml version="1.0" standalone="no"?>
<!DOCTYPE svg PUBLIC "-//W3C//DTD SVG 1.1//EN" "http://www.w3.org/Graphics/SVG/1.1/DTD/svg11.dtd" >
<svg>
<metadata>
Created by FontForge 20090622 at Thu Jul  7 10:40:57 2016
 By deploy user
Copyright (c) Frantisek Storm, www.stormtype.com, 2005. All rights reserved.
</metadata>
<defs>
<font id="ElektraTextPro-Italic" horiz-adv-x="580" >
  <font-face 
    font-family="Elektra Text Pro"
    font-weight="400"
    font-style="italic"
    font-stretch="normal"
    units-per-em="1000"
    panose-1="2 0 5 3 4 0 0 2 0 4"
    ascent="800"
    descent="-200"
    x-height="507"
    cap-height="697"
    bbox="-232 -314 1343 882"
    underline-thickness="50"
    underline-position="-100"
    slope="-12"
    unicode-range="U+0020-U+FB04"
  />
<missing-glyph horiz-adv-x="515" 
d="M-50 0l148 697h515l-148 -697h-515zM293 407l199 224h-301zM321 349l103 -225l95 449zM71 66h301l-103 226zM139 573l-95 -449l198 225z" />
    <glyph glyph-name="ff" unicode="ff" horiz-adv-x="677" 
d="M567 544l-8 -37h172l-18 -84h-172l-89 -423h-95l89 423h-217l-89 -423h-94l89 423h-87l18 84h87l7 34q12 56 37.5 94t62 55.5t72 24t82.5 6.5q76 0 147 -29q43 29 123 29q69 0 124 -19l-40 -77q-36 13 -91 13q-44 0 -71.5 -20.5t-38.5 -73.5zM254 538l-7 -31h217l9 40
q9 44 26 74q-49 17 -104 17q-61 0 -94.5 -20.5t-46.5 -79.5z" />
    <glyph glyph-name="fi" unicode="fi" horiz-adv-x="574" 
d="M559 507l-107 -507h-95l89 423h-217l-89 -423h-94l89 423h-87l18 84h87l7 34q22 103 88.5 141.5t171.5 38.5q98 0 173 -32l-41 -77q-62 26 -142 26q-68 0 -105.5 -20t-50.5 -80l-7 -31h312z" />
    <glyph glyph-name="fl" unicode="fl" horiz-adv-x="579" 
d="M598 689l-118 -553q-8 -43 -4 -65.5t23 -48.5l-89 -44q-46 59 -25 154l104 493q-42 13 -94 13q-59 0 -94 -20.5t-47 -79.5l-7 -31h158l-18 -84h-158l-89 -423h-94l89 423h-87l18 84h87l7 34q12 54 36 91t59 55.5t72.5 26t86.5 7.5q100 0 184 -32z" />
    <glyph glyph-name="ffi" unicode="ffi" horiz-adv-x="885" 
d="M870 507l-107 -507h-94l89 423h-217l-89 -423h-95l89 423h-217l-89 -423h-94l89 423h-87l18 84h87l7 34q12 54 36 91t58 55.5t69 26t79 7.5q92 0 167 -33q58 33 162 33q98 0 173 -32l-40 -77q-63 26 -143 26q-68 0 -105 -20t-50 -80l-7 -31h311zM254 538l-7 -31h217l7 34
q9 43 31 78q-47 19 -107 19q-61 0 -94.5 -20.5t-46.5 -79.5z" />
    <glyph glyph-name="ffl" unicode="ffl" horiz-adv-x="891" 
d="M909 689l-118 -553q-14 -67 20 -114l-90 -44q-45 58 -24 154l104 493q-42 13 -95 13q-58 0 -93 -21.5t-47 -78.5l-7 -31h157l-18 -84h-157l-89 -423h-95l89 423h-217l-89 -423h-94l89 423h-87l18 84h87l7 34q12 54 36 91t58 55.5t69 26t79 7.5q92 0 166 -33q56 33 157 33
q100 0 184 -32zM471 541q12 49 32 79q-54 18 -108 18q-67 0 -98.5 -24t-45.5 -91l-4 -16h217z" />
    <glyph glyph-name="Th" unicode="Th" horiz-adv-x="1059" 
d="M1000 289l-61 -289h-95l58 277q11 50 11 80.5t-11 48t-30.5 23.5t-52.5 6q-49 0 -87.5 -15.5t-43.5 -42.5l-80 -377h-95l129 610h-217l-129 -610h-103l129 610h-239l19 87h654l-46 -214q66 38 151 38q101 0 134.5 -48.5t4.5 -183.5z" />
    <glyph glyph-name="ffk" unicode="ffk" horiz-adv-x="1161" 
d="M1112 0h-115q-133 246 -177 267l-57 -267h-94l132 625q-42 13 -95 13q-58 0 -93 -20.5t-47 -79.5l-7 -31h157l-18 -84h-157l-89 -423h-95l89 423h-217l-89 -423h-94l89 423h-87l18 84h87l7 34q39 179 234 179q107 0 174 -32q56 33 157 33q105 -1 184 -32l-89 -421
q66 44 267 239h115q-191 -187 -261 -230q43 -28 171 -277zM471 541q12 49 32 79q-54 18 -108 18q-66 0 -98 -24.5t-46 -90.5l-4 -16h217z" />
    <glyph glyph-name="fk" unicode="fk" horiz-adv-x="849" 
d="M452 0h-95l132 625q-42 13 -94 13q-58 0 -93.5 -20.5t-47.5 -79.5l-7 -31h158l-18 -84h-158l-89 -423h-94l89 423h-87l18 84h87l7 34q12 54 36 91t59 55.5t72.5 26t86.5 7.5q102 0 184 -32l-90 -421q66 43 268 239h115q-196 -191 -262 -230q42 -26 172 -277h-116
q-135 248 -177 267z" />
    <glyph glyph-name="fj" unicode="fj" horiz-adv-x="574" 
d="M446 423h-217l-89 -423h-94l89 423h-87l18 84h87l7 34q22 103 88.5 141.5t171.5 38.5q98 0 173 -32l-41 -77q-62 26 -142 26q-68 0 -105.5 -20t-50.5 -80l-7 -31h312l-111 -526q-23 -106 -77 -145t-148 -39l17 81q49 0 75 20.5t38 80.5z" />
    <glyph glyph-name=".notdef" horiz-adv-x="515" 
d="M-50 0l148 697h515l-148 -697h-515zM293 407l199 224h-301zM321 349l103 -225l95 449zM71 66h301l-103 226zM139 573l-95 -449l198 225z" />
    <glyph glyph-name=".null" horiz-adv-x="0" 
 />
    <glyph glyph-name="nonmarkingreturn" horiz-adv-x="333" 
 />
    <glyph glyph-name="space" unicode=" " horiz-adv-x="276" 
 />
    <glyph glyph-name="exclam" unicode="!" horiz-adv-x="332" 
d="M201 697h124l-131 -487h-70zM142 123q39 0 50 -11t3 -49q-9 -41 -25 -53t-55 -12q-38 0 -49 12.5t-2 52.5q8 37 24 48.5t54 11.5z" />
    <glyph glyph-name="quotedbl" unicode="&#x22;" horiz-adv-x="337" 
d="M143 697h94l-69 -235h-64zM299 697h91l-69 -235h-63z" />
    <glyph glyph-name="numbersign" unicode="#" horiz-adv-x="685" 
d="M86 445l21 77h135l49 175h89l-48 -175h151l49 175h90l-49 -175h142l-21 -77h-142l-50 -177h145l-21 -76h-144l-52 -192h-90l52 192h-151l-53 -192h-89l52 192h-134l22 76h132l50 177h-135zM310 445l-49 -177h152l49 177h-152z" />
    <glyph glyph-name="dollar" unicode="$" horiz-adv-x="623" 
d="M399 825h74l-30 -140q110 0 181 -23l-43 -88q-46 22 -156 24l-44 -206q102 -14 142.5 -59.5t22.5 -129.5q-20 -91 -81.5 -137.5t-165.5 -57.5l-31 -145h-74l31 142q-117 0 -186 24l43 87q62 -23 161 -23l46 217q-102 12 -142.5 51.5t-22.5 122.5q38 175 244 197zM223 492
q-9 -43 9.5 -63.5t76.5 -27.5l41 193q-108 -14 -127 -102zM446 199q9 45 -8.5 68.5t-76.5 32.5l-43 -203q54 7 86 30.5t42 71.5z" />
    <glyph glyph-name="percent" unicode="%" horiz-adv-x="911" 
d="M710 697h94l-559 -697h-94zM311 714q90 0 120 -46.5t3 -172.5q-27 -127 -77 -176.5t-140 -49.5q-89 0 -118 49.5t-2 176.5q27 126 76 172.5t138 46.5zM232 339q48 0 72 32t44 123q18 94 7.5 121.5t-59.5 27.5q-47 0 -71 -29t-43 -120q-19 -92 -7.5 -123.5t57.5 -31.5z
M741 431q90 0 119.5 -46.5t2.5 -172.5q-28 -128 -77.5 -177t-138.5 -49t-118.5 49.5t-1.5 176.5q27 126 76 172.5t138 46.5zM661 56q47 0 72 32.5t44 122.5q19 95 8 122.5t-59 27.5q-47 0 -71 -29.5t-44 -120.5q-18 -91 -7 -123t57 -32z" />
    <glyph glyph-name="ampersand" unicode="&#x26;" horiz-adv-x="777" 
d="M773 398q-27 -129 -144 -243q19 -35 72 -155h-115q-21 54 -39 89q-78 -56 -139.5 -79.5t-148.5 -23.5q-136 0 -187 43t-28 154q18 80 72.5 129.5t150.5 53.5q-58 5 -84.5 28.5t-25 58.5t9.5 80q19 91 81.5 136t186.5 45t168.5 -42t25.5 -131q-15 -73 -58 -117t-131 -51
q37 -4 71.5 -36t75.5 -109q67 80 86 170h100zM276 70q74 0 123 19.5t113 70.5q-43 86 -83 127.5t-90 41.5q-81 0 -124 -30.5t-59 -101.5q-15 -71 10.5 -99t109.5 -28zM364 410q134 0 159 114q12 57 -12 80.5t-94 23.5t-103.5 -23t-45.5 -80q-13 -62 9 -88.5t87 -26.5z" />
    <glyph glyph-name="quotesingle" unicode="'" horiz-adv-x="184" 
d="M143 697h94l-69 -235h-64z" />
    <glyph glyph-name="parenleft" unicode="(" horiz-adv-x="279" 
d="M70 249q88 412 319 512l30 -73q-168 -65 -248 -439q-79 -375 61 -439l-60 -73q-189 99 -102 512z" />
    <glyph glyph-name="parenright" unicode=")" horiz-adv-x="279" 
d="M213 249q-87 -411 -317 -512l-30 73q167 65 246 439q32 141 28 234.5t-26 140t-62 64.5l60 73q189 -100 101 -512z" />
    <glyph glyph-name="asterisk" unicode="*" horiz-adv-x="457" 
d="M85 498l17 77h131l-42 115l76 38l41 -114l89 114l61 -39l-91 -114h132l-17 -77h-132l42 -114l-76 -38l-41 112l-89 -112l-60 39l89 113h-130z" />
    <glyph glyph-name="plus" unicode="+" horiz-adv-x="602" 
d="M75 315l19 89h196l42 197h90l-42 -197h197l-19 -89h-197l-41 -196h-90l41 196h-196z" />
    <glyph glyph-name="comma" unicode="," horiz-adv-x="270" 
d="M185 100l-167 -259h-85l133 259h119z" />
    <glyph glyph-name="hyphen" unicode="-" horiz-adv-x="290" 
d="M30 234l19 89h228l-19 -89h-228z" />
    <glyph glyph-name="hyphen" unicode="&#xad;" horiz-adv-x="290" 
d="M30 234l19 89h228l-19 -89h-228z" />
    <glyph glyph-name="period" unicode="." horiz-adv-x="270" 
d="M110 123q40 0 50.5 -11t2.5 -49q-9 -41 -24.5 -53t-55.5 -12q-38 0 -48.5 12t-1.5 53q8 38 23.5 49t53.5 11z" />
    <glyph glyph-name="slash" unicode="/" horiz-adv-x="447" 
d="M482 697h105l-505 -697h-103z" />
    <glyph glyph-name="zero" unicode="0" horiz-adv-x="624" 
d="M413 714q67 0 108.5 -16t67.5 -56.5t24.5 -109t-21.5 -174.5q-44 -208 -122 -290t-211 -82q-66 0 -108 18t-67 61t-23.5 114.5t22.5 178.5q29 139 75.5 218t106 108.5t148.5 29.5zM277 77q88 0 132.5 56.5t80.5 224.5q19 89 23 141t-9.5 81t-38 38t-71.5 9
q-60 0 -94 -18.5t-62 -76.5t-52 -174q-35 -170 -15 -225.5t106 -55.5z" />
    <glyph glyph-name="one" unicode="1" horiz-adv-x="624" 
d="M341 0h-101l124 588l-171 -71l-12 82l313 125z" />
    <glyph glyph-name="two" unicode="2" horiz-adv-x="624" 
d="M185 595l-4 89q113 30 214 30q132 0 183 -45t28 -155q-12 -56 -32 -94.5t-70 -88t-129 -104.5t-216 -140h353l-18 -87h-489l17 81l211 144t131 95t79 72t35 54t19 61q14 66 -15 90.5t-113 24.5q-46 0 -100.5 -7.5t-83.5 -19.5z" />
    <glyph glyph-name="three" unicode="3" horiz-adv-x="624" 
d="M219 327l18 85h88q78 0 117 25.5t52 85.5q12 56 -18 78.5t-126 22.5q-109 0 -189 -23l-3 87q132 26 224 26q142 0 192 -41.5t30 -132.5q-15 -74 -56 -117t-128 -51q62 -3 94.5 -27.5t35.5 -64t-6 -90.5q-24 -113 -98.5 -158.5t-221.5 -45.5q-104 0 -216 27l39 85
q70 -22 183 -22q106 0 148.5 27t57.5 97q15 71 -14 99t-114 28h-89z" />
    <glyph glyph-name="four" unicode="4" horiz-adv-x="619" 
d="M367 191h-350l6 29q79 105 195.5 243t209.5 234h146l-90 -421h96l-18 -85h-96l-40 -191h-99zM385 276l73 341q-133 -130 -295 -341h222z" />
    <glyph glyph-name="five" unicode="5" horiz-adv-x="624" 
d="M202 697h413l-19 -87h-316l-40 -190q50 5 99 5q142 0 188 -49.5t21 -165.5q-26 -126 -98.5 -175t-220.5 -49q-98 0 -206 27l40 85q67 -22 172 -22q104 0 145 27t56 99q17 79 -9.5 107.5t-124.5 28.5q-102 0 -180 -16z" />
    <glyph glyph-name="six" unicode="6" horiz-adv-x="624" 
d="M652 686l-45 -90q-60 25 -155 25q-52 0 -87.5 -8t-67.5 -30t-54.5 -64t-38.5 -108q76 14 159 14q143 0 189.5 -49.5t21.5 -166.5q-26 -126 -95 -174.5t-208 -48.5q-75 0 -120 17t-68.5 59.5t-22.5 112.5t24 178q22 106 55 176.5t81.5 111t108 57t143.5 16.5q92 0 180 -28
zM290 76q89 0 124 27t50 98q16 77 -7.5 106.5t-109.5 30.5q-102 0 -163 -14q-16 -77 -16.5 -126.5t15 -76t40.5 -36t67 -9.5z" />
    <glyph glyph-name="seven" unicode="7" horiz-adv-x="624" 
d="M691 697l-7 -33q-100 -120 -232 -316t-216 -348h-116q97 168 213.5 340.5t202.5 269.5h-378l19 87h514z" />
    <glyph glyph-name="eight" unicode="8" horiz-adv-x="624" 
d="M276 70q84 0 122.5 28.5t52.5 98.5q16 72 -11.5 102t-108.5 30q-80 0 -120 -30t-56 -102q-15 -70 11 -98.5t110 -28.5zM349 410q71 0 108 27t50 88q12 57 -12.5 80.5t-99.5 23.5t-109.5 -23.5t-46.5 -80.5q-13 -61 13 -88t97 -27zM259 -14q-135 0 -185.5 46t-26.5 158
q18 84 63 131t139 51q-85 8 -106 50.5t-5 117.5q19 91 81.5 132.5t193.5 41.5t176 -42t26 -132q-16 -75 -54.5 -117.5t-126.5 -50.5q62 -3 94 -27.5t35 -64t-6 -90.5q-24 -112 -93.5 -158t-204.5 -46z" />
    <glyph glyph-name="nine" unicode="9" horiz-adv-x="624" 
d="M130 0q218 164 302 283q-59 -8 -112 -8q-145 0 -191.5 45t-21.5 161q27 127 97 180t208 53q151 0 195 -49.5t14 -192.5q-16 -73 -51.5 -141.5t-87.5 -128t-103 -105.5t-117 -97h-132zM345 362q76 0 137 10q18 37 29 87q8 38 10.5 64.5t-2.5 45t-13.5 29.5t-26 17t-36.5 8
t-50 2q-88 0 -125 -31.5t-53 -105.5q-16 -77 9 -101.5t121 -24.5z" />
    <glyph glyph-name="colon" unicode=":" horiz-adv-x="270" 
d="M110 123q40 0 50.5 -11t2.5 -49q-9 -41 -24.5 -53t-55.5 -12q-38 0 -48.5 12t-1.5 53q8 38 23.5 49t53.5 11zM192 510q40 0 50.5 -11t2.5 -49q-9 -41 -24.5 -53t-55.5 -12q-38 0 -48.5 12t-1.5 53q8 38 23.5 49t53.5 11z" />
    <glyph glyph-name="semicolon" unicode=";" horiz-adv-x="270" 
d="M185 100l-167 -259h-85l133 259h119zM192 510q40 0 50.5 -11t2.5 -49q-9 -41 -24.5 -53t-55.5 -12q-38 0 -48.5 12t-1.5 53q8 38 23.5 49t53.5 11z" />
    <glyph glyph-name="less" unicode="&#x3c;" horiz-adv-x="602" 
d="M593 605l-346 -245l242 -247l-66 -66l-304 288l10 48l426 287z" />
    <glyph glyph-name="equal" unicode="=" horiz-adv-x="602" 
d="M50 194l19 89h483l-19 -89h-483zM100 431l19 89h483l-19 -89h-483z" />
    <glyph glyph-name="greater" unicode="&#x3e;" horiz-adv-x="602" 
d="M72 113l346 245l-242 246l65 67l306 -288l-10 -48l-426 -287z" />
    <glyph glyph-name="question" unicode="?" horiz-adv-x="479" 
d="M200 123q40 0 51 -11t3 -49q-9 -41 -25 -53t-56 -12q-38 0 -48.5 12t-1.5 53q8 38 23.5 49t53.5 11zM271 206h-105q103 83 155.5 155.5t70.5 156.5q11 53 -12.5 78t-98.5 25q-86 0 -144 -22l-5 90q79 25 174 25q127 0 173 -49t26 -147q-19 -86 -73.5 -156.5
t-160.5 -155.5z" />
    <glyph glyph-name="at" unicode="@" horiz-adv-x="935" 
d="M491 548q-82 0 -132.5 -10.5t-91 -41.5t-65 -85.5t-43.5 -145.5q-15 -71 -15.5 -119.5t13 -82t47.5 -51.5t83 -25.5t125 -7.5q184 0 265 65.5t120 251.5q30 138 21 201h93q6 -71 -22 -204q-24 -115 -64 -191.5t-102 -122t-140.5 -64.5t-188.5 -19q-73 0 -127 7t-97.5 24
t-69.5 44.5t-40 69t-12.5 96.5t17.5 128q23 107 60.5 179t93.5 112.5t123 57t159 16.5q57 0 93.5 -5.5t66 -22t41 -47t11 -79t-15.5 -119.5q-18 -85 -39 -135.5t-54 -79t-72.5 -37.5t-102.5 -9q-115 0 -152.5 35.5t-16.5 133.5q21 102 69.5 134t154.5 32q81 0 136 -11
q14 75 -14 101.5t-115 26.5zM494 358q-71 0 -97.5 -16t-38.5 -73q-13 -57 7 -76.5t87 -19.5t97 26t45 101l11 50q-48 8 -111 8z" />
    <glyph glyph-name="A" unicode="A" horiz-adv-x="675" 
d="M517 0q-25 134 -34 194h-323l-104 -194h-105q189 350 406 697h165q46 -406 109 -697h-114zM431 613h-28l-196 -332h264q-25 170 -40 332z" />
    <glyph glyph-name="B" unicode="B" horiz-adv-x="700" 
d="M164 86h247q82 0 108 117q12 58 -2.5 91.5t-58.5 33.5h-243zM275 611l-42 -200h239q75 0 98 102q10 50 -2 74t-54 24h-239zM506 372q62 -3 93.5 -26.5t33.5 -62t-7 -89.5q-42 -194 -218 -194h-363l148 697h355q97 0 123.5 -43t8.5 -123q-15 -74 -51 -112.5t-123 -46.5z
" />
    <glyph glyph-name="C" unicode="C" horiz-adv-x="597" 
d="M83 355q23 106 57 176t84 110.5t111 56.5t147 16q105 0 192 -26l-45 -91q-58 24 -155 24q-67 0 -107 -8.5t-75.5 -37t-57.5 -81t-41 -140.5q-15 -71 -17 -118.5t6.5 -78.5t33.5 -48t58 -23t86 -6q93 0 164 23l6 -91q-93 -26 -202 -26q-85 0 -139 17.5t-88 60.5t-36 113.5
t18 177.5z" />
    <glyph glyph-name="D" unicode="D" horiz-adv-x="720" 
d="M193 697h240q68 0 116 -10t84 -34t51 -63.5t17.5 -98.5t-16.5 -140q-41 -196 -135 -273.5t-265 -77.5h-240zM577 350q15 68 16.5 113.5t-7 75t-34 45t-58.5 21t-86 5.5h-133l-111 -523h133q128 0 187.5 53.5t92.5 209.5z" />
    <glyph glyph-name="E" unicode="E" horiz-adv-x="615" 
d="M193 697h491l-19 -87h-390l-42 -198h277l-18 -86h-277l-51 -239h390l-18 -87h-491z" />
    <glyph glyph-name="F" unicode="F" horiz-adv-x="577" 
d="M193 697h482l-19 -87h-381l-49 -233h277l-19 -86h-277l-61 -291h-101z" />
    <glyph glyph-name="G" unicode="G" horiz-adv-x="689" 
d="M477 91l46 215h-167l18 85h270l-81 -379q-90 -26 -235 -26q-85 0 -139 17.5t-88 60.5t-36 113.5t18 177.5q23 106 58 176t87 110.5t114 56.5t149 16q110 0 198 -26l-44 -90q-59 24 -167 24q-68 0 -109 -9t-76.5 -37t-58 -81t-41.5 -141q-15 -71 -17.5 -119t6.5 -79
t33.5 -48t58 -23.5t85.5 -6.5q59 0 118 13z" />
    <glyph glyph-name="H" unicode="H" horiz-adv-x="725" 
d="M215 325l-69 -325h-101l148 697h101l-60 -279h334l60 279h101l-148 -697h-101l69 325h-334z" />
    <glyph glyph-name="I" unicode="I" horiz-adv-x="290" 
d="M193 697h101l-148 -697h-101z" />
    <glyph glyph-name="J" unicode="J" horiz-adv-x="451" 
d="M455 697l-108 -505q-44 -206 -243 -206q-76 0 -141 29l44 92q46 -24 110 -24q104 0 129 118l106 496h103z" />
    <glyph glyph-name="K" unicode="K" horiz-adv-x="639" 
d="M294 697l-148 -697h-101l148 697h101zM599 0h-129q-72 159 -140.5 256.5t-104.5 111.5q46 27 148.5 116t222.5 213h128q-124 -123 -221.5 -208.5t-137.5 -111.5q32 -23 98.5 -123t135.5 -254z" />
    <glyph glyph-name="L" unicode="L" horiz-adv-x="548" 
d="M193 697h101l-130 -608h345l-18 -89h-446z" />
    <glyph glyph-name="M" unicode="M" horiz-adv-x="892" 
d="M445 212q143 239 315 485h136l-148 -697h-100l120 568l-322 -498h-78q-59 313 -105 498l-120 -568h-98l148 697h144q68 -258 108 -485z" />
    <glyph glyph-name="N" unicode="N" horiz-adv-x="752" 
d="M755 697l-148 -697h-124q-90 274 -216 575l-122 -575h-100l148 697h135q105 -239 209 -546l116 546h102z" />
    <glyph glyph-name="O" unicode="O" horiz-adv-x="764" 
d="M483 714q68 0 116 -10.5t83 -35t51 -66t16 -103t-18 -146.5q-44 -208 -137 -287.5t-265 -79.5q-68 0 -116 10.5t-82.5 36t-50.5 67.5t-15.5 104.5t18.5 148.5q22 106 56 176t84.5 111t112 57.5t147.5 16.5zM348 77q65 0 106.5 11t74.5 41.5t54 83t39 138.5
q19 89 20.5 141.5t-19 82.5t-57 39.5t-102.5 9.5t-105.5 -9.5t-73 -39.5t-54 -82.5t-39.5 -141.5q-18 -86 -19.5 -138t18 -83t56 -42t101.5 -11z" />
    <glyph glyph-name="P" unicode="P" horiz-adv-x="661" 
d="M216 330h216q102 0 131 135q31 146 -68 146h-220zM146 0h-102l148 697h337q195 0 146 -233q-20 -94 -80.5 -157.5t-158.5 -63.5h-239z" />
    <glyph glyph-name="Q" unicode="Q" horiz-adv-x="784" 
d="M493 714q68 0 116 -10.5t83 -35t51 -66t16 -103t-18 -146.5q-37 -170 -104.5 -250.5t-180.5 -99.5q70 -14 169 -195h-124q-39 83 -84 128.5t-82 49.5q-67 0 -114 11t-81.5 36.5t-50 67.5t-15 104.5t18.5 147.5q22 106 56 176t84.5 111t112 57.5t147.5 16.5zM358 77
q65 0 106.5 11t74.5 41.5t54 83t39 138.5q19 89 20.5 141.5t-19 82.5t-57 39.5t-102.5 9.5t-106 -9.5t-73 -39.5t-54 -82.5t-40 -141.5q-18 -86 -19.5 -138.5t18.5 -83t56.5 -41.5t101.5 -11z" />
    <glyph glyph-name="R" unicode="R" horiz-adv-x="691" 
d="M275 611l-51 -241h216q49 0 82 30.5t45 86.5q13 61 -6 92.5t-66 31.5h-220zM450 307q64 -24 174 -307h-127q-102 284 -177 284h-114l-60 -284h-101l148 697h337q194 0 152 -203q-18 -82 -74 -134t-158 -53z" />
    <glyph glyph-name="S" unicode="S" horiz-adv-x="623" 
d="M642 685l-43 -89q-59 25 -173 25q-92 0 -141 -25.5t-63 -88.5q-10 -48 19.5 -72t123.5 -32q121 -11 167.5 -59.5t26.5 -145.5q-25 -113 -108.5 -162.5t-227.5 -49.5q-117 0 -202 30l44 88q71 -25 175 -25q93 0 144.5 25t65.5 89q10 51 -20 80t-124 37q-122 10 -168.5 52
t-26.5 136q25 114 109 165t226 51q111 0 196 -29z" />
    <glyph glyph-name="T" unicode="T" horiz-adv-x="588" 
d="M296 0h-103l129 610h-239l19 87h580l-19 -87h-238z" />
    <glyph glyph-name="U" unicode="U" horiz-adv-x="740" 
d="M653 697h102l-100 -471q-30 -140 -110 -190t-228 -50q-41 0 -72.5 3t-60.5 10t-49 19t-35.5 30.5t-22 43.5t-6 58.5t9.5 75.5l100 471h103l-98 -461q-20 -92 14.5 -125t135.5 -33q100 0 149.5 32.5t69.5 125.5z" />
    <glyph glyph-name="V" unicode="V" horiz-adv-x="644" 
d="M91 697h114q63 -307 87 -603q146 231 342 603h106q-191 -357 -407 -697h-132q-41 405 -110 697z" />
    <glyph glyph-name="W" unicode="W" horiz-adv-x="940" 
d="M541 536q-73 -178 -256 -536h-129q-22 459 -56 697h112q32 -263 40 -578q184 359 275 578h98q23 -417 19 -578q155 286 285 578h104q-164 -354 -352 -697h-130q4 178 -10 536z" />
    <glyph glyph-name="X" unicode="X" horiz-adv-x="661" 
d="M237 697l143 -257l240 257h123l-319 -341l182 -356h-126l-137 270l-265 -270h-123l344 353l-191 344h129z" />
    <glyph glyph-name="Y" unicode="Y" horiz-adv-x="622" 
d="M208 697q71 -121 148 -286q157 162 263 286h121q-176 -197 -358 -379l-67 -318h-102l67 318q-102 210 -204 379h132z" />
    <glyph glyph-name="Z" unicode="Z" horiz-adv-x="615" 
d="M-31 0l6 30q280 285 543 580h-396l19 87h551l-6 -28q-296 -341 -544 -582h407l-18 -87h-562z" />
    <glyph glyph-name="bracketleft" unicode="[" horiz-adv-x="303" 
d="M198 755h235l-18 -83h-136l-180 -850h136l-18 -82h-235z" />
    <glyph glyph-name="backslash" unicode="\" horiz-adv-x="447" 
d="M59 697h106l207 -697h-104z" />
    <glyph glyph-name="bracketright" unicode="]" horiz-adv-x="303" 
d="M90 755h235l-216 -1015h-234l18 82h135l180 850h-136z" />
    <glyph glyph-name="asciicircum" unicode="^" horiz-adv-x="501" 
d="M400 296l-75 302l-204 -302h-97l276 401h94l107 -401h-101z" />
    <glyph glyph-name="underscore" unicode="_" horiz-adv-x="434" 
d="M-50 -147l18 89h372l-19 -89h-371z" />
    <glyph glyph-name="grave" unicode="`" horiz-adv-x="488" 
d="M395 568h-89l-111 129h108z" />
    <glyph glyph-name="a" unicode="a" 
d="M392 137l59 284q-47 18 -115 18q-80 0 -115.5 -35.5t-59.5 -149.5q-13 -63 -13 -94q0 -50 25.5 -69.5t83.5 -19.5q51 0 89.5 18t45.5 48zM386 43q-61 -56 -161 -56q-91 0 -134.5 34.5t-43.5 117.5q0 46 14 114q31 151 99 209.5t194 58.5q122 0 205 -38l-72 -338
q-5 -23 -5 -40q0 -40 30 -73l-83 -51q-15 8 -28 27t-15 35z" />
    <glyph glyph-name="b" unicode="b" 
d="M197 377l-62 -290q45 -19 115 -19q80 0 116 35.5t60 150.5q22 109 1.5 145.5t-98.5 36.5q-51 0 -88.5 -16t-43.5 -43zM28 25l148 697h94l-51 -238q60 37 143 37q116 0 155.5 -58.5t7.5 -208.5q-32 -152 -99 -210t-193 -58q-52 0 -110.5 10.5t-94.5 28.5z" />
    <glyph glyph-name="c" unicode="c" horiz-adv-x="468" 
d="M400 96l7 -83q-67 -27 -155 -27q-124 0 -173.5 60.5t-17.5 209.5q31 148 105.5 206.5t198.5 58.5q85 0 145 -24l-43 -84q-48 23 -116 23q-42 0 -69 -6.5t-51.5 -25.5t-41 -55.5t-29.5 -94.5q-22 -107 5 -145t109 -38q60 0 126 25z" />
    <glyph glyph-name="d" unicode="d" 
d="M381 88l62 290q6 28 -25 44t-82 16q-78 0 -115 -38t-60 -145q-13 -59 -14 -94.5t12 -56t35.5 -27.5t63.5 -7q70 0 123 18zM610 722l-148 -697q-98 -39 -221 -39q-126 0 -169.5 58t-11.5 209q32 149 99.5 208.5t182.5 59.5q78 0 124 -34l50 235h94z" />
    <glyph glyph-name="e" unicode="e" horiz-adv-x="549" 
d="M422 93l1 -79q-96 -28 -178 -28q-120 0 -167.5 60.5t-16.5 209.5q31 145 101 205t187 60q48 0 80 -7.5t55 -26.5t31.5 -52t5.5 -82.5t-19 -118.5h-345q-20 -98 7 -131.5t109 -33.5q74 0 149 24zM336 442q-70 0 -104.5 -28t-56.5 -103h250q13 79 -6.5 105t-82.5 26z" />
    <glyph glyph-name="f" unicode="f" horiz-adv-x="366" 
d="M255 544l-8 -37h173l-18 -84h-173l-89 -423h-94l89 423h-87l18 84h87l9 40q12 55 34 91.5t53.5 53.5t62 23t72.5 6q58 0 112 -19l-39 -77q-37 13 -92 13q-44 0 -71 -19.5t-39 -74.5z" />
    <glyph glyph-name="g" unicode="g" 
d="M390 131l62 290q-46 18 -115 18q-80 0 -116 -35t-61 -150q-22 -110 -1.5 -146.5t99.5 -36.5q51 0 88.5 16t43.5 44zM368 25q-62 -38 -142 -38q-117 0 -157.5 58.5t-8.5 208.5q32 151 100 209t194 58q122 0 205 -38l-94 -445q-29 -136 -106 -188.5t-207 -52.5
q-38 0 -87.5 8.5t-76.5 20.5l39 81q62 -27 142 -27q86 0 133.5 31.5t65.5 113.5z" />
    <glyph glyph-name="h" unicode="h" horiz-adv-x="568" 
d="M370 521q101 0 134.5 -48.5t4.5 -183.5l-61 -289h-95l58 277q21 75 4.5 116t-87.5 41q-50 0 -88 -15.5t-44 -42.5l-79 -376h-95l153 722h95l-51 -239q66 38 151 38z" />
    <glyph glyph-name="i" unicode="i" horiz-adv-x="239" 
d="M224 507l-107 -507h-94l107 507h94zM221 709q33 0 42.5 -9t3.5 -41q-8 -35 -21.5 -45.5t-46.5 -10.5q-34 0 -43.5 10.5t-1.5 45.5q6 32 19.5 41t47.5 9z" />
    <glyph glyph-name="j" unicode="j" horiz-adv-x="239" 
d="M221 709q33 0 42.5 -9t3.5 -41q-7 -35 -21 -45.5t-47 -10.5t-42.5 10.5t-2.5 45.5q6 32 19.5 41t47.5 9zM224 507l-111 -526q-23 -106 -77 -145t-148 -39l17 81q49 0 75 20.5t38 80.5l112 528h94z" />
    <glyph glyph-name="k" unicode="k" horiz-adv-x="515" 
d="M466 0h-115q-133 246 -177 267l-57 -267h-94l153 722h94l-96 -454q66 44 267 239h115q-195 -189 -261 -230q45 -29 171 -277z" />
    <glyph glyph-name="l" unicode="l" horiz-adv-x="245" 
d="M270 722l-125 -586q-7 -37 -3 -61.5t23 -52.5l-89 -44q-24 31 -30 64t5 90l125 590h94z" />
    <glyph glyph-name="m" unicode="m" horiz-adv-x="870" 
d="M206 420l-89 -420h-94l101 479q108 42 224 42q91 0 126 -34q102 34 190 34q110 0 142.5 -50.5t3.5 -186.5l-60 -284h-94l57 272q21 100 3.5 131t-89.5 31q-65 0 -123 -17q7 -55 -10 -133l-60 -284h-95l57 272q21 100 4 131t-88 31q-56 0 -106 -14z" />
    <glyph glyph-name="n" unicode="n" horiz-adv-x="568" 
d="M206 420l-89 -420h-94l101 479q108 42 231 42q111 0 146.5 -51t6.5 -186l-60 -284h-94l57 272q21 100 2.5 131t-95.5 31q-60 0 -112 -14z" />
    <glyph glyph-name="o" unicode="o" horiz-adv-x="587" 
d="M240 -14q-124 0 -167.5 59.5t-11.5 210.5q32 150 100 207.5t192 57.5q125 0 168.5 -57.5t11.5 -207.5q-32 -151 -100 -210.5t-193 -59.5zM336 441q-80 0 -115.5 -35.5t-60.5 -151.5q-22 -114 -2 -151t99 -37t115 38t60 150q23 119 3.5 153t-99.5 34z" />
    <glyph glyph-name="p" unicode="p" 
d="M206 419l-62 -289q-6 -28 24.5 -44.5t81.5 -16.5q78 0 115.5 38t60.5 146q13 59 14 94.5t-12 56t-36 27t-64 6.5q-71 0 -122 -18zM-18 -192l143 675q99 38 221 38q126 0 169 -57.5t11 -208.5q-32 -149 -99 -209t-183 -60q-79 0 -123 36l-45 -214h-94z" />
    <glyph glyph-name="q" unicode="q" 
d="M390 131l62 290q-46 18 -115 18q-80 0 -116 -35t-61 -150q-22 -110 -1.5 -146.5t99.5 -36.5q51 0 88.5 16t43.5 44zM559 483l-143 -675h-94l46 216q-65 -38 -144 -38q-116 0 -156 59t-8 209q32 151 100 209t194 58q122 0 205 -38z" />
    <glyph glyph-name="r" unicode="r" horiz-adv-x="361" 
d="M23 0l107 507h94l-8 -37q49 51 147 51q27 0 52 -3l-20 -92q-27 5 -58 5q-55 0 -95.5 -16t-46.5 -46l-78 -369h-94z" />
    <glyph glyph-name="s" unicode="s" horiz-adv-x="497" 
d="M485 495l-41 -80q-66 26 -142 26q-60 0 -88 -14.5t-38 -60.5q-7 -32 15 -46.5t86 -20.5q95 -8 130.5 -42t20.5 -106q-19 -91 -78 -128t-163 -37t-177 27l40 80q59 -27 152 -27q60 0 89 15.5t39 62.5q8 35 -13.5 51.5t-87.5 22.5q-92 8 -129 38.5t-22 101.5
q19 90 79 126.5t164 36.5q81 0 164 -26z" />
    <glyph glyph-name="t" unicode="t" horiz-adv-x="404" 
d="M410 423h-178l-52 -247q-12 -57 1.5 -81t62.5 -24q50 0 94 14l1 -78q-61 -21 -129 -21q-90 0 -119.5 38t-6.5 146l53 253h-87l18 84h87l21 96l103 39l-29 -135h178z" />
    <glyph glyph-name="u" unicode="u" horiz-adv-x="568" 
d="M370 88l89 419h94l-102 -479q-108 -42 -230 -42q-111 0 -146.5 51t-6.5 186l60 284h94l-58 -272q-20 -100 -1.5 -131t94.5 -31q63 0 113 15z" />
    <glyph glyph-name="v" unicode="v" horiz-adv-x="510" 
d="M223 93q154 254 231 414h98q-106 -209 -292 -507h-123q-27 328 -68 507h101q36 -172 53 -414z" />
    <glyph glyph-name="w" unicode="w" horiz-adv-x="821" 
d="M445 386q-79 -176 -196 -386h-123q-19 299 -56 507h103q30 -174 40 -412q132 239 207 412h102q18 -143 25 -412q143 248 216 412h100q-130 -267 -280 -507h-123q0 241 -15 386z" />
    <glyph glyph-name="x" unicode="x" horiz-adv-x="521" 
d="M452 0h-110q-36 86 -84 182l-181 -182h-109q88 81 254 253q-69 135 -146 254h119q46 -79 97 -177q56 59 158 177h108l-229 -250q64 -123 123 -257z" />
    <glyph glyph-name="y" unicode="y" horiz-adv-x="510" 
d="M139 -24q-19 314 -70 531h101q38 -176 53 -417q144 234 231 417h98q-118 -233 -300 -517q-61 -98 -123 -182h-107q55 74 117 168z" />
    <glyph glyph-name="z" unicode="z" horiz-adv-x="496" 
d="M101 507h420l-5 -25q-83 -97 -195 -217t-176 -181h282l-17 -84h-433l5 26q232 227 374 397h-273z" />
    <glyph glyph-name="braceleft" unicode="{" horiz-adv-x="299" 
d="M17 210l17 77q108 0 151 201q47 220 215 274l30 -74q-58 -16 -95 -63.5t-60 -156.5q-23 -108 -61 -158.5t-74 -60.5q19 -6 32 -25.5t20.5 -68t-11.5 -127.5q-18 -75 -12 -121t23 -66.5t51 -31.5l-61 -73q-146 53 -99 273q43 201 -66 201z" />
    <glyph glyph-name="bar" unicode="|" horiz-adv-x="341" 
d="M230 755h101l-215 -1011h-101z" />
    <glyph glyph-name="braceright" unicode="}" horiz-adv-x="299" 
d="M286 287l-17 -77q-109 0 -152 -201q-47 -219 -212 -272l-30 73q57 17 93.5 64t59.5 155t60.5 159t73.5 61q-19 6 -31.5 25t-20.5 67.5t11 127.5q12 57 13.5 96.5t-8.5 64t-25 38t-40 21.5l60 72q145 -53 98 -273q-43 -201 67 -201z" />
    <glyph glyph-name="asciitilde" unicode="~" horiz-adv-x="602" 
d="M529 435l53 -49q-29 -50 -72 -79t-92 -29q-36 0 -111.5 43.5t-102.5 43.5q-41 0 -79 -62l-46 53q37 47 71.5 70t75.5 23q40 0 115 -42.5t101 -42.5q45 0 87 71z" />
    <glyph glyph-name="nbspace" unicode="&#xa0;" horiz-adv-x="276" 
 />
    <glyph glyph-name="exclamdown" unicode="&#xa1;" horiz-adv-x="332" 
d="M141 -178h-124l130 487h70zM201 396q-39 0 -51 11.5t-4 48.5q9 40 25.5 52.5t55.5 12.5q38 0 49 -12.5t2 -52.5q-8 -38 -23.5 -49t-53.5 -11z" />
    <glyph glyph-name="cent" unicode="&#xa2;" horiz-adv-x="462" 
d="M361 754h80l-22 -103q62 -3 114 -23l-42 -79q-33 16 -90 20l-78 -369q52 3 99 22l8 -78q-50 -20 -124 -26l-26 -121h-80l26 122q-94 12 -129.5 73.5t-7.5 194.5q28 131 89.5 191.5t159.5 70.5zM183 385q-17 -89 -2.5 -127.5t64.5 -48.5l75 352q-55 -9 -86 -47.5
t-51 -128.5z" />
    <glyph glyph-name="sterling" unicode="&#xa3;" horiz-adv-x="604" 
d="M56 307l17 82h64l20 95q25 115 102.5 172t213.5 57q111 0 196 -29l-43 -89q-57 26 -173 26q-87 0 -132.5 -31.5t-60.5 -101.5l-21 -99h194l-17 -82h-194l-47 -220h349l-18 -87h-451l65 307h-64z" />
    <glyph glyph-name="currency" unicode="&#xa4;" horiz-adv-x="661" 
d="M303 84q-77 0 -118 23l-107 -107l-64 61l109 108q-23 62 3 185q25 119 73 178l-60 109l97 56l54 -101q49 23 127 23q75 0 115 -20l89 98l73 -55l-96 -105q25 -61 0 -183q-26 -122 -79 -186l56 -107l-95 -61l-54 104q-49 -20 -123 -20zM399 535q-81 0 -116.5 -34
t-60.5 -149q-22 -115 -1.5 -149.5t100.5 -34.5q81 0 118 36t60 148q13 60 14 95.5t-12.5 55.5t-36.5 26t-65 6z" />
    <glyph glyph-name="yen" unicode="&#xa5;" horiz-adv-x="622" 
d="M85 295l17 77h152q-96 187 -178 325h132q71 -121 148 -286q157 162 263 286h121l-305 -325h146l-17 -77h-187l-18 -86h187l-16 -77h-187l-28 -132h-102l28 132h-190l16 77h190l18 86h-190z" />
    <glyph glyph-name="brokenbar" unicode="&#xa6;" horiz-adv-x="341" 
d="M230 755h101l-78 -367h-101zM93 111h101l-78 -367h-101z" />
    <glyph glyph-name="section" unicode="&#xa7;" horiz-adv-x="623" 
d="M638 685l-41 -86q-53 25 -169 25q-89 0 -138.5 -25.5t-61.5 -84.5q-9 -44 20.5 -66t121.5 -29q122 -11 173 -54.5t32 -130.5q-13 -62 -68 -119q30 -40 15 -110q-45 -208 -331 -208q-109 0 -191 28l42 87q55 -26 168 -26q89 0 139 26t62 85q9 44 -20.5 66t-121.5 29
q-122 11 -173 54t-33 131q14 63 67 120q-29 41 -14 109q45 208 331 208q107 0 191 -29zM200 351q-21 -24 -32 -70q-10 -47 23 -69.5t133 -29.5q78 -6 114 -24q25 34 32 72q10 46 -23.5 69t-132.5 30q-73 4 -114 22z" />
    <glyph glyph-name="dieresis" unicode="&#xa8;" horiz-adv-x="435" 
d="M207 669q30 0 38 -8.5t2 -38.5q-7 -33 -19 -42.5t-42 -9.5t-38.5 9.5t-1.5 42.5q6 30 18 38.5t43 8.5zM408 669q30 0 38 -8.5t2 -38.5q-7 -33 -19 -42.5t-42 -9.5t-38.5 9.5t-1.5 42.5q6 30 18 38.5t43 8.5z" />
    <glyph glyph-name="copyright" unicode="&#xa9;" horiz-adv-x="855" 
d="M528 714q63 0 109.5 -7t84.5 -23.5t61.5 -43.5t35.5 -67t10 -94.5t-17 -125.5q-23 -107 -59.5 -178.5t-92 -113t-123.5 -58.5t-163 -17q-75 0 -128 10.5t-93 36t-57 67.5t-20.5 104.5t17.5 148.5q22 106 58.5 176t91.5 111t122.5 57.5t162.5 16.5zM389 62q78 0 129 12
t92 44t66.5 88t44.5 146q16 74 17 124t-11 82.5t-42.5 50t-70.5 24t-103 6.5q-78 0 -127 -10.5t-90 -41.5t-66 -87t-45 -148q-15 -72 -16 -121.5t10.5 -83t40.5 -52t69.5 -26t101.5 -7.5zM553 225l6 -74q-67 -23 -139 -23q-112 0 -151.5 48.5t-12.5 177.5q27 128 86.5 175.5
t172.5 47.5q74 0 130 -20l-37 -76q-37 17 -106 17q-71 0 -101.5 -27.5t-50.5 -118.5q-18 -87 1.5 -117t88.5 -30q58 0 113 20z" />
    <glyph glyph-name="ordfeminine" unicode="&#xaa;" horiz-adv-x="421" 
d="M433 577l-45 -211q-72 -28 -160 -28q-82 0 -109 24.5t-12 94.5q8 37 23 61t38 35.5t47 16t57 4.5q48 0 91 -10q12 56 -3.5 73.5t-72.5 17.5q-64 0 -109 -17l-2 58q76 18 134 18q81 0 110.5 -29.5t12.5 -107.5zM330 406l23 109q-24 7 -81 7q-42 0 -63.5 -11.5t-29.5 -49.5
q-8 -39 6 -54t60 -15q41 0 85 14z" />
    <glyph glyph-name="guillemotleft" unicode="&#xab;" horiz-adv-x="632" 
d="M415 521l-242 -213l151 -218l-67 -59l-213 274l328 274zM661 521l-242 -213l151 -218l-66 -59l-213 274l328 274z" />
    <glyph glyph-name="logicalnot" unicode="&#xac;" horiz-adv-x="507" 
d="M420 0h-102l69 327h-337l19 88h439z" />
    <glyph glyph-name="registered" unicode="&#xae;" horiz-adv-x="568" 
d="M464 518q-18 -81 -85 -81q35 -18 45 -94h-77q-2 27 -13.5 54.5t-23.5 27.5h-24l-18 -82h-68l56 262h156q35 0 47.5 -24.5t4.5 -62.5zM393 516q7 33 -18 33h-63l-14 -69h63q25 0 32 36zM563 473q-28 -135 -93.5 -188t-187.5 -53q-121 0 -163 53t-14 188q29 136 93.5 188
t185.5 52q122 0 165 -52t14 -188zM493 473q10 46 11 77t-5.5 51t-24.5 31t-41.5 15t-61.5 4q-90 0 -131 -34.5t-64 -143.5q-22 -105 4.5 -141.5t114.5 -36.5q91 0 133.5 36.5t64.5 141.5z" />
    <glyph glyph-name="macron" unicode="&#xaf;" horiz-adv-x="527" 
d="M202 581l16 74h265l-16 -74h-265z" />
    <glyph glyph-name="macron" unicode="&#x2c9;" horiz-adv-x="527" 
d="M202 581l16 74h265l-16 -74h-265z" />
    <glyph glyph-name="degree" unicode="&#xb0;" horiz-adv-x="421" 
d="M311 714q90 0 120 -46.5t3 -172.5q-27 -127 -77 -176.5t-140 -49.5q-89 0 -118 49.5t-2 176.5q27 126 76 172.5t138 46.5zM232 339q48 0 72 32t44 123q18 94 7.5 121.5t-59.5 27.5q-47 0 -71 -29t-43 -120q-19 -92 -7.5 -123.5t57.5 -31.5z" />
    <glyph glyph-name="plusminus" unicode="&#xb1;" horiz-adv-x="602" 
d="M91 389l19 89h196l42 197h90l-42 -197h197l-19 -89h-197l-42 -197h-90l42 197h-196zM15 29l19 89h483l-19 -89h-483z" />
    <glyph glyph-name="twosuperior" unicode="&#xb2;" horiz-adv-x="405" 
d="M147 620l2 76q68 18 132 18q93 0 128.5 -29.5t20.5 -97.5q-21 -101 -130 -140q-47 -16 -69 -25t-43 -27t-30 -43h223l-15 -72h-322q29 98 74 143.5t125 73.5q88 29 100 86q7 30 -12 41.5t-70 11.5q-73 0 -114 -16z" />
    <glyph glyph-name="threesuperior" unicode="&#xb3;" horiz-adv-x="399" 
d="M177 467l14 68h39q51 0 71.5 12t27.5 46q6 31 -9.5 41t-67.5 10q-62 0 -112 -15l1 67q68 18 135 18q88 0 122 -25.5t23 -80.5q-11 -49 -35.5 -74t-78.5 -30q57 -3 73.5 -30.5t5.5 -79.5q-15 -68 -63.5 -96t-140.5 -28q-66 0 -131 18l27 68q46 -16 112 -16q55 0 77.5 13
t30.5 52q7 38 -9.5 50t-71.5 12h-40z" />
    <glyph glyph-name="acute" unicode="&#xb4;" horiz-adv-x="488" 
d="M257 568h-90l149 129h107z" />
    <glyph glyph-name="mu" unicode="&#xb5;" horiz-adv-x="568" 
d="M71 -192h-94l87 396l64 303h94l-58 -272q-10 -51 -10 -87t24.5 -56t78.5 -20q58 0 112 16l89 419h95l-102 -480q-109 -41 -230 -41q-76 0 -110 22z" />
    <glyph glyph-name="mu" unicode="&#x3bc;" horiz-adv-x="568" 
d="M71 -192h-94l87 396l64 303h94l-58 -272q-10 -51 -10 -87t24.5 -56t78.5 -20q58 0 112 16l89 419h95l-102 -480q-109 -41 -230 -41q-76 0 -110 22z" />
    <glyph glyph-name="paragraph" unicode="&#xb6;" horiz-adv-x="661" 
d="M516 0h-94l51 243h-91l-51 -243h-95l51 243h-60q-98 0 -131.5 63t-13.5 158q49 233 245 233h337z" />
    <glyph glyph-name="periodcentered" unicode="&#xb7;" horiz-adv-x="281" 
d="M166 366q43 0 55.5 -12t3.5 -52q-10 -44 -27.5 -57.5t-59.5 -13.5q-40 0 -51.5 13.5t-2.5 57.5q9 41 25 52.5t57 11.5z" />
    <glyph glyph-name="periodcentered" unicode="&#x2219;" horiz-adv-x="281" 
d="M166 366q43 0 55.5 -12t3.5 -52q-10 -44 -27.5 -57.5t-59.5 -13.5q-40 0 -51.5 13.5t-2.5 57.5q9 41 25 52.5t57 11.5z" />
    <glyph glyph-name="cedilla" unicode="&#xb8;" horiz-adv-x="648" 
d="M279 0h42l-10 -44q64 0 86 -16.5t12 -60.5q-10 -47 -43.5 -64.5t-105.5 -17.5q-68 0 -98 18l30 48q26 -14 76 -14q29 0 41 6t16 24q4 20 -17.5 26t-84.5 2z" />
    <glyph glyph-name="onesuperior" unicode="&#xb9;" horiz-adv-x="356" 
d="M252 286h-85l70 327l-102 -43l-7 73l218 83z" />
    <glyph glyph-name="ordmasculine" unicode="&#xba;" horiz-adv-x="451" 
d="M245 333q-87 0 -118 42.5t-8 149.5q22 106 71 147.5t136 41.5q88 0 119 -41.5t9 -147.5q-23 -107 -72 -149.5t-137 -42.5zM312 648q-54 0 -76.5 -23.5t-38.5 -101.5q-16 -75 -3.5 -100t65.5 -25q52 0 76 25.5t40 99.5q15 80 2.5 102.5t-65.5 22.5z" />
    <glyph glyph-name="guillemotright" unicode="&#xbb;" horiz-adv-x="632" 
d="M247 90l241 213l-150 218l66 59l212 -275l-327 -273zM0 90l242 213l-151 218l67 59l211 -275l-327 -273z" />
    <glyph glyph-name="onequarter" unicode="&#xbc;" horiz-adv-x="820" 
d="M624 697h96l-560 -697h-97zM602 105h-228l6 31q115 142 260 289h112l-53 -247h59l-15 -73h-59l-22 -105h-82zM617 178l39 182q-91 -90 -166 -182h127zM244 286h-84l70 327l-103 -43l-6 73l217 83z" />
    <glyph glyph-name="onehalf" unicode="&#xbd;" horiz-adv-x="820" 
d="M515 340l2 76q68 18 132 18q93 0 128.5 -29.5t21.5 -97.5q-23 -102 -132 -140q-47 -16 -69 -25t-42 -27t-29 -43h223l-15 -72h-322q29 98 73.5 143.5t124.5 73.5q89 30 100 86q6 30 -12.5 41.5t-70.5 11.5q-70 0 -113 -16zM618 697h96l-560 -697h-97zM238 286h-84l70 327
l-103 -43l-6 73l217 83z" />
    <glyph glyph-name="threequarters" unicode="&#xbe;" horiz-adv-x="820" 
d="M684 697h97l-560 -697h-97zM609 105h-227l6 31q111 140 259 289h113l-53 -247h58l-15 -73h-58l-22 -105h-83zM624 178l39 182q-91 -90 -166 -182h127zM170 467l14 68h39q50 0 71 12t28 46q6 31 -10 41t-67 10q-62 0 -112 -15v67q70 18 136 18q88 0 121.5 -25.5
t22.5 -80.5q-11 -49 -35 -74t-78 -30q56 -3 73 -30.5t6 -79.5q-15 -68 -64 -96t-140 -28q-68 0 -131 18l27 68q46 -16 111 -16q55 0 78 13t31 52q7 38 -9.5 50t-72.5 12h-39z" />
    <glyph glyph-name="questiondown" unicode="&#xbf;" horiz-adv-x="479" 
d="M290 396q-40 0 -51.5 11t-3.5 49q9 41 25 53t56 12q38 0 48.5 -12t1.5 -53q-8 -38 -23 -49t-53 -11zM218 313h105q-102 -83 -154.5 -155.5t-70.5 -156.5q-12 -53 11.5 -78t98.5 -25q87 0 144 22l5 -90q-79 -25 -174 -25q-127 0 -173 49t-25 147q18 86 72.5 156.5
t160.5 155.5z" />
    <glyph glyph-name="Agrave" unicode="&#xc0;" horiz-adv-x="675" 
d="M517 0q-25 134 -34 194h-323l-104 -194h-105q189 350 406 697h165q46 -406 109 -697h-114zM431 613h-28l-196 -332h264q-25 170 -40 332zM530 747h-97l-131 129h115z" />
    <glyph glyph-name="Aacute" unicode="&#xc1;" horiz-adv-x="675" 
d="M517 0q-25 134 -34 194h-323l-104 -194h-105q189 350 406 697h165q46 -406 109 -697h-114zM431 613h-28l-196 -332h264q-25 170 -40 332zM455 747h-88l160 129h114z" />
    <glyph glyph-name="Acircumflex" unicode="&#xc2;" horiz-adv-x="675" 
d="M517 0q-25 134 -34 194h-323l-104 -194h-105q189 350 406 697h165q46 -406 109 -697h-114zM431 613h-28l-196 -332h264q-25 170 -40 332zM462 831l-93 -84h-94l150 129h97l98 -129h-98z" />
    <glyph glyph-name="Atilde" unicode="&#xc3;" horiz-adv-x="675" 
d="M517 0q-25 134 -34 194h-323l-104 -194h-105q189 350 406 697h165q46 -406 109 -697h-114zM431 613h-28l-196 -332h264q-25 170 -40 332zM601 873l42 -41q-52 -92 -134 -92q-28 0 -68.5 30.5t-62.5 30.5q-31 0 -67 -55l-36 44q31 40 59 59.5t62 19.5q32 0 72 -28.5
t62 -28.5q37 0 71 61z" />
    <glyph glyph-name="Adieresis" unicode="&#xc4;" horiz-adv-x="675" 
d="M517 0q-25 134 -34 194h-323l-104 -194h-105q189 350 406 697h165q46 -406 109 -697h-114zM431 613h-28l-196 -332h264q-25 170 -40 332zM366 855q30 0 38.5 -8.5t1.5 -38.5q-7 -33 -19 -42.5t-42 -9.5t-38.5 9.5t-1.5 42.5q7 30 19 38.5t42 8.5zM567 855q30 0 38.5 -8.5
t1.5 -38.5q-7 -33 -19 -42.5t-42 -9.5t-38.5 9.5t-1.5 42.5q7 30 19 38.5t42 8.5z" />
    <glyph glyph-name="Aring" unicode="&#xc5;" horiz-adv-x="675" 
d="M476 882q114 0 94 -96q-16 -71 -79 -89h31q46 -406 109 -697h-114q-25 134 -34 194h-323l-104 -194h-105q189 350 406 697h24q-55 18 -39 89q11 51 41.5 73.5t92.5 22.5zM431 613h-28l-196 -332h264q-25 170 -40 332zM465 831q-30 0 -44 -11.5t-20 -35.5q-5 -24 4.5 -36
t39.5 -12q55 0 65 48q5 24 -4.5 35.5t-40.5 11.5z" />
    <glyph glyph-name="AE" unicode="&#xc6;" horiz-adv-x="965" 
d="M460 697h574l-19 -87h-390l-42 -198h235l-18 -85h-235l-51 -240h390l-18 -87h-491l41 194h-327l-168 -194h-122zM525 613h-31l-309 -332h269z" />
    <glyph glyph-name="Ccedilla" unicode="&#xc7;" horiz-adv-x="597" 
d="M83 355q23 106 57 176t84 110.5t111 56.5t147 16q105 0 192 -26l-45 -91q-58 24 -155 24q-67 0 -107 -8.5t-75.5 -37t-57.5 -81t-41 -140.5q-15 -71 -17 -118.5t6.5 -78.5t33.5 -48t58 -23t86 -6q93 0 164 23l6 -91q-93 -26 -202 -26l-7 -30q64 0 86 -16.5t12 -60.5
q-10 -47 -43.5 -64.5t-105.5 -17.5q-68 0 -98 18l30 48q26 -14 76 -14q29 0 41 6t16 24q4 20 -17.5 26t-84.5 2l48 81q-142 9 -190.5 92t-7.5 275z" />
    <glyph glyph-name="Egrave" unicode="&#xc8;" horiz-adv-x="615" 
d="M193 697h491l-19 -87h-390l-42 -198h277l-18 -86h-277l-51 -239h390l-18 -87h-491zM572 747h-97l-131 129h115z" />
    <glyph glyph-name="Eacute" unicode="&#xc9;" horiz-adv-x="615" 
d="M193 697h491l-19 -87h-390l-42 -198h277l-18 -86h-277l-51 -239h390l-18 -87h-491zM453 747h-88l160 129h114z" />
    <glyph glyph-name="Ecircumflex" unicode="&#xca;" horiz-adv-x="615" 
d="M193 697h491l-19 -87h-390l-42 -198h277l-18 -86h-277l-51 -239h390l-18 -87h-491zM472 831l-93 -84h-94l150 129h97l98 -129h-98z" />
    <glyph glyph-name="Edieresis" unicode="&#xcb;" horiz-adv-x="615" 
d="M193 697h491l-19 -87h-390l-42 -198h277l-18 -86h-277l-51 -239h390l-18 -87h-491zM379 855q30 0 38.5 -8.5t1.5 -38.5q-7 -33 -19 -42.5t-42 -9.5t-38.5 9.5t-1.5 42.5q7 30 19 38.5t42 8.5zM580 855q30 0 38.5 -8.5t1.5 -38.5q-7 -33 -19 -42.5t-42 -9.5t-38.5 9.5
t-1.5 42.5q7 30 19 38.5t42 8.5z" />
    <glyph glyph-name="Igrave" unicode="&#xcc;" horiz-adv-x="290" 
d="M193 697h101l-148 -697h-101zM332 747h-97l-131 129h115z" />
    <glyph glyph-name="Iacute" unicode="&#xcd;" horiz-adv-x="290" 
d="M193 697h101l-148 -697h-101zM267 747h-88l160 129h114z" />
    <glyph glyph-name="Icircumflex" unicode="&#xce;" horiz-adv-x="290" 
d="M193 697h101l-148 -697h-101zM269 831l-93 -84h-94l150 129h97l98 -129h-98z" />
    <glyph glyph-name="Idieresis" unicode="&#xcf;" horiz-adv-x="290" 
d="M193 697h101l-148 -697h-101zM178 855q30 0 38.5 -8.5t1.5 -38.5q-7 -33 -19 -42.5t-42 -9.5t-38.5 9.5t-1.5 42.5q7 30 19 38.5t42 8.5zM379 855q30 0 38.5 -8.5t1.5 -38.5q-7 -33 -19 -42.5t-42 -9.5t-38.5 9.5t-1.5 42.5q7 30 19 38.5t42 8.5z" />
    <glyph glyph-name="Eth" unicode="&#xd0;" horiz-adv-x="720" 
d="M59 323l16 73h54l64 301h240q68 0 116 -10t84 -34t51 -63.5t17.5 -98.5t-16.5 -140q-41 -196 -135 -273.5t-265 -77.5h-240l68 323h-54zM577 350q15 68 16.5 113t-7 74.5t-34 44.5t-58 20.5t-86.5 5.5h-133l-45 -212h161l-16 -73h-161l-50 -236h133q128 0 187.5 53.5
t92.5 209.5z" />
    <glyph glyph-name="Ntilde" unicode="&#xd1;" horiz-adv-x="752" 
d="M755 697l-148 -697h-124q-90 274 -216 575l-122 -575h-100l148 697h135q105 -239 209 -546l116 546h102zM648 873l42 -41q-52 -92 -134 -92q-28 0 -68 30.5t-63 30.5q-31 0 -67 -55l-36 44q31 40 59 59.5t62 19.5q32 0 72 -28.5t62 -28.5q37 0 71 61z" />
    <glyph glyph-name="Ograve" unicode="&#xd2;" horiz-adv-x="764" 
d="M483 714q68 0 116 -10.5t83 -35t51 -66t16 -103t-18 -146.5q-44 -208 -137 -287.5t-265 -79.5q-68 0 -116 10.5t-82.5 36t-50.5 67.5t-15.5 104.5t18.5 148.5q22 106 56 176t84.5 111t112 57.5t147.5 16.5zM348 77q65 0 106.5 11t74.5 41.5t54 83t39 138.5
q19 89 20.5 141.5t-19 82.5t-57 39.5t-102.5 9.5t-105.5 -9.5t-73 -39.5t-54 -82.5t-39.5 -141.5q-18 -86 -19.5 -138t18 -83t56 -42t101.5 -11zM582 747h-97l-131 129h115z" />
    <glyph glyph-name="Oacute" unicode="&#xd3;" horiz-adv-x="764" 
d="M483 714q68 0 116 -10.5t83 -35t51 -66t16 -103t-18 -146.5q-44 -208 -137 -287.5t-265 -79.5q-68 0 -116 10.5t-82.5 36t-50.5 67.5t-15.5 104.5t18.5 148.5q22 106 56 176t84.5 111t112 57.5t147.5 16.5zM348 77q65 0 106.5 11t74.5 41.5t54 83t39 138.5
q19 89 20.5 141.5t-19 82.5t-57 39.5t-102.5 9.5t-105.5 -9.5t-73 -39.5t-54 -82.5t-39.5 -141.5q-18 -86 -19.5 -138t18 -83t56 -42t101.5 -11zM453 747h-88l160 129h114z" />
    <glyph glyph-name="Ocircumflex" unicode="&#xd4;" horiz-adv-x="764" 
d="M483 714q68 0 116 -10.5t83 -35t51 -66t16 -103t-18 -146.5q-44 -208 -137 -287.5t-265 -79.5q-68 0 -116 10.5t-82.5 36t-50.5 67.5t-15.5 104.5t18.5 148.5q22 106 56 176t84.5 111t112 57.5t147.5 16.5zM348 77q65 0 106.5 11t74.5 41.5t54 83t39 138.5
q19 89 20.5 141.5t-19 82.5t-57 39.5t-102.5 9.5t-105.5 -9.5t-73 -39.5t-54 -82.5t-39.5 -141.5q-18 -86 -19.5 -138t18 -83t56 -42t101.5 -11zM503 831l-93 -84h-94l150 129h97l98 -129h-98z" />
    <glyph glyph-name="Otilde" unicode="&#xd5;" horiz-adv-x="764" 
d="M483 714q68 0 116 -10.5t83 -35t51 -66t16 -103t-18 -146.5q-44 -208 -137 -287.5t-265 -79.5q-68 0 -116 10.5t-82.5 36t-50.5 67.5t-15.5 104.5t18.5 148.5q22 106 56 176t84.5 111t112 57.5t147.5 16.5zM348 77q65 0 106.5 11t74.5 41.5t54 83t39 138.5
q19 89 20.5 141.5t-19 82.5t-57 39.5t-102.5 9.5t-105.5 -9.5t-73 -39.5t-54 -82.5t-39.5 -141.5q-18 -86 -19.5 -138t18 -83t56 -42t101.5 -11zM643 873l42 -41q-52 -92 -134 -92q-29 0 -69 30.5t-62 30.5q-31 0 -67 -55l-36 44q31 40 59 59.5t62 19.5q32 0 72 -28.5
t62 -28.5q37 0 71 61z" />
    <glyph glyph-name="Odieresis" unicode="&#xd6;" horiz-adv-x="764" 
d="M483 714q68 0 116 -10.5t83 -35t51 -66t16 -103t-18 -146.5q-44 -208 -137 -287.5t-265 -79.5q-68 0 -116 10.5t-82.5 36t-50.5 67.5t-15.5 104.5t18.5 148.5q22 106 56 176t84.5 111t112 57.5t147.5 16.5zM348 77q65 0 106.5 11t74.5 41.5t54 83t39 138.5
q19 89 20.5 141.5t-19 82.5t-57 39.5t-102.5 9.5t-105.5 -9.5t-73 -39.5t-54 -82.5t-39.5 -141.5q-18 -86 -19.5 -138t18 -83t56 -42t101.5 -11zM412 855q30 0 38.5 -8.5t1.5 -38.5q-7 -33 -19 -42.5t-42 -9.5t-38.5 9.5t-1.5 42.5q7 30 19 38.5t42 8.5zM613 855
q30 0 38.5 -8.5t1.5 -38.5q-7 -33 -19 -42.5t-42 -9.5t-38.5 9.5t-1.5 42.5q7 30 19 38.5t42 8.5z" />
    <glyph glyph-name="multiply" unicode="&#xd7;" horiz-adv-x="602" 
d="M145 158l-50 64l167 139l-108 139l76 62l109 -138l168 140l52 -64l-170 -140l110 -138l-77 -64l-109 139z" />
    <glyph glyph-name="Oslash" unicode="&#xd8;" horiz-adv-x="764" 
d="M726 697h106l-100 -93q34 -83 -1 -251q-23 -107 -57.5 -178.5t-85 -113t-112.5 -58.5t-147 -17q-143 0 -205 51q-13 -13 -39 -37h-104l100 93q-37 83 2 260q22 106 56 176t84.5 111t112 57.5t147.5 16.5q144 0 205 -53q8 7 21 19.5zM464 624q-64 0 -103.5 -9t-72.5 -37
t-53.5 -77.5t-38.5 -131.5q-12 -57 -15 -81q-9 -68 -4 -105l431 404q-34 37 -144 37zM348 77q124 0 180 51t90 206q9 41 15 80q9 62 3 101l-428 -401q34 -37 140 -37z" />
    <glyph glyph-name="Ugrave" unicode="&#xd9;" horiz-adv-x="740" 
d="M653 697h102l-100 -471q-30 -140 -110 -190t-228 -50q-41 0 -72.5 3t-60.5 10t-49 19t-35.5 30.5t-22 43.5t-6 58.5t9.5 75.5l100 471h103l-98 -461q-20 -92 14.5 -125t135.5 -33q100 0 149.5 32.5t69.5 125.5zM588 747h-97l-131 129h115z" />
    <glyph glyph-name="Uacute" unicode="&#xda;" horiz-adv-x="740" 
d="M653 697h102l-100 -471q-30 -140 -110 -190t-228 -50q-41 0 -72.5 3t-60.5 10t-49 19t-35.5 30.5t-22 43.5t-6 58.5t9.5 75.5l100 471h103l-98 -461q-20 -92 14.5 -125t135.5 -33q100 0 149.5 32.5t69.5 125.5zM468 747h-88l160 129h114z" />
    <glyph glyph-name="Ucircumflex" unicode="&#xdb;" horiz-adv-x="740" 
d="M653 697h102l-100 -471q-30 -140 -110 -190t-228 -50q-41 0 -72.5 3t-60.5 10t-49 19t-35.5 30.5t-22 43.5t-6 58.5t9.5 75.5l100 471h103l-98 -461q-20 -92 14.5 -125t135.5 -33q100 0 149.5 32.5t69.5 125.5zM491 831l-93 -84h-94l150 129h97l98 -129h-98z" />
    <glyph glyph-name="Udieresis" unicode="&#xdc;" horiz-adv-x="740" 
d="M653 697h102l-100 -471q-30 -140 -110 -190t-228 -50q-41 0 -72.5 3t-60.5 10t-49 19t-35.5 30.5t-22 43.5t-6 58.5t9.5 75.5l100 471h103l-98 -461q-20 -92 14.5 -125t135.5 -33q100 0 149.5 32.5t69.5 125.5zM398 855q30 0 38.5 -8.5t1.5 -38.5q-7 -33 -19 -42.5
t-42 -9.5t-38.5 9.5t-1.5 42.5q7 30 19 38.5t42 8.5zM599 855q30 0 38.5 -8.5t1.5 -38.5q-7 -33 -19 -42.5t-42 -9.5t-38.5 9.5t-1.5 42.5q7 30 19 38.5t42 8.5z" />
    <glyph glyph-name="Yacute" unicode="&#xdd;" horiz-adv-x="622" 
d="M208 697q71 -121 148 -286q157 162 263 286h121q-176 -197 -358 -379l-67 -318h-102l67 318q-102 210 -204 379h132zM434 747h-88l160 129h114z" />
    <glyph glyph-name="Thorn" unicode="&#xde;" horiz-adv-x="661" 
d="M193 697h101l-24 -110h236q195 0 146 -232q-20 -95 -80.5 -158.5t-158.5 -63.5h-239l-28 -133h-101zM192 220h216q51 0 84.5 35.5t47.5 99.5q31 145 -68 145h-220z" />
    <glyph glyph-name="germandbls" unicode="&#xdf;" horiz-adv-x="635" 
d="M417 714q123 0 175.5 -43t33.5 -131q-16 -75 -54.5 -117.5t-125.5 -50.5q62 -3 94 -27.5t35 -64t-6 -90.5q-24 -113 -98 -158.5t-221 -45.5q-34 0 -60 3l28 84q42 -3 52 -3q97 0 137.5 28.5t55.5 98.5q16 74 -12 103t-113 29h-30l18 81h29q78 0 114.5 27t49.5 88
q12 56 -15 79.5t-106 23.5q-147 0 -169 -105l-111 -523h-95l113 532q19 92 94 137t187 45z" />
    <glyph glyph-name="agrave" unicode="&#xe0;" 
d="M392 137l59 284q-47 18 -115 18q-80 0 -115.5 -35.5t-59.5 -149.5q-13 -63 -13 -94q0 -50 25.5 -69.5t83.5 -19.5q51 0 89.5 18t45.5 48zM386 43q-61 -56 -161 -56q-91 0 -134.5 34.5t-43.5 117.5q0 46 14 114q31 151 99 209.5t194 58.5q122 0 205 -38l-72 -338
q-5 -23 -5 -40q0 -40 30 -73l-83 -51q-15 8 -28 27t-15 35zM466 568h-89l-111 129h108z" />
    <glyph glyph-name="aacute" unicode="&#xe1;" 
d="M392 137l59 284q-47 18 -115 18q-80 0 -115.5 -35.5t-59.5 -149.5q-13 -63 -13 -94q0 -50 25.5 -69.5t83.5 -19.5q51 0 89.5 18t45.5 48zM386 43q-61 -56 -161 -56q-91 0 -134.5 34.5t-43.5 117.5q0 46 14 114q31 151 99 209.5t194 58.5q122 0 205 -38l-72 -338
q-5 -23 -5 -40q0 -40 30 -73l-83 -51q-15 8 -28 27t-15 35zM374 568h-90l149 129h107z" />
    <glyph glyph-name="acircumflex" unicode="&#xe2;" 
d="M392 137l59 284q-47 18 -115 18q-80 0 -115.5 -35.5t-59.5 -149.5q-13 -63 -13 -94q0 -50 25.5 -69.5t83.5 -19.5q51 0 89.5 18t45.5 48zM386 43q-61 -56 -161 -56q-91 0 -134.5 34.5t-43.5 117.5q0 46 14 114q31 151 99 209.5t194 58.5q122 0 205 -38l-72 -338
q-5 -23 -5 -40q0 -40 30 -73l-83 -51q-15 8 -28 27t-15 35zM544 568h-100l-59 81l-91 -81h-95l150 129h97z" />
    <glyph glyph-name="atilde" unicode="&#xe3;" 
d="M392 137l59 284q-47 18 -115 18q-80 0 -115.5 -35.5t-59.5 -149.5q-13 -63 -13 -94q0 -50 25.5 -69.5t83.5 -19.5q51 0 89.5 18t45.5 48zM386 43q-61 -56 -161 -56q-91 0 -134.5 34.5t-43.5 117.5q0 46 14 114q31 151 99 209.5t194 58.5q122 0 205 -38l-72 -338
q-5 -23 -5 -40q0 -40 30 -73l-83 -51q-15 8 -28 27t-15 35zM520 695l44 -41q-54 -92 -132 -92q-29 0 -66 30t-60 30q-32 0 -68 -56l-37 45q64 81 124 81q33 0 68 -29.5t57 -29.5q19 0 34.5 13.5t35.5 48.5z" />
    <glyph glyph-name="adieresis" unicode="&#xe4;" 
d="M392 137l59 284q-47 18 -115 18q-80 0 -115.5 -35.5t-59.5 -149.5q-13 -63 -13 -94q0 -50 25.5 -69.5t83.5 -19.5q51 0 89.5 18t45.5 48zM386 43q-61 -56 -161 -56q-91 0 -134.5 34.5t-43.5 117.5q0 46 14 114q31 151 99 209.5t194 58.5q122 0 205 -38l-72 -338
q-5 -23 -5 -40q0 -40 30 -73l-83 -51q-15 8 -28 27t-15 35zM282 669q30 0 38 -8.5t2 -38.5q-7 -33 -19 -42.5t-42 -9.5t-38.5 9.5t-1.5 42.5q6 30 18 38.5t43 8.5zM483 669q30 0 38 -8.5t2 -38.5q-7 -33 -19 -42.5t-42 -9.5t-38.5 9.5t-1.5 42.5q6 30 18 38.5t43 8.5z" />
    <glyph glyph-name="aring" unicode="&#xe5;" 
d="M392 137l59 284q-47 18 -115 18q-80 0 -115.5 -35.5t-59.5 -149.5q-13 -63 -13 -94q0 -50 25.5 -69.5t83.5 -19.5q51 0 89.5 18t45.5 48zM386 43q-61 -56 -161 -56q-91 0 -134.5 34.5t-43.5 117.5q0 46 14 114q31 151 99 209.5t194 58.5q122 0 205 -38l-72 -338
q-5 -23 -5 -40q0 -40 30 -73l-83 -51q-15 8 -28 27t-15 35zM405 739q57 0 80.5 -23t12.5 -73q-20 -96 -134 -96t-94 96q11 51 42 73.5t93 22.5zM394 689q-30 0 -44 -11.5t-20 -35.5q-5 -24 4.5 -36t39.5 -12q55 0 65 48q5 24 -4.5 35.5t-40.5 11.5z" />
    <glyph glyph-name="ae" unicode="&#xe6;" horiz-adv-x="874" 
d="M746 93l1 -79q-96 -28 -177 -28q-107 0 -150 42q-34 -20 -95 -31t-115 -11q-117 0 -156 36.5t-18 133.5q11 52 32.5 86.5t54 51.5t66.5 23t82 6q63 0 132 -15q17 80 -4 104.5t-107 24.5q-90 0 -155 -23l-2 82q98 25 190 25q75 0 113 -16.5t49 -57.5q31 40 75 57t111 17
q48 0 80 -7.5t55 -26.5t31.5 -52t5.5 -82.5t-19 -118.5h-345q-19 -98 8 -131.5t108 -33.5q74 0 149 24zM380 92q-12 57 7 146q-43 11 -115 11q-69 0 -95 -15.5t-38 -72.5q-13 -59 4 -78.5t89 -19.5q87 0 148 29zM660 442q-69 0 -104 -26.5t-57 -104.5h250q14 79 -5.5 105
t-83.5 26z" />
    <glyph glyph-name="ccedilla" unicode="&#xe7;" horiz-adv-x="468" 
d="M400 96l7 -83q-67 -27 -155 -27h-7l-7 -30q64 0 86 -16.5t12 -60.5q-10 -47 -43.5 -64.5t-105.5 -17.5q-68 0 -98 18l30 48q26 -14 76 -14q29 0 41 6t16 24q4 20 -17.5 26t-84.5 2l49 82q-95 11 -130.5 73t-7.5 194q31 148 105.5 206.5t198.5 58.5q85 0 145 -24l-43 -84
q-48 23 -116 23q-42 0 -69 -6.5t-51.5 -25.5t-41 -55.5t-29.5 -94.5q-22 -107 5 -145t109 -38q60 0 126 25z" />
    <glyph glyph-name="egrave" unicode="&#xe8;" horiz-adv-x="549" 
d="M422 93l1 -79q-96 -28 -178 -28q-120 0 -167.5 60.5t-16.5 209.5q31 145 101 205t187 60q48 0 80 -7.5t55 -26.5t31.5 -52t5.5 -82.5t-19 -118.5h-345q-20 -98 7 -131.5t109 -33.5q74 0 149 24zM336 442q-70 0 -104.5 -28t-56.5 -103h250q13 79 -6.5 105t-82.5 26z
M453 568h-89l-111 129h108z" />
    <glyph glyph-name="eacute" unicode="&#xe9;" horiz-adv-x="549" 
d="M422 93l1 -79q-96 -28 -178 -28q-120 0 -167.5 60.5t-16.5 209.5q31 145 101 205t187 60q48 0 80 -7.5t55 -26.5t31.5 -52t5.5 -82.5t-19 -118.5h-345q-20 -98 7 -131.5t109 -33.5q74 0 149 24zM336 442q-70 0 -104.5 -28t-56.5 -103h250q13 79 -6.5 105t-82.5 26z
M365 568h-90l149 129h107z" />
    <glyph glyph-name="ecircumflex" unicode="&#xea;" horiz-adv-x="549" 
d="M422 93l1 -79q-96 -28 -178 -28q-120 0 -167.5 60.5t-16.5 209.5q31 145 101 205t187 60q48 0 80 -7.5t55 -26.5t31.5 -52t5.5 -82.5t-19 -118.5h-345q-20 -98 7 -131.5t109 -33.5q74 0 149 24zM336 442q-70 0 -104.5 -28t-56.5 -103h250q13 79 -6.5 105t-82.5 26z
M537 568h-100l-59 81l-91 -81h-95l150 129h97z" />
    <glyph glyph-name="edieresis" unicode="&#xeb;" horiz-adv-x="549" 
d="M422 93l1 -79q-96 -28 -178 -28q-120 0 -167.5 60.5t-16.5 209.5q31 145 101 205t187 60q48 0 80 -7.5t55 -26.5t31.5 -52t5.5 -82.5t-19 -118.5h-345q-20 -98 7 -131.5t109 -33.5q74 0 149 24zM336 442q-70 0 -104.5 -28t-56.5 -103h250q13 79 -6.5 105t-82.5 26z
M283 669q30 0 38 -8.5t2 -38.5q-7 -33 -19 -42.5t-42 -9.5t-38.5 9.5t-1.5 42.5q6 30 18 38.5t43 8.5zM484 669q30 0 38 -8.5t2 -38.5q-7 -33 -19 -42.5t-42 -9.5t-38.5 9.5t-1.5 42.5q6 30 18 38.5t43 8.5z" />
    <glyph glyph-name="igrave" unicode="&#xec;" horiz-adv-x="239" 
d="M224 507l-107 -507h-94l107 507h94zM257 568h-89l-111 129h108z" />
    <glyph glyph-name="iacute" unicode="&#xed;" horiz-adv-x="239" 
d="M224 507l-107 -507h-94l107 507h94zM207 568h-90l149 129h107z" />
    <glyph glyph-name="icircumflex" unicode="&#xee;" horiz-adv-x="239" 
d="M224 507l-107 -507h-94l107 507h94zM363 568h-100l-59 81l-91 -81h-95l150 129h97z" />
    <glyph glyph-name="idieresis" unicode="&#xef;" horiz-adv-x="239" 
d="M224 507l-107 -507h-94l107 507h94zM112 669q30 0 38 -8.5t2 -38.5q-7 -33 -19 -42.5t-42 -9.5t-38.5 9.5t-1.5 42.5q6 30 18 38.5t43 8.5zM313 669q30 0 38 -8.5t2 -38.5q-7 -33 -19 -42.5t-42 -9.5t-38.5 9.5t-1.5 42.5q6 30 18 38.5t43 8.5z" />
    <glyph glyph-name="eth" unicode="&#xf0;" horiz-adv-x="624" 
d="M315 485l-29 57l81 46q-26 37 -89 109h132q28 -32 49 -59l78 45l28 -57l-70 -40q113 -173 73 -361q-30 -143 -95 -192.5t-216 -49.5q-138 0 -186 53t-21 180q25 116 90.5 161t210.5 45q54 0 108 -8q-15 58 -57 121zM340 335q-96 0 -132 -24.5t-52 -101.5q-16 -73 8 -105
t112 -32q46 0 72.5 5t50.5 22t38.5 50t26.5 89q10 52 8 87q-57 10 -132 10z" />
    <glyph glyph-name="ntilde" unicode="&#xf1;" horiz-adv-x="568" 
d="M206 420l-89 -420h-94l101 479q108 42 231 42q111 0 146.5 -51t6.5 -186l-60 -284h-94l57 272q21 100 2.5 131t-95.5 31q-60 0 -112 -14zM504 695l44 -41q-54 -92 -132 -92q-29 0 -66 30t-60 30q-32 0 -68 -56l-37 45q64 81 124 81q33 0 68 -29.5t57 -29.5
q19 0 34.5 13.5t35.5 48.5z" />
    <glyph glyph-name="ograve" unicode="&#xf2;" horiz-adv-x="587" 
d="M240 -14q-124 0 -167.5 59.5t-11.5 210.5q32 150 100 207.5t192 57.5q125 0 168.5 -57.5t11.5 -207.5q-32 -151 -100 -210.5t-193 -59.5zM336 441q-80 0 -115.5 -35.5t-60.5 -151.5q-22 -114 -2 -151t99 -37t115 38t60 150q23 119 3.5 153t-99.5 34zM460 568h-89
l-111 129h108z" />
    <glyph glyph-name="oacute" unicode="&#xf3;" horiz-adv-x="587" 
d="M240 -14q-124 0 -167.5 59.5t-11.5 210.5q32 150 100 207.5t192 57.5q125 0 168.5 -57.5t11.5 -207.5q-32 -151 -100 -210.5t-193 -59.5zM336 441q-80 0 -115.5 -35.5t-60.5 -151.5q-22 -114 -2 -151t99 -37t115 38t60 150q23 119 3.5 153t-99.5 34zM367 568h-90l149 129
h107z" />
    <glyph glyph-name="ocircumflex" unicode="&#xf4;" horiz-adv-x="587" 
d="M240 -14q-124 0 -167.5 59.5t-11.5 210.5q32 150 100 207.5t192 57.5q125 0 168.5 -57.5t11.5 -207.5q-32 -151 -100 -210.5t-193 -59.5zM336 441q-80 0 -115.5 -35.5t-60.5 -151.5q-22 -114 -2 -151t99 -37t115 38t60 150q23 119 3.5 153t-99.5 34zM534 568h-100l-59 81
l-91 -81h-95l150 129h97z" />
    <glyph glyph-name="otilde" unicode="&#xf5;" horiz-adv-x="587" 
d="M240 -14q-124 0 -167.5 59.5t-11.5 210.5q32 150 100 207.5t192 57.5q125 0 168.5 -57.5t11.5 -207.5q-32 -151 -100 -210.5t-193 -59.5zM336 441q-80 0 -115.5 -35.5t-60.5 -151.5q-22 -114 -2 -151t99 -37t115 38t60 150q23 119 3.5 153t-99.5 34zM513 695l44 -41
q-54 -92 -132 -92q-29 0 -66 30t-60 30q-32 0 -68 -56l-37 45q64 81 124 81q27 0 48 -15l39.5 -29.5t37.5 -14.5t34.5 13.5t35.5 48.5z" />
    <glyph glyph-name="odieresis" unicode="&#xf6;" horiz-adv-x="587" 
d="M240 -14q-124 0 -167.5 59.5t-11.5 210.5q32 150 100 207.5t192 57.5q125 0 168.5 -57.5t11.5 -207.5q-32 -151 -100 -210.5t-193 -59.5zM336 441q-80 0 -115.5 -35.5t-60.5 -151.5q-22 -114 -2 -151t99 -37t115 38t60 150q23 119 3.5 153t-99.5 34zM284 669
q30 0 38 -8.5t2 -38.5q-7 -33 -19 -42.5t-42 -9.5t-38.5 9.5t-1.5 42.5q6 30 18 38.5t43 8.5zM485 669q30 0 38 -8.5t2 -38.5q-7 -33 -19 -42.5t-42 -9.5t-38.5 9.5t-1.5 42.5q6 30 18 38.5t43 8.5z" />
    <glyph glyph-name="divide" unicode="&#xf7;" horiz-adv-x="602" 
d="M75 315l19 89h483l-19 -89h-483zM296 215q40 0 51 -10.5t3 -48.5q-9 -41 -25 -53.5t-55 -12.5q-37 0 -48 12.5t-2 53.5q8 38 23 48.5t53 10.5zM384 627q40 0 50.5 -11t2.5 -49q-9 -41 -24.5 -53t-55.5 -12q-38 0 -48.5 12t-1.5 53q8 38 23.5 49t53.5 11z" />
    <glyph glyph-name="oslash" unicode="&#xf8;" horiz-adv-x="587" 
d="M518 507h96l-78 -73q22 -60 -3 -178q-32 -151 -100.5 -210.5t-193.5 -59.5q-96 0 -143 34l-22 -20h-94l77 73q-23 62 4 183q32 150 99.5 207.5t191.5 57.5q100 0 144 -34zM335 441q-78 0 -113.5 -33.5t-58.5 -141.5q-16 -71 -17 -107l283 260q-25 22 -94 22zM256 66
q80 0 116.5 39.5t59.5 146.5q14 66 15 95l-282 -258q23 -23 91 -23z" />
    <glyph glyph-name="ugrave" unicode="&#xf9;" horiz-adv-x="568" 
d="M370 88l89 419h94l-102 -479q-108 -42 -230 -42q-111 0 -146.5 51t-6.5 186l60 284h94l-58 -272q-20 -100 -1.5 -131t94.5 -31q63 0 113 15zM448 568h-89l-111 129h108z" />
    <glyph glyph-name="uacute" unicode="&#xfa;" horiz-adv-x="568" 
d="M370 88l89 419h94l-102 -479q-108 -42 -230 -42q-111 0 -146.5 51t-6.5 186l60 284h94l-58 -272q-20 -100 -1.5 -131t94.5 -31q63 0 113 15zM363 568h-90l149 129h107z" />
    <glyph glyph-name="ucircumflex" unicode="&#xfb;" horiz-adv-x="568" 
d="M370 88l89 419h94l-102 -479q-108 -42 -230 -42q-111 0 -146.5 51t-6.5 186l60 284h94l-58 -272q-20 -100 -1.5 -131t94.5 -31q63 0 113 15zM536 568h-100l-59 81l-91 -81h-95l150 129h97z" />
    <glyph glyph-name="udieresis" unicode="&#xfc;" horiz-adv-x="568" 
d="M370 88l89 419h94l-102 -479q-108 -42 -230 -42q-111 0 -146.5 51t-6.5 186l60 284h94l-58 -272q-20 -100 -1.5 -131t94.5 -31q63 0 113 15zM283 669q30 0 38 -8.5t2 -38.5q-7 -33 -19 -42.5t-42 -9.5t-38.5 9.5t-1.5 42.5q6 30 18 38.5t43 8.5zM484 669q30 0 38 -8.5
t2 -38.5q-7 -33 -19 -42.5t-42 -9.5t-38.5 9.5t-1.5 42.5q6 30 18 38.5t43 8.5z" />
    <glyph glyph-name="yacute" unicode="&#xfd;" horiz-adv-x="510" 
d="M139 -24q-19 314 -70 531h101q38 -176 53 -417q144 234 231 417h98q-118 -233 -300 -517q-61 -98 -123 -182h-107q55 74 117 168zM347 568h-90l149 129h107z" />
    <glyph glyph-name="thorn" unicode="&#xfe;" 
d="M-18 -192l193 908h94l-45 -209q64 14 122 14q126 0 169 -57.5t11 -208.5q-32 -149 -99 -209t-183 -60q-79 0 -123 36l-45 -214h-94zM206 419l-62 -289q-6 -28 24.5 -44.5t81.5 -16.5q78 0 115.5 38t60.5 146q13 59 14 94.5t-12 56t-36 27t-64 6.5q-71 0 -122 -18z" />
    <glyph glyph-name="ydieresis" unicode="&#xff;" horiz-adv-x="510" 
d="M139 -24q-19 314 -70 531h101q38 -176 53 -417q144 234 231 417h98q-118 -233 -300 -517q-61 -98 -123 -182h-107q55 74 117 168zM249 669q30 0 38 -8.5t2 -38.5q-7 -33 -19 -42.5t-42 -9.5t-38.5 9.5t-1.5 42.5q6 30 18 38.5t43 8.5zM450 669q30 0 38 -8.5t2 -38.5
q-7 -33 -19 -42.5t-42 -9.5t-38.5 9.5t-1.5 42.5q6 30 18 38.5t43 8.5z" />
    <glyph glyph-name="Amacron" unicode="&#x100;" horiz-adv-x="675" 
d="M517 0q-25 134 -34 194h-323l-104 -194h-105q189 350 406 697h165q46 -406 109 -697h-114zM431 613h-28l-196 -332h264q-25 170 -40 332zM315 762l17 77h265l-17 -77h-265z" />
    <glyph glyph-name="amacron" unicode="&#x101;" 
d="M392 137l59 284q-47 18 -115 18q-80 0 -115.5 -35.5t-59.5 -149.5q-13 -63 -13 -94q0 -50 25.5 -69.5t83.5 -19.5q51 0 89.5 18t45.5 48zM386 43q-61 -56 -161 -56q-91 0 -134.5 34.5t-43.5 117.5q0 46 14 114q31 151 99 209.5t194 58.5q122 0 205 -38l-72 -338
q-5 -23 -5 -40q0 -40 30 -73l-83 -51q-15 8 -28 27t-15 35zM249 581l16 74h265l-16 -74h-265z" />
    <glyph glyph-name="Abreve" unicode="&#x102;" horiz-adv-x="675" 
d="M517 0q-25 134 -34 194h-323l-104 -194h-105q189 350 406 697h165q46 -406 109 -697h-114zM431 613h-28l-196 -332h264q-25 170 -40 332zM329 871h70q-8 -37 6 -50t53 -13q38 0 58.5 13t28.5 50h66q-29 -132 -169 -132q-142 0 -113 132z" />
    <glyph glyph-name="abreve" unicode="&#x103;" 
d="M392 137l59 284q-47 18 -115 18q-80 0 -115.5 -35.5t-59.5 -149.5q-13 -63 -13 -94q0 -50 25.5 -69.5t83.5 -19.5q51 0 89.5 18t45.5 48zM386 43q-61 -56 -161 -56q-91 0 -134.5 34.5t-43.5 117.5q0 46 14 114q31 151 99 209.5t194 58.5q122 0 205 -38l-72 -338
q-5 -23 -5 -40q0 -40 30 -73l-83 -51q-15 8 -28 27t-15 35zM256 697h70q-8 -37 6 -50t53 -13q38 0 58.5 13t28.5 50h66q-29 -132 -169 -132q-142 0 -113 132z" />
    <glyph glyph-name="Aogonek" unicode="&#x104;" horiz-adv-x="675" 
d="M517 0q-25 134 -34 194h-323l-104 -194h-105q189 350 406 697h165q46 -406 109 -697h-39q-48 -28 -67 -48.5t-24 -49.5q-5 -23 7 -33t49 -10q49 0 93 29l20 -56q-54 -35 -136 -35q-73 0 -96.5 21.5t-14.5 67.5q17 76 116 114h-22zM431 613h-28l-196 -332h264
q-25 170 -40 332z" />
    <glyph glyph-name="aogonek" unicode="&#x105;" 
d="M386 43q-61 -56 -161 -56q-91 0 -134.5 34.5t-43.5 117.5q0 46 14 114q31 151 99 209.5t194 58.5q122 0 205 -38l-72 -338q-5 -23 -5 -40q0 -40 30 -73l-33 -20h3q-61 -33 -84 -56t-29 -54q-5 -23 7 -33t49 -10q49 0 93 29l20 -56q-54 -35 -136 -35q-73 0 -96.5 21.5
t-14.5 67.5q17 75 116 114q-18 21 -21 43zM392 137l59 284q-47 18 -115 18q-80 0 -115.5 -35.5t-59.5 -149.5q-13 -63 -13 -94q0 -50 25.5 -69.5t83.5 -19.5q51 0 89.5 18t45.5 48z" />
    <glyph glyph-name="Cacute" unicode="&#x106;" horiz-adv-x="597" 
d="M83 355q23 106 57 176t84 110.5t111 56.5t147 16q105 0 192 -26l-45 -91q-58 24 -155 24q-67 0 -107 -8.5t-75.5 -37t-57.5 -81t-41 -140.5q-15 -71 -17 -118.5t6.5 -78.5t33.5 -48t58 -23t86 -6q93 0 164 23l6 -91q-93 -26 -202 -26q-85 0 -139 17.5t-88 60.5t-36 113.5
t18 177.5zM448 747h-88l160 129h114z" />
    <glyph glyph-name="cacute" unicode="&#x107;" horiz-adv-x="468" 
d="M400 96l7 -83q-67 -27 -155 -27q-124 0 -173.5 60.5t-17.5 209.5q31 148 105.5 206.5t198.5 58.5q85 0 145 -24l-43 -84q-48 23 -116 23q-42 0 -69 -6.5t-51.5 -25.5t-41 -55.5t-29.5 -94.5q-22 -107 5 -145t109 -38q60 0 126 25zM358 568h-90l149 129h107z" />
    <glyph glyph-name="Ccircumflex" unicode="&#x108;" horiz-adv-x="597" 
d="M83 355q23 106 57 176t84 110.5t111 56.5t147 16q105 0 192 -26l-45 -91q-58 24 -155 24q-67 0 -107 -8.5t-75.5 -37t-57.5 -81t-41 -140.5q-15 -71 -17 -118.5t6.5 -78.5t33.5 -48t58 -23t86 -6q93 0 164 23l6 -91q-93 -26 -202 -26q-85 0 -139 17.5t-88 60.5t-36 113.5
t18 177.5zM498 831l-93 -84h-94l150 129h97l98 -129h-98z" />
    <glyph glyph-name="ccircumflex" unicode="&#x109;" horiz-adv-x="468" 
d="M400 96l7 -83q-67 -27 -155 -27q-124 0 -173.5 60.5t-17.5 209.5q31 148 105.5 206.5t198.5 58.5q85 0 145 -24l-43 -84q-48 23 -116 23q-42 0 -69 -6.5t-51.5 -25.5t-41 -55.5t-29.5 -94.5q-22 -107 5 -145t109 -38q60 0 126 25zM534 568h-100l-59 81l-91 -81h-95
l150 129h97z" />
    <glyph glyph-name="Cdotaccent" unicode="&#x10a;" horiz-adv-x="597" 
d="M83 355q23 106 57 176t84 110.5t111 56.5t147 16q105 0 192 -26l-45 -91q-58 24 -155 24q-67 0 -107 -8.5t-75.5 -37t-57.5 -81t-41 -140.5q-15 -71 -17 -118.5t6.5 -78.5t33.5 -48t58 -23t86 -6q93 0 164 23l6 -91q-93 -26 -202 -26q-85 0 -139 17.5t-88 60.5t-36 113.5
t18 177.5zM503 857q30 0 38 -8.5t2 -38.5q-7 -33 -19.5 -43t-42.5 -10t-38 10t-1 43q6 30 18 38.5t43 8.5z" />
    <glyph glyph-name="cdotaccent" unicode="&#x10b;" horiz-adv-x="468" 
d="M400 96l7 -83q-67 -27 -155 -27q-124 0 -173.5 60.5t-17.5 209.5q31 148 105.5 206.5t198.5 58.5q85 0 145 -24l-43 -84q-48 23 -116 23q-42 0 -69 -6.5t-51.5 -25.5t-41 -55.5t-29.5 -94.5q-22 -107 5 -145t109 -38q60 0 126 25zM389 669q30 0 38 -8.5t2 -38.5
q-7 -33 -19 -42.5t-42 -9.5t-38.5 10t-1.5 42q6 29 18.5 38t42.5 9z" />
    <glyph glyph-name="Ccaron" unicode="&#x10c;" horiz-adv-x="597" 
d="M83 355q23 106 57 176t84 110.5t111 56.5t147 16q105 0 192 -26l-45 -91q-58 24 -155 24q-67 0 -107 -8.5t-75.5 -37t-57.5 -81t-41 -140.5q-15 -71 -17 -118.5t6.5 -78.5t33.5 -48t58 -23t86 -6q93 0 164 23l6 -91q-93 -26 -202 -26q-85 0 -139 17.5t-88 60.5t-36 113.5
t18 177.5zM421 876l60 -84l94 84h94l-150 -129h-97l-98 129h97z" />
    <glyph glyph-name="ccaron" unicode="&#x10d;" horiz-adv-x="468" 
d="M400 96l7 -83q-67 -27 -155 -27q-124 0 -173.5 60.5t-17.5 209.5q31 148 105.5 206.5t198.5 58.5q85 0 145 -24l-43 -84q-48 23 -116 23q-42 0 -69 -6.5t-51.5 -25.5t-41 -55.5t-29.5 -94.5q-22 -107 5 -145t109 -38q60 0 126 25zM218 697h99l58 -81l92 81h96l-150 -129
h-97z" />
    <glyph glyph-name="Dcaron" unicode="&#x10e;" horiz-adv-x="720" 
d="M193 697h240q68 0 116 -10t84 -34t51 -63.5t17.5 -98.5t-16.5 -140q-41 -196 -135 -273.5t-265 -77.5h-240zM577 350q15 68 16.5 113.5t-7 75t-34 45t-58.5 21t-86 5.5h-133l-111 -523h133q128 0 187.5 53.5t92.5 209.5zM393 876l60 -84l94 84h94l-150 -129h-97l-98 129
h97z" />
    <glyph glyph-name="dcaron" unicode="&#x10f;" 
d="M381 88l62 290q6 28 -25 44t-82 16q-78 0 -115 -38t-60 -145q-13 -59 -14 -94.5t12 -56t35.5 -27.5t63.5 -7q70 0 123 18zM610 722l-148 -697q-98 -39 -221 -39q-126 0 -169.5 58t-11.5 209q32 149 99.5 208.5t182.5 59.5q78 0 124 -34l50 235h94zM664 722h92l-97 -192
h-57z" />
    <glyph glyph-name="Dcroat" unicode="&#x110;" horiz-adv-x="720" 
d="M59 323l16 73h54l64 301h240q68 0 116 -10t84 -34t51 -63.5t17.5 -98.5t-16.5 -140q-41 -196 -135 -273.5t-265 -77.5h-240l68 323h-54zM577 350q15 68 16.5 113t-7 74.5t-34 44.5t-58 20.5t-86.5 5.5h-133l-45 -212h161l-16 -73h-161l-50 -236h133q128 0 187.5 53.5
t92.5 209.5z" />
    <glyph glyph-name="dcroat" unicode="&#x111;" 
d="M387 583l16 71h99l14 68h94l-14 -68h47l-16 -71h-47l-118 -558q-98 -39 -221 -39q-126 0 -169.5 58t-11.5 209q32 149 99.5 208.5t182.5 59.5q78 0 124 -34l20 96h-99zM381 88l62 290q6 28 -25 44t-82 16q-78 0 -115 -38t-60 -145q-13 -59 -14 -94.5t12 -56t35.5 -27.5
t63.5 -7q70 0 123 18z" />
    <glyph glyph-name="Emacron" unicode="&#x112;" horiz-adv-x="615" 
d="M193 697h491l-19 -87h-390l-42 -198h277l-18 -86h-277l-51 -239h390l-18 -87h-491zM319 762l17 77h265l-17 -77h-265z" />
    <glyph glyph-name="emacron" unicode="&#x113;" horiz-adv-x="549" 
d="M422 93l1 -79q-96 -28 -178 -28q-120 0 -167.5 60.5t-16.5 209.5q31 145 101 205t187 60q48 0 80 -7.5t55 -26.5t31.5 -52t5.5 -82.5t-19 -118.5h-345q-20 -98 7 -131.5t109 -33.5q74 0 149 24zM336 442q-70 0 -104.5 -28t-56.5 -103h250q13 79 -6.5 105t-82.5 26z
M232 581l16 74h265l-16 -74h-265z" />
    <glyph glyph-name="Ebreve" unicode="&#x114;" horiz-adv-x="615" 
d="M193 697h491l-19 -87h-390l-42 -198h277l-18 -86h-277l-51 -239h390l-18 -87h-491zM340 871h70q-8 -37 6 -50t53 -13q38 0 58.5 13t28.5 50h66q-29 -132 -169 -132q-142 0 -113 132z" />
    <glyph glyph-name="ebreve" unicode="&#x115;" horiz-adv-x="549" 
d="M422 93l1 -79q-96 -28 -178 -28q-120 0 -167.5 60.5t-16.5 209.5q31 145 101 205t187 60q48 0 80 -7.5t55 -26.5t31.5 -52t5.5 -82.5t-19 -118.5h-345q-20 -98 7 -131.5t109 -33.5q74 0 149 24zM336 442q-70 0 -104.5 -28t-56.5 -103h250q13 79 -6.5 105t-82.5 26z
M244 697h70q-8 -37 6 -50t53 -13q38 0 58.5 13t28.5 50h66q-29 -132 -169 -132q-142 0 -113 132z" />
    <glyph glyph-name="Edotaccent" unicode="&#x116;" horiz-adv-x="615" 
d="M193 697h491l-19 -87h-390l-42 -198h277l-18 -86h-277l-51 -239h390l-18 -87h-491zM495 857q30 0 38 -8.5t2 -38.5q-7 -33 -19.5 -43t-42.5 -10t-38 10t-1 43q6 30 18 38.5t43 8.5z" />
    <glyph glyph-name="edotaccent" unicode="&#x117;" horiz-adv-x="549" 
d="M422 93l1 -79q-96 -28 -178 -28q-120 0 -167.5 60.5t-16.5 209.5q31 145 101 205t187 60q48 0 80 -7.5t55 -26.5t31.5 -52t5.5 -82.5t-19 -118.5h-345q-20 -98 7 -131.5t109 -33.5q74 0 149 24zM336 442q-70 0 -104.5 -28t-56.5 -103h250q13 79 -6.5 105t-82.5 26z
M380 669q30 0 38 -8.5t2 -38.5q-7 -33 -19 -42.5t-42 -9.5t-38.5 10t-1.5 42q6 29 18.5 38t42.5 9z" />
    <glyph glyph-name="Eogonek" unicode="&#x118;" horiz-adv-x="615" 
d="M193 697h491l-19 -87h-390l-42 -198h277l-18 -86h-277l-51 -239h390l-18 -87h-39q-48 -28 -67 -48.5t-24 -49.5q-5 -23 7 -33t49 -10q50 0 93 29l20 -56q-54 -35 -136 -35q-73 0 -96.5 21.5t-14.5 67.5q17 76 116 114h-399z" />
    <glyph glyph-name="eogonek" unicode="&#x119;" horiz-adv-x="549" 
d="M422 93l1 -79q-24 -7 -42 -11q-52 -28 -72 -49.5t-25 -51.5q-5 -23 7 -33t49 -10q50 0 93 29l20 -56q-54 -35 -136 -35q-73 0 -96.5 21.5t-14.5 67.5q14 64 93 104q-27 -4 -54 -4q-120 0 -167.5 60.5t-16.5 209.5q31 145 101 205t187 60q48 0 80 -7.5t55 -26.5t31.5 -52
t5.5 -82.5t-19 -118.5h-345q-20 -98 7 -131.5t109 -33.5q74 0 149 24zM336 442q-70 0 -104.5 -28t-56.5 -103h250q13 79 -6.5 105t-82.5 26z" />
    <glyph glyph-name="Ecaron" unicode="&#x11a;" horiz-adv-x="615" 
d="M193 697h491l-19 -87h-390l-42 -198h277l-18 -86h-277l-51 -239h390l-18 -87h-491zM410 876l60 -84l94 84h94l-150 -129h-97l-98 129h97z" />
    <glyph glyph-name="ecaron" unicode="&#x11b;" horiz-adv-x="549" 
d="M422 93l1 -79q-96 -28 -178 -28q-120 0 -167.5 60.5t-16.5 209.5q31 145 101 205t187 60q48 0 80 -7.5t55 -26.5t31.5 -52t5.5 -82.5t-19 -118.5h-345q-20 -98 7 -131.5t109 -33.5q74 0 149 24zM336 442q-70 0 -104.5 -28t-56.5 -103h250q13 79 -6.5 105t-82.5 26z
M214 697h99l58 -81l92 81h96l-150 -129h-97z" />
    <glyph glyph-name="Gcircumflex" unicode="&#x11c;" horiz-adv-x="689" 
d="M477 91l46 215h-167l18 85h270l-81 -379q-90 -26 -235 -26q-85 0 -139 17.5t-88 60.5t-36 113.5t18 177.5q23 106 58 176t87 110.5t114 56.5t149 16q110 0 198 -26l-44 -90q-59 24 -167 24q-68 0 -109 -9t-76.5 -37t-58 -81t-41.5 -141q-15 -71 -17.5 -119t6.5 -79
t33.5 -48t58 -23.5t85.5 -6.5q59 0 118 13zM500 831l-93 -84h-94l150 129h97l98 -129h-98z" />
    <glyph glyph-name="gcircumflex" unicode="&#x11d;" 
d="M390 131l62 290q-46 18 -115 18q-80 0 -116 -35t-61 -150q-22 -110 -1.5 -146.5t99.5 -36.5q51 0 88.5 16t43.5 44zM368 25q-62 -38 -142 -38q-117 0 -157.5 58.5t-8.5 208.5q32 151 100 209t194 58q122 0 205 -38l-94 -445q-29 -136 -106 -188.5t-207 -52.5
q-38 0 -87.5 8.5t-76.5 20.5l39 81q62 -27 142 -27q86 0 133.5 31.5t65.5 113.5zM543 568h-100l-59 81l-91 -81h-95l150 129h97z" />
    <glyph glyph-name="Gbreve" unicode="&#x11e;" horiz-adv-x="689" 
d="M477 91l46 215h-167l18 85h270l-81 -379q-90 -26 -235 -26q-85 0 -139 17.5t-88 60.5t-36 113.5t18 177.5q23 106 58 176t87 110.5t114 56.5t149 16q110 0 198 -26l-44 -90q-59 24 -167 24q-68 0 -109 -9t-76.5 -37t-58 -81t-41.5 -141q-15 -71 -17.5 -119t6.5 -79
t33.5 -48t58 -23.5t85.5 -6.5q59 0 118 13zM369 871h70q-8 -37 6 -50t53 -13q38 0 58.5 13t28.5 50h66q-29 -132 -169 -132q-142 0 -113 132z" />
    <glyph glyph-name="gbreve" unicode="&#x11f;" 
d="M390 131l62 290q-46 18 -115 18q-80 0 -116 -35t-61 -150q-22 -110 -1.5 -146.5t99.5 -36.5q51 0 88.5 16t43.5 44zM368 25q-62 -38 -142 -38q-117 0 -157.5 58.5t-8.5 208.5q32 151 100 209t194 58q122 0 205 -38l-94 -445q-29 -136 -106 -188.5t-207 -52.5
q-38 0 -87.5 8.5t-76.5 20.5l39 81q62 -27 142 -27q86 0 133.5 31.5t65.5 113.5zM255 697h70q-8 -37 6 -50t53 -13q38 0 58.5 13t28.5 50h66q-29 -132 -169 -132q-142 0 -113 132z" />
    <glyph glyph-name="Gdotaccent" unicode="&#x120;" horiz-adv-x="689" 
d="M477 91l46 215h-167l18 85h270l-81 -379q-90 -26 -235 -26q-85 0 -139 17.5t-88 60.5t-36 113.5t18 177.5q23 106 58 176t87 110.5t114 56.5t149 16q110 0 198 -26l-44 -90q-59 24 -167 24q-68 0 -109 -9t-76.5 -37t-58 -81t-41.5 -141q-15 -71 -17.5 -119t6.5 -79
t33.5 -48t58 -23.5t85.5 -6.5q59 0 118 13zM514 857q30 0 38 -8.5t2 -38.5q-7 -33 -19.5 -43t-42.5 -10t-38 10t-1 43q6 30 18 38.5t43 8.5z" />
    <glyph glyph-name="gdotaccent" unicode="&#x121;" 
d="M390 131l62 290q-46 18 -115 18q-80 0 -116 -35t-61 -150q-22 -110 -1.5 -146.5t99.5 -36.5q51 0 88.5 16t43.5 44zM368 25q-62 -38 -142 -38q-117 0 -157.5 58.5t-8.5 208.5q32 151 100 209t194 58q122 0 205 -38l-94 -445q-29 -136 -106 -188.5t-207 -52.5
q-38 0 -87.5 8.5t-76.5 20.5l39 81q62 -27 142 -27q86 0 133.5 31.5t65.5 113.5zM385 669q30 0 38 -8.5t2 -38.5q-7 -33 -19 -42.5t-42 -9.5t-38.5 10t-1.5 42q6 29 18.5 38t42.5 9z" />
    <glyph glyph-name="Gcommaaccent" unicode="&#x122;" horiz-adv-x="689" 
d="M477 91l46 215h-167l18 85h270l-81 -379q-90 -26 -235 -26q-85 0 -139 17.5t-88 60.5t-36 113.5t18 177.5q23 106 58 176t87 110.5t114 56.5t149 16q110 0 198 -26l-44 -90q-59 24 -167 24q-68 0 -109 -9t-76.5 -37t-58 -81t-41.5 -141q-15 -71 -17.5 -119t6.5 -79
t33.5 -48t58 -23.5t85.5 -6.5q59 0 118 13zM396 -51l-140 -167h-76l107 167h109z" />
    <glyph glyph-name="gcommaaccent" unicode="&#x123;" 
d="M390 131l62 290q-46 18 -115 18q-80 0 -116 -35t-61 -150q-22 -110 -1.5 -146.5t99.5 -36.5q51 0 88.5 16t43.5 44zM368 25q-62 -38 -142 -38q-117 0 -157.5 58.5t-8.5 208.5q32 151 100 209t194 58q122 0 205 -38l-94 -445q-29 -136 -106 -188.5t-207 -52.5
q-38 0 -87.5 8.5t-76.5 20.5l39 81q62 -27 142 -27q86 0 133.5 31.5t65.5 113.5zM516 747l-140 -167h-76l107 167h109z" />
    <glyph glyph-name="Hcircumflex" unicode="&#x124;" horiz-adv-x="725" 
d="M215 325l-69 -325h-101l148 697h101l-60 -279h334l60 279h101l-148 -697h-101l69 325h-334zM481 831l-93 -84h-94l150 129h97l98 -129h-98z" />
    <glyph glyph-name="hcircumflex" unicode="&#x125;" horiz-adv-x="568" 
d="M370 521q101 0 134.5 -48.5t4.5 -183.5l-61 -289h-95l58 277q21 75 4.5 116t-87.5 41q-50 0 -88 -15.5t-44 -42.5l-79 -376h-95l153 722h95l-51 -239q66 38 151 38zM311 831l-93 -84h-94l150 129h97l98 -129h-98z" />
    <glyph glyph-name="Hbar" unicode="&#x126;" horiz-adv-x="725" 
d="M93 530l17 81h64l19 86h101l-19 -86h334l19 86h101l-19 -86h65l-17 -81h-65l-112 -530h-101l69 325h-334l-69 -325h-101l112 530h-64zM234 418h334l24 112h-334z" />
    <glyph glyph-name="hbar" unicode="&#x127;" horiz-adv-x="568" 
d="M89 588l15 69h58l14 65h94l-14 -65h112l-15 -69h-112l-22 -105q66 38 152 38q101 0 134 -48.5t4 -183.5l-61 -289h-94l58 277q20 95 1 126.5t-85 31.5q-49 0 -87.5 -16t-43.5 -42l-80 -377h-94l124 588h-58z" />
    <glyph glyph-name="Itilde" unicode="&#x128;" horiz-adv-x="290" 
d="M193 697h101l-148 -697h-101zM410 873l42 -41q-52 -92 -134 -92q-28 0 -68 30.5t-63 30.5q-31 0 -67 -55l-36 44q31 40 59 59.5t62 19.5q32 0 72 -28.5t62 -28.5q37 0 71 61z" />
    <glyph glyph-name="itilde" unicode="&#x129;" horiz-adv-x="239" 
d="M224 507l-107 -507h-94l107 507h94zM342 695l44 -41q-54 -92 -132 -92q-29 0 -66 30t-60 30q-32 0 -68 -56l-37 45q64 81 124 81q33 0 68 -29.5t57 -29.5q19 0 34.5 13.5t35.5 48.5z" />
    <glyph glyph-name="Imacron" unicode="&#x12a;" horiz-adv-x="290" 
d="M193 697h101l-148 -697h-101zM125 762l17 77h265l-17 -77h-265z" />
    <glyph glyph-name="imacron" unicode="&#x12b;" horiz-adv-x="239" 
d="M224 507l-107 -507h-94l107 507h94zM61 581l16 74h265l-16 -74h-265z" />
    <glyph glyph-name="Ibreve" unicode="&#x12c;" horiz-adv-x="290" 
d="M193 697h101l-148 -697h-101zM142 871h70q-8 -37 6 -50t53 -13q38 0 58.5 13t28.5 50h66q-29 -132 -169 -132q-142 0 -113 132z" />
    <glyph glyph-name="ibreve" unicode="&#x12d;" horiz-adv-x="239" 
d="M224 507l-107 -507h-94l107 507h94zM78 697h70q-8 -37 6 -50t53 -13q38 0 58.5 13t28.5 50h66q-29 -132 -169 -132q-142 0 -113 132z" />
    <glyph glyph-name="Iogonek" unicode="&#x12e;" horiz-adv-x="290" 
d="M193 697h101l-148 -697h-37q-48 -28 -67 -48.5t-24 -49.5q-5 -23 7 -33t49 -10q50 0 93 29l20 -56q-54 -35 -136 -35q-73 0 -96.5 21.5t-14.5 67.5q18 76 116 114h-11z" />
    <glyph glyph-name="iogonek" unicode="&#x12f;" horiz-adv-x="239" 
d="M224 507l-107 -507h-27q-48 -28 -67 -48.5t-24 -49.5q-5 -23 7 -33t49 -10q50 0 93 29l20 -56q-54 -35 -136 -35q-73 0 -96.5 21.5t-14.5 67.5q18 76 116 114h-14l107 507h94zM221 709q33 0 42.5 -9t3.5 -41q-8 -35 -21.5 -45.5t-46.5 -10.5q-34 0 -43.5 10.5t-1.5 45.5
q6 32 19.5 41t47.5 9z" />
    <glyph glyph-name="Idotaccent" unicode="&#x130;" horiz-adv-x="290" 
d="M193 697h101l-148 -697h-101zM279 857q30 0 38 -8.5t2 -38.5q-7 -33 -19.5 -43t-42.5 -10t-38 10t-1 43q6 30 18 38.5t43 8.5z" />
    <glyph glyph-name="dotlessi" unicode="&#x131;" horiz-adv-x="239" 
d="M224 507l-107 -507h-94l107 507h94z" />
    <glyph glyph-name="IJ" unicode="&#x132;" horiz-adv-x="740" 
d="M193 697h101l-148 -697h-101zM744 697l-107 -505q-44 -206 -244 -206q-76 0 -141 29l44 92q48 -24 110 -24q104 0 129 118l106 496h103z" />
    <glyph glyph-name="ij" unicode="&#x133;" horiz-adv-x="478" 
d="M224 507l-107 -507h-94l107 507h94zM221 709q33 0 42.5 -9t3.5 -41q-8 -35 -21.5 -45.5t-46.5 -10.5q-34 0 -43.5 10.5t-1.5 45.5q6 32 19.5 41t47.5 9zM458 709q33 0 42.5 -9t3.5 -41q-7 -35 -21 -45.5t-47 -10.5t-42.5 10.5t-2.5 45.5q6 32 19.5 41t47.5 9zM461 507
l-111 -526q-23 -106 -77 -145t-148 -39l17 81q49 0 75 20.5t38 80.5l112 528h94z" />
    <glyph glyph-name="Jcircumflex" unicode="&#x134;" horiz-adv-x="451" 
d="M455 697l-108 -505q-44 -206 -243 -206q-76 0 -141 29l44 92q46 -24 110 -24q104 0 129 118l106 496h103zM426 831l-93 -84h-94l150 129h97l98 -129h-98z" />
    <glyph glyph-name="jcircumflex" unicode="&#x135;" horiz-adv-x="239" 
d="M224 507l-111 -526q-23 -106 -77 -145t-148 -39l17 81q49 0 75 20.5t38 80.5l112 528h94zM374 568h-100l-59 81l-91 -81h-95l150 129h97z" />
    <glyph glyph-name="Kcommaaccent" unicode="&#x136;" horiz-adv-x="639" 
d="M294 697l-148 -697h-101l148 697h101zM599 0h-129q-72 159 -140.5 256.5t-104.5 111.5q46 27 148.5 116t222.5 213h128q-124 -123 -221.5 -208.5t-137.5 -111.5q32 -23 98.5 -123t135.5 -254zM336 -51l-140 -167h-76l107 167h109z" />
    <glyph glyph-name="kcommaaccent" unicode="&#x137;" horiz-adv-x="515" 
d="M466 0h-115q-133 246 -177 267l-57 -267h-94l153 722h94l-96 -454q66 44 267 239h115q-195 -189 -261 -230q45 -29 171 -277zM277 -51l-140 -167h-76l107 167h109z" />
    <glyph glyph-name="Lacute" unicode="&#x139;" horiz-adv-x="548" 
d="M193 697h101l-130 -608h345l-18 -89h-446zM292 747h-88l160 129h114z" />
    <glyph glyph-name="lacute" unicode="&#x13a;" horiz-adv-x="245" 
d="M270 722l-125 -586q-7 -37 -3 -61.5t23 -52.5l-89 -44q-24 31 -30 64t5 90l125 590h94zM253 747h-88l160 129h114z" />
    <glyph glyph-name="Lcommaaccent" unicode="&#x13b;" horiz-adv-x="548" 
d="M193 697h101l-130 -608h345l-18 -89h-446zM321 -51l-140 -167h-76l107 167h109z" />
    <glyph glyph-name="lcommaaccent" unicode="&#x13c;" horiz-adv-x="245" 
d="M270 722l-125 -586q-7 -37 -3 -61.5t23 -52.5l-89 -44q-24 31 -30 64t5 90l125 590h94zM157 -51l-140 -167h-76l107 167h109z" />
    <glyph glyph-name="Lcaron" unicode="&#x13d;" horiz-adv-x="548" 
d="M193 697h101l-130 -608h345l-18 -89h-446zM399 722h92l-97 -192h-57z" />
    <glyph glyph-name="lcaron" unicode="&#x13e;" horiz-adv-x="245" 
d="M270 722l-125 -586q-7 -37 -3 -61.5t23 -52.5l-89 -44q-24 31 -30 64t5 90l125 590h94zM328 722h92l-97 -192h-57z" />
    <glyph glyph-name="Ldot" unicode="&#x13f;" horiz-adv-x="548" 
d="M193 697h101l-130 -608h345l-18 -89h-446zM377 442q30 0 38.5 -8.5t1.5 -38.5q-7 -33 -19 -43t-42 -10t-38.5 10t-1.5 43q6 30 18.5 38.5t42.5 8.5z" />
    <glyph glyph-name="ldot" unicode="&#x140;" horiz-adv-x="245" 
d="M270 722l-125 -586q-7 -37 -3 -61.5t23 -52.5l-89 -44q-24 31 -30 64t5 90l125 590h94zM296 447q30 0 38 -8.5t2 -38.5q-7 -33 -19 -42.5t-42 -9.5t-38.5 10t-1.5 42q6 29 18.5 38t42.5 9z" />
    <glyph glyph-name="Lslash" unicode="&#x141;" horiz-adv-x="548" 
d="M422 541l-21 -100l-193 -145l-44 -207h345l-18 -89h-446l44 208l-85 -63l21 99l85 64l83 389h101l-64 -301z" />
    <glyph glyph-name="lslash" unicode="&#x142;" horiz-adv-x="255" 
d="M280 722l-52 -245l90 81l-21 -100l-90 -80l-52 -242q0 -2 -0.5 -6t-0.5 -6q-11 -59 20 -102l-88 -44q-23 30 -29.5 58.5t1.5 82.5l12 60l20 96l-84 -75l21 99l84 75l74 348h95z" />
    <glyph glyph-name="Nacute" unicode="&#x143;" horiz-adv-x="752" 
d="M755 697l-148 -697h-124q-90 274 -216 575l-122 -575h-100l148 697h135q105 -239 209 -546l116 546h102zM496 747h-88l160 129h114z" />
    <glyph glyph-name="nacute" unicode="&#x144;" horiz-adv-x="568" 
d="M206 420l-89 -420h-94l101 479q108 42 231 42q111 0 146.5 -51t6.5 -186l-60 -284h-94l57 272q21 100 2.5 131t-95.5 31q-60 0 -112 -14zM338 568h-90l149 129h107z" />
    <glyph glyph-name="Ncommaaccent" unicode="&#x145;" horiz-adv-x="752" 
d="M755 697l-148 -697h-124q-90 274 -216 575l-122 -575h-100l148 697h135q105 -239 209 -546l116 546h102zM377 -51l-140 -167h-76l107 167h109z" />
    <glyph glyph-name="ncommaaccent" unicode="&#x146;" horiz-adv-x="568" 
d="M206 420l-89 -420h-94l101 479q108 42 231 42q111 0 146.5 -51t6.5 -186l-60 -284h-94l57 272q21 100 2.5 131t-95.5 31q-60 0 -112 -14zM284 -51l-140 -167h-76l107 167h109z" />
    <glyph glyph-name="Ncaron" unicode="&#x147;" horiz-adv-x="752" 
d="M755 697l-148 -697h-124q-90 274 -216 575l-122 -575h-100l148 697h135q105 -239 209 -546l116 546h102zM445 876l60 -84l94 84h94l-150 -129h-97l-98 129h97z" />
    <glyph glyph-name="ncaron" unicode="&#x148;" horiz-adv-x="568" 
d="M206 420l-89 -420h-94l101 479q108 42 231 42q111 0 146.5 -51t6.5 -186l-60 -284h-94l57 272q21 100 2.5 131t-95.5 31q-60 0 -112 -14zM207 697h99l58 -81l92 81h96l-150 -129h-97z" />
    <glyph glyph-name="Omacron" unicode="&#x14c;" horiz-adv-x="764" 
d="M483 714q68 0 116 -10.5t83 -35t51 -66t16 -103t-18 -146.5q-44 -208 -137 -287.5t-265 -79.5q-68 0 -116 10.5t-82.5 36t-50.5 67.5t-15.5 104.5t18.5 148.5q22 106 56 176t84.5 111t112 57.5t147.5 16.5zM348 77q65 0 106.5 11t74.5 41.5t54 83t39 138.5
q19 89 20.5 141.5t-19 82.5t-57 39.5t-102.5 9.5t-105.5 -9.5t-73 -39.5t-54 -82.5t-39.5 -141.5q-18 -86 -19.5 -138t18 -83t56 -42t101.5 -11zM360 762l17 77h265l-17 -77h-265z" />
    <glyph glyph-name="omacron" unicode="&#x14d;" horiz-adv-x="587" 
d="M240 -14q-124 0 -167.5 59.5t-11.5 210.5q32 150 100 207.5t192 57.5q125 0 168.5 -57.5t11.5 -207.5q-32 -151 -100 -210.5t-193 -59.5zM336 441q-80 0 -115.5 -35.5t-60.5 -151.5q-22 -114 -2 -151t99 -37t115 38t60 150q23 119 3.5 153t-99.5 34zM232 581l16 74h265
l-16 -74h-265z" />
    <glyph glyph-name="Obreve" unicode="&#x14e;" horiz-adv-x="764" 
d="M483 714q68 0 116 -10.5t83 -35t51 -66t16 -103t-18 -146.5q-44 -208 -137 -287.5t-265 -79.5q-68 0 -116 10.5t-82.5 36t-50.5 67.5t-15.5 104.5t18.5 148.5q22 106 56 176t84.5 111t112 57.5t147.5 16.5zM348 77q65 0 106.5 11t74.5 41.5t54 83t39 138.5
q19 89 20.5 141.5t-19 82.5t-57 39.5t-102.5 9.5t-105.5 -9.5t-73 -39.5t-54 -82.5t-39.5 -141.5q-18 -86 -19.5 -138t18 -83t56 -42t101.5 -11zM375 871h70q-8 -37 6 -50t53 -13q38 0 58.5 13t28.5 50h66q-29 -132 -169 -132q-142 0 -113 132z" />
    <glyph glyph-name="obreve" unicode="&#x14f;" horiz-adv-x="587" 
d="M240 -14q-124 0 -167.5 59.5t-11.5 210.5q32 150 100 207.5t192 57.5q125 0 168.5 -57.5t11.5 -207.5q-32 -151 -100 -210.5t-193 -59.5zM336 441q-80 0 -115.5 -35.5t-60.5 -151.5q-22 -114 -2 -151t99 -37t115 38t60 150q23 119 3.5 153t-99.5 34zM249 697h70
q-8 -37 6 -50t53 -13q38 0 58.5 13t28.5 50h66q-29 -132 -169 -132q-142 0 -113 132z" />
    <glyph glyph-name="Ohungarumlaut" unicode="&#x150;" horiz-adv-x="764" 
d="M483 714q68 0 116 -10.5t83 -35t51 -66t16 -103t-18 -146.5q-44 -208 -137 -287.5t-265 -79.5q-68 0 -116 10.5t-82.5 36t-50.5 67.5t-15.5 104.5t18.5 148.5q22 106 56 176t84.5 111t112 57.5t147.5 16.5zM348 77q65 0 106.5 11t74.5 41.5t54 83t39 138.5
q19 89 20.5 141.5t-19 82.5t-57 39.5t-102.5 9.5t-105.5 -9.5t-73 -39.5t-54 -82.5t-39.5 -141.5q-18 -86 -19.5 -138t18 -83t56 -42t101.5 -11zM415 747h-70l116 129h92zM567 747h-70l115 129h93z" />
    <glyph glyph-name="ohungarumlaut" unicode="&#x151;" horiz-adv-x="587" 
d="M240 -14q-124 0 -167.5 59.5t-11.5 210.5q32 150 100 207.5t192 57.5q125 0 168.5 -57.5t11.5 -207.5q-32 -151 -100 -210.5t-193 -59.5zM336 441q-80 0 -115.5 -35.5t-60.5 -151.5q-22 -114 -2 -151t99 -37t115 38t60 150q23 119 3.5 153t-99.5 34zM291 568h-70l116 129
h92zM443 568h-70l115 129h93z" />
    <glyph glyph-name="OE" unicode="&#x152;" horiz-adv-x="1104" 
d="M624 697h549l-19 -87h-429q37 -64 16 -198h216l-18 -85h-215q-38 -169 -115 -240h434l-18 -87h-561q-57 -14 -135 -14q-68 0 -116 10.5t-82.5 36t-50.5 67.5t-15.5 104.5t18.5 148.5q22 106 56 176t84.5 111t112 57.5t147.5 16.5t141 -17zM348 77q65 0 106.5 11
t74.5 41.5t54 83t39 138.5q19 89 20.5 141.5t-19 82.5t-57 39.5t-102.5 9.5t-105.5 -9.5t-73 -39.5t-54 -82.5t-39.5 -141.5q-18 -86 -19.5 -138t18 -83t56 -42t101.5 -11z" />
    <glyph glyph-name="oe" unicode="&#x153;" horiz-adv-x="919" 
d="M792 93v-79q-94 -28 -177 -28q-71 0 -112.5 18.5t-58.5 62.5q-63 -81 -204 -81q-124 0 -167.5 59.5t-11.5 210.5q32 150 100 207.5t192 57.5q139 0 169 -76q67 76 197 76q60 0 96 -12.5t57 -44.5t20.5 -88t-20.5 -142h-345q-20 -98 7 -131.5t109 -33.5q72 0 149 24z
M336 441q-80 0 -115.5 -35.5t-60.5 -151.5q-22 -114 -2 -151t99 -37t115 38t60 150q23 119 3.5 153t-99.5 34zM705 442q-68 0 -103 -27t-57 -104h250q13 79 -6.5 105t-83.5 26z" />
    <glyph glyph-name="Racute" unicode="&#x154;" horiz-adv-x="691" 
d="M275 611l-51 -241h216q49 0 82 30.5t45 86.5q13 61 -6 92.5t-66 31.5h-220zM450 307q64 -24 174 -307h-127q-102 284 -177 284h-114l-60 -284h-101l148 697h337q194 0 152 -203q-18 -82 -74 -134t-158 -53zM434 747h-88l160 129h114z" />
    <glyph glyph-name="racute" unicode="&#x155;" horiz-adv-x="361" 
d="M23 0l107 507h94l-8 -37q49 51 147 51q27 0 52 -3l-20 -92q-27 5 -58 5q-55 0 -95.5 -16t-46.5 -46l-78 -369h-94zM302 568h-90l149 129h107z" />
    <glyph glyph-name="Rcommaaccent" unicode="&#x156;" horiz-adv-x="691" 
d="M275 611l-51 -241h216q49 0 82 30.5t45 86.5q13 61 -6 92.5t-66 31.5h-220zM450 307q64 -24 174 -307h-127q-102 284 -177 284h-114l-60 -284h-101l148 697h337q194 0 152 -203q-18 -82 -74 -134t-158 -53zM355 -51l-140 -167h-76l107 167h109z" />
    <glyph glyph-name="rcommaaccent" unicode="&#x157;" horiz-adv-x="361" 
d="M23 0l107 507h94l-8 -37q49 51 147 51q27 0 52 -3l-20 -92q-27 5 -58 5q-55 0 -95.5 -16t-46.5 -46l-78 -369h-94zM135 -51l-140 -167h-76l107 167h109z" />
    <glyph glyph-name="Rcaron" unicode="&#x158;" horiz-adv-x="691" 
d="M275 611l-51 -241h216q49 0 82 30.5t45 86.5q13 61 -6 92.5t-66 31.5h-220zM450 307q64 -24 174 -307h-127q-102 284 -177 284h-114l-60 -284h-101l148 697h337q194 0 152 -203q-18 -82 -74 -134t-158 -53zM403 876l60 -84l94 84h94l-150 -129h-97l-98 129h97z" />
    <glyph glyph-name="rcaron" unicode="&#x159;" horiz-adv-x="361" 
d="M23 0l107 507h94l-8 -37q49 51 147 51q27 0 52 -3l-20 -92q-27 5 -58 5q-55 0 -95.5 -16t-46.5 -46l-78 -369h-94zM146 697h99l58 -81l92 81h96l-150 -129h-97z" />
    <glyph glyph-name="Sacute" unicode="&#x15a;" horiz-adv-x="623" 
d="M642 685l-43 -89q-59 25 -173 25q-92 0 -141 -25.5t-63 -88.5q-10 -48 19.5 -72t123.5 -32q121 -11 167.5 -59.5t26.5 -145.5q-25 -113 -108.5 -162.5t-227.5 -49.5q-117 0 -202 30l44 88q71 -25 175 -25q93 0 144.5 25t65.5 89q10 51 -20 80t-124 37q-122 10 -168.5 52
t-26.5 136q25 114 109 165t226 51q111 0 196 -29zM420 747h-88l160 129h114z" />
    <glyph glyph-name="sacute" unicode="&#x15b;" horiz-adv-x="497" 
d="M485 495l-41 -80q-66 26 -142 26q-60 0 -88 -14.5t-38 -60.5q-7 -32 15 -46.5t86 -20.5q95 -8 130.5 -42t20.5 -106q-19 -91 -78 -128t-163 -37t-177 27l40 80q59 -27 152 -27q60 0 89 15.5t39 62.5q8 35 -13.5 51.5t-87.5 22.5q-92 8 -129 38.5t-22 101.5
q19 90 79 126.5t164 36.5q81 0 164 -26zM318 568h-90l149 129h107z" />
    <glyph glyph-name="Scircumflex" unicode="&#x15c;" horiz-adv-x="623" 
d="M642 685l-43 -89q-59 25 -173 25q-92 0 -141 -25.5t-63 -88.5q-10 -48 19.5 -72t123.5 -32q121 -11 167.5 -59.5t26.5 -145.5q-25 -113 -108.5 -162.5t-227.5 -49.5q-117 0 -202 30l44 88q71 -25 175 -25q93 0 144.5 25t65.5 89q10 51 -20 80t-124 37q-122 10 -168.5 52
t-26.5 136q25 114 109 165t226 51q111 0 196 -29zM452 831l-93 -84h-94l150 129h97l98 -129h-98z" />
    <glyph glyph-name="scircumflex" unicode="&#x15d;" horiz-adv-x="497" 
d="M485 495l-41 -80q-66 26 -142 26q-60 0 -88 -14.5t-38 -60.5q-7 -32 15 -46.5t86 -20.5q95 -8 130.5 -42t20.5 -106q-19 -91 -78 -128t-163 -37t-177 27l40 80q59 -27 152 -27q60 0 89 15.5t39 62.5q8 35 -13.5 51.5t-87.5 22.5q-92 8 -129 38.5t-22 101.5
q19 90 79 126.5t164 36.5q81 0 164 -26zM501 568h-100l-59 81l-91 -81h-95l150 129h97z" />
    <glyph glyph-name="Scedilla" unicode="&#x15e;" horiz-adv-x="623" 
d="M642 685l-43 -89q-59 25 -173 25q-92 0 -141 -25.5t-63 -88.5q-10 -48 19.5 -72t123.5 -32q121 -11 167.5 -59.5t26.5 -145.5q-23 -103 -94 -152.5t-192 -57.5l-7 -32q64 0 86 -16.5t12 -60.5q-10 -47 -43.5 -64.5t-105.5 -17.5q-68 0 -98 18l30 48q26 -14 76 -14
q29 0 41 6t16 24q4 20 -17.5 26t-84.5 2l47 79h-2q-117 0 -202 30l44 88q71 -25 175 -25q93 0 144.5 25t65.5 89q10 51 -20 80t-124 37q-122 10 -168.5 52t-26.5 136q25 114 109 165t226 51q111 0 196 -29z" />
    <glyph glyph-name="Scedilla" unicode="&#xf6c1;" horiz-adv-x="623" 
d="M642 685l-43 -89q-59 25 -173 25q-92 0 -141 -25.5t-63 -88.5q-10 -48 19.5 -72t123.5 -32q121 -11 167.5 -59.5t26.5 -145.5q-23 -103 -94 -152.5t-192 -57.5l-7 -32q64 0 86 -16.5t12 -60.5q-10 -47 -43.5 -64.5t-105.5 -17.5q-68 0 -98 18l30 48q26 -14 76 -14
q29 0 41 6t16 24q4 20 -17.5 26t-84.5 2l47 79h-2q-117 0 -202 30l44 88q71 -25 175 -25q93 0 144.5 25t65.5 89q10 51 -20 80t-124 37q-122 10 -168.5 52t-26.5 136q25 114 109 165t226 51q111 0 196 -29z" />
    <glyph glyph-name="scedilla" unicode="&#x15f;" horiz-adv-x="497" 
d="M485 495l-41 -80q-66 26 -142 26q-60 0 -88 -14.5t-38 -60.5q-7 -32 15 -46.5t86 -20.5q95 -8 130.5 -42t20.5 -106q-19 -88 -73.5 -125.5t-150.5 -39.5l-7 -30q64 0 86 -16.5t12 -60.5q-10 -47 -43.5 -64.5t-105.5 -17.5q-68 0 -98 18l30 48q26 -14 76 -14q29 0 41 6
t16 24q4 20 -17.5 26t-84.5 2l48 80q-92 6 -147 26l40 80q59 -27 152 -27q60 0 89 15.5t39 62.5q8 35 -13.5 51.5t-87.5 22.5q-92 8 -129 38.5t-22 101.5q19 90 79 126.5t164 36.5q81 0 164 -26z" />
    <glyph glyph-name="scedilla" unicode="&#xf6c2;" horiz-adv-x="497" 
d="M485 495l-41 -80q-66 26 -142 26q-60 0 -88 -14.5t-38 -60.5q-7 -32 15 -46.5t86 -20.5q95 -8 130.5 -42t20.5 -106q-19 -88 -73.5 -125.5t-150.5 -39.5l-7 -30q64 0 86 -16.5t12 -60.5q-10 -47 -43.5 -64.5t-105.5 -17.5q-68 0 -98 18l30 48q26 -14 76 -14q29 0 41 6
t16 24q4 20 -17.5 26t-84.5 2l48 80q-92 6 -147 26l40 80q59 -27 152 -27q60 0 89 15.5t39 62.5q8 35 -13.5 51.5t-87.5 22.5q-92 8 -129 38.5t-22 101.5q19 90 79 126.5t164 36.5q81 0 164 -26z" />
    <glyph glyph-name="Scaron" unicode="&#x160;" horiz-adv-x="623" 
d="M642 685l-43 -89q-59 25 -173 25q-92 0 -141 -25.5t-63 -88.5q-10 -48 19.5 -72t123.5 -32q121 -11 167.5 -59.5t26.5 -145.5q-25 -113 -108.5 -162.5t-227.5 -49.5q-117 0 -202 30l44 88q71 -25 175 -25q93 0 144.5 25t65.5 89q10 51 -20 80t-124 37q-122 10 -168.5 52
t-26.5 136q25 114 109 165t226 51q111 0 196 -29zM383 876l60 -84l94 84h94l-150 -129h-97l-98 129h97z" />
    <glyph glyph-name="scaron" unicode="&#x161;" horiz-adv-x="497" 
d="M485 495l-41 -80q-66 26 -142 26q-60 0 -88 -14.5t-38 -60.5q-7 -32 15 -46.5t86 -20.5q95 -8 130.5 -42t20.5 -106q-19 -91 -78 -128t-163 -37t-177 27l40 80q59 -27 152 -27q60 0 89 15.5t39 62.5q8 35 -13.5 51.5t-87.5 22.5q-92 8 -129 38.5t-22 101.5
q19 90 79 126.5t164 36.5q81 0 164 -26zM178 697h99l58 -81l92 81h96l-150 -129h-97z" />
    <glyph glyph-name="Tcommaaccent" unicode="&#x162;" horiz-adv-x="588" 
d="M296 0h-103l129 610h-239l19 87h580l-19 -87h-238zM312 -51l-140 -167h-76l107 167h109z" />
    <glyph glyph-name="Tcommaaccent" unicode="&#x21a;" horiz-adv-x="588" 
d="M296 0h-103l129 610h-239l19 87h580l-19 -87h-238zM312 -51l-140 -167h-76l107 167h109z" />
    <glyph glyph-name="tcommaaccent" unicode="&#x163;" horiz-adv-x="404" 
d="M410 423h-178l-52 -247q-12 -57 1.5 -81t62.5 -24q50 0 94 14l1 -78q-61 -21 -129 -21q-90 0 -119.5 38t-6.5 146l53 253h-87l18 84h87l21 96l103 39l-29 -135h178zM219 -51l-140 -167h-76l107 167h109z" />
    <glyph glyph-name="tcommaaccent" unicode="&#x21b;" horiz-adv-x="404" 
d="M410 423h-178l-52 -247q-12 -57 1.5 -81t62.5 -24q50 0 94 14l1 -78q-61 -21 -129 -21q-90 0 -119.5 38t-6.5 146l53 253h-87l18 84h87l21 96l103 39l-29 -135h178zM219 -51l-140 -167h-76l107 167h109z" />
    <glyph glyph-name="Tcaron" unicode="&#x164;" horiz-adv-x="588" 
d="M296 0h-103l129 610h-239l19 87h580l-19 -87h-238zM358 876l60 -84l94 84h94l-150 -129h-97l-98 129h97z" />
    <glyph glyph-name="tcaron" unicode="&#x165;" horiz-adv-x="404" 
d="M410 423h-178l-52 -247q-12 -57 1.5 -81t62.5 -24q50 0 94 14l1 -78q-61 -21 -129 -21q-90 0 -119.5 38t-6.5 146l53 253h-87l18 84h87l21 96l103 39l-29 -135h178zM401 768h92l-97 -192h-57z" />
    <glyph glyph-name="Tbar" unicode="&#x166;" horiz-adv-x="588" 
d="M159 243l17 77h85l61 287h-239l19 90h580l-19 -90h-238l-61 -287h77l-17 -77h-77l-51 -243h-103l51 243h-85z" />
    <glyph glyph-name="tbar" unicode="&#x167;" horiz-adv-x="404" 
d="M33 223l15 72h62l28 129h-87l17 83h87l21 96l103 39l-29 -135h178l-17 -83h-178l-28 -129h108l-15 -72h-108l-10 -47q-12 -56 2 -80.5t62 -24.5q50 0 94 14l1 -78q-61 -21 -128 -21q-91 0 -120.5 38t-6.5 146l11 53h-62z" />
    <glyph glyph-name="Utilde" unicode="&#x168;" horiz-adv-x="740" 
d="M653 697h102l-100 -471q-30 -140 -110 -190t-228 -50q-41 0 -72.5 3t-60.5 10t-49 19t-35.5 30.5t-22 43.5t-6 58.5t9.5 75.5l100 471h103l-98 -461q-20 -92 14.5 -125t135.5 -33q100 0 149.5 32.5t69.5 125.5zM635 873l42 -41q-52 -92 -134 -92q-29 0 -69 30.5t-62 30.5
q-31 0 -67 -55l-36 44q31 40 59 59.5t62 19.5q32 0 72 -28.5t62 -28.5q37 0 71 61z" />
    <glyph glyph-name="utilde" unicode="&#x169;" horiz-adv-x="568" 
d="M370 88l89 419h94l-102 -479q-108 -42 -230 -42q-111 0 -146.5 51t-6.5 186l60 284h94l-58 -272q-20 -100 -1.5 -131t94.5 -31q63 0 113 15zM508 695l44 -41q-54 -92 -132 -92q-29 0 -66 30t-60 30q-32 0 -68 -56l-37 45q64 81 124 81q33 0 68 -29.5t57 -29.5
q19 0 34.5 13.5t35.5 48.5z" />
    <glyph glyph-name="Umacron" unicode="&#x16a;" horiz-adv-x="740" 
d="M653 697h102l-100 -471q-30 -140 -110 -190t-228 -50q-41 0 -72.5 3t-60.5 10t-49 19t-35.5 30.5t-22 43.5t-6 58.5t9.5 75.5l100 471h103l-98 -461q-20 -92 14.5 -125t135.5 -33q100 0 149.5 32.5t69.5 125.5zM345 762l17 77h265l-17 -77h-265z" />
    <glyph glyph-name="umacron" unicode="&#x16b;" horiz-adv-x="568" 
d="M370 88l89 419h94l-102 -479q-108 -42 -230 -42q-111 0 -146.5 51t-6.5 186l60 284h94l-58 -272q-20 -100 -1.5 -131t94.5 -31q63 0 113 15zM222 581l16 74h265l-16 -74h-265z" />
    <glyph glyph-name="Ubreve" unicode="&#x16c;" horiz-adv-x="740" 
d="M653 697h102l-100 -471q-30 -140 -110 -190t-228 -50q-41 0 -72.5 3t-60.5 10t-49 19t-35.5 30.5t-22 43.5t-6 58.5t9.5 75.5l100 471h103l-98 -461q-20 -92 14.5 -125t135.5 -33q100 0 149.5 32.5t69.5 125.5zM364 871h70q-8 -37 6 -50t53 -13q38 0 58.5 13t28.5 50h66
q-29 -132 -169 -132q-142 0 -113 132z" />
    <glyph glyph-name="ubreve" unicode="&#x16d;" horiz-adv-x="568" 
d="M370 88l89 419h94l-102 -479q-108 -42 -230 -42q-111 0 -146.5 51t-6.5 186l60 284h94l-58 -272q-20 -100 -1.5 -131t94.5 -31q63 0 113 15zM240 697h70q-8 -37 6 -50t53 -13q38 0 58.5 13t28.5 50h66q-29 -132 -169 -132q-142 0 -113 132z" />
    <glyph glyph-name="Uring" unicode="&#x16e;" horiz-adv-x="740" 
d="M653 697h102l-100 -471q-30 -140 -110 -190t-228 -50q-41 0 -72.5 3t-60.5 10t-49 19t-35.5 30.5t-22 43.5t-6 58.5t9.5 75.5l100 471h103l-98 -461q-20 -92 14.5 -125t135.5 -33q100 0 149.5 32.5t69.5 125.5zM505 882q114 0 94 -96q-21 -96 -135 -96q-57 0 -80.5 23
t-12.5 73q11 51 41.5 73.5t92.5 22.5zM494 831q-30 0 -44 -11.5t-20 -35.5q-5 -24 4.5 -36t39.5 -12q55 0 65 48q5 24 -4.5 35.5t-40.5 11.5z" />
    <glyph glyph-name="uring" unicode="&#x16f;" horiz-adv-x="568" 
d="M370 88l89 419h94l-102 -479q-108 -42 -230 -42q-111 0 -146.5 51t-6.5 186l60 284h94l-58 -272q-20 -100 -1.5 -131t94.5 -31q63 0 113 15zM396 739q57 0 80.5 -23t12.5 -73q-20 -96 -134 -96t-94 96q11 51 42 73.5t93 22.5zM385 689q-30 0 -44 -11.5t-20 -35.5
q-5 -24 4.5 -36t39.5 -12q55 0 65 48q5 24 -4.5 35.5t-40.5 11.5z" />
    <glyph glyph-name="Uhungarumlaut" unicode="&#x170;" horiz-adv-x="740" 
d="M653 697h102l-100 -471q-30 -140 -110 -190t-228 -50q-41 0 -72.5 3t-60.5 10t-49 19t-35.5 30.5t-22 43.5t-6 58.5t9.5 75.5l100 471h103l-98 -461q-20 -92 14.5 -125t135.5 -33q100 0 149.5 32.5t69.5 125.5zM396 747h-70l116 129h92zM548 747h-70l115 129h93z" />
    <glyph glyph-name="uhungarumlaut" unicode="&#x171;" horiz-adv-x="568" 
d="M370 88l89 419h94l-102 -479q-108 -42 -230 -42q-111 0 -146.5 51t-6.5 186l60 284h94l-58 -272q-20 -100 -1.5 -131t94.5 -31q63 0 113 15zM278 568h-70l116 129h92zM430 568h-70l115 129h93z" />
    <glyph glyph-name="Uogonek" unicode="&#x172;" horiz-adv-x="740" 
d="M653 697h102l-100 -471q-26 -124 -92.5 -176.5t-181.5 -61.5q-36 -22 -51 -41.5t-20 -44.5q-5 -23 7 -33t49 -10q50 0 93 29l20 -56q-54 -35 -136 -35q-73 0 -96.5 21.5t-14.5 67.5q13 61 86 100h-1q-41 0 -72.5 3t-60.5 10t-49 19t-35.5 30.5t-22 43.5t-6 58.5t9.5 75.5
l100 471h103l-98 -461q-20 -92 14.5 -125t135.5 -33q100 0 149.5 32.5t69.5 125.5z" />
    <glyph glyph-name="uogonek" unicode="&#x173;" horiz-adv-x="568" 
d="M370 88l89 419h94l-102 -479q-22 -9 -63 -20q-56 -30 -78 -52.5t-28 -53.5q-5 -23 7 -33t49 -10q50 0 93 29l20 -56q-54 -35 -136 -35q-73 0 -96.5 21.5t-14.5 67.5q15 66 97 106q-42 -6 -80 -6q-111 0 -146.5 51t-6.5 186l60 284h94l-58 -272q-20 -100 -1.5 -131
t94.5 -31q63 0 113 15z" />
    <glyph glyph-name="Wcircumflex" unicode="&#x174;" horiz-adv-x="940" 
d="M541 536q-73 -178 -256 -536h-129q-22 459 -56 697h112q32 -263 40 -578q184 359 275 578h98q23 -417 19 -578q155 286 285 578h104q-164 -354 -352 -697h-130q4 178 -10 536zM599 831l-93 -84h-94l150 129h97l98 -129h-98z" />
    <glyph glyph-name="wcircumflex" unicode="&#x175;" horiz-adv-x="821" 
d="M445 386q-79 -176 -196 -386h-123q-19 299 -56 507h103q30 -174 40 -412q132 239 207 412h102q18 -143 25 -412q143 248 216 412h100q-130 -267 -280 -507h-123q0 241 -15 386zM656 568h-100l-59 81l-91 -81h-95l150 129h97z" />
    <glyph glyph-name="Ycircumflex" unicode="&#x176;" horiz-adv-x="622" 
d="M208 697q71 -121 148 -286q157 162 263 286h121q-176 -197 -358 -379l-67 -318h-102l67 318q-102 210 -204 379h132zM439 831l-93 -84h-94l150 129h97l98 -129h-98z" />
    <glyph glyph-name="ycircumflex" unicode="&#x177;" horiz-adv-x="510" 
d="M139 -24q-19 314 -70 531h101q38 -176 53 -417q144 234 231 417h98q-118 -233 -300 -517q-61 -98 -123 -182h-107q55 74 117 168zM499 568h-100l-59 81l-91 -81h-95l150 129h97z" />
    <glyph glyph-name="Ydieresis" unicode="&#x178;" horiz-adv-x="622" 
d="M208 697q71 -121 148 -286q157 162 263 286h121q-176 -197 -358 -379l-67 -318h-102l67 318q-102 210 -204 379h132zM349 855q30 0 38.5 -8.5t1.5 -38.5q-7 -33 -19 -42.5t-42 -9.5t-38.5 9.5t-1.5 42.5q7 30 19 38.5t42 8.5zM550 855q30 0 38.5 -8.5t1.5 -38.5
q-7 -33 -19 -42.5t-42 -9.5t-38.5 9.5t-1.5 42.5q7 30 19 38.5t42 8.5z" />
    <glyph glyph-name="Zacute" unicode="&#x179;" horiz-adv-x="615" 
d="M-31 0l6 30q280 285 543 580h-396l19 87h551l-6 -28q-296 -341 -544 -582h407l-18 -87h-562zM418 747h-88l160 129h114z" />
    <glyph glyph-name="zacute" unicode="&#x17a;" horiz-adv-x="496" 
d="M101 507h420l-5 -25q-83 -97 -195 -217t-176 -181h282l-17 -84h-433l5 26q232 227 374 397h-273zM347 568h-90l149 129h107z" />
    <glyph glyph-name="Zdotaccent" unicode="&#x17b;" horiz-adv-x="615" 
d="M-31 0l6 30q280 285 543 580h-396l19 87h551l-6 -28q-296 -341 -544 -582h407l-18 -87h-562zM445 857q30 0 38 -8.5t2 -38.5q-7 -33 -19.5 -43t-42.5 -10t-38 10t-1 43q6 30 18 38.5t43 8.5z" />
    <glyph glyph-name="zdotaccent" unicode="&#x17c;" horiz-adv-x="496" 
d="M101 507h420l-5 -25q-83 -97 -195 -217t-176 -181h282l-17 -84h-433l5 26q232 227 374 397h-273zM345 669q30 0 38 -8.5t2 -38.5q-7 -33 -19 -42.5t-42 -9.5t-38.5 10t-1.5 42q6 29 18.5 38t42.5 9z" />
    <glyph glyph-name="Zcaron" unicode="&#x17d;" horiz-adv-x="615" 
d="M-31 0l6 30q280 285 543 580h-396l19 87h551l-6 -28q-296 -341 -544 -582h407l-18 -87h-562zM383 876l60 -84l94 84h94l-150 -129h-97l-98 129h97z" />
    <glyph glyph-name="zcaron" unicode="&#x17e;" horiz-adv-x="496" 
d="M101 507h420l-5 -25q-83 -97 -195 -217t-176 -181h282l-17 -84h-433l5 26q232 227 374 397h-273zM177 697h99l58 -81l92 81h96l-150 -129h-97z" />
    <glyph glyph-name="florin" unicode="&#x192;" horiz-adv-x="366" 
d="M255 544l-7 -37h175l-17 -83h-175l-96 -460q-11 -51 -33.5 -85.5t-54.5 -51t-63.5 -23t-72.5 -6.5q-62 0 -116 22l38 79q39 -22 98 -22q46 0 74 23t41 79l90 445h-89l17 83h89l8 40q10 53 32.5 88.5t53.5 53.5t63 25t72 7q61 0 115 -19l-38 -77q-36 13 -94 13
q-92 0 -110 -94z" />
    <glyph glyph-name="Scommaaccent" unicode="&#x218;" horiz-adv-x="623" 
d="M642 685l-43 -89q-59 25 -173 25q-92 0 -141 -25.5t-63 -88.5q-10 -48 19.5 -72t123.5 -32q121 -11 167.5 -59.5t26.5 -145.5q-25 -113 -108.5 -162.5t-227.5 -49.5q-117 0 -202 30l44 88q71 -25 175 -25q93 0 144.5 25t65.5 89q10 51 -20 80t-124 37q-122 10 -168.5 52
t-26.5 136q25 114 109 165t226 51q111 0 196 -29zM323 -51l-140 -167h-76l107 167h109z" />
    <glyph glyph-name="scommaaccent" unicode="&#x219;" horiz-adv-x="497" 
d="M485 495l-41 -80q-66 26 -142 26q-60 0 -88 -14.5t-38 -60.5q-7 -32 15 -46.5t86 -20.5q95 -8 130.5 -42t20.5 -106q-19 -91 -78 -128t-163 -37t-177 27l40 80q59 -27 152 -27q60 0 89 15.5t39 62.5q8 35 -13.5 51.5t-87.5 22.5q-92 8 -129 38.5t-22 101.5
q19 90 79 126.5t164 36.5q81 0 164 -26zM257 -51l-140 -167h-76l107 167h109z" />
    <glyph glyph-name="circumflex" unicode="&#x2c6;" horiz-adv-x="670" 
d="M588 568h-100l-59 81l-91 -81h-95l150 129h97z" />
    <glyph glyph-name="caron" unicode="&#x2c7;" horiz-adv-x="660" 
d="M271 697h99l58 -81l92 81h96l-150 -129h-97z" />
    <glyph glyph-name="breve" unicode="&#x2d8;" horiz-adv-x="531" 
d="M194 697h70q-8 -37 6 -50t53 -13q38 0 58.5 13t28.5 50h66q-29 -132 -169 -132q-142 0 -113 132z" />
    <glyph glyph-name="dotaccent" unicode="&#x2d9;" horiz-adv-x="435" 
d="M240 669q30 0 38 -8.5t2 -38.5q-7 -33 -19 -42.5t-42 -9.5t-38.5 10t-1.5 42q6 29 18.5 38t42.5 9z" />
    <glyph glyph-name="ring" unicode="&#x2da;" horiz-adv-x="721" 
d="M467 739q57 0 80.5 -23t12.5 -73q-20 -96 -134 -96t-94 96q11 51 42 73.5t93 22.5zM456 689q-30 0 -44 -11.5t-20 -35.5q-5 -24 4.5 -36t39.5 -12q55 0 65 48q5 24 -4.5 35.5t-40.5 11.5z" />
    <glyph glyph-name="ogonek" unicode="&#x2db;" horiz-adv-x="648" 
d="M392 12h37q-61 -33 -84 -56t-29 -54q-5 -23 7 -33t49 -10q50 0 93 29l20 -56q-54 -35 -136 -35q-73 0 -96.5 21.5t-14.5 67.5q9 41 48.5 75t105.5 51z" />
    <glyph glyph-name="tilde" unicode="&#x2dc;" horiz-adv-x="722" 
d="M541 695l44 -41q-54 -92 -132 -92q-29 0 -66 30t-60 30q-32 0 -68 -56l-37 45q64 81 124 81q27 0 48 -15l39.5 -29.5t37.5 -14.5t34.5 13.5t35.5 48.5z" />
    <glyph glyph-name="hungarumlaut" unicode="&#x2dd;" horiz-adv-x="590" 
d="M309 568h-70l116 129h92zM461 568h-70l115 129h93z" />
    <glyph glyph-name="Delta" unicode="&#x394;" horiz-adv-x="644" 
d="M593 0h-649q189 355 407 697h132q39 -406 110 -697zM390 602q-141 -224 -296 -515h368q-47 247 -72 515z" />
    <glyph glyph-name="Delta" unicode="&#x2206;" horiz-adv-x="644" 
d="M593 0h-649q189 355 407 697h132q39 -406 110 -697zM390 602q-141 -224 -296 -515h368q-47 247 -72 515z" />
    <glyph glyph-name="Omega" unicode="&#x3a9;" horiz-adv-x="787" 
d="M-28 0l18 89h172q-46 35 -57 116t13 188q38 179 127.5 250t248.5 71q79 0 131 -15.5t86 -52.5t38 -98.5t-13 -154.5q-50 -231 -175 -304h172l-18 -89h-303l18 86q81 23 126.5 100t72.5 205q29 137 -4.5 185t-149.5 48q-115 0 -168.5 -48t-82.5 -185
q-29 -115 -15.5 -198.5t83.5 -106.5l-18 -86h-302z" />
    <glyph glyph-name="Omega" unicode="&#x2126;" horiz-adv-x="787" 
d="M-28 0l18 89h172q-46 35 -57 116t13 188q38 179 127.5 250t248.5 71q79 0 131 -15.5t86 -52.5t38 -98.5t-13 -154.5q-50 -231 -175 -304h172l-18 -89h-303l18 86q81 23 126.5 100t72.5 205q29 137 -4.5 185t-149.5 48q-115 0 -168.5 -48t-82.5 -185
q-29 -115 -15.5 -198.5t83.5 -106.5l-18 -86h-302z" />
    <glyph glyph-name="pi" unicode="&#x3c0;" horiz-adv-x="617" 
d="M65 418l19 89h562l-19 -89h-84l-88 -418h-94l88 418h-208l-60 -283q-26 -128 -121 -164l-39 71q50 19 66 92l60 284h-82z" />
    <glyph glyph-name="afii10023" unicode="&#x401;" horiz-adv-x="615" 
d="M193 697h491l-19 -87h-390l-42 -198h277l-18 -86h-277l-51 -239h390l-18 -87h-491zM365 855q30 0 38.5 -8.5t1.5 -38.5q-7 -33 -19 -42.5t-42 -9.5t-38.5 9.5t-1.5 42.5q7 30 19 38.5t42 8.5zM566 855q30 0 38.5 -8.5t1.5 -38.5q-7 -33 -19 -42.5t-42 -9.5t-38.5 9.5
t-1.5 42.5q7 30 19 38.5t42 8.5z" />
    <glyph glyph-name="afii10051" unicode="&#x402;" horiz-adv-x="740" 
d="M663 610h-238l-31 -147q66 38 151 38q42 0 69.5 -7t48.5 -25t28.5 -50.5t4.5 -83.5t-18 -123q-66 -308 -253 -388l-46 68q25 11 43 21.5t41.5 34t41.5 55t37 84.5t34 123q26 134 11 169.5t-84 35.5q-48 0 -86 -15t-45 -41l-76 -359h-103l129 610h-239l19 87h580z" />
    <glyph glyph-name="afii10052" unicode="&#x403;" horiz-adv-x="548" 
d="M146 0h-101l148 697h451l-19 -87h-350zM430 747h-88l160 129h114z" />
    <glyph glyph-name="afii10053" unicode="&#x404;" horiz-adv-x="613" 
d="M510 327h-322q-12 -63 -11.5 -106t10.5 -71.5t35 -43.5t57 -21t82 -6q95 0 167 24l7 -91q-99 -26 -205 -26q-85 0 -139 17.5t-88.5 60.5t-37 113.5t17.5 177.5q23 106 57 176t85 110.5t112 56.5t147 16q109 0 195 -27l-46 -90q-56 24 -157 24q-60 0 -98 -7t-72.5 -29
t-57 -63.5t-41.5 -109.5h321z" />
    <glyph glyph-name="afii10054" unicode="&#x405;" horiz-adv-x="623" 
d="M642 685l-43 -89q-59 25 -173 25q-92 0 -141 -25.5t-63 -88.5q-10 -48 19.5 -72t123.5 -32q121 -11 167.5 -59.5t26.5 -145.5q-25 -113 -108.5 -162.5t-227.5 -49.5q-117 0 -202 30l44 88q71 -25 175 -25q93 0 144.5 25t65.5 89q10 51 -20 80t-124 37q-122 10 -168.5 52
t-26.5 136q25 114 109 165t226 51q111 0 196 -29z" />
    <glyph glyph-name="afii10055" unicode="&#x406;" horiz-adv-x="290" 
d="M193 697h101l-148 -697h-101z" />
    <glyph glyph-name="afii10056" unicode="&#x407;" horiz-adv-x="290" 
d="M193 697h101l-148 -697h-101zM176 855q30 0 38.5 -8.5t1.5 -38.5q-7 -33 -19 -42.5t-42 -9.5t-38.5 9.5t-1.5 42.5q7 30 19 38.5t42 8.5zM377 855q30 0 38.5 -8.5t1.5 -38.5q-7 -33 -19 -42.5t-42 -9.5t-38.5 9.5t-1.5 42.5q7 30 19 38.5t42 8.5z" />
    <glyph glyph-name="afii10057" unicode="&#x408;" horiz-adv-x="451" 
d="M455 697l-108 -505q-44 -206 -243 -206q-76 0 -141 29l44 92q46 -24 110 -24q104 0 129 118l106 496h103z" />
    <glyph glyph-name="afii10058" unicode="&#x409;" horiz-adv-x="1045" 
d="M575 607h-225q-87 -306 -255 -607h-109q212 395 289 697h420l-58 -272h224q185 0 140 -215q-45 -210 -222 -210h-333zM829 342h-210l-54 -256h213q87 0 113 125q13 62 -2 96.5t-60 34.5z" />
    <glyph glyph-name="afii10059" unicode="&#x40a;" horiz-adv-x="1049" 
d="M218 339l-72 -339h-101l148 697h101l-59 -274h304l59 274h101l-59 -274h224q186 0 141 -214q-45 -209 -222 -209h-333l72 339h-304zM833 339h-210l-54 -253h213q88 0 113 124q27 129 -62 129z" />
    <glyph glyph-name="afii10060" unicode="&#x40b;" horiz-adv-x="747" 
d="M684 269l-57 -269h-95l54 257q11 50 11 80.5t-11 48t-30.5 23.5t-52.5 6q-48 0 -86 -15t-45 -41l-76 -359h-103l129 610h-239l19 87h580l-19 -87h-238l-31 -147q66 38 151 38q101 0 134 -48.5t5 -183.5z" />
    <glyph glyph-name="afii10061" unicode="&#x40c;" horiz-adv-x="640" 
d="M590 0h-121q-21 104 -43 168t-53.5 100.5t-66 50.5t-89.5 18l-71 -337h-101l148 697h101l-72 -337q62 44 166 136.5t208 200.5h128q-255 -253 -349 -314q37 -12 60.5 -27t52 -53.5t53 -112.5t49.5 -190zM469 747h-88l160 129h114z" />
    <glyph glyph-name="afii10062" unicode="&#x40e;" horiz-adv-x="542" 
d="M221 172q0 1 -1 8t-2 12q-14 100 -53 253.5t-77 251.5h119q73 -215 103 -414q188 265 271 414h112q-105 -173 -242 -366t-253 -331q-84 0 -127 -1q71 73 150 173zM301 871h69q-8 -37 6 -50.5t53 -13.5q21 0 34 4q42 9 53 60h66q-29 -132 -169 -132q-141 0 -112 132z" />
    <glyph glyph-name="afii10145" unicode="&#x40f;" horiz-adv-x="725" 
d="M583 0h-211l-61 -186h-70l19 186h-214l148 697h102l-130 -608h334l130 608h101z" />
    <glyph glyph-name="afii10017" unicode="&#x410;" horiz-adv-x="675" 
d="M517 0q-25 134 -34 194h-323l-104 -194h-105q189 350 406 697h165q46 -406 109 -697h-114zM431 613h-28l-196 -332h264q-25 170 -40 332z" />
    <glyph glyph-name="afii10018" unicode="&#x411;" horiz-adv-x="700" 
d="M164 86h247q82 0 108 117q12 58 -2.5 91.5t-58.5 33.5h-243zM666 697l-19 -87h-372l-42 -199h254q100 0 131 -53.5t9 -155.5q-43 -202 -219 -202h-363l148 697h473z" />
    <glyph glyph-name="afii10019" unicode="&#x412;" horiz-adv-x="700" 
d="M164 86h247q82 0 108 117q12 58 -2.5 91.5t-58.5 33.5h-243zM275 611l-42 -200h239q75 0 98 102q10 50 -2 74t-54 24h-239zM506 372q62 -3 93.5 -26.5t33.5 -62t-7 -89.5q-42 -194 -218 -194h-363l148 697h355q97 0 123.5 -43t8.5 -123q-15 -74 -51 -112.5t-123 -46.5z
" />
    <glyph glyph-name="afii10020" unicode="&#x413;" horiz-adv-x="539" 
d="M146 0h-101l148 697h451l-19 -87h-350z" />
    <glyph glyph-name="afii10021" unicode="&#x414;" horiz-adv-x="783" 
d="M754 697l-130 -608h127l-72 -243h-88l33 154h-562l-33 -154h-88l29 243h106q148 242 242 608h436zM524 89l111 521h-242q-89 -316 -203 -521h334z" />
    <glyph glyph-name="afii10022" unicode="&#x415;" horiz-adv-x="615" 
d="M193 697h491l-19 -87h-390l-42 -198h277l-18 -86h-277l-51 -239h390l-18 -87h-491z" />
    <glyph glyph-name="afii10024" unicode="&#x416;" horiz-adv-x="903" 
d="M65 0h-115q69 116 120.5 190t92.5 112.5t68.5 54t66.5 26.5q-25 25 -75 107t-112 207h121q49 -105 103 -195.5t92 -136.5l71 332h102l-71 -332q56 44 149 134.5t189 197.5h121q-235 -253 -321 -314q34 -11 54.5 -26.5t45.5 -54t45.5 -112.5t40.5 -190h-115
q-21 136 -49 208t-65 98.5t-101 31.5l-71 -338h-102l71 338q-66 -6 -114 -32.5t-106 -98t-136 -207.5z" />
    <glyph glyph-name="afii10025" unicode="&#x417;" horiz-adv-x="639" 
d="M219 327l18 85h106q81 0 117.5 25t49.5 86q12 57 -19 79t-135 22q-116 0 -195 -23l-3 87q130 26 230 26q147 0 199.5 -41.5t32.5 -132.5q-16 -75 -54.5 -117.5t-125.5 -50.5q62 -3 94.5 -27.5t35.5 -64t-6 -90.5q-24 -112 -103 -158t-227 -46q-114 0 -226 27l40 87
q70 -24 192 -24q108 0 155 27.5t61 96.5q15 71 -14.5 99t-115.5 28h-107z" />
    <glyph glyph-name="afii10026" unicode="&#x418;" horiz-adv-x="752" 
d="M755 697l-148 -697h-100l116 548q-238 -312 -443 -548h-135l148 697h100l-122 -573q244 286 461 573h123z" />
    <glyph glyph-name="afii10027" unicode="&#x419;" horiz-adv-x="752" 
d="M755 697l-148 -697h-100l116 548q-238 -312 -443 -548h-135l148 697h100l-122 -573q244 286 461 573h123zM372 871h70q-8 -37 6 -50t53 -13q38 0 58.5 13t28.5 50h66q-29 -132 -169 -132q-142 0 -113 132z" />
    <glyph glyph-name="afii10028" unicode="&#x41a;" horiz-adv-x="640" 
d="M590 0h-121q-21 104 -43 168t-53.5 100.5t-66 50.5t-89.5 18l-71 -337h-101l148 697h101l-72 -337q62 44 166 136.5t208 200.5h128q-255 -253 -349 -314q37 -12 60.5 -27t52 -53.5t53 -112.5t49.5 -190z" />
    <glyph glyph-name="afii10029" unicode="&#x41b;" horiz-adv-x="721" 
d="M605 610h-255q-86 -306 -255 -610h-109q212 395 289 697h450l-148 -697h-101z" />
    <glyph glyph-name="afii10030" unicode="&#x41c;" horiz-adv-x="892" 
d="M445 212q143 239 315 485h136l-148 -697h-100l120 568l-322 -498h-78q-59 313 -105 498l-120 -568h-98l148 697h144q68 -258 108 -485z" />
    <glyph glyph-name="afii10031" unicode="&#x41d;" horiz-adv-x="725" 
d="M215 325l-69 -325h-101l148 697h101l-60 -279h334l60 279h101l-148 -697h-101l69 325h-334z" />
    <glyph glyph-name="afii10032" unicode="&#x41e;" horiz-adv-x="764" 
d="M483 714q68 0 116 -10.5t83 -35t51 -66t16 -103t-18 -146.5q-44 -208 -137 -287.5t-265 -79.5q-68 0 -116 10.5t-82.5 36t-50.5 67.5t-15.5 104.5t18.5 148.5q22 106 56 176t84.5 111t112 57.5t147.5 16.5zM348 77q65 0 106.5 11t74.5 41.5t54 83t39 138.5
q19 89 20.5 141.5t-19 82.5t-57 39.5t-102.5 9.5t-105.5 -9.5t-73 -39.5t-54 -82.5t-39.5 -141.5q-18 -86 -19.5 -138t18 -83t56 -42t101.5 -11z" />
    <glyph glyph-name="afii10033" unicode="&#x41f;" horiz-adv-x="725" 
d="M275 610l-129 -610h-101l148 697h536l-148 -697h-101l129 610h-334z" />
    <glyph glyph-name="afii10034" unicode="&#x420;" horiz-adv-x="661" 
d="M216 330h216q102 0 131 135q31 146 -68 146h-220zM146 0h-102l148 697h337q195 0 146 -233q-20 -94 -80.5 -157.5t-158.5 -63.5h-239z" />
    <glyph glyph-name="afii10035" unicode="&#x421;" horiz-adv-x="597" 
d="M83 355q23 106 57 176t84 110.5t111 56.5t147 16q105 0 192 -26l-45 -91q-58 24 -155 24q-67 0 -107 -8.5t-75.5 -37t-57.5 -81t-41 -140.5q-15 -71 -17 -118.5t6.5 -78.5t33.5 -48t58 -23t86 -6q93 0 164 23l6 -91q-93 -26 -202 -26q-85 0 -139 17.5t-88 60.5t-36 113.5
t18 177.5z" />
    <glyph glyph-name="afii10036" unicode="&#x422;" horiz-adv-x="588" 
d="M296 0h-103l129 610h-239l19 87h580l-19 -87h-238z" />
    <glyph glyph-name="afii10037" unicode="&#x423;" horiz-adv-x="585" 
d="M310 283q191 270 271 414h112q-105 -173 -242 -366t-253 -331h-125q79 83 149 173q-11 98 -52.5 259.5t-81.5 264.5h119q71 -205 103 -414z" />
    <glyph glyph-name="afii10038" unicode="&#x424;" horiz-adv-x="770" 
d="M423 697h102l-20 -94q113 -4 171.5 -32.5t72.5 -83t-4 -137.5q-27 -129 -103 -188t-245 -66l-20 -96h-102l20 96q-111 4 -168 33t-70 84t5 137q27 129 101 187.5t240 65.5zM643 349q14 59 8 95.5t-44 54t-120 19.5l-72 -338q83 3 129 22.5t65.5 52t33.5 94.5zM163 349
q-13 -57 -7.5 -93t42 -54.5t115.5 -21.5l72 338q-61 -2 -100 -12t-63 -31.5t-36.5 -50t-22.5 -75.5z" />
    <glyph glyph-name="afii10039" unicode="&#x425;" horiz-adv-x="661" 
d="M237 697l143 -257l240 257h123l-319 -341l182 -356h-126l-137 270l-265 -270h-123l344 353l-191 344h129z" />
    <glyph glyph-name="afii10040" unicode="&#x426;" horiz-adv-x="757" 
d="M294 697l-130 -608h334l130 608h101l-130 -608h126l-71 -243h-89l33 154h-553l148 697h101z" />
    <glyph glyph-name="afii10041" unicode="&#x427;" horiz-adv-x="634" 
d="M464 360l72 337h101l-148 -697h-101l49 234q-25 -15 -75.5 -26t-103.5 -11q-41 0 -71.5 4t-59 13.5t-45 27t-28.5 44t-10 64t10 87.5l56 260h102l-53 -249q-20 -94 10.5 -125t123.5 -31q68 0 116 18t55 50z" />
    <glyph glyph-name="afii10042" unicode="&#x428;" horiz-adv-x="940" 
d="M943 697l-148 -697h-750l148 697h101l-130 -608h223l130 608h102l-130 -608h223l130 608h101z" />
    <glyph glyph-name="afii10043" unicode="&#x429;" horiz-adv-x="971" 
d="M294 697l-130 -608h223l130 608h102l-130 -608h223l130 608h101l-130 -608h126l-72 -243h-88l33 154h-767l148 697h101z" />
    <glyph glyph-name="afii10044" unicode="&#x42a;" horiz-adv-x="700" 
d="M114 697h206l-58 -271h253q101 0 131 -57t9 -159q-21 -99 -76.5 -154.5t-144.5 -55.5h-364l129 610h-104zM190 85h243q86 0 112 126q28 130 -62 130h-239z" />
    <glyph glyph-name="afii10045" unicode="&#x42b;" horiz-adv-x="902" 
d="M164 85h243q86 0 112 126q28 130 -62 130h-239zM192 697h102l-58 -271h253q101 0 131 -57t9 -159q-45 -210 -221 -210h-364zM803 697h102l-148 -697h-102z" />
    <glyph glyph-name="afii10046" unicode="&#x42c;" horiz-adv-x="674" 
d="M164 85h243q86 0 112 126q28 130 -62 130h-239zM192 697h102l-58 -271h253q101 0 131 -57t9 -159q-45 -210 -221 -210h-364z" />
    <glyph glyph-name="afii10047" unicode="&#x42d;" horiz-adv-x="613" 
d="M462 327h-322l18 85h321q6 39 6.5 69t-4 52t-15.5 37.5t-25.5 25.5t-37 15.5t-47 7.5t-58.5 2q-98 0 -167 -24l-6 90q96 27 205 27q68 0 115.5 -10t83.5 -34.5t52 -65t16 -102.5t-18 -147q-44 -206 -138.5 -287.5t-264.5 -81.5q-107 0 -195 26l45 91q62 -24 157 -24
q62 0 103 9.5t76 36t58.5 75.5t41.5 127z" />
    <glyph glyph-name="afii10048" unicode="&#x42e;" horiz-adv-x="944" 
d="M729 714q53 0 90.5 -10t64.5 -34t38.5 -64.5t9.5 -102t-20 -145.5q-44 -207 -123.5 -289.5t-213.5 -82.5q-63 0 -105 16.5t-68.5 55.5t-28 104.5t14.5 162.5h-173l-69 -325h-101l148 697h101l-60 -279h174q45 167 121 231.5t200 64.5zM593 77q88 0 133 57t81 224
q15 71 19.5 118t1 77.5t-20 46.5t-38.5 21.5t-59 5.5q-61 0 -95.5 -18.5t-63 -76.5t-52.5 -174q-27 -111 -22.5 -173.5t31 -85t85.5 -22.5z" />
    <glyph glyph-name="afii10049" unicode="&#x42f;" horiz-adv-x="691" 
d="M522 370l51 241h-219q-48 0 -80 -32t-45 -92q-12 -56 8 -86.5t70 -30.5h215zM270 310q-69 1 -108.5 27t-46 66.5t2.5 90.5q42 203 239 203h337l-148 -697h-102l60 284h-121q-36 0 -63 -9.5t-61 -38.5t-72.5 -86.5t-87.5 -149.5h-119q74 126 124 191t84.5 88t81.5 31z" />
    <glyph glyph-name="afii10065" unicode="&#x430;" 
d="M392 137l59 284q-47 18 -115 18q-80 0 -115.5 -35.5t-59.5 -149.5q-13 -63 -13 -94q0 -50 25.5 -69.5t83.5 -19.5q51 0 89.5 18t45.5 48zM386 43q-61 -56 -161 -56q-91 0 -134.5 34.5t-43.5 117.5q0 46 14 114q31 151 99 209.5t194 58.5q122 0 205 -38l-72 -338
q-5 -23 -5 -40q0 -40 30 -73l-83 -51q-15 8 -28 27t-15 35z" />
    <glyph glyph-name="afii10066" unicode="&#x431;" horiz-adv-x="569" 
d="M158 243q-20 -95 0.5 -135t82.5 -40q79 0 114 33.5t58 142.5q21 104 2 138t-88 34q-80 0 -114 -36t-55 -137zM197 435q59 65 162 65q107 0 146 -56.5t8 -200.5q-31 -145 -98 -201t-193 -56q-112 0 -150.5 66t-2.5 235q26 123 54.5 199t69 118.5t85 59t115.5 22.5
q123 11 194 39l-19 -86q-63 -26 -190 -38q-83 -7 -117 -42t-64 -124z" />
    <glyph glyph-name="afii10067" unicode="&#x432;" horiz-adv-x="565" 
d="M133 78h176q36 0 54.5 16.5t26.5 55.5q19 82 -51 82h-173zM208 429l-27 -124h169q63 0 76 65q7 33 -3 46t-46 13h-169zM396 272q121 -5 93 -131q-29 -141 -173 -141h-293l107 507h286q79 0 102 -31.5t11 -89.5q-12 -54 -39.5 -81.5t-93.5 -32.5z" />
    <glyph glyph-name="afii10068" unicode="&#x433;" horiz-adv-x="412" 
d="M206 423l-89 -423h-94l107 507h337l-18 -84h-243z" />
    <glyph glyph-name="afii10069" unicode="&#x434;" horiz-adv-x="615" 
d="M226 507h343l-90 -423h95l-68 -219h-75l29 135h-407l-29 -135h-74l23 219h87q113 220 166 423zM457 423h-161q-43 -147 -137 -339h226z" />
    <glyph glyph-name="afii10070" unicode="&#x435;" horiz-adv-x="549" 
d="M422 93l1 -79q-96 -28 -178 -28q-120 0 -167.5 60.5t-16.5 209.5q31 145 101 205t187 60q48 0 80 -7.5t55 -26.5t31.5 -52t5.5 -82.5t-19 -118.5h-345q-20 -98 7 -131.5t109 -33.5q74 0 149 24zM336 442q-70 0 -104.5 -28t-56.5 -103h250q13 79 -6.5 105t-82.5 26z" />
    <glyph glyph-name="afii10072" unicode="&#x436;" horiz-adv-x="738" 
d="M60 0h-109q57 82 100 135t74.5 80.5t49 38t43.5 20.5q-41 37 -147 233h111q94 -170 146 -241l51 241h94l-51 -241q94 83 247 241h111q-185 -192 -245 -233q21 -10 34.5 -20.5t33.5 -37.5t40.5 -81t43.5 -135h-109q-35 127 -74 178.5t-87 62.5l-51 -241h-94l51 241
q-54 -11 -114.5 -62.5t-148.5 -178.5z" />
    <glyph glyph-name="afii10073" unicode="&#x437;" horiz-adv-x="508" 
d="M143 234l16 75h76q66 0 96 14t38 51q8 35 -16.5 50t-98.5 15q-85 0 -154 -21l-3 83q82 20 175 20q123 0 168 -29.5t31 -97.5q-12 -55 -44.5 -86.5t-103.5 -37.5q135 -6 107 -134q-18 -84 -81 -117t-190 -33q-103 0 -172 20l40 85q56 -22 148 -22q82 0 115.5 18t43.5 66
q10 45 -17 63t-98 18h-76z" />
    <glyph glyph-name="afii10074" unicode="&#x438;" horiz-adv-x="574" 
d="M357 0l75 354q-126 -161 -315 -354h-95l107 507h95l-78 -368q136 137 318 368h94l-107 -507h-94z" />
    <glyph glyph-name="afii10075" unicode="&#x439;" horiz-adv-x="574" 
d="M357 0l75 354q-126 -161 -315 -354h-95l107 507h95l-78 -368q136 137 318 368h94l-107 -507h-94zM245 697h70q-8 -37 6 -50.5t53 -13.5q75 0 87 64h66q-29 -132 -169 -132q-142 0 -113 132z" />
    <glyph glyph-name="afii10076" unicode="&#x43a;" horiz-adv-x="515" 
d="M463 0h-112q-40 130 -83.5 180.5t-99.5 61.5l-51 -242h-94l107 507h94l-52 -244q78 61 269 244h115q-206 -200 -258 -231q23 -10 37.5 -21t35.5 -38.5t43.5 -81t48.5 -135.5z" />
    <glyph glyph-name="afii10077" unicode="&#x43b;" horiz-adv-x="548" 
d="M420 423h-159q-65 -216 -174 -423h-101q136 249 203 507h344l-107 -507h-95z" />
    <glyph glyph-name="afii10078" unicode="&#x43c;" horiz-adv-x="719" 
d="M349 168q101 170 215 339h139l-107 -507h-93l86 409q-133 -196 -235 -376h-78q-36 220 -73 376l-86 -409h-94l107 507h144q45 -175 75 -339z" />
    <glyph glyph-name="afii10079" unicode="&#x43d;" horiz-adv-x="571" 
d="M402 231h-236l-49 -231h-95l107 507h95l-41 -195h236l41 195h95l-107 -507h-95z" />
    <glyph glyph-name="afii10080" unicode="&#x43e;" horiz-adv-x="587" 
d="M240 -14q-124 0 -167.5 59.5t-11.5 210.5q32 150 100 207.5t192 57.5q125 0 168.5 -57.5t11.5 -207.5q-32 -151 -100 -210.5t-193 -59.5zM336 440q-80 0 -115.5 -35t-60.5 -151q-22 -114 -2 -150.5t99 -36.5t115 37.5t60 149.5q23 119 3.5 152.5t-99.5 33.5z" />
    <glyph glyph-name="afii10081" unicode="&#x43f;" horiz-adv-x="571" 
d="M206 423l-89 -423h-94l107 507h425l-107 -507h-94l89 423h-237z" />
    <glyph glyph-name="afii10082" unicode="&#x440;" 
d="M206 419l-62 -289q-6 -28 24.5 -44.5t81.5 -16.5q78 0 115.5 38t60.5 146q13 59 14 94.5t-12 56t-36 27t-64 6.5q-71 0 -122 -18zM-18 -192l143 675q99 38 221 38q126 0 169 -57.5t11 -208.5q-32 -149 -99 -209t-183 -60q-79 0 -123 36l-45 -214h-94z" />
    <glyph glyph-name="afii10083" unicode="&#x441;" horiz-adv-x="468" 
d="M400 96l7 -83q-67 -27 -155 -27q-124 0 -173.5 60.5t-17.5 209.5q31 148 105.5 206.5t198.5 58.5q85 0 145 -24l-43 -84q-48 23 -116 23q-42 0 -69 -6.5t-51.5 -25.5t-41 -55.5t-29.5 -94.5q-22 -107 5 -145t109 -38q60 0 126 25z" />
    <glyph glyph-name="afii10084" unicode="&#x442;" horiz-adv-x="483" 
d="M328 423l-89 -423h-95l89 423h-187l18 84h468l-18 -84h-186z" />
    <glyph glyph-name="afii10085" unicode="&#x443;" horiz-adv-x="510" 
d="M139 -24q-19 314 -70 531h101q38 -176 53 -417q144 234 231 417h98q-118 -233 -300 -517q-61 -98 -123 -182h-107q55 74 117 168z" />
    <glyph glyph-name="afii10086" unicode="&#x444;" horiz-adv-x="843" 
d="M431 507l42 196h95l-42 -196q61 14 103 14q115 0 154 -58t7 -208q-32 -149 -95 -209t-167 -60q-65 0 -105 36l-45 -214h-95l45 214q-56 -36 -119 -36q-104 0 -142 60t-6 209q32 150 95 208t178 58q43 0 97 -14zM237 69q45 0 76.5 16t37.5 45l62 290q-42 17 -97 17
q-68 0 -101.5 -36t-57.5 -148q-21 -109 -3 -146.5t83 -37.5zM534 69q65 0 100 39t58 145q19 76 12.5 117t-27 54t-66.5 13q-55 0 -103 -17l-63 -293q-4 -27 21 -42.5t68 -15.5z" />
    <glyph glyph-name="afii10087" unicode="&#x445;" horiz-adv-x="521" 
d="M452 0h-110q-36 86 -84 182l-181 -182h-109q88 81 254 253q-69 135 -146 254h119q46 -79 97 -177q56 59 158 177h108l-229 -250q64 -123 123 -257z" />
    <glyph glyph-name="afii10088" unicode="&#x446;" horiz-adv-x="608" 
d="M465 84h103l-69 -219h-74l29 135h-431l107 507h94l-90 -423h237l90 423h94z" />
    <glyph glyph-name="afii10089" unicode="&#x447;" horiz-adv-x="541" 
d="M76 392l24 115h94l-22 -103q-20 -95 -0.5 -126t85.5 -31q49 0 87 15.5t44 42.5l43 202h94l-107 -507h-94l42 198q-66 -38 -152 -38q-101 0 -134 48.5t-4 183.5z" />
    <glyph glyph-name="afii10090" unicode="&#x448;" horiz-adv-x="822" 
d="M807 507l-107 -507h-677l107 507h94l-90 -423h197l90 423h94l-90 -423h197l90 423h95z" />
    <glyph glyph-name="afii10091" unicode="&#x449;" horiz-adv-x="860" 
d="M676 -134l29 134h-683l107 507h95l-90 -423h197l90 423h94l-90 -423h197l90 423h94l-90 -423h103l-69 -218h-74z" />
    <glyph glyph-name="afii10092" unicode="&#x44a;" horiz-adv-x="603" 
d="M224 314h187q80 0 110 -38t14 -116q-19 -85 -64 -122.5t-126 -37.5h-281l89 423h-112l18 84h206zM174 76h172q37 0 57 19t30 64q10 43 -3.5 61t-50.5 18h-171z" />
    <glyph glyph-name="afii10093" unicode="&#x44b;" horiz-adv-x="739" 
d="M305 76q37 0 57 19t30 64q10 42 -3.5 60t-50.5 18h-171l-34 -161h172zM183 314h187q80 0 110 -38t14 -116q-19 -85 -64 -122.5t-126 -37.5h-282l107 507h95zM723 507l-107 -507h-95l107 507h95z" />
    <glyph glyph-name="afii10094" unicode="&#x44c;" horiz-adv-x="562" 
d="M305 76q37 0 57 19t30 64q10 42 -3.5 60t-50.5 18h-171l-34 -161h172zM183 314h187q80 0 110 -38t14 -116q-19 -85 -64 -122.5t-126 -37.5h-282l107 507h95z" />
    <glyph glyph-name="afii10095" unicode="&#x44d;" horiz-adv-x="483" 
d="M-20 13l42 79q49 -23 116 -23q77 0 119.5 34.5t66.5 129.5h-219l17 78h217q8 75 -21.5 101t-100.5 26q-72 0 -126 -21l-8 80q70 24 155 24q60 0 100.5 -12.5t68.5 -42.5t32 -81t-10 -129q-31 -149 -106.5 -209.5t-197.5 -60.5q-88 0 -145 27z" />
    <glyph glyph-name="afii10096" unicode="&#x44e;" horiz-adv-x="828" 
d="M489 -14q-114 0 -157 54.5t-18 190.5h-148l-49 -231h-94l107 507h94l-41 -194h149q34 116 98.5 162t171.5 46q120 0 162.5 -58t10.5 -207q-32 -151 -99.5 -210.5t-186.5 -59.5zM585 441q-75 0 -110 -36t-60 -151q-22 -114 -2.5 -151t93.5 -37t110 38t59 150
q20 78 13 119.5t-29.5 54.5t-73.5 13z" />
    <glyph glyph-name="afii10097" unicode="&#x44f;" horiz-adv-x="572" 
d="M412 274l32 153h-164q-39 0 -60 -16.5t-30 -58.5q-16 -78 61 -78h161zM207 224q-76 1 -102.5 38.5t-14.5 96.5q31 148 191 148h275l-107 -507h-95l41 197h-85q-57 0 -101.5 -37.5t-120.5 -159.5h-107q85 131 130.5 174t95.5 50z" />
    <glyph glyph-name="afii10071" unicode="&#x451;" horiz-adv-x="549" 
d="M422 93l1 -79q-96 -28 -178 -28q-120 0 -167.5 60.5t-16.5 209.5q31 145 101 205t187 60q48 0 80 -7.5t55 -26.5t31.5 -52t5.5 -82.5t-19 -118.5h-345q-20 -98 7 -131.5t109 -33.5q74 0 149 24zM336 442q-70 0 -104.5 -28t-56.5 -103h250q13 79 -6.5 105t-82.5 26z
M281 669q30 0 38 -8.5t2 -38.5q-7 -33 -19 -42.5t-42 -9.5t-38.5 9.5t-1.5 42.5q6 30 18 38.5t43 8.5zM482 669q30 0 38 -8.5t2 -38.5q-7 -33 -19 -42.5t-42 -9.5t-38.5 9.5t-1.5 42.5q6 30 18 38.5t43 8.5z" />
    <glyph glyph-name="afii10099" unicode="&#x452;" horiz-adv-x="562" 
d="M241 588l-23 -110q66 38 152 38q52 0 83.5 -11.5t50 -43.5t17.5 -89.5t-20 -147.5q-38 -178 -108 -272.5t-147 -127.5l-45 68q30 13 53.5 31t51.5 53.5t52 97.5t43 148q14 67 17 107t-7.5 61.5t-29.5 28.5t-55 7q-48 0 -85.5 -14.5t-45.5 -40.5l-78 -371h-94l124 588h-58
l15 69h58l14 65h94l-14 -65h112l-15 -69h-112z" />
    <glyph glyph-name="afii10100" unicode="&#x453;" horiz-adv-x="412" 
d="M207 424l-90 -424h-94l107 507h337l-17 -83h-243zM330 568h-90l149 129h107z" />
    <glyph glyph-name="afii10101" unicode="&#x454;" horiz-adv-x="483" 
d="M399 92l7 -79q-67 -27 -154 -27q-123 0 -172.5 61t-18.5 209q31 147 106 206t197 59q87 0 145 -24l-41 -80q-46 21 -117 21t-111.5 -26t-63.5 -101h217l-17 -78h-219q-17 -95 10.5 -129.5t104.5 -34.5q66 0 127 23z" />
    <glyph glyph-name="afii10102" unicode="&#x455;" horiz-adv-x="497" 
d="M485 495l-41 -80q-66 26 -142 26q-60 0 -88 -14.5t-38 -60.5q-7 -32 15 -46.5t86 -20.5q95 -8 130.5 -42t20.5 -106q-19 -91 -78 -128t-163 -37t-177 27l40 80q59 -27 152 -27q60 0 89 15.5t39 62.5q8 35 -13.5 51.5t-87.5 22.5q-92 8 -129 38.5t-22 101.5
q19 90 79 126.5t164 36.5q81 0 164 -26z" />
    <glyph glyph-name="afii10103" unicode="&#x456;" horiz-adv-x="239" 
d="M224 507l-107 -507h-94l107 507h94zM221 709q33 0 42.5 -9t3.5 -41q-8 -35 -21.5 -45.5t-46.5 -10.5q-34 0 -43.5 10.5t-1.5 45.5q6 32 19.5 41t47.5 9z" />
    <glyph glyph-name="afii10104" unicode="&#x457;" horiz-adv-x="239" 
d="M224 507l-107 -507h-94l107 507h94zM112 669q30 0 38 -8.5t2 -38.5q-7 -33 -19 -42.5t-42 -9.5t-38.5 9.5t-1.5 42.5q6 30 18 38.5t43 8.5zM313 669q30 0 38 -8.5t2 -38.5q-7 -33 -19 -42.5t-42 -9.5t-38.5 9.5t-1.5 42.5q6 30 18 38.5t43 8.5z" />
    <glyph glyph-name="afii10105" unicode="&#x458;" horiz-adv-x="239" 
d="M221 709q33 0 42.5 -9t3.5 -41q-7 -35 -21 -45.5t-47 -10.5t-42.5 10.5t-2.5 45.5q6 32 19.5 41t47.5 9zM224 507l-111 -526q-23 -106 -77 -145t-148 -39l17 81q49 0 75 20.5t38 80.5l112 528h94z" />
    <glyph glyph-name="afii10106" unicode="&#x459;" horiz-adv-x="870" 
d="M420 423h-159q-65 -216 -174 -423h-101q136 249 203 507h344l-41 -193h187q155 0 124 -154q-19 -85 -64.5 -122.5t-125.5 -37.5h-282zM442 76h172q37 0 57 19t30 64q10 43 -3.5 61t-50.5 18h-171z" />
    <glyph glyph-name="afii10107" unicode="&#x45a;" horiz-adv-x="893" 
d="M514 314h187q80 0 110 -38t14 -116q-19 -85 -64 -122.5t-126 -37.5h-281l50 238h-237l-50 -238h-94l107 507h94l-41 -193h237l41 193h94zM464 76h172q37 0 57.5 19t29.5 64q10 43 -3.5 61t-50.5 18h-171z" />
    <glyph glyph-name="afii10108" unicode="&#x45b;" horiz-adv-x="568" 
d="M89 588l15 69h58l14 65h94l-14 -65h112l-15 -69h-112l-22 -105q66 38 152 38q101 0 134 -48.5t4 -183.5l-61 -289h-94l58 277q20 95 1 126.5t-85 31.5q-49 0 -87.5 -16t-43.5 -42l-80 -377h-94l124 588h-58z" />
    <glyph glyph-name="afii10109" unicode="&#x45c;" horiz-adv-x="515" 
d="M463 0h-112q-40 130 -83.5 180.5t-99.5 61.5l-51 -242h-94l107 507h94l-52 -244q78 61 269 244h115q-206 -200 -258 -231q23 -10 37.5 -21t35.5 -38.5t43.5 -81t48.5 -135.5zM368 568h-89l148 129h108z" />
    <glyph glyph-name="afii10110" unicode="&#x45e;" horiz-adv-x="510" 
d="M139 -24q-19 314 -70 531h101q38 -176 53 -417q144 234 231 417h98q-118 -233 -300 -517q-61 -98 -123 -182h-107q55 74 117 168zM213 700h70q-8 -37 6 -50t53 -13q38 0 58.5 13t28.5 50h66q-29 -132 -169 -132q-142 0 -113 132z" />
    <glyph glyph-name="afii10193" unicode="&#x45f;" horiz-adv-x="571" 
d="M224 507l-90 -423h237l90 423h94l-107 -507h-153l-58 -171h-71l16 171h-159l107 507h94z" />
    <glyph glyph-name="afii10050" unicode="&#x490;" horiz-adv-x="539" 
d="M45 0l148 697h353l63 171h71l-55 -258h-350l-129 -610h-101z" />
    <glyph glyph-name="afii10098" unicode="&#x491;" horiz-adv-x="412" 
d="M449 423h-243l-89 -423h-95l107 507h248l57 154h66z" />
    <glyph glyph-name="endash" unicode="&#x2013;" horiz-adv-x="561" 
d="M50 234l19 89h459l-19 -89h-459z" />
    <glyph glyph-name="emdash" unicode="&#x2014;" horiz-adv-x="851" 
d="M50 234l19 89h749l-19 -89h-749z" />
    <glyph glyph-name="quoteleft" unicode="&#x2018;" horiz-adv-x="236" 
d="M81 505l164 259h80l-133 -259h-111z" />
    <glyph glyph-name="quoteright" unicode="&#x2019;" horiz-adv-x="235" 
d="M323 762l-164 -260h-80l133 260h111z" />
    <glyph glyph-name="quotesinglbase" unicode="&#x201a;" horiz-adv-x="230" 
d="M180 100l-164 -259h-79l132 259h111z" />
    <glyph glyph-name="quotedblleft" unicode="&#x201c;" horiz-adv-x="413" 
d="M81 505l164 259h80l-133 -259h-111zM259 505l164 259h80l-133 -259h-111z" />
    <glyph glyph-name="quotedblright" unicode="&#x201d;" horiz-adv-x="413" 
d="M501 762l-164 -259h-80l133 259h111zM323 762l-164 -259h-80l133 259h111z" />
    <glyph glyph-name="quotedblbase" unicode="&#x201e;" horiz-adv-x="413" 
d="M360 98l-164 -260h-80l133 260h111zM182 98l-164 -260h-79l132 260h111z" />
    <glyph glyph-name="dagger" unicode="&#x2020;" horiz-adv-x="433" 
d="M85 498l17 77h145l31 148h82l-31 -148h146l-17 -77h-146l-51 -240h-82l51 240h-145z" />
    <glyph glyph-name="daggerdbl" unicode="&#x2021;" horiz-adv-x="433" 
d="M85 498l17 77h145l31 148h82l-31 -148h146l-17 -77h-146l-24 -113h146l-16 -77h-146l-31 -148h-82l31 148h-145l16 77h145l24 113h-145z" />
    <glyph glyph-name="bullet" unicode="&#x2022;" horiz-adv-x="587" 
d="M254 56q-124 0 -167 59.5t-11 210.5q32 150 100 207.5t192 57.5q125 0 168.5 -57.5t11.5 -207.5q-32 -151 -100.5 -210.5t-193.5 -59.5z" />
    <glyph glyph-name="ellipsis" unicode="&#x2026;" horiz-adv-x="1176" 
d="M212 123q39 0 50 -11t3 -49q-9 -41 -25 -53t-55 -12q-38 0 -49 12.5t-2 52.5q8 37 24 48.5t54 11.5zM563 123q39 0 50 -11t3 -49q-9 -41 -25 -53t-55 -12q-38 0 -49 12.5t-2 52.5q8 37 24 48.5t54 11.5zM914 123q40 0 50.5 -11t2.5 -49q-9 -41 -24.5 -53t-55.5 -12
q-37 0 -48 12.5t-2 52.5q8 37 24 48.5t53 11.5z" />
    <glyph glyph-name="perthousand" unicode="&#x2030;" horiz-adv-x="1282" 
d="M710 697h94l-559 -697h-94zM311 714q90 0 120 -46.5t3 -172.5q-27 -127 -77 -176.5t-140 -49.5q-89 0 -118 49.5t-2 176.5q27 126 76 172.5t138 46.5zM232 339q48 0 72 32t44 123q18 94 7.5 121.5t-59.5 27.5q-47 0 -71 -29t-43 -120q-19 -92 -7.5 -123.5t57.5 -31.5z
M741 431q90 0 119.5 -46.5t2.5 -172.5q-28 -128 -77.5 -177t-138.5 -49t-118.5 49.5t-1.5 176.5q27 126 76 172.5t138 46.5zM661 56q47 0 72 32.5t44 122.5q19 95 8 122.5t-59 27.5q-47 0 -71 -29.5t-44 -120.5q-18 -91 -7 -123t57 -32zM1112 431q90 0 119.5 -46.5
t2.5 -172.5q-28 -128 -77.5 -177t-138.5 -49t-118.5 49.5t-1.5 176.5q27 126 76 172.5t138 46.5zM1032 56q47 0 72 32.5t44 122.5q19 95 8 122.5t-59 27.5q-47 0 -71 -29.5t-44 -120.5q-18 -91 -7 -123t57 -32z" />
    <glyph glyph-name="guilsinglleft" unicode="&#x2039;" horiz-adv-x="384" 
d="M415 521l-242 -213l151 -218l-67 -59l-213 274l328 274z" />
    <glyph glyph-name="guilsinglright" unicode="&#x203a;" horiz-adv-x="384" 
d="M0 90l242 213l-151 218l67 59l211 -275l-327 -273z" />
    <glyph glyph-name="fraction" unicode="&#x2044;" horiz-adv-x="560" 
d="M540 697h94l-564 -697h-94z" />
    <glyph glyph-name="fraction" unicode="&#x2215;" horiz-adv-x="560" 
d="M540 697h94l-564 -697h-94z" />
    <glyph glyph-name="franc" unicode="&#x20a3;" horiz-adv-x="564" 
d="M29 138l15 72h45l104 487h482l-19 -87h-381l-49 -233h235l-18 -85h-235l-18 -82h94l-15 -72h-94l-29 -138h-101l29 138h-45z" />
    <glyph glyph-name="Euro" unicode="&#x20ac;" horiz-adv-x="597" 
d="M83 355q23 106 57 176t84 110.5t111 56.5t147 16q105 0 192 -26l-45 -91q-58 24 -155 24q-102 0 -156 -27.5t-87 -111.5h266l-16 -73h-277q-1 -5 -3 -16l-4 -21t-4 -18l-12 -54h277l-15 -72h-266q-3 -88 39 -118t144 -30q93 0 164 23l6 -91q-93 -26 -202 -26
q-85 0 -139 17.5t-88 60.5t-36 113.5t18 177.5z" />
    <glyph glyph-name="afii61352" unicode="&#x2116;" horiz-adv-x="1135" 
d="M755 697l-148 -697h-124q-90 274 -216 575l-122 -575h-100l148 697h135q105 -239 209 -546l116 546h102zM741 155l17 79h298l-17 -79h-298zM1007 714q94 0 125 -42t8 -154q-24 -114 -73 -157.5t-144 -43.5q-94 0 -123.5 43.5t-5.5 157.5q23 112 71 154t142 42zM938 388
q54 0 77 25t39 104q17 82 5 104t-67 22q-54 0 -75.5 -23t-39.5 -103q-16 -79 -4 -104t65 -25z" />
    <glyph glyph-name="trademark" unicode="&#x2122;" horiz-adv-x="776" 
d="M217 344h-73l61 291h-110l14 62h292l-14 -62h-109zM540 697l35 -268l146 268h96l-75 -353h-68l58 277l-147 -270h-65l-30 270l-58 -277h-67l75 353h100z" />
    <glyph glyph-name="estimated" unicode="&#x212e;" horiz-adv-x="700" 
d="M675 320h-489q-12 -60 -12.5 -101.5t9 -69t33 -43t56 -21.5t81.5 -6q104 0 176 24l7 -91q-99 -26 -203 -26q-171 0 -232.5 81.5t-17.5 285.5q22 105 57 176t84.5 111t106.5 57t132 17q152 0 205.5 -85t9.5 -292q0 -3 -1 -8.5t-2 -8.5zM444 624q-50 0 -83.5 -8t-64 -31
t-52.5 -66t-39 -110h380q12 53 9.5 90.5t-10 62t-28.5 38t-47 19t-65 5.5z" />
    <glyph glyph-name="arrowleft" unicode="&#x2190;" horiz-adv-x="739" 
d="M378 54l-361 319l361 316l65 -68l-237 -205h516v-88h-516l237 -204z" />
    <glyph glyph-name="arrowup" unicode="&#x2191;" horiz-adv-x="741" 
d="M53 362l318 361l316 -360l-68 -65l-205 237v-516h-88v516l-204 -237z" />
    <glyph glyph-name="arrowright" unicode="&#x2192;" horiz-adv-x="739" 
d="M362 689l360 -316l-361 -319l-64 70l236 203h-516v88h516l-236 205z" />
    <glyph glyph-name="arrowdown" unicode="&#x2193;" horiz-adv-x="741" 
d="M687 380l-318 -361l-316 360l68 65l205 -237v516h88v-516l203 237z" />
    <glyph glyph-name="partialdiff" unicode="&#x2202;" horiz-adv-x="624" 
d="M350 421q42 0 109 -7q-33 120 -181 283h132q29 -33 51 -62.5t45.5 -67t38 -75.5t24.5 -80.5t10 -89.5t-11 -97q-30 -143 -95 -192.5t-216 -49.5q-138 0 -186 53t-21 180q25 115 90.5 160t209.5 45zM464 238q10 49 7 87q-56 10 -132 10q-95 0 -130.5 -24.5t-52.5 -101.5
q-16 -73 8 -105t112 -32q46 0 72.5 4.5t50.5 21.5t38.5 50t26.5 90z" />
    <glyph glyph-name="product" unicode="&#x220f;" horiz-adv-x="725" 
d="M275 607l-129 -607h-101l148 697h536l-148 -697h-101l129 607h-334z" />
    <glyph glyph-name="summation" unicode="&#x2211;" horiz-adv-x="616" 
d="M395 344q-137 -149 -248 -258h403l-18 -86h-576l321 344q-81 168 -158 353h562l-19 -87h-392z" />
    <glyph glyph-name="minus" unicode="&#x2212;" horiz-adv-x="602" 
d="M75 315l19 89h483l-19 -89h-483z" />
    <glyph glyph-name="radical" unicode="&#x221a;" horiz-adv-x="560" 
d="M57 507h147q38 -188 52 -414q66 107 176 306t158 298h98q-67 -131 -193 -353.5t-202 -343.5h-122q-20 254 -51 416h-82z" />
    <glyph glyph-name="infinity" unicode="&#x221e;" horiz-adv-x="773" 
d="M371 350q14 63 -8.5 90.5t-87.5 27.5q-60 0 -89.5 -26t-43.5 -92t4.5 -91.5t78.5 -25.5q65 0 98.5 27t47.5 90zM393 269q-23 -75 -73 -101t-129 -26q-95 0 -128.5 46.5t-9.5 161.5t78 162.5t149 47.5q78 0 116.5 -26.5t30.5 -101.5q13 40 33 66.5t48 39t56.5 17.5t66.5 5
q94 0 127.5 -47t9.5 -162t-78 -162t-148 -47q-79 0 -118 26t-31 101zM450 351q-14 -63 8.5 -90.5t86.5 -27.5q60 0 90 26t44 92t-5 92t-79 26q-64 0 -97.5 -27.5t-47.5 -90.5z" />
    <glyph glyph-name="integral" unicode="&#x222b;" horiz-adv-x="347" 
d="M479 702l-39 -77q-37 13 -94 13q-44 0 -71.5 -18.5t-39.5 -75.5l-120 -565q-39 -182 -219 -182q-69 0 -128 23l40 79q42 -22 99 -22q91 0 113 102l121 568q37 174 212 174q72 0 126 -19z" />
    <glyph glyph-name="approxequal" unicode="&#x2248;" horiz-adv-x="602" 
d="M504 318l53 -49q-29 -50 -72 -79t-92 -29q-36 0 -111 44t-103 44q-40 0 -79 -63l-46 53q38 47 72 70t75 23t116 -42.5t100 -42.5q46 0 87 71zM547 518l52 -49q-29 -49 -72 -78.5t-92 -29.5q-37 0 -111 43.5t-102 43.5q-41 0 -79 -62l-46 53q37 47 71 69.5t75 22.5
t116 -42t101 -42q45 0 87 71z" />
    <glyph glyph-name="notequal" unicode="&#x2260;" horiz-adv-x="602" 
d="M481 628h100l-83 -108h104l-19 -89h-152l-113 -148h234l-19 -89h-281l-84 -107h-98l83 107h-103l19 89h150l112 148h-231l19 89h279z" />
    <glyph glyph-name="lessequal" unicode="&#x2264;" horiz-adv-x="602" 
d="M15 29l19 89h483l-19 -89h-483zM584 633l-327 -209l238 -212l-61 -64l-306 254l9 41l411 253z" />
    <glyph glyph-name="greaterequal" unicode="&#x2265;" horiz-adv-x="602" 
d="M518 118l-19 -89h-483l19 89h483zM425 424l-239 209l62 63l305 -253l-9 -41l-413 -254l-34 64z" />
    <glyph glyph-name="lozenge" unicode="&#x25ca;" horiz-adv-x="552" 
d="M535 272q-153 -243 -254 -428h-165q-56 256 -85 428q95 161 267 428h165q23 -185 72 -428zM427 273q-42 245 -53 352h-28q-146 -234 -214 -352q20 -140 64 -353h28q67 123 203 353z" />
    <glyph glyph-name="caron.alt" unicode="&#xe01e;" horiz-adv-x="334" 
d="M346 722h92l-97 -192h-57z" />
    <glyph glyph-name="commaaccent" unicode="&#xf6c3;" horiz-adv-x="274" 
d="M180 -51l-140 -167h-76l107 167h109z" />
    <glyph glyph-name="Acute" unicode="&#xf6c9;" horiz-adv-x="378" 
d="M292 747h-88l160 129h114z" />
    <glyph glyph-name="Caron" unicode="&#xf6ca;" horiz-adv-x="660" 
d="M410 876l60 -84l94 84h94l-150 -129h-97l-98 129h97z" />
    <glyph glyph-name="Dieresis" unicode="&#xf6cb;" horiz-adv-x="383" 
d="M278 855q30 0 38.5 -8.5t1.5 -38.5q-7 -33 -19 -42.5t-42 -9.5t-38.5 9.5t-1.5 42.5q7 30 19 38.5t42 8.5zM479 855q30 0 38.5 -8.5t1.5 -38.5q-7 -33 -19 -42.5t-42 -9.5t-38.5 9.5t-1.5 42.5q7 30 19 38.5t42 8.5z" />
    <glyph glyph-name="Grave" unicode="&#xf6ce;" horiz-adv-x="378" 
d="M517 747h-97l-131 129h115z" />
    <glyph glyph-name="Hungarumlaut" unicode="&#xf6cf;" horiz-adv-x="625" 
d="M347 747h-70l116 129h92zM499 747h-70l115 129h93z" />
    <glyph glyph-name="Macron" unicode="&#xf6d0;" horiz-adv-x="333" 
d="M240 762l17 77h265l-17 -77h-265z" />
    <glyph glyph-name="Lslashsmall" unicode="&#xf6f9;" horiz-adv-x="416" 
d="M163 220l-28 -135h248l-18 -85h-342l29 139l-55 -41l19 88l55 41l59 280h94l-42 -198l118 90l-19 -90z" />
    <glyph glyph-name="OEsmall" unicode="&#xf6fa;" horiz-adv-x="836" 
d="M851 507l-17 -80h-299q18 -45 8 -120h205l-17 -77h-204q-24 -101 -67 -150h301l-17 -80h-394q-50 -14 -110 -14q-124 0 -167.5 59.5t-11.5 210.5q32 150 100 207.5t192 57.5q66 0 107 -14h391zM336 441q-80 0 -115.5 -35.5t-60.5 -151.5q-22 -114 -2 -151t99 -37t115 38
t60 150q23 119 3.5 153t-99.5 34z" />
    <glyph glyph-name="Scaronsmall" unicode="&#xf6fd;" horiz-adv-x="497" 
d="M485 495l-41 -80q-66 26 -142 26q-60 0 -88 -14.5t-38 -60.5q-7 -32 15 -46.5t86 -20.5q95 -8 130.5 -42t20.5 -106q-19 -91 -78 -128t-163 -37t-177 27l40 80q59 -27 152 -27q60 0 89 15.5t39 62.5q8 35 -13.5 51.5t-87.5 22.5q-92 8 -129 38.5t-22 101.5
q19 90 79 126.5t164 36.5q81 0 164 -26zM178 697h99l58 -81l92 81h96l-150 -129h-97z" />
    <glyph glyph-name="Zcaronsmall" unicode="&#xf6ff;" horiz-adv-x="496" 
d="M101 507h420l-5 -25q-83 -97 -195 -217t-176 -181h282l-17 -84h-433l5 26q232 227 374 397h-273zM177 697h99l58 -81l92 81h96l-150 -129h-97z" />
    <glyph glyph-name="exclamsmall" unicode="&#xf721;" horiz-adv-x="329" 
d="M163 507h116l-90 -317h-71zM139 122q39 0 50.5 -11t3.5 -49q-9 -41 -25 -53.5t-55 -12.5q-38 0 -49 12.5t-2 53.5q8 38 23.5 49t53.5 11z" />
    <glyph glyph-name="ampersandsmall" unicode="&#xf726;" horiz-adv-x="674" 
d="M612 0h-105q-23 50 -37 78q-137 -92 -273 -92q-114 0 -158.5 33t-27.5 117q28 129 173 136q-67 6 -82 35.5t-3 86.5q15 69 68.5 98t175.5 29q121 0 161.5 -29t25.5 -98q-24 -114 -154 -124q67 -8 124 -82q52 50 83 111h101q-42 -86 -137 -168q33 -51 65 -131zM216 64
q119 0 219 74q-62 95 -158 95q-71 0 -112 -18.5t-51 -66.5t12 -66t90 -18zM293 310q66 0 98.5 14.5t41.5 53.5q8 37 -13.5 51.5t-91.5 14.5q-71 0 -99.5 -14.5t-36.5 -51.5q-9 -40 13.5 -54t87.5 -14z" />
    <glyph glyph-name="zerooldstyle" unicode="&#xf730;" horiz-adv-x="624" 
d="M262 -14q-116 0 -160.5 60.5t-12.5 209.5q31 148 100.5 206.5t185.5 58.5q117 0 159 -58t10 -207q-32 -151 -98.5 -210.5t-183.5 -59.5zM358 441q-76 0 -110.5 -36t-59.5 -151q-22 -114 -3 -151t94 -37t107.5 37t56.5 151q24 119 7.5 153t-92.5 34z" />
    <glyph glyph-name="oneoldstyle" unicode="&#xf731;" horiz-adv-x="624" 
d="M375 0h-94l83 393l-172 -76l-14 79l307 125z" />
    <glyph glyph-name="twooldstyle" unicode="&#xf732;" horiz-adv-x="624" 
d="M162 409l-2 91q87 21 196 21q130 0 172.5 -37t24.5 -123q-16 -75 -96.5 -142.5t-253.5 -138.5h298l-17 -80h-439l15 73q156 77 235.5 125t110 80t38.5 70q10 46 -14 65.5t-103 19.5q-36 0 -89 -7.5t-76 -16.5z" />
    <glyph glyph-name="threeoldstyle" unicode="&#xf733;" horiz-adv-x="624" 
d="M178 137l18 85h88q79 0 117 24.5t51 84.5q12 57 -17.5 79t-126.5 22q-111 0 -188 -24l-3 87q120 26 223 26q143 0 192.5 -41t29.5 -132q-15 -74 -55.5 -116t-128.5 -50q63 -3 95.5 -27t35.5 -63t-6 -90q-24 -113 -98 -158.5t-222 -45.5q-102 0 -216 27l39 85
q70 -22 183 -22q106 0 148.5 27t57.5 97q15 71 -13.5 98t-113.5 27h-90z" />
    <glyph glyph-name="fouroldstyle" unicode="&#xf734;" horiz-adv-x="624" 
d="M332 0h-350l5 27q238 310 405 480h145l-90 -426h96l-17 -81h-96l-41 -192h-98zM349 81l74 349q-126 -125 -295 -349h221z" />
    <glyph glyph-name="fiveoldstyle" unicode="&#xf735;" horiz-adv-x="624" 
d="M160 507h413l-18 -87h-316l-40 -188q39 5 99 5q143 0 188.5 -49t20.5 -166q-26 -127 -99 -176t-221 -49q-95 0 -205 27l40 85q67 -22 171 -22q105 0 146 27t56 100q17 80 -8.5 108.5t-124.5 28.5q-101 0 -181 -16z" />
    <glyph glyph-name="sixoldstyle" unicode="&#xf736;" horiz-adv-x="624" 
d="M652 686l-45 -90q-60 25 -155 25q-52 0 -87.5 -8t-67.5 -30t-54.5 -64t-38.5 -108q76 14 159 14q143 0 189.5 -49.5t21.5 -166.5q-26 -126 -95 -174.5t-208 -48.5q-75 0 -120 17t-68.5 59.5t-22.5 112.5t24 178q22 106 55 176.5t81.5 111t108 57t143.5 16.5q92 0 180 -28
zM290 76q89 0 124 27t50 98q16 77 -7.5 106.5t-109.5 30.5q-102 0 -163 -14q-16 -77 -16.5 -126.5t15 -76t40.5 -36t67 -9.5z" />
    <glyph glyph-name="sevenoldstyle" unicode="&#xf737;" horiz-adv-x="624" 
d="M642 507l-7 -33q-100 -121 -233.5 -318.5t-217.5 -347.5h-115q93 163 212.5 338t207.5 274h-378l18 87h513z" />
    <glyph glyph-name="eightoldstyle" unicode="&#xf738;" horiz-adv-x="624" 
d="M276 70q84 0 122.5 28.5t52.5 98.5q16 72 -11.5 102t-108.5 30q-80 0 -120 -30t-56 -102q-15 -70 11 -98.5t110 -28.5zM349 410q71 0 108 27t50 88q12 57 -12.5 80.5t-99.5 23.5t-109.5 -23.5t-46.5 -80.5q-13 -61 13 -88t97 -27zM259 -14q-135 0 -185.5 46t-26.5 158
q18 84 63 131t139 51q-85 8 -106 50.5t-5 117.5q19 91 81.5 132.5t193.5 41.5t176 -42t26 -132q-16 -75 -54.5 -117.5t-126.5 -50.5q62 -3 94 -27.5t35 -64t-6 -90.5q-24 -112 -93.5 -158t-204.5 -46z" />
    <glyph glyph-name="nineoldstyle" unicode="&#xf739;" horiz-adv-x="624" 
d="M89 -192q218 163 302 282q-65 -7 -112 -7q-145 0 -191.5 45t-21.5 160q27 127 97 180t208 53q151 0 195 -49.5t14 -192.5q-16 -73 -51.5 -141.5t-88 -127.5t-103 -105t-116.5 -97h-132zM304 169q76 0 137 10q20 44 29 87q10 45 10.5 75t-5.5 48.5t-24.5 27.5t-40 12
t-58.5 3q-88 0 -125 -31.5t-53 -105.5q-16 -77 9 -101.5t121 -24.5z" />
    <glyph glyph-name="questionsmall" unicode="&#xf73f;" horiz-adv-x="474" 
d="M195 123q40 0 51 -11t3 -49q-9 -41 -25 -53t-56 -12q-38 0 -48.5 12t-1.5 53q8 38 23.5 49t53.5 11zM252 187h-102q85 53 127 97.5t52 96.5q7 34 -12 47.5t-75 13.5q-75 0 -129 -17l-1 81q74 17 153 17q108 0 148 -31.5t26 -100.5q-13 -61 -55 -106t-132 -98z" />
    <glyph glyph-name="Asmall" unicode="&#xf761;" horiz-adv-x="548" 
d="M381 0q-13 57 -24 137h-223q-35 -63 -71 -137h-99q101 199 292 507h155q28 -333 72 -507h-102zM324 427h-23l-128 -218h174q-12 87 -23 218z" />
    <glyph glyph-name="Bsmall" unicode="&#xf762;" horiz-adv-x="565" 
d="M133 78h176q36 0 54.5 16.5t26.5 55.5q19 82 -51 82h-173zM208 429l-27 -124h169q63 0 76 65q7 33 -3 46t-46 13h-169zM396 272q121 -5 93 -131q-29 -141 -173 -141h-293l107 507h286q79 0 102 -31.5t11 -89.5q-12 -54 -39.5 -81.5t-93.5 -32.5z" />
    <glyph glyph-name="Csmall" unicode="&#xf763;" horiz-adv-x="468" 
d="M400 96l7 -83q-67 -27 -155 -27q-124 0 -173.5 60.5t-17.5 209.5q31 148 105.5 206.5t198.5 58.5q85 0 145 -24l-43 -84q-48 23 -116 23q-42 0 -69 -6.5t-51.5 -25.5t-41 -55.5t-29.5 -94.5q-22 -107 5 -145t109 -38q60 0 126 25z" />
    <glyph glyph-name="Dsmall" unicode="&#xf764;" horiz-adv-x="570" 
d="M130 507h194q126 0 174.5 -55t18.5 -196q-30 -143 -102 -199.5t-198 -56.5h-194zM306 429h-98l-75 -351h98q81 0 122 36t63 140q10 45 10.5 76t-5.5 50.5t-22.5 30t-38 14.5t-54.5 4z" />
    <glyph glyph-name="Esmall" unicode="&#xf765;" horiz-adv-x="498" 
d="M513 507l-17 -80h-289l-25 -120h227l-17 -77h-227l-31 -150h289l-17 -80h-383l107 507h383z" />
    <glyph glyph-name="Fsmall" unicode="&#xf766;" horiz-adv-x="465" 
d="M22 0l107 507h384l-17 -81h-289l-31 -144h227l-16 -77h-227l-43 -205h-95z" />
    <glyph glyph-name="Gsmall" unicode="&#xf767;" horiz-adv-x="561" 
d="M506 287l-57 -266q-97 -35 -192 -35q-125 0 -176 60.5t-20 209.5q31 147 109.5 206t204.5 59q90 0 157 -24l-44 -82q-52 23 -128 23q-85 0 -130.5 -36.5t-69.5 -147.5q-22 -107 7 -146t111 -39q53 0 95 14l27 128h-125l17 76h214z" />
    <glyph glyph-name="Hsmall" unicode="&#xf768;" horiz-adv-x="571" 
d="M402 231h-236l-49 -231h-95l107 507h95l-41 -195h236l41 195h95l-107 -507h-95z" />
    <glyph glyph-name="Ismall" unicode="&#xf769;" horiz-adv-x="239" 
d="M224 507l-107 -507h-94l107 507h94z" />
    <glyph glyph-name="Jsmall" unicode="&#xf76a;" horiz-adv-x="386" 
d="M371 507l-72 -338q-39 -183 -219 -183q-77 0 -129 23l40 83q45 -21 100 -21q93 0 114 102l71 334h95z" />
    <glyph glyph-name="Ksmall" unicode="&#xf76b;" horiz-adv-x="515" 
d="M466 0h-115q-135 249 -178 268l-56 -268h-94l107 507h94l-51 -239q66 43 268 239h115q-195 -189 -261 -230q45 -29 171 -277z" />
    <glyph glyph-name="Lsmall" unicode="&#xf76c;" horiz-adv-x="416" 
d="M224 507l-89 -422h248l-18 -85h-342l107 507h94z" />
    <glyph glyph-name="Msmall" unicode="&#xf76d;" horiz-adv-x="719" 
d="M349 168q101 170 215 339h139l-107 -507h-93l86 409q-133 -196 -235 -376h-78q-36 220 -73 376l-86 -409h-94l107 507h144q45 -175 75 -339z" />
    <glyph glyph-name="Nsmall" unicode="&#xf76e;" horiz-adv-x="574" 
d="M389 153l75 354h94l-107 -507h-94q-90 238 -163 366l-77 -366h-95l107 507h94q109 -194 166 -354z" />
    <glyph glyph-name="Osmall" unicode="&#xf76f;" horiz-adv-x="587" 
d="M240 -14q-124 0 -167.5 59.5t-11.5 210.5q32 150 100 207.5t192 57.5q125 0 168.5 -57.5t11.5 -207.5q-32 -151 -100 -210.5t-193 -59.5zM336 440q-80 0 -115.5 -35t-60.5 -151q-22 -114 -2 -150.5t99 -36.5t115 37.5t60 149.5q23 119 3.5 152.5t-99.5 33.5z" />
    <glyph glyph-name="Psmall" unicode="&#xf770;" horiz-adv-x="554" 
d="M379 429h-171l-35 -162h171q70 0 86 79q10 45 -2.5 64t-48.5 19zM346 193h-188l-41 -193h-95l107 507h278q83 0 112 -39t12 -122q-33 -153 -185 -153z" />
    <glyph glyph-name="Qsmall" unicode="&#xf771;" horiz-adv-x="587" 
d="M235 -14q-120 0 -163 59.5t-11 210.5q32 150 100 207.5t192 57.5q125 0 168.5 -57.5t11.5 -207.5q-25 -116 -67.5 -174t-115.5 -78q63 -13 154 -186h-113q-38 81 -79.5 124.5t-76.5 43.5zM336 441q-80 0 -115.5 -35.5t-60.5 -151.5q-22 -114 -2 -151t99 -37t115 38
t60 150q23 119 3.5 153t-99.5 34z" />
    <glyph glyph-name="Rsmall" unicode="&#xf772;" horiz-adv-x="556" 
d="M404 507q157 0 126 -148q-28 -132 -172 -135q25 -7 42.5 -23.5t41 -62.5t57.5 -138h-112q-28 83 -52 126.5t-44.5 57t-50.5 13.5h-82l-41 -197h-95l107 507h275zM175 274h160q77 0 94 78q9 40 -5.5 57.5t-53.5 17.5h-163z" />
    <glyph glyph-name="Ssmall" unicode="&#xf773;" horiz-adv-x="497" 
d="M485 495l-41 -80q-66 26 -142 26q-60 0 -88 -14.5t-38 -60.5q-7 -32 15 -46.5t86 -20.5q95 -8 130.5 -42t20.5 -106q-19 -91 -78 -128t-163 -37t-177 27l40 80q59 -27 152 -27q60 0 89 15.5t39 62.5q8 35 -13.5 51.5t-87.5 22.5q-92 8 -129 38.5t-22 101.5
q19 90 79 126.5t164 36.5q81 0 164 -26z" />
    <glyph glyph-name="Tsmall" unicode="&#xf774;" horiz-adv-x="483" 
d="M328 423l-89 -423h-95l89 423h-187l18 84h468l-18 -84h-186z" />
    <glyph glyph-name="Usmall" unicode="&#xf775;" horiz-adv-x="564" 
d="M247 73q68 0 97.5 25.5t42.5 88.5l68 320h95l-66 -313q-25 -117 -81.5 -162.5t-173.5 -45.5t-154.5 45.5t-12.5 162.5l66 313h94l-68 -320q-13 -63 6 -88.5t87 -25.5z" />
    <glyph glyph-name="Vsmall" unicode="&#xf776;" horiz-adv-x="516" 
d="M227 93q147 240 231 414h99q-110 -215 -293 -507h-122q-27 328 -68 507h101q38 -188 52 -414z" />
    <glyph glyph-name="Wsmall" unicode="&#xf777;" horiz-adv-x="821" 
d="M445 386q-79 -176 -196 -386h-123q-19 299 -56 507h103q30 -174 40 -412q132 239 207 412h102q18 -143 25 -412q143 248 216 412h100q-130 -267 -280 -507h-123q0 241 -15 386z" />
    <glyph glyph-name="Xsmall" unicode="&#xf778;" horiz-adv-x="521" 
d="M452 0h-110q-36 86 -84 182l-181 -182h-109q88 81 254 253q-69 135 -146 254h119q46 -79 97 -177q56 59 158 177h108l-229 -250q64 -123 123 -257z" />
    <glyph glyph-name="Ysmall" unicode="&#xf779;" horiz-adv-x="480" 
d="M261 311q77 73 184 196h108q-126 -142 -265 -274l-49 -233h-94l49 233q-81 164 -153 274h113q44 -69 107 -196z" />
    <glyph glyph-name="Zsmall" unicode="&#xf77a;" horiz-adv-x="496" 
d="M101 507h420l-5 -25q-83 -97 -195 -217t-176 -181h282l-17 -84h-433l5 26q232 227 374 397h-273z" />
    <glyph glyph-name="exclamdownsmall" unicode="&#xf7a1;" horiz-adv-x="329" 
d="M173 0h-116l90 318h70zM195 385q-39 0 -50 11t-3 49q9 41 25 53.5t55 12.5q38 0 49 -12.5t2 -53.5q-8 -37 -24 -48.5t-54 -11.5z" />
    <glyph glyph-name="questiondownsmall" unicode="&#xf7bf;" horiz-adv-x="474" 
d="M275 396q-40 0 -51.5 11t-3.5 49q9 41 25 53t56 12q38 0 48.5 -12t1.5 -53q-8 -38 -23 -49t-53 -11zM217 332h102q-84 -52 -126 -97t-53 -97q-7 -34 12 -47.5t75 -13.5q75 0 129 17l1 -81q-74 -17 -152 -17q-108 0 -148.5 31.5t-25.5 100.5q13 61 55 106t131 98z" />
    <glyph glyph-name="Agravesmall" unicode="&#xf7e0;" horiz-adv-x="548" 
d="M381 0q-13 57 -24 137h-223q-35 -63 -71 -137h-99q101 199 292 507h155q28 -333 72 -507h-102zM324 427h-23l-128 -218h174q-12 87 -23 218zM437 568h-89l-111 129h108z" />
    <glyph glyph-name="Aacutesmall" unicode="&#xf7e1;" horiz-adv-x="548" 
d="M381 0q-13 57 -24 137h-223q-35 -63 -71 -137h-99q101 199 292 507h155q28 -333 72 -507h-102zM324 427h-23l-128 -218h174q-12 87 -23 218zM353 568h-90l149 129h107z" />
    <glyph glyph-name="Acircumflexsmall" unicode="&#xf7e2;" horiz-adv-x="548" 
d="M381 0q-13 57 -24 137h-223q-35 -63 -71 -137h-99q101 199 292 507h155q28 -333 72 -507h-102zM324 427h-23l-128 -218h174q-12 87 -23 218zM519 568h-100l-59 81l-91 -81h-95l150 129h97z" />
    <glyph glyph-name="Atildesmall" unicode="&#xf7e3;" horiz-adv-x="548" 
d="M381 0q-13 57 -24 137h-223q-35 -63 -71 -137h-99q101 199 292 507h155q28 -333 72 -507h-102zM324 427h-23l-128 -218h174q-12 87 -23 218zM496 695l44 -41q-54 -92 -132 -92q-29 0 -66 30t-60 30q-32 0 -68 -56l-37 45q64 81 124 81q33 0 68 -29.5t57 -29.5
q19 0 34.5 13.5t35.5 48.5z" />
    <glyph glyph-name="Adieresissmall" unicode="&#xf7e4;" horiz-adv-x="548" 
d="M381 0q-13 57 -24 137h-223q-35 -63 -71 -137h-99q101 199 292 507h155q28 -333 72 -507h-102zM324 427h-23l-128 -218h174q-12 87 -23 218zM265 669q30 0 38 -8.5t2 -38.5q-7 -33 -19 -42.5t-42 -9.5t-38.5 9.5t-1.5 42.5q6 30 18 38.5t43 8.5zM466 669q30 0 38 -8.5
t2 -38.5q-7 -33 -19 -42.5t-42 -9.5t-38.5 9.5t-1.5 42.5q6 30 18 38.5t43 8.5z" />
    <glyph glyph-name="Aringsmall" unicode="&#xf7e5;" horiz-adv-x="548" 
d="M381 0q-13 57 -24 137h-223q-35 -63 -71 -137h-99q101 199 292 507h155q28 -333 72 -507h-102zM324 427h-23l-128 -218h174q-12 87 -23 218zM379 739q57 0 80.5 -23t12.5 -73q-20 -96 -134 -96t-94 96q11 51 42 73.5t93 22.5zM368 689q-30 0 -44 -11.5t-20 -35.5
q-5 -24 4.5 -36t39.5 -12q55 0 65 48q5 24 -4.5 35.5t-40.5 11.5z" />
    <glyph glyph-name="AEsmall" unicode="&#xf7e6;" horiz-adv-x="784" 
d="M695 306l-17 -76h-227l-31 -150h289l-17 -80h-384l29 138h-231l-119 -138h-107q179 211 468 507h451l-17 -81h-289l-25 -120h227zM377 431l-207 -221h182l47 221h-22z" />
    <glyph glyph-name="Ccedillasmall" unicode="&#xf7e7;" horiz-adv-x="468" 
d="M400 96l7 -83q-67 -27 -155 -27l-7 -30q64 0 86 -16.5t12 -60.5q-10 -47 -43.5 -64.5t-105.5 -17.5q-68 0 -98 18l30 48q26 -14 76 -14q29 0 41 6t16 24q4 20 -17.5 26t-84.5 2l49 81q-99 9 -136.5 71t-8.5 197q31 148 105.5 206.5t198.5 58.5q85 0 145 -24l-43 -84
q-48 23 -116 23q-42 0 -69 -6.5t-51.5 -25.5t-41 -55.5t-29.5 -94.5q-22 -107 5 -145t109 -38q60 0 126 25z" />
    <glyph glyph-name="Egravesmall" unicode="&#xf7e8;" horiz-adv-x="498" 
d="M513 507l-17 -80h-289l-25 -120h227l-17 -77h-227l-31 -150h289l-17 -80h-383l107 507h383zM431 568h-89l-111 129h108z" />
    <glyph glyph-name="Eacutesmall" unicode="&#xf7e9;" horiz-adv-x="498" 
d="M513 507l-17 -80h-289l-25 -120h227l-17 -77h-227l-31 -150h289l-17 -80h-383l107 507h383zM347 568h-90l149 129h107z" />
    <glyph glyph-name="Ecircumflexsmall" unicode="&#xf7ea;" horiz-adv-x="498" 
d="M513 507l-17 -80h-289l-25 -120h227l-17 -77h-227l-31 -150h289l-17 -80h-383l107 507h383zM521 568h-100l-59 81l-91 -81h-95l150 129h97z" />
    <glyph glyph-name="Edieresissmall" unicode="&#xf7eb;" horiz-adv-x="498" 
d="M513 507l-17 -80h-289l-25 -120h227l-17 -77h-227l-31 -150h289l-17 -80h-383l107 507h383zM270 669q30 0 38 -8.5t2 -38.5q-7 -33 -19 -42.5t-42 -9.5t-38.5 9.5t-1.5 42.5q6 30 18 38.5t43 8.5zM471 669q30 0 38 -8.5t2 -38.5q-7 -33 -19 -42.5t-42 -9.5t-38.5 9.5
t-1.5 42.5q6 30 18 38.5t43 8.5z" />
    <glyph glyph-name="Igravesmall" unicode="&#xf7ec;" horiz-adv-x="239" 
d="M224 507l-107 -507h-94l107 507h94zM257 568h-89l-111 129h108z" />
    <glyph glyph-name="Iacutesmall" unicode="&#xf7ed;" horiz-adv-x="239" 
d="M224 507l-107 -507h-94l107 507h94zM207 568h-90l149 129h107z" />
    <glyph glyph-name="Icircumflexsmall" unicode="&#xf7ee;" horiz-adv-x="239" 
d="M224 507l-107 -507h-94l107 507h94zM363 568h-100l-59 81l-91 -81h-95l150 129h97z" />
    <glyph glyph-name="Idieresissmall" unicode="&#xf7ef;" horiz-adv-x="239" 
d="M224 507l-107 -507h-94l107 507h94zM112 669q30 0 38 -8.5t2 -38.5q-7 -33 -19 -42.5t-42 -9.5t-38.5 9.5t-1.5 42.5q6 30 18 38.5t43 8.5zM313 669q30 0 38 -8.5t2 -38.5q-7 -33 -19 -42.5t-42 -9.5t-38.5 9.5t-1.5 42.5q6 30 18 38.5t43 8.5z" />
    <glyph glyph-name="Ethsmall" unicode="&#xf7f0;" horiz-adv-x="570" 
d="M18 230l16 75h53l43 202h194q126 0 174.5 -55t18.5 -196q-30 -143 -102 -199.5t-198 -56.5h-194l48 230h-53zM306 429h-98l-27 -124h109l-16 -75h-109l-32 -152h98q81 0 122 36t63 140q10 45 10.5 76t-5.5 50.5t-22.5 30t-38 14.5t-54.5 4z" />
    <glyph glyph-name="Ntildesmall" unicode="&#xf7f1;" horiz-adv-x="574" 
d="M389 153l75 354h94l-107 -507h-94q-90 238 -163 366l-77 -366h-95l107 507h94q109 -194 166 -354zM515 695l44 -41q-54 -92 -132 -92q-29 0 -66 30t-60 30q-32 0 -68 -56l-37 45q64 81 124 81q27 0 48 -15l39.5 -29.5t37.5 -14.5t34.5 13.5t35.5 48.5z" />
    <glyph glyph-name="Ogravesmall" unicode="&#xf7f2;" horiz-adv-x="587" 
d="M240 -14q-124 0 -167.5 59.5t-11.5 210.5q32 150 100 207.5t192 57.5q125 0 168.5 -57.5t11.5 -207.5q-32 -151 -100 -210.5t-193 -59.5zM336 441q-80 0 -115.5 -35.5t-60.5 -151.5q-22 -114 -2 -151t99 -37t115 38t60 150q23 119 3.5 153t-99.5 34zM460 568h-89
l-111 129h108z" />
    <glyph glyph-name="Oacutesmall" unicode="&#xf7f3;" horiz-adv-x="587" 
d="M240 -14q-124 0 -167.5 59.5t-11.5 210.5q32 150 100 207.5t192 57.5q125 0 168.5 -57.5t11.5 -207.5q-32 -151 -100 -210.5t-193 -59.5zM336 441q-80 0 -115.5 -35.5t-60.5 -151.5q-22 -114 -2 -151t99 -37t115 38t60 150q23 119 3.5 153t-99.5 34zM367 568h-90l149 129
h107z" />
    <glyph glyph-name="Ocircumflexsmall" unicode="&#xf7f4;" horiz-adv-x="587" 
d="M240 -14q-124 0 -167.5 59.5t-11.5 210.5q32 150 100 207.5t192 57.5q125 0 168.5 -57.5t11.5 -207.5q-32 -151 -100 -210.5t-193 -59.5zM336 441q-80 0 -115.5 -35.5t-60.5 -151.5q-22 -114 -2 -151t99 -37t115 38t60 150q23 119 3.5 153t-99.5 34zM534 568h-100l-59 81
l-91 -81h-95l150 129h97z" />
    <glyph glyph-name="Otildesmall" unicode="&#xf7f5;" horiz-adv-x="587" 
d="M240 -14q-124 0 -167.5 59.5t-11.5 210.5q32 150 100 207.5t192 57.5q125 0 168.5 -57.5t11.5 -207.5q-32 -151 -100 -210.5t-193 -59.5zM336 441q-80 0 -115.5 -35.5t-60.5 -151.5q-22 -114 -2 -151t99 -37t115 38t60 150q23 119 3.5 153t-99.5 34zM513 695l44 -41
q-54 -92 -132 -92q-29 0 -66 30t-60 30q-32 0 -68 -56l-37 45q64 81 124 81q27 0 48 -15l39.5 -29.5t37.5 -14.5t34.5 13.5t35.5 48.5z" />
    <glyph glyph-name="Odieresissmall" unicode="&#xf7f6;" horiz-adv-x="587" 
d="M240 -14q-124 0 -167.5 59.5t-11.5 210.5q32 150 100 207.5t192 57.5q125 0 168.5 -57.5t11.5 -207.5q-32 -151 -100 -210.5t-193 -59.5zM336 441q-80 0 -115.5 -35.5t-60.5 -151.5q-22 -114 -2 -151t99 -37t115 38t60 150q23 119 3.5 153t-99.5 34zM284 669
q30 0 38 -8.5t2 -38.5q-7 -33 -19 -42.5t-42 -9.5t-38.5 9.5t-1.5 42.5q6 30 18 38.5t43 8.5zM485 669q30 0 38 -8.5t2 -38.5q-7 -33 -19 -42.5t-42 -9.5t-38.5 9.5t-1.5 42.5q6 30 18 38.5t43 8.5z" />
    <glyph glyph-name="Oslashsmall" unicode="&#xf7f8;" horiz-adv-x="587" 
d="M518 507h96l-78 -73q22 -60 -3 -178q-32 -151 -100.5 -210.5t-193.5 -59.5q-96 0 -143 34l-22 -20h-94l77 73q-23 62 4 183q32 150 99.5 207.5t191.5 57.5q100 0 144 -34zM335 441q-78 0 -113.5 -33.5t-58.5 -141.5q-16 -71 -17 -107l283 260q-25 22 -94 22zM256 66
q80 0 116.5 39.5t59.5 146.5q14 66 15 95l-282 -258q23 -23 91 -23z" />
    <glyph glyph-name="Ugravesmall" unicode="&#xf7f9;" horiz-adv-x="564" 
d="M247 73q68 0 97.5 25.5t42.5 88.5l68 320h95l-66 -313q-25 -117 -81.5 -162.5t-173.5 -45.5t-154.5 45.5t-12.5 162.5l66 313h94l-68 -320q-13 -63 6 -88.5t87 -25.5zM451 568h-89l-111 129h108z" />
    <glyph glyph-name="Uacutesmall" unicode="&#xf7fa;" horiz-adv-x="564" 
d="M247 73q68 0 97.5 25.5t42.5 88.5l68 320h95l-66 -313q-25 -117 -81.5 -162.5t-173.5 -45.5t-154.5 45.5t-12.5 162.5l66 313h94l-68 -320q-13 -63 6 -88.5t87 -25.5zM347 568h-90l149 129h107z" />
    <glyph glyph-name="Ucircumflexsmall" unicode="&#xf7fb;" horiz-adv-x="564" 
d="M247 73q68 0 97.5 25.5t42.5 88.5l68 320h95l-66 -313q-25 -117 -81.5 -162.5t-173.5 -45.5t-154.5 45.5t-12.5 162.5l66 313h94l-68 -320q-13 -63 6 -88.5t87 -25.5zM522 568h-100l-59 81l-91 -81h-95l150 129h97z" />
    <glyph glyph-name="Udieresissmall" unicode="&#xf7fc;" horiz-adv-x="564" 
d="M247 73q68 0 97.5 25.5t42.5 88.5l68 320h95l-66 -313q-25 -117 -81.5 -162.5t-173.5 -45.5t-154.5 45.5t-12.5 162.5l66 313h94l-68 -320q-13 -63 6 -88.5t87 -25.5zM275 669q30 0 38 -8.5t2 -38.5q-7 -33 -19 -42.5t-42 -9.5t-38.5 9.5t-1.5 42.5q6 30 18 38.5t43 8.5z
M476 669q30 0 38 -8.5t2 -38.5q-7 -33 -19 -42.5t-42 -9.5t-38.5 9.5t-1.5 42.5q6 30 18 38.5t43 8.5z" />
    <glyph glyph-name="Yacutesmall" unicode="&#xf7fd;" horiz-adv-x="480" 
d="M261 311q77 73 184 196h108q-126 -142 -265 -274l-49 -233h-94l49 233q-81 164 -153 274h113q44 -69 107 -196zM327 568h-90l149 129h107z" />
    <glyph glyph-name="Thornsmall" unicode="&#xf7fe;" horiz-adv-x="554" 
d="M138 101l-21 -101h-95l107 507h95l-19 -92h183q83 0 112 -39t11 -122q-16 -76 -63 -114.5t-136 -38.5h-174zM359 337h-171l-34 -162h171q35 0 55.5 18t29.5 61q10 45 -2.5 64t-48.5 19z" />
    <glyph glyph-name="Ydieresissmall" unicode="&#xf7ff;" horiz-adv-x="480" 
d="M261 311q77 73 184 196h108q-126 -142 -265 -274l-49 -233h-94l49 233q-81 164 -153 274h113q44 -69 107 -196zM237 669q30 0 38 -8.5t2 -38.5q-7 -33 -19 -42.5t-42 -9.5t-38.5 9.5t-1.5 42.5q6 30 18 38.5t43 8.5zM438 669q30 0 38 -8.5t2 -38.5q-7 -33 -19 -42.5
t-42 -9.5t-38.5 9.5t-1.5 42.5q6 30 18 38.5t43 8.5z" />
    <glyph glyph-name="Gcedilla" horiz-adv-x="689" 
d="M477 91l46 215h-167l18 85h270l-81 -379q-83 -24 -219 -26l-7 -30q64 0 86 -16.5t12 -60.5q-10 -47 -43.5 -64.5t-105.5 -17.5q-68 0 -98 18l30 48q26 -14 76 -14q29 0 41 6t16 24q4 20 -17.5 26t-84.5 2l48 80q-152 6 -204 88.5t-10 279.5q23 106 58 176t87 110.5
t114 56.5t149 16q110 0 198 -26l-44 -90q-59 24 -167 24q-68 0 -109 -9t-76.5 -37t-58 -81t-41.5 -141q-15 -71 -17.5 -119t6.5 -79t33.5 -48t58 -23.5t85.5 -6.5q59 0 118 13z" />
    <glyph glyph-name="Idot" horiz-adv-x="290" 
d="M193 697h101l-148 -697h-101zM280 857q30 0 38 -8.5t2 -38.5q-7 -33 -19.5 -43t-42.5 -10t-38 10t-1 43q6 30 18 38.5t43 8.5z" />
    <glyph glyph-name="Breve" horiz-adv-x="330" 
d="M254 871h70q-8 -37 6 -50t53 -13q38 0 58.5 13t28.5 50h66q-29 -132 -169 -132q-142 0 -113 132z" />
    <glyph glyph-name="Circumflex" horiz-adv-x="670" 
d="M472 831l-93 -84h-94l150 129h97l98 -129h-98z" />
    <glyph glyph-name="Dotaccent" horiz-adv-x="319" 
d="M283 857q30 0 38 -8.5t2 -38.5q-7 -33 -19.5 -43t-42.5 -10t-38 10t-1 43q6 30 18 38.5t43 8.5z" />
    <glyph glyph-name="gacute" 
d="M390 131l62 290q-46 18 -115 18q-80 0 -116 -35t-61 -150q-22 -110 -1.5 -146.5t99.5 -36.5q51 0 88.5 16t43.5 44zM368 25q-62 -38 -142 -38q-117 0 -157.5 58.5t-8.5 208.5q32 151 100 209t194 58q122 0 205 -38l-94 -445q-29 -136 -106 -188.5t-207 -52.5
q-38 0 -87.5 8.5t-76.5 20.5l39 81q62 -27 142 -27q86 0 133.5 31.5t65.5 113.5zM365 568h-90l149 129h107z" />
    <glyph glyph-name="ldotaccent" horiz-adv-x="245" 
d="M270 722l-125 -586q-7 -37 -3 -61.5t23 -52.5l-89 -44q-24 31 -30 64t5 90l125 590h94zM303 432q30 0 38 -8.5t2 -38.5q-7 -33 -19 -42.5t-42 -9.5t-38.5 10t-1.5 42q6 29 18.5 38t42.5 9z" />
    <glyph glyph-name="Ring" horiz-adv-x="721" 
d="M497 882q114 0 94 -96q-21 -96 -135 -96q-57 0 -80.5 23t-12.5 73q11 51 41.5 73.5t92.5 22.5zM486 831q-30 0 -44 -11.5t-20 -35.5q-5 -24 4.5 -36t39.5 -12q55 0 65 48q5 24 -4.5 35.5t-40.5 11.5z" />
    <glyph glyph-name="Tilde" horiz-adv-x="715" 
d="M663 873l42 -41q-52 -92 -134 -92q-29 0 -69 30.5t-62 30.5q-31 0 -67 -55l-36 44q31 40 59 59.5t62 19.5q32 0 72 -28.5t62 -28.5q37 0 71 61z" />
    <glyph glyph-name="Dmacron" horiz-adv-x="720" 
d="M193 697h240q68 0 116 -10t84 -34t51 -63.5t17.5 -98.5t-16.5 -140q-41 -196 -135 -273.5t-265 -77.5h-240zM577 350q15 68 16.5 113.5t-7 75t-34 45t-58.5 21t-86 5.5h-133l-111 -523h133q128 0 187.5 53.5t92.5 209.5zM319 762l17 77h265l-17 -77h-265z" />
    <glyph glyph-name="zerop" horiz-adv-x="627" 
d="M414 714q53 0 90 -10t64 -34t38 -64.5t8.5 -102t-20.5 -145.5q-44 -208 -122.5 -290t-211.5 -82q-66 0 -107.5 18t-66.5 61t-23.5 114.5t22.5 178.5q29 139 75.5 218t105.5 108.5t148 29.5zM279 77q88 0 132.5 57t80.5 224q19 89 22.5 141t-9.5 81t-38 38t-71 9
q-61 0 -95 -18.5t-62 -76.5t-52 -174q-35 -170 -15 -225.5t107 -55.5z" />
    <glyph glyph-name="onep" horiz-adv-x="368" 
d="M223 0h-101l124 588l-171 -71l-12 82l313 125z" />
    <glyph glyph-name="twop" horiz-adv-x="598" 
d="M175 595l-4 89q113 30 214 30q132 0 183.5 -45t28.5 -155q-12 -56 -32 -94.5t-70.5 -88t-129 -104.5t-216.5 -140h353l-18 -87h-489l17 81l211 144t131 95t79 72t35 54t19 61q14 66 -15 90.5t-112 24.5q-47 0 -101.5 -7.5t-83.5 -19.5z" />
    <glyph glyph-name="threep" horiz-adv-x="594" 
d="M202 327l18 85h89q77 0 116 25.5t52 85.5q12 57 -17.5 79t-126.5 22q-107 0 -188 -23l-3 87q130 26 223 26q143 0 192.5 -41t29.5 -133q-15 -74 -55.5 -117t-128.5 -51q62 -3 94.5 -27.5t35.5 -64t-6 -90.5q-24 -113 -98 -158.5t-222 -45.5q-102 0 -216 27l40 85
q69 -22 183 -22q106 0 148 27t57 97q15 71 -13.5 99t-113.5 28h-90z" />
    <glyph glyph-name="fourp" horiz-adv-x="594" 
d="M361 191h-350l6 29q82 107 197.5 244t208.5 233h145l-90 -421h96l-18 -85h-96l-40 -191h-99zM379 276l73 341q-69 -69 -155 -169.5t-139 -171.5h221z" />
    <glyph glyph-name="fivep" horiz-adv-x="608" 
d="M197 697h413l-19 -87h-315l-40 -190q50 5 99 5q142 0 188 -49.5t21 -165.5q-26 -127 -98.5 -175.5t-221.5 -48.5q-97 0 -205 27l40 85q67 -22 172 -22q104 0 145 27t56 99q17 79 -9.5 107.5t-125.5 28.5q-100 0 -180 -16z" />
    <glyph glyph-name="sixp" horiz-adv-x="628" 
d="M652 686l-45 -90q-60 25 -155 25q-52 0 -87.5 -8t-67.5 -30t-54.5 -64t-38.5 -108q76 14 159 14q143 0 189.5 -49.5t21.5 -166.5q-26 -126 -95 -174.5t-208 -48.5q-75 0 -120 17t-68.5 59.5t-22.5 112.5t24 178q22 106 55 176.5t81.5 111t108 57t143.5 16.5q92 0 180 -28
zM290 76q89 0 124 27t50 98q16 77 -7.5 106.5t-109.5 30.5q-102 0 -163 -14q-16 -77 -16.5 -126.5t15 -76t40.5 -36t67 -9.5z" />
    <glyph glyph-name="sevenp" horiz-adv-x="511" 
d="M625 697l-7 -33q-100 -120 -232 -316t-216 -348h-116q97 168 213.5 340.5t202.5 269.5h-378l19 87h514z" />
    <glyph glyph-name="eightp" horiz-adv-x="626" 
d="M277 70q84 0 123 28.5t53 98.5q16 72 -12 102t-109 30q-80 0 -119.5 -30t-55.5 -102q-15 -70 10.5 -98.5t109.5 -28.5zM350 410q71 0 108 27t50 88q12 57 -12.5 80.5t-99.5 23.5t-109.5 -23.5t-46.5 -80.5q-13 -61 13 -88t97 -27zM260 -14q-135 0 -185.5 46t-26.5 158
q18 84 63 131t139 51q-85 8 -106 50.5t-5 117.5q19 91 81.5 132.5t193.5 41.5t176 -42t26 -132q-16 -75 -54.5 -117.5t-126.5 -50.5q62 -3 94 -27.5t35 -64t-6 -90.5q-24 -112 -93.5 -158t-204.5 -46z" />
    <glyph glyph-name="ninep" horiz-adv-x="624" 
d="M126 0q217 164 303 283q-59 -8 -113 -8q-145 0 -191.5 45t-21.5 161q27 127 97 180t208 53q151 0 195 -49.5t14 -192.5q-16 -73 -51.5 -141.5t-87.5 -128t-103 -105.5t-117 -97h-132zM341 362q77 0 137 10q20 40 30 87q10 45 10.5 75t-6 48.5t-25 27.5t-40 12t-58.5 3
q-88 0 -124.5 -31.5t-52.5 -105.5q-17 -77 8 -101.5t121 -24.5z" />
    <glyph glyph-name="g.2" 
d="M565 491l-28 -131q-18 -87 -88 -136.5t-175 -49.5q-62 0 -100 15q-9 -15 -16 -39q-6 -31 20.5 -44.5t107.5 -15.5q117 -3 160 -33t29 -99q-19 -87 -92 -124t-204 -37t-202 27l40 85q63 -29 178 -29q90 0 130.5 16t48.5 54q7 34 -18 45t-120 13q-116 4 -150.5 30.5
t-21.5 86.5q11 50 45 90q-46 39 -27 132q19 89 84.5 131.5t188.5 42.5q125 0 210 -30zM442 357l15 71q-48 12 -121 12q-77 0 -110 -19t-45 -74q-11 -54 14 -73t99 -19q127 0 148 102z" />
    <glyph glyph-name="ct" horiz-adv-x="857" 
d="M537 170l53 253q-51 0 -139.5 7t-102.5 7q-83 0 -123.5 -35.5t-64.5 -147.5q-22 -107 4 -145t107 -38q65 0 122 23l7 -81q-67 -27 -151 -27q-122 0 -170.5 60.5t-17.5 209.5q31 148 105 206.5t196 58.5q19 0 107.5 -7t138.5 -7l21 96l103 39l-29 -135h178l-18 -84h-178
l-52 -247q-12 -56 2 -80.5t62 -24.5q50 0 94 14l1 -78q-61 -21 -129 -21q-90 0 -119.5 38t-6.5 146z" />
    <glyph glyph-name="arrowupleft" horiz-adv-x="709" 
d="M133 142l-30 480l478 -31l-2 -94l-312 22l365 -365l-62 -62l-365 365l23 -311z" />
    <glyph glyph-name="arrowupright" horiz-adv-x="708" 
d="M144 591l478 31l-30 -480l-95 3l23 311l-365 -365l-62 63l365 365l-312 -22z" />
    <glyph glyph-name="arrowdownleft" horiz-adv-x="709" 
d="M103 91l30 480l95 -3l-23 -311l365 365l62 -63l-365 -365l312 22l2 -94z" />
    <glyph glyph-name="arrowdownright" horiz-adv-x="708" 
d="M622 90l-478 32l2 94l312 -22l-365 365l62 62l365 -365l-23 311l95 4z" />
    <glyph glyph-name="dmacron" 
d="M387 583l16 71h99l14 68h94l-14 -68h47l-16 -71h-47l-118 -558q-98 -39 -221 -39q-126 0 -169.5 58t-11.5 209q32 149 99.5 208.5t182.5 59.5q78 0 124 -34l20 96h-99zM381 88l62 290q6 28 -25 44t-82 16q-78 0 -115 -38t-60 -145q-13 -59 -14 -94.5t12 -56t35.5 -27.5
t63.5 -7q70 0 123 18z" />
    <glyph glyph-name="Ldotaccent" horiz-adv-x="548" 
d="M193 697h101l-130 -608h345l-18 -89h-446zM377 442q30 0 38.5 -8.5t1.5 -38.5q-7 -33 -19 -43t-42 -10t-38.5 10t-1.5 43q6 30 18.5 38.5t42.5 8.5z" />
    <glyph glyph-name="st" horiz-adv-x="890" 
d="M571 170l53 253q-72 1 -188.5 9.5t-133.5 8.5q-60 0 -88 -14.5t-38 -60.5q-7 -32 15 -46.5t86 -20.5q95 -8 130.5 -42t20.5 -106q-19 -91 -78 -128t-163 -37t-177 27l40 80q59 -27 152 -27q60 0 89 15.5t39 62.5q8 35 -13.5 51.5t-87.5 22.5q-92 8 -129 38.5t-22 101.5
q19 90 79 126.5t164 36.5q18 0 138.5 -7t182.5 -7l21 96l102 39l-29 -135h178l-18 -84h-178l-52 -247q-12 -57 2 -81t63 -24t93 14l2 -78q-63 -21 -129 -21q-90 0 -119.5 38t-6.5 146z" />
    <glyph glyph-name="orn1" horiz-adv-x="579" 
d="M229 -68q-9 30 -37.5 48.5t-57.5 27t-56.5 32.5t-35 65t6.5 125q45 208 178 208q47 0 103 -30q68 30 119 30q132 0 89 -207q-16 -76 -47 -123t-67.5 -66.5t-72 -31t-70 -29.5t-52.5 -49zM313 327q-41 31 -71 31q-65 0 -93 -129q-9 -55 -6 -80.5t18 -40.5t31.5 -19.5
t34 -17t25.5 -33.5q15 21 37 32.5t42 18t40.5 18.5t37.5 42t28 80q15 69 7 98t-38 29q-32 0 -93 -29zM332 423q13 21 18 47q9 42 -7 71t-56 29h-216l16 77h579l-16 -77h-243q15 -20 9 -52q-15 -64 -84 -95z" />
    <glyph glyph-name="orn2" horiz-adv-x="579" 
d="M220 -68q-5 31 -31.5 50t-56.5 27.5t-59 32.5t-38.5 65t5.5 124q22 105 67.5 156t108.5 51q50 0 105 -30q68 30 118 30q63 0 86.5 -51.5t0.5 -156.5q-14 -65 -37.5 -109t-49.5 -64.5t-57 -35t-59 -22t-56 -24.5t-47 -43zM325 423q-28 16 -38 42t-4 53q6 32 31 52h-243
l16 77h579l-16 -77h-216q-40 0 -68.5 -29t-38.5 -71q-5 -25 -2 -47z" />
    <glyph glyph-name="orn3" horiz-adv-x="579" 
d="M381 648q4 -27 24 -44t44.5 -25t51 -22.5t45 -35.5t25.5 -64t-8 -108q-45 -207 -177 -207q-50 0 -106 30q-70 -31 -117 -31q-63 0 -87 52t-1 157q14 65 37.5 109t49.5 64t57 35t59 22t56 24.5t47 43.5zM297 253q51 -30 81 -30t50.5 30t34.5 97q10 55 6 81t-20 41
t-32.5 19.5t-34 17t-23.5 33.5q-16 -21 -38.5 -33t-42.5 -18.5t-39.5 -18.5t-36 -41.5t-27.5 -79.5q-27 -129 38 -129q33 0 84 31zM276 156q28 -15 38.5 -41t4.5 -53q-8 -32 -31 -52h243l-17 -78h-578l16 78h216q40 0 68.5 29t37.5 71q5 25 2 46z" />
    <glyph glyph-name="orn4" horiz-adv-x="579" 
d="M372 648q9 -31 37.5 -49.5t57.5 -27t56.5 -32t35 -64.5t-6.5 -125q-23 -105 -68.5 -157t-108.5 -52q-47 0 -104 31q-67 -30 -118 -30q-63 0 -87 51.5t-1 155.5q16 76 46.5 123t66.5 66.5t72 31t70 29.5t52 49zM269 156q-13 -20 -18 -46q-9 -42 7.5 -71t56.5 -29h216
l-17 -78h-578l16 78h243q-17 20 -9 52q6 28 27 53.5t56 40.5z" />
    <glyph glyph-name="orn5" horiz-adv-x="804" 
d="M27 285q34 15 58.5 47t42.5 64t44 62.5t77.5 50t128.5 19.5q104 0 148.5 -34.5t31.5 -97.5q-10 -50 -54 -111q16 -65 6 -111q-28 -133 -235 -133q-76 0 -118.5 21t-55 53t-17 65t-16.5 63t-41 42zM422 285q42 49 49 78q13 65 -116 65q-50 0 -82 -10t-47.5 -27
t-25.5 -35.5t-26.5 -38.5t-39.5 -32q19 -11 26.5 -30.5t9.5 -38t10 -36t36 -28.5t78 -11q68 0 100.5 14t39.5 44q6 33 -12 86zM519 286q22 -8 46 -8q42 0 75.5 23t42.5 63l46 216h77l-123 -580h-77l51 243q-25 -20 -56 -20q-27 0 -50 16t-32 47z" />
    <glyph glyph-name="orn6" horiz-adv-x="804" 
d="M29 295q34 11 58.5 41.5t43 63.5t45 65t78 53t127.5 21q104 0 148 -35t31 -98q-10 -49 -54 -111q17 -64 7 -111q-29 -132 -236 -132q-65 0 -106 14t-57 35.5t-25 50t-10.5 54.5t-13.5 51t-36 38zM521 294q45 62 108 62q32 0 48 -19l52 243h77l-123 -580h-77l45 216
q9 40 -15.5 62.5t-66.5 22.5q-26 0 -48 -7z" />
    <glyph glyph-name="orn7" horiz-adv-x="804" 
d="M797 286q-33 -12 -58 -42t-43.5 -63t-44.5 -65t-77.5 -53t-127.5 -21q-105 0 -149 34.5t-31 97.5q9 44 54 112q-16 65 -6 111q28 132 237 132q65 0 106 -14t56.5 -36t24 -50t10.5 -54t14 -51t35 -38zM402 286q-42 -58 -48 -87q-6 -30 21 -43.5t94 -13.5q50 0 82.5 11
t48 28.5t26 36t26.5 38t39 30.5q-18 12 -26 32t-10.5 38t-10.5 35t-35.5 27.5t-77.5 10.5q-130 0 -143 -65q-8 -33 14 -78zM306 287q-46 -63 -108 -63q-33 0 -48 20l-51 -243h-78l123 579h78l-46 -216q-9 -40 15.5 -62.5t66.5 -22.5q25 0 48 8z" />
    <glyph glyph-name="orn8" horiz-adv-x="804" 
d="M799 295q-34 -15 -58.5 -47t-42 -64t-43.5 -62.5t-77 -50t-128 -19.5q-105 0 -150 35t-31 98q10 47 53 110q-16 65 -6 112q28 133 236 133q64 0 104.5 -15t56 -38.5t24 -52.5t11 -55.5t15 -50t36.5 -33.5zM307 294q-19 8 -44 8q-42 0 -76 -23t-42 -62l-46 -216h-78
l123 579h78l-52 -243q23 20 56 20q62 0 81 -63z" />
    <glyph glyph-name="publish" horiz-adv-x="855" 
d="M812 353q-23 -107 -59.5 -178.5t-92 -113t-123.5 -58.5t-163 -17q-76 0 -128.5 10.5t-93 35.5t-57.5 67t-20 105t18 149q22 106 58.5 176t91.5 111t122.5 57.5t162.5 16.5q63 0 109.5 -7t84.5 -23.5t61.5 -43.5t35.5 -67t10 -94.5t-17 -125.5zM570 419q16 74 -38 74h-119
l-30 -144h116q31 0 47 17.5t24 52.5zM663 420q-15 -68 -54.5 -107.5t-101.5 -39.5h-140l-30 -137h-87l92 433h225q66 0 88 -40.5t8 -108.5zM511 639q-78 0 -127 -10.5t-90 -41.5t-66 -87t-45 -148q-15 -72 -16 -121.5t10.5 -83t40.5 -52t69.5 -26t101.5 -7.5q78 0 129 11.5
t91.5 44t66 88.5t44.5 146q16 74 17 124t-10.5 82.5t-42 50t-70.5 24t-103 6.5z" />
    <glyph glyph-name="zerob" horiz-adv-x="764" 
d="M463 618q-99 0 -155.5 -56t-88.5 -206q-33 -153 -0.5 -214t130.5 -61t155 60.5t90 214.5q32 150 0 206t-131 56zM362 147q-65 0 -79.5 41.5t10.5 167.5q18 86 39 129t46 56.5t70 13.5q68 0 82.5 -34.5t-10.5 -164.5q-27 -124 -59.5 -166.5t-98.5 -42.5zM483 714
q68 0 116 -10.5t83 -35t51 -66t16 -103t-18 -146.5q-44 -208 -137 -287.5t-265 -79.5q-68 0 -116 10.5t-82.5 36t-50.5 67.5t-15.5 104.5t18.5 148.5q22 106 56 176t84.5 111t112 57.5t147.5 16.5z" />
    <glyph glyph-name="oneb" horiz-adv-x="764" 
d="M329 95h74l113 534l-231 -93l10 -58l126 52zM483 714q68 0 116 -10.5t83 -35t51 -66t16 -103t-18 -146.5q-44 -208 -137 -287.5t-265 -79.5q-68 0 -116 10.5t-82.5 36t-50.5 67.5t-15.5 104.5t18.5 148.5q22 106 56 176t84.5 111t112 57.5t147.5 16.5z" />
    <glyph glyph-name="twob" horiz-adv-x="764" 
d="M483 714q68 0 116 -10.5t83 -35t51 -66t16 -103t-18 -146.5q-44 -208 -137 -287.5t-265 -79.5q-68 0 -116 10.5t-82.5 36t-50.5 67.5t-15.5 104.5t18.5 148.5q22 106 56 176t84.5 111t112 57.5t147.5 16.5zM292 598l2 -64q50 19 136 19q62 0 83.5 -18t11.5 -67
q-10 -45 -33 -75.5t-89 -80.5t-230 -160l-13 -59h360l14 64h-262q135 84 200.5 134t92.5 88.5t39 93.5q18 81 -20 114t-136 33q-80 0 -156 -22z" />
    <glyph glyph-name="threeb" horiz-adv-x="764" 
d="M341 396l-14 -63h66q63 0 84.5 -21t10.5 -73t-42 -72t-110 -20q-84 0 -136 16l-28 -61q84 -21 159 -21q109 0 163.5 34t72.5 117q13 62 -5.5 96.5t-85.5 38.5q64 5 92.5 36.5t40.5 87.5q14 67 -22.5 97t-141.5 30q-68 0 -163 -19l2 -63q57 17 138 17q72 0 94 -16.5
t13 -58.5q-10 -45 -37.5 -63.5t-85.5 -18.5h-65zM483 714q68 0 116 -10.5t83 -35t51 -66t16 -103t-18 -146.5q-44 -208 -137 -287.5t-265 -79.5q-68 0 -116 10.5t-82.5 36t-50.5 67.5t-15.5 104.5t18.5 148.5q22 106 56 176t84.5 111t112 57.5t147.5 16.5z" />
    <glyph glyph-name="fourb" horiz-adv-x="764" 
d="M164 233h259l-30 -142h72l30 142h71l13 61h-71l66 312h-106q-146 -152 -300 -353zM490 548l-54 -254h-165q110 145 219 254zM483 714q68 0 116 -10.5t83 -35t51 -66t16 -103t-18 -146.5q-44 -208 -137 -287.5t-265 -79.5q-68 0 -116 10.5t-82.5 36t-50.5 67.5
t-15.5 104.5t18.5 148.5q22 106 56 176t84.5 111t112 57.5t147.5 16.5z" />
    <glyph glyph-name="fiveb" horiz-adv-x="764" 
d="M610 603h-304l-59 -275q55 12 134 12q73 0 92 -21.5t7 -80.5q-12 -53 -42 -73t-108 -20t-126 16l-29 -61q72 -21 150 -21q109 0 163 36t73 129q18 86 -15.5 122.5t-138.5 36.5q-43 0 -74 -4l30 139h233zM483 714q68 0 116 -10.5t83 -35t51 -66t16 -103t-18 -146.5
q-44 -208 -137 -287.5t-265 -79.5q-68 0 -116 10.5t-82.5 36t-50.5 67.5t-15.5 104.5t18.5 148.5q22 106 56 176t84.5 111t112 57.5t147.5 16.5z" />
    <glyph glyph-name="sixb" horiz-adv-x="764" 
d="M600 532l32 66q-63 20 -133 20q-124 0 -189 -56.5t-98 -209.5q-31 -158 -1 -214.5t139 -56.5q103 0 153.5 36t70.5 129q18 86 -16 122.5t-139 36.5q-69 0 -120 -11q25 97 65 127t122 30q70 0 114 -19zM495 240q-12 -53 -38.5 -73t-92.5 -20q-42 0 -62 13.5t-27 54.5
t11 117q53 10 114 10q69 0 88 -22t7 -80zM483 714q68 0 116 -10.5t83 -35t51 -66t16 -103t-18 -146.5q-44 -208 -137 -287.5t-265 -79.5q-68 0 -116 10.5t-82.5 36t-50.5 67.5t-15.5 104.5t18.5 148.5q22 106 56 176t84.5 111t112 57.5t147.5 16.5z" />
    <glyph glyph-name="sevenb" horiz-adv-x="764" 
d="M253 91h77q161 280 334 515h-383l-14 -66h276q-169 -233 -290 -449zM483 714q68 0 116 -10.5t83 -35t51 -66t16 -103t-18 -146.5q-44 -208 -137 -287.5t-265 -79.5q-68 0 -116 10.5t-82.5 36t-50.5 67.5t-15.5 104.5t18.5 148.5q22 106 56 176t84.5 111t112 57.5
t147.5 16.5z" />
    <glyph glyph-name="eightb" horiz-adv-x="764" 
d="M362 143q-63 0 -82 21t-8 73q11 53 41 75.5t90 22.5t80 -22.5t9 -75.5q-11 -52 -39.5 -73t-90.5 -21zM415 394q-54 0 -72.5 20t-8.5 66q8 42 34 59t82 17q55 0 73 -17t10 -59q-10 -46 -37.5 -66t-80.5 -20zM349 81q99 0 150 34t69 117q13 62 -5 97t-85 38q64 5 93 36.5
t41 87.5q14 66 -19.5 96.5t-129.5 30.5q-97 0 -143 -30.5t-60 -96.5q-6 -33 -5.5 -59.5t22 -44t65.5 -20.5q-70 -3 -103 -38t-46 -97q-18 -83 19.5 -117t136.5 -34zM483 714q68 0 116 -10.5t83 -35t51 -66t16 -103t-18 -146.5q-44 -208 -137 -287.5t-265 -79.5
q-68 0 -116 10.5t-82.5 36t-50.5 67.5t-15.5 104.5t18.5 148.5q22 106 56 176t84.5 111t112 57.5t147.5 16.5z" />
    <glyph glyph-name="nineb" horiz-adv-x="764" 
d="M394 297q33 0 85 5q-63 -88 -226 -209h97q105 80 174.5 163t91.5 186q23 105 -9.5 141.5t-144.5 36.5q-101 0 -152.5 -39t-71.5 -133q-19 -85 15 -118t141 -33zM537 432q-6 -32 -23 -65q-51 -8 -102 -8q-70 0 -88.5 18.5t-6.5 76.5q11 55 38.5 78.5t93.5 23.5
q34 0 51.5 -3.5t32 -16.5t12.5 -37.5t-8 -66.5zM329 -14q-68 0 -116 10.5t-83 35.5t-51 67.5t-15.5 105t19.5 148.5q22 106 56 176t84.5 111t112 57.5t147.5 16.5q68 0 116 -10.5t83 -35t51 -66t16 -103t-18 -146.5q-23 -107 -57.5 -178.5t-85 -113t-112.5 -58.5t-147 -17z
" />
    <glyph glyph-name="apple" horiz-adv-x="920" 
d="M229 -14q-116 0 -158 60t-10 209q17 79 50 131.5t72.5 76t89 43t95.5 32.5t96 45t86 80q14 -42 43.5 -71.5t62.5 -43l70 -29t67 -30t53.5 -44.5t28 -73t-8.5 -117q-32 -149 -99 -209t-183 -60q-78 0 -123 35l-45 -213h-95l45 213q-62 -35 -137 -35zM564 505l-80 -375
q-6 -28 24.5 -44.5t81.5 -16.5q78 0 115.5 38t60.5 145q7 46 7.5 74.5t-12 50t-27 33t-37.5 22.5t-44 18.5t-46 22t-43 32.5zM389 130l80 375q-34 -24 -78.5 -41.5t-76.5 -28.5t-64 -30t-54.5 -56.5t-35.5 -96.5q-22 -109 -1.5 -146t98.5 -37q51 0 88.5 16.5t43.5 44.5z" />
    <glyph glyph-name="sp" horiz-adv-x="1074" 
d="M476 -192l125 591q-156 42 -299 42q-60 0 -88 -14.5t-38 -60.5q-7 -32 15 -46.5t86 -20.5q95 -8 130.5 -42t20.5 -106q-19 -91 -78 -128t-163 -37t-177 27l40 80q59 -27 152 -27q60 0 89 15.5t39 62.5q8 35 -13.5 51.5t-87.5 22.5q-92 8 -129 38.5t-22 101.5
q19 90 79 126.5t164 36.5q153 0 298 -38q99 38 221 38q126 0 169 -57.5t11 -208.5q-32 -149 -99 -209t-183 -60q-79 0 -123 36l-45 -214h-94zM700 419l-62 -289q-6 -28 24.5 -44.5t81.5 -16.5q78 0 115.5 38t60.5 146q13 59 14 94.5t-12 56t-36 27t-64 6.5q-71 0 -122 -18z
" />
    <glyph glyph-name="at.2" horiz-adv-x="938" 
d="M714 435l-64 -299q-101 -40 -222 -40q-115 0 -153 35.5t-17 133.5q9 43 25.5 73.5t36 48t47.5 28t54.5 13.5t62.5 3q62 0 135 -15q17 81 -4.5 106.5t-112.5 25.5q-87 0 -139 -10t-93 -41.5t-64.5 -85.5t-43.5 -146q-15 -71 -16 -119t12.5 -82t48 -52t83 -25.5t124.5 -7.5
q188 0 266 58.5t114 227.5q24 113 14 171h90q7 -66 -15 -171q-23 -110 -61 -181.5t-99 -113t-138 -58t-189 -16.5q-73 0 -127 7t-97.5 24t-69.5 44.5t-40 69t-12.5 96.5t17.5 128q23 107 60.5 178.5t95.5 112.5t129.5 57.5t171.5 16.5q129 0 171.5 -41t18.5 -154zM572 193
l32 155q-50 10 -110 10q-63 0 -94 -16.5t-43 -71.5q-11 -55 8 -76t84 -21q66 0 123 20z" />
    <glyph glyph-name="ampersand.2" horiz-adv-x="744" 
d="M619 327l-63 -297q-51 -20 -127.5 -32t-138.5 -12q-132 0 -190.5 47t-34.5 157q18 84 63.5 131t139.5 51q-84 8 -104 49.5t-4 116.5q19 90 85.5 133t188.5 43q76 0 149 -25l-48 -87q-47 22 -112 22q-77 0 -112.5 -23t-46.5 -78q-13 -59 12 -85t95 -26h169l20 95l105 38
l-28 -133h135l-18 -85h-135zM472 94l50 233h-172q-79 0 -118.5 -28.5t-54.5 -98.5q-14 -68 17.5 -96t122.5 -28q95 0 155 18z" />
    <glyph glyph-name="Abrevesmall" horiz-adv-x="548" 
d="M381 0q-13 57 -24 137h-223q-35 -63 -71 -137h-99q101 199 292 507h155q28 -333 72 -507h-102zM324 427h-23l-128 -218h174q-12 87 -23 218zM232 697h70q-8 -37 6 -50t53 -13q38 0 58.5 13t28.5 50h66q-29 -132 -169 -132q-142 0 -113 132z" />
    <glyph glyph-name="Amacronsmall" horiz-adv-x="548" 
d="M381 0q-13 57 -24 137h-223q-35 -63 -71 -137h-99q101 199 292 507h155q28 -333 72 -507h-102zM324 427h-23l-128 -218h174q-12 87 -23 218zM213 581l16 74h265l-16 -74h-265z" />
    <glyph glyph-name="Aogoneksmall" horiz-adv-x="548" 
d="M381 0q-13 57 -24 137h-223q-35 -63 -71 -137h-99q101 199 292 507h155q28 -333 72 -507h-42q-48 -28 -67 -48.5t-24 -49.5q-5 -23 7 -33t49 -10q50 0 93 29l20 -56q-54 -35 -136 -35q-73 0 -96.5 21.5t-14.5 67.5q17 76 116 114h-7zM324 427h-23l-128 -218h174
q-12 87 -23 218z" />
    <glyph glyph-name="bracketleftsmall" horiz-adv-x="351" 
d="M175 647h235l-18 -83h-136l-133 -626h136l-17 -82h-235z" />
    <glyph glyph-name="braceleftsmall" horiz-adv-x="338" 
d="M26 211l17 76q48 0 81.5 32t52.5 119q20 96 72 148.5t123 68.5l23 -71q-55 -13 -85.5 -47t-48.5 -120q-18 -85 -53 -123t-72 -45q33 -7 52.5 -45.5t1.5 -123.5q-10 -45 -10 -75t9.5 -48t24 -27t38.5 -16l-53 -70q-64 16 -93.5 68.5t-9.5 147.5q19 87 -1.5 119t-68.5 32z
" />
    <glyph glyph-name="Dcaronsmall" horiz-adv-x="570" 
d="M130 507h194q126 0 174.5 -55t18.5 -196q-30 -143 -102 -199.5t-198 -56.5h-194zM306 429h-98l-75 -351h98q81 0 122 36t63 140q10 45 10.5 76t-5.5 50.5t-22.5 30t-38 14.5t-54.5 4zM195 697h99l58 -81l92 81h96l-150 -129h-97z" />
    <glyph glyph-name="Dcroatsmall" horiz-adv-x="570" 
d="M18 230l16 75h53l43 202h194q126 0 174.5 -55t18.5 -196q-30 -143 -102 -199.5t-198 -56.5h-194l48 230h-53zM306 429h-98l-27 -124h109l-16 -75h-109l-32 -152h98q81 0 122 36t63 140q10 45 10.5 76t-5.5 50.5t-22.5 30t-38 14.5t-54.5 4z" />
    <glyph glyph-name="Dmacronsmall" horiz-adv-x="570" 
d="M130 507h194q126 0 174.5 -55t18.5 -196q-30 -143 -102 -199.5t-198 -56.5h-194zM306 429h-98l-75 -351h98q81 0 122 36t63 140q10 45 10.5 76t-5.5 50.5t-22.5 30t-38 14.5t-54.5 4zM204 581l16 74h265l-16 -74h-265z" />
    <glyph glyph-name="Emacronsmall" horiz-adv-x="498" 
d="M513 507l-17 -80h-289l-25 -120h227l-17 -77h-227l-31 -150h289l-17 -80h-383l107 507h383zM208 581l16 74h265l-16 -74h-265z" />
    <glyph glyph-name="Eurosmall" horiz-adv-x="474" 
d="M393 89l9 -76q-67 -27 -153 -27q-122 0 -170.5 60.5t-17.5 209.5q31 148 105 206.5t196 58.5q83 0 143 -24l-41 -77q-44 22 -114 22q-58 0 -94.5 -17.5t-60.5 -64.5h208l-13 -63h-219q-6 -19 -11 -43l-3 -18.5l-3 -18.5h219l-14 -63h-208q3 -49 32 -68.5t88 -19.5
q67 0 122 23z" />
    <glyph glyph-name="Eogoneksmall" horiz-adv-x="498" 
d="M513 507l-17 -80h-289l-25 -120h227l-17 -77h-227l-31 -150h289l-17 -80h-55q-48 -28 -67 -48.5t-24 -49.5q-5 -23 7 -33t49 -10q50 0 93 29l20 -56q-54 -35 -136 -35q-73 0 -96.5 21.5t-14.5 67.5q17 76 116 114h-275l107 507h383z" />
    <glyph glyph-name="Ecaronsmall" horiz-adv-x="498" 
d="M513 507l-17 -80h-289l-25 -120h227l-17 -77h-227l-31 -150h289l-17 -80h-383l107 507h383zM210 697h99l58 -81l92 81h96l-150 -129h-97z" />
    <glyph glyph-name="Edotaccentsmall" horiz-adv-x="498" 
d="M513 507l-17 -80h-289l-25 -120h227l-17 -77h-227l-31 -150h289l-17 -80h-383l107 507h383zM371 669q30 0 38 -8.5t2 -38.5q-7 -33 -19 -42.5t-42 -9.5t-38.5 10t-1.5 42q6 29 18.5 38t42.5 9z" />
    <glyph glyph-name="Ebrevesmall" horiz-adv-x="498" 
d="M513 507l-17 -80h-289l-25 -120h227l-17 -77h-227l-31 -150h289l-17 -80h-383l107 507h383zM232 697h70q-8 -37 6 -50t53 -13q38 0 58.5 13t28.5 50h66q-29 -132 -169 -132q-142 0 -113 132z" />
    <glyph glyph-name="Gacutesmall" horiz-adv-x="561" 
d="M506 287l-57 -266q-97 -35 -192 -35q-125 0 -176 60.5t-20 209.5q31 147 109.5 206t204.5 59q90 0 157 -24l-44 -82q-52 23 -128 23q-85 0 -130.5 -36.5t-69.5 -147.5q-22 -107 7 -146t111 -39q53 0 95 14l27 128h-125l17 76h214zM369 568h-90l149 129h107z" />
    <glyph glyph-name="Gbrevesmall" horiz-adv-x="561" 
d="M506 287l-57 -266q-97 -35 -192 -35q-125 0 -176 60.5t-20 209.5q31 147 109.5 206t204.5 59q90 0 157 -24l-44 -82q-52 23 -128 23q-85 0 -130.5 -36.5t-69.5 -147.5q-22 -107 7 -146t111 -39q53 0 95 14l27 128h-125l17 76h214zM264 697h70q-8 -37 6 -50t53 -13
q38 0 58.5 13t28.5 50h66q-29 -132 -169 -132q-142 0 -113 132z" />
    <glyph glyph-name="Gcircumflexsmall" horiz-adv-x="561" 
d="M506 287l-57 -266q-97 -35 -192 -35q-125 0 -176 60.5t-20 209.5q31 147 109.5 206t204.5 59q90 0 157 -24l-44 -82q-52 23 -128 23q-85 0 -130.5 -36.5t-69.5 -147.5q-22 -107 7 -146t111 -39q53 0 95 14l27 128h-125l17 76h214zM551 568h-100l-59 81l-91 -81h-95
l150 129h97z" />
    <glyph glyph-name="Gcommaaccentsmall" horiz-adv-x="561" 
d="M506 287l-57 -266q-97 -35 -192 -35q-125 0 -176 60.5t-20 209.5q31 147 109.5 206t204.5 59q90 0 157 -24l-44 -82q-52 23 -128 23q-85 0 -130.5 -36.5t-69.5 -147.5q-22 -107 7 -146t111 -39q53 0 95 14l27 128h-125l17 76h214zM307 -51l-140 -167h-76l107 167h109z
" />
    <glyph glyph-name="Gdotaccentsmall" horiz-adv-x="561" 
d="M506 287l-57 -266q-97 -35 -192 -35q-125 0 -176 60.5t-20 209.5q31 147 109.5 206t204.5 59q90 0 157 -24l-44 -82q-52 23 -128 23q-85 0 -130.5 -36.5t-69.5 -147.5q-22 -107 7 -146t111 -39q53 0 95 14l27 128h-125l17 76h214zM396 669q30 0 38 -8.5t2 -38.5
q-7 -33 -19 -42.5t-42 -9.5t-38.5 10t-1.5 42q6 29 18.5 38t42.5 9z" />
    <glyph glyph-name="Germandblssmall" horiz-adv-x="993" 
d="M981 495l-41 -80q-66 26 -142 26q-60 0 -88 -14.5t-38 -60.5q-7 -32 15 -46.5t86 -20.5q95 -8 130.5 -42t20.5 -106q-19 -91 -78 -128t-163 -37t-177 27l40 80q59 -27 152 -27q60 0 89 15.5t39 62.5q8 35 -13.5 51.5t-87.5 22.5q-92 8 -129 38.5t-22 101.5
q19 90 79 126.5t164 36.5q81 0 164 -26zM485 495l-41 -80q-66 26 -142 26q-60 0 -88 -14.5t-38 -60.5q-7 -32 15 -46.5t86 -20.5q95 -8 130.5 -42t20.5 -106q-19 -91 -78 -128t-163 -37t-177 27l40 80q59 -27 152 -27q60 0 89 15.5t39 62.5q8 35 -13.5 51.5t-87.5 22.5
q-92 8 -129 38.5t-22 101.5q19 90 79 126.5t164 36.5q81 0 164 -26z" />
    <glyph glyph-name="Hbarsmall" horiz-adv-x="571" 
d="M42 385l15 68h62l11 54h94l-11 -54h237l11 54h94l-11 -54h62l-15 -68h-62l-81 -385h-94l49 231h-237l-49 -231h-94l81 385h-62zM183 313h237l15 72h-237z" />
    <glyph glyph-name="Hcircumflexsmall" horiz-adv-x="571" 
d="M402 231h-236l-49 -231h-95l107 507h95l-41 -195h236l41 195h95l-107 -507h-95zM531 568h-100l-59 81l-91 -81h-95l150 129h97z" />
    <glyph glyph-name="IJsmall" horiz-adv-x="625" 
d="M224 507l-107 -507h-94l107 507h94zM610 507l-72 -338q-39 -183 -219 -183q-77 0 -129 23l40 83q45 -21 100 -21q93 0 114 102l71 334h95z" />
    <glyph glyph-name="Imacronsmall" horiz-adv-x="239" 
d="M224 507l-107 -507h-94l107 507h94zM61 581l16 74h265l-16 -74h-265z" />
    <glyph glyph-name="Iogoneksmall" horiz-adv-x="239" 
d="M224 507l-107 -507h-33q-48 -28 -67 -48.5t-24 -49.5q-5 -23 7 -33t49 -10q50 0 93 29l20 -56q-54 -35 -136 -35q-73 0 -96.5 21.5t-14.5 67.5q18 76 116 114h-8l107 507h94z" />
    <glyph glyph-name="Itildesmall" horiz-adv-x="239" 
d="M224 507l-107 -507h-94l107 507h94zM345 695l44 -41q-54 -92 -132 -92q-29 0 -66 30t-60 30q-32 0 -68 -56l-37 45q64 81 124 81q27 0 48 -15l39.5 -29.5t37.5 -14.5t34.5 13.5t35.5 48.5z" />
    <glyph glyph-name="Jcircumflexsmall" horiz-adv-x="386" 
d="M371 507l-72 -338q-39 -183 -219 -183q-77 0 -129 23l40 83q45 -21 100 -21q93 0 114 102l71 334h95zM507 568h-100l-59 81l-91 -81h-95l150 129h97z" />
    <glyph glyph-name="Kcommaaccentsmall" horiz-adv-x="515" 
d="M466 0h-115q-135 249 -178 268l-56 -268h-94l107 507h94l-51 -239q66 43 268 239h115q-195 -189 -261 -230q45 -29 171 -277zM288 -51l-140 -167h-76l107 167h109z" />
    <glyph glyph-name="Lacutesmall" horiz-adv-x="416" 
d="M224 507l-89 -422h248l-18 -85h-342l107 507h94zM248 568h-90l149 129h107z" />
    <glyph glyph-name="Lcaronsmall" horiz-adv-x="416" 
d="M224 507l-89 -422h248l-18 -85h-342l107 507h94zM318 544h92l-97 -192h-57z" />
    <glyph glyph-name="Lcommaaccentsmall" horiz-adv-x="416" 
d="M224 507l-89 -422h248l-18 -85h-342l107 507h94zM240 -51l-140 -167h-76l107 167h109z" />
    <glyph glyph-name="Ldotsmall" horiz-adv-x="416" 
d="M224 507l-89 -422h248l-18 -85h-342l107 507h94zM311 362q30 0 38 -8.5t2 -38.5q-7 -33 -19 -42.5t-42 -9.5t-38.5 10t-1.5 42q6 29 18.5 38t42.5 9z" />
    <glyph glyph-name="Nacutesmall" horiz-adv-x="574" 
d="M389 153l75 354h94l-107 -507h-94q-90 238 -163 366l-77 -366h-95l107 507h94q109 -194 166 -354zM371 568h-90l149 129h107z" />
    <glyph glyph-name="Ncaronsmall" horiz-adv-x="574" 
d="M389 153l75 354h94l-107 -507h-94q-90 238 -163 366l-77 -366h-95l107 507h94q109 -194 166 -354zM217 697h99l58 -81l92 81h96l-150 -129h-97z" />
    <glyph glyph-name="Ncommaaccentsmall" horiz-adv-x="574" 
d="M389 153l75 354h94l-107 -507h-94q-90 238 -163 366l-77 -366h-95l107 507h94q109 -194 166 -354zM290 -51l-140 -167h-76l107 167h109z" />
    <glyph glyph-name="Obrevesmall" horiz-adv-x="587" 
d="M240 -14q-124 0 -167.5 59.5t-11.5 210.5q32 150 100 207.5t192 57.5q125 0 168.5 -57.5t11.5 -207.5q-32 -151 -100 -210.5t-193 -59.5zM336 440q-80 0 -115.5 -35t-60.5 -151q-22 -114 -2 -150.5t99 -36.5t115 37.5t60 149.5q23 119 3.5 152.5t-99.5 33.5zM250 697h70
q-8 -37 6 -50t52 -13q39 0 59.5 13t28.5 50h66q-29 -132 -170 -132t-112 132z" />
    <glyph glyph-name="Ohungarumlautsmall" horiz-adv-x="587" 
d="M240 -14q-124 0 -167.5 59.5t-11.5 210.5q32 150 100 207.5t192 57.5q125 0 168.5 -57.5t11.5 -207.5q-32 -151 -100 -210.5t-193 -59.5zM336 440q-80 0 -115.5 -35t-60.5 -151q-22 -114 -2 -150.5t99 -36.5t115 37.5t60 149.5q23 119 3.5 152.5t-99.5 33.5zM293 568h-70
l116 129h92zM445 568h-70l115 129h93z" />
    <glyph glyph-name="Omacronsmall" horiz-adv-x="587" 
d="M240 -14q-124 0 -167.5 59.5t-11.5 210.5q32 150 100 207.5t192 57.5q125 0 168.5 -57.5t11.5 -207.5q-32 -151 -100 -210.5t-193 -59.5zM336 440q-80 0 -115.5 -35t-60.5 -151q-22 -114 -2 -150.5t99 -36.5t115 37.5t60 149.5q23 119 3.5 152.5t-99.5 33.5zM234 581
l16 74h265l-16 -74h-265z" />
    <glyph glyph-name="parenleftsmall" horiz-adv-x="321" 
d="M71 250q70 328 288 406l28 -73q-157 -49 -217 -333q-61 -282 76 -333l-59 -72q-186 78 -116 405z" />
    <glyph glyph-name="Racutesmall" horiz-adv-x="556" 
d="M404 507q157 0 126 -148q-28 -132 -172 -135q25 -7 42.5 -23.5t41 -62.5t57.5 -138h-112q-28 83 -52 126.5t-44.5 57t-50.5 13.5h-82l-41 -197h-95l107 507h275zM175 274h160q77 0 94 78q9 40 -5.5 57.5t-53.5 17.5h-163zM335 568h-90l149 129h107z" />
    <glyph glyph-name="Rcaronsmall" horiz-adv-x="556" 
d="M404 507q157 0 126 -148q-28 -132 -172 -135q25 -7 42.5 -23.5t41 -62.5t57.5 -138h-112q-28 83 -52 126.5t-44.5 57t-50.5 13.5h-82l-41 -197h-95l107 507h275zM175 274h160q77 0 94 78q9 40 -5.5 57.5t-53.5 17.5h-163zM208 697h99l58 -81l92 81h96l-150 -129h-97z" />
    <glyph glyph-name="Rcommaaccentsmall" horiz-adv-x="556" 
d="M404 507q157 0 126 -148q-28 -132 -172 -135q25 -7 42.5 -23.5t41 -62.5t57.5 -138h-112q-28 83 -52 126.5t-44.5 57t-50.5 13.5h-82l-41 -197h-95l107 507h275zM175 274h160q77 0 94 78q9 40 -5.5 57.5t-53.5 17.5h-163zM287 -51l-140 -167h-76l107 167h109z" />
    <glyph glyph-name="sterlingsmall" horiz-adv-x="513" 
d="M34 211l16 74h53l14 65q37 171 259 171q94 0 162 -22l-39 -79q-50 19 -140 19q-70 0 -104 -23.5t-45 -74.5l-12 -56h152l-16 -74h-152l-27 -129h279l-17 -82h-374l44 211h-53z" />
    <glyph glyph-name="summationsmall" horiz-adv-x="496" 
d="M501 423h-273q27 -65 81 -168q-130 -139 -164 -171h282l-17 -84h-433l5 26q65 64 218 229q-61 122 -106 227l5 25h420z" />
    <glyph glyph-name="Tbarsmall" horiz-adv-x="483" 
d="M102 198l15 74h84l32 151h-187l18 84h468l-18 -84h-187l-32 -151h87l-15 -74h-87l-42 -198h-94l42 198h-84z" />
    <glyph glyph-name="Tcommaaccentsmall" horiz-adv-x="483" 
d="M328 423l-89 -423h-95l89 423h-187l18 84h468l-18 -84h-186zM244 -51l-140 -167h-76l107 167h109z" />
    <glyph glyph-name="Tcaronsmall" horiz-adv-x="483" 
d="M328 423l-89 -423h-95l89 423h-187l18 84h468l-18 -84h-186zM168 697h99l58 -81l92 81h96l-150 -129h-97z" />
    <glyph glyph-name="Utildesmall" horiz-adv-x="564" 
d="M247 73q68 0 97.5 25.5t42.5 88.5l68 320h95l-66 -313q-25 -117 -81.5 -162.5t-173.5 -45.5t-154.5 45.5t-12.5 162.5l66 313h94l-68 -320q-13 -63 6 -88.5t87 -25.5zM504 695l44 -41q-54 -92 -132 -92q-29 0 -66 30t-60 30q-32 0 -68 -56l-37 45q64 81 124 81
q33 0 68 -29.5t57 -29.5q19 0 34.5 13.5t35.5 48.5z" />
    <glyph glyph-name="Uringsmall" horiz-adv-x="564" 
d="M247 73q68 0 97.5 25.5t42.5 88.5l68 320h95l-66 -313q-25 -117 -81.5 -162.5t-173.5 -45.5t-154.5 45.5t-12.5 162.5l66 313h94l-68 -320q-13 -63 6 -88.5t87 -25.5zM390 739q57 0 80.5 -23t12.5 -73q-20 -96 -134 -96t-94 96q11 51 42 73.5t93 22.5zM379 689
q-30 0 -44 -11.5t-20 -35.5q-5 -24 4.5 -36t39.5 -12q55 0 65 48q5 24 -4.5 35.5t-40.5 11.5z" />
    <glyph glyph-name="Uogoneksmall" horiz-adv-x="564" 
d="M247 73q68 0 97.5 25.5t42.5 88.5l68 320h95l-66 -313q-21 -97 -62 -143.5t-116 -58.5q-40 -24 -56 -43.5t-21 -46.5q-5 -23 7 -33t49 -10q49 0 93 29l20 -56q-54 -35 -136 -35q-73 0 -96.5 21.5t-14.5 67.5q13 61 86 100h-8q-117 0 -154.5 45.5t-12.5 162.5l66 313h94
l-68 -320q-13 -63 6 -88.5t87 -25.5z" />
    <glyph glyph-name="Umacronsmall" horiz-adv-x="564" 
d="M247 73q68 0 97.5 25.5t42.5 88.5l68 320h95l-66 -313q-25 -117 -81.5 -162.5t-173.5 -45.5t-154.5 45.5t-12.5 162.5l66 313h94l-68 -320q-13 -63 6 -88.5t87 -25.5zM226 581l16 74h265l-16 -74h-265z" />
    <glyph glyph-name="Ubrevesmall" horiz-adv-x="564" 
d="M247 73q68 0 97.5 25.5t42.5 88.5l68 320h95l-66 -313q-25 -117 -81.5 -162.5t-173.5 -45.5t-154.5 45.5t-12.5 162.5l66 313h94l-68 -320q-13 -63 6 -88.5t87 -25.5zM242 697h70q-8 -37 6 -50t53 -13q38 0 58.5 13t28.5 50h66q-29 -132 -169 -132q-142 0 -113 132z" />
    <glyph glyph-name="Uhungarumlautsmall" horiz-adv-x="564" 
d="M247 73q68 0 97.5 25.5t42.5 88.5l68 320h95l-66 -313q-25 -117 -81.5 -162.5t-173.5 -45.5t-154.5 45.5t-12.5 162.5l66 313h94l-68 -320q-13 -63 6 -88.5t87 -25.5zM286 568h-70l116 129h92zM438 568h-70l115 129h93z" />
    <glyph glyph-name="yensmall" horiz-adv-x="480" 
d="M51 222l11 55h111q-59 118 -131 230h111q37 -56 108 -196q82 78 185 196h106q-110 -121 -222 -230h102l-11 -55h-135l-14 -65h135l-12 -54h-135l-21 -103h-94l21 103h-141l12 54h141l14 65h-141z" />
    <glyph glyph-name="Ycircumflexsmall" horiz-adv-x="480" 
d="M261 311q77 73 184 196h108q-126 -142 -265 -274l-49 -233h-94l49 233q-81 164 -153 274h113q44 -69 107 -196zM491 568h-100l-59 81l-91 -81h-95l150 129h97z" />
    <glyph glyph-name="zerosmall" horiz-adv-x="553" 
d="M223 -14q-110 0 -150.5 60t-8.5 210q32 149 97 207t175 58q111 0 152 -58t9 -207q-32 -150 -97.5 -210t-176.5 -60zM319 441q-66 0 -99 -36.5t-57 -150.5q-22 -114 -5 -151t82 -37t99 38.5t57 149.5q13 60 14.5 96.5t-9 56.5t-29.5 27t-53 7z" />
    <glyph glyph-name="onesmall" horiz-adv-x="553" 
d="M322 0h-95l83 393l-172 -76l-13 79l307 125z" />
    <glyph glyph-name="twosmall" horiz-adv-x="553" 
d="M133 409l-4 91q87 21 185 21q120 0 162.5 -38t24.5 -122q-16 -75 -83 -134.5t-244 -146.5h273l-17 -80h-415l15 73q163 91 233.5 136.5t94.5 73t33 67.5q9 45 -14 64t-92 19q-34 0 -81.5 -7.5t-70.5 -16.5z" />
    <glyph glyph-name="foursmall" horiz-adv-x="553" 
d="M309 129h-295l7 32q138 163 324 346h138l-63 -299h95l-17 -79h-95l-27 -129h-94zM326 208l48 229q-123 -122 -218 -229h170z" />
    <glyph glyph-name="fivesmall" horiz-adv-x="553" 
d="M151 507h374l-17 -82h-279l-25 -118q48 4 87 4q114 0 155.5 -37.5t23.5 -122.5q-20 -92 -85 -128.5t-191 -36.5q-120 0 -181 20l38 80q59 -19 156 -19q80 0 117.5 18.5t47.5 62.5q10 49 -16.5 69.5t-101.5 20.5q-92 0 -162 -12z" />
    <glyph glyph-name="sixsmall" horiz-adv-x="553" 
d="M496 148q-20 -91 -79 -126.5t-177 -35.5q-50 0 -84 7t-59 25t-35.5 48.5t-10 77t14.5 111.5q31 147 109.5 206.5t215.5 59.5q81 0 161 -23l-40 -81q-64 22 -137 22q-95 0 -139 -28t-66 -112q81 12 148 12q116 0 156.5 -36.5t21.5 -126.5zM398 150q11 53 -10.5 71.5
t-97.5 18.5q-75 0 -135 -11q-20 -101 4.5 -133.5t94.5 -32.5q74 0 104 19t40 68z" />
    <glyph glyph-name="sevensmall" horiz-adv-x="553" 
d="M113 507h463l-4 -22q-187 -199 -368 -485h-109q73 110 163 226t163 197h-326z" />
    <glyph glyph-name="eightsmall" horiz-adv-x="553" 
d="M239 65q80 0 112.5 18t42.5 67q10 45 -18.5 64t-100.5 19q-71 0 -107.5 -18.5t-46.5 -64.5q-10 -49 14.5 -67t103.5 -18zM223 -14q-126 0 -173.5 33t-29.5 117q28 128 165 134q-68 6 -88 37.5t-8 86.5q15 68 70 97.5t177 29.5t165 -29.5t28 -97.5q-12 -55 -44.5 -86.5
t-103.5 -37.5q135 -6 107 -134q-18 -84 -78.5 -117t-186.5 -33zM291 310q67 0 100 15t41 53q8 37 -16 51.5t-96 14.5q-71 0 -101 -14.5t-38 -51.5q-8 -39 17.5 -53.5t92.5 -14.5z" />
    <glyph glyph-name="ninesmall" horiz-adv-x="553" 
d="M245 189q-115 0 -154.5 36.5t-20.5 125.5q19 92 81 131.5t182 39.5q129 0 172 -45.5t20 -153.5q-11 -51 -38.5 -96t-74.5 -87.5t-84.5 -70t-100.5 -69.5h-133q91 56 170.5 114t100.5 85q-86 -10 -120 -10zM426 325q14 67 -10 93.5t-97 26.5q-77 0 -108.5 -22t-41.5 -73
q-11 -53 9 -68.5t99 -15.5q53 0 125 10q18 25 24 49z" />
    <glyph glyph-name="threesmall" horiz-adv-x="553" 
d="M174 234l16 75h76q67 0 98 14t39 51q8 35 -16.5 50t-98.5 15q-88 0 -156 -21l-4 83q82 20 178 20q124 0 169 -29.5t31 -97.5q-12 -55 -46 -86.5t-106 -37.5q136 -6 108 -134q-18 -84 -81 -117t-191 -33q-103 0 -172 20l40 85q56 -22 148 -22q83 0 116 18t43 66
q10 45 -17 63t-98 18h-76z" />
    <glyph glyph-name="atsmall" horiz-adv-x="729" 
d="M380 457q-114 0 -162 -38.5t-74 -162.5q-26 -122 11.5 -162t169.5 -40q130 0 188 46.5t86 178.5q21 98 13 152h83q7 -50 -16 -154q-35 -166 -120.5 -229.5t-248.5 -63.5q-66 0 -111.5 7.5t-80.5 26t-50 49.5t-19 78t12 112q33 154 111 211.5t217 57.5q43 0 70.5 -4
t49.5 -16t30.5 -34.5t8 -58.5t-11.5 -89q-25 -120 -66.5 -157t-135.5 -37q-88 0 -116 25t-12 100t53.5 100.5t116.5 25.5q60 0 94 -6q7 47 -12.5 64.5t-77.5 17.5zM381 319q-47 0 -65 -11t-26 -49q-9 -38 4.5 -51t59.5 -13q45 0 65.5 18t30.5 69l7 32q-55 5 -76 5z" />
    <glyph glyph-name="backslashsmall" horiz-adv-x="427" 
d="M51 507h107l223 -507h-106z" />
    <glyph glyph-name="slashsmall" horiz-adv-x="427" 
d="M380 507h108l-439 -507h-106z" />
    <glyph glyph-name="barsmall" horiz-adv-x="341" 
d="M206 640h101l-165 -775h-101z" />
    <glyph glyph-name="bracketrightsmall" horiz-adv-x="351" 
d="M115 647h235l-168 -791h-234l16 82h136l133 626h-136z" />
    <glyph glyph-name="bracerightsmall" horiz-adv-x="338" 
d="M316 286l1 1l-17 -76q-48 0 -81.5 -32.5t-52.5 -119.5q-20 -95 -72.5 -147.5t-122.5 -68.5l-22 70q53 13 83.5 47t49.5 120q31 148 124 169q-33 7 -52 45t-1 124q10 45 10 75t-9.5 48t-24 27.5t-38.5 16.5l53 69q63 -16 93 -68.5t10 -147.5q-19 -87 1 -119.5t68 -32.5z
" />
    <glyph glyph-name="Cdotaccentsmall" horiz-adv-x="468" 
d="M400 96l7 -83q-67 -27 -155 -27q-124 0 -173.5 60.5t-17.5 209.5q31 148 105.5 206.5t198.5 58.5q85 0 145 -24l-43 -84q-48 23 -116 23q-42 0 -69 -6.5t-51.5 -25.5t-41 -55.5t-29.5 -94.5q-22 -107 5 -145t109 -38q60 0 126 25zM389 669q30 0 38 -8.5t2 -38.5
q-7 -33 -19 -42.5t-42 -9.5t-38.5 10t-1.5 42q6 29 18.5 38t42.5 9z" />
    <glyph glyph-name="Cacutesmall" horiz-adv-x="468" 
d="M400 96l7 -83q-67 -27 -155 -27q-124 0 -173.5 60.5t-17.5 209.5q31 148 105.5 206.5t198.5 58.5q85 0 145 -24l-43 -84q-48 23 -116 23q-42 0 -69 -6.5t-51.5 -25.5t-41 -55.5t-29.5 -94.5q-22 -107 5 -145t109 -38q60 0 126 25zM362 568h-90l149 129h107z" />
    <glyph glyph-name="Ccaronsmall" horiz-adv-x="468" 
d="M400 96l7 -83q-67 -27 -155 -27q-124 0 -173.5 60.5t-17.5 209.5q31 148 105.5 206.5t198.5 58.5q85 0 145 -24l-43 -84q-48 23 -116 23q-42 0 -69 -6.5t-51.5 -25.5t-41 -55.5t-29.5 -94.5q-22 -107 5 -145t109 -38q60 0 126 25zM218 697h99l58 -81l92 81h96l-150 -129
h-97z" />
    <glyph glyph-name="centsmall" horiz-adv-x="445" 
d="M264 521h61l-16 -75q52 -3 90 -18l-34 -63q-24 12 -70 16l-52 -247q40 4 77 17l7 -62q-42 -16 -98 -20l-17 -83h-61l18 85q-73 9 -101.5 52t-8.5 136q19 91 66.5 134t122.5 51zM139 258q-22 -107 44 -118l50 236q-36 -5 -59 -33t-35 -85z" />
    <glyph glyph-name="daggersmall" horiz-adv-x="433" 
d="M71 430l16 77h145l32 148h82l-32 -148h146l-16 -77h-146l-51 -241h-82l51 241h-145z" />
    <glyph glyph-name="degreesmall" horiz-adv-x="346" 
d="M233 521q79 0 105 -34t6 -128q-20 -96 -61.5 -132.5t-119.5 -36.5t-103.5 36.5t-5.5 132.5q20 94 60 128t119 34zM175 248q42 0 60.5 22.5t31.5 86.5q14 65 5.5 86t-51.5 21q-41 0 -59.5 -21t-32.5 -86q-13 -62 -3.5 -85.5t49.5 -23.5z" />
    <glyph glyph-name="dollarsmall" horiz-adv-x="538" 
d="M317 617h64l-23 -105q78 0 145 -20l-38 -76q-38 15 -123 19l-30 -141q83 -11 115.5 -46t18.5 -102q-29 -135 -198 -153l-23 -109h-64l23 109q-93 0 -153 19l42 78q53 -17 128 -19l31 150q-81 9 -114 41t-19 98q29 135 195 151zM189 364q-6 -28 7.5 -42.5t52.5 -20.5
l29 133q-76 -8 -89 -70zM357 144q6 29 -7 45.5t-55 23.5l-30 -141q79 8 92 72z" />
    <glyph glyph-name="numbersignsmall" horiz-adv-x="578" 
d="M59 320l20 71h106l32 116h84l-31 -116h112l31 116h85l-32 -116h114l-20 -71h-113l-34 -121h116l-20 -69h-115l-36 -130h-84l35 130h-112l-35 -130h-85l36 130h-105l20 69h104l34 121h-107zM250 320l-34 -121h112l34 121h-112z" />
    <glyph glyph-name="parenrightsmall" horiz-adv-x="321" 
d="M256 250q-69 -327 -290 -406l-27 72q158 52 218 334t-78 333l60 72q186 -79 117 -405z" />
    <glyph glyph-name="percentsmall" horiz-adv-x="773" 
d="M579 507h90l-471 -507h-89zM233 521q79 0 105 -34t6 -128q-20 -96 -61.5 -132.5t-119.5 -36.5t-103.5 36.5t-5.5 132.5q20 94 60 128t119 34zM175 248q42 0 60.5 22.5t31.5 86.5q14 65 5.5 86t-51.5 21q-41 0 -59.5 -21t-32.5 -86q-13 -62 -3.5 -85.5t49.5 -23.5z
M617 318q79 0 104.5 -34.5t5.5 -128.5q-20 -96 -61 -132.5t-119 -36.5t-104 36.5t-6 132.5q20 94 60.5 128.5t119.5 34.5zM559 44q42 0 60.5 23t31.5 86q14 65 5.5 86t-51.5 21q-41 0 -59.5 -21t-32.5 -86q-13 -61 -3.5 -85t49.5 -24z" />
    <glyph glyph-name="sectionsmall" horiz-adv-x="468" 
d="M455 502l-34 -64q-47 17 -120 17q-116 0 -127 -52q-5 -23 15 -34t81 -15q87 -6 124.5 -32t25.5 -80q-8 -37 -44 -70q21 -22 11 -65q-25 -121 -228 -121q-74 0 -141 18l35 65q45 -18 119 -18q116 0 128 53q5 23 -15 34t-81 15q-87 6 -124.5 32t-25.5 80q8 38 42 71
q-18 22 -9 64q25 121 228 121q78 0 140 -19zM154 305q-12 -17 -17 -37q-4 -22 18.5 -34t78.5 -17q51 -3 87 -14q12 18 15 34q5 23 -17.5 35.5t-79.5 17.5q-58 5 -85 15z" />
    <glyph glyph-name="Sacutesmall" horiz-adv-x="497" 
d="M485 495l-41 -80q-66 26 -142 26q-60 0 -88 -14.5t-38 -60.5q-7 -32 15 -46.5t86 -20.5q95 -8 130.5 -42t20.5 -106q-19 -91 -78 -128t-163 -37t-177 27l40 80q59 -27 152 -27q60 0 89 15.5t39 62.5q8 35 -13.5 51.5t-87.5 22.5q-92 8 -129 38.5t-22 101.5
q19 90 79 126.5t164 36.5q81 0 164 -26zM318 568h-90l149 129h107z" />
    <glyph glyph-name="Scedillasmall" horiz-adv-x="497" 
d="M485 495l-41 -80q-66 26 -142 26q-60 0 -88 -14.5t-38 -60.5q-7 -32 15 -46.5t86 -20.5q95 -8 130.5 -42t20.5 -106q-19 -88 -73.5 -125.5t-150.5 -39.5l-7 -30q64 0 86 -16.5t12 -60.5q-10 -47 -43.5 -64.5t-105.5 -17.5q-68 0 -98 18l30 48q26 -14 76 -14q29 0 41 6
t16 24q4 20 -17.5 26t-84.5 2l48 80q-92 6 -147 26l40 80q59 -27 152 -27q60 0 89 15.5t39 62.5q8 35 -13.5 51.5t-87.5 22.5q-92 8 -129 38.5t-22 101.5q19 90 79 126.5t164 36.5q81 0 164 -26z" />
    <glyph glyph-name="Scircumflexsmall" horiz-adv-x="497" 
d="M485 495l-41 -80q-66 26 -142 26q-60 0 -88 -14.5t-38 -60.5q-7 -32 15 -46.5t86 -20.5q95 -8 130.5 -42t20.5 -106q-19 -91 -78 -128t-163 -37t-177 27l40 80q59 -27 152 -27q60 0 89 15.5t39 62.5q8 35 -13.5 51.5t-87.5 22.5q-92 8 -129 38.5t-22 101.5
q19 90 79 126.5t164 36.5q81 0 164 -26zM501 568h-100l-59 81l-91 -81h-95l150 129h97z" />
    <glyph glyph-name="Scommaaccentsmall" horiz-adv-x="497" 
d="M485 495l-41 -80q-66 26 -142 26q-60 0 -88 -14.5t-38 -60.5q-7 -32 15 -46.5t86 -20.5q95 -8 130.5 -42t20.5 -106q-19 -91 -78 -128t-163 -37t-177 27l40 80q59 -27 152 -27q60 0 89 15.5t39 62.5q8 35 -13.5 51.5t-87.5 22.5q-92 8 -129 38.5t-22 101.5
q19 90 79 126.5t164 36.5q81 0 164 -26zM257 -51l-140 -167h-76l107 167h109z" />
    <glyph glyph-name="Wcircumflexsmall" horiz-adv-x="821" 
d="M445 386q-79 -176 -196 -386h-123q-19 299 -56 507h103q30 -174 40 -412q132 239 207 412h102q18 -143 25 -412q143 248 216 412h100q-130 -267 -280 -507h-123q0 241 -15 386zM656 568h-100l-59 81l-91 -81h-95l150 129h97z" />
    <glyph glyph-name="Zacutesmall" horiz-adv-x="496" 
d="M101 507h420l-5 -25q-83 -97 -195 -217t-176 -181h282l-17 -84h-433l5 26q232 227 374 397h-273zM347 568h-90l149 129h107z" />
    <glyph glyph-name="Zdotaccentsmall" horiz-adv-x="496" 
d="M101 507h420l-5 -25q-83 -97 -195 -217t-176 -181h282l-17 -84h-433l5 26q232 227 374 397h-273zM345 669q30 0 38 -8.5t2 -38.5q-7 -33 -19 -42.5t-42 -9.5t-38.5 10t-1.5 42q6 29 18.5 38t42.5 9z" />
    <glyph glyph-name="zeroop" horiz-adv-x="569" 
d="M235 -14q-117 0 -161.5 60t-12.5 210q31 148 100.5 206.5t186.5 58.5q116 0 158 -58t10 -207q-32 -150 -98.5 -210t-182.5 -60zM331 441q-52 0 -81.5 -13.5t-51 -53.5t-38.5 -120q-22 -114 -2.5 -151t94.5 -37q74 0 106.5 37t56.5 151q24 119 7.5 153t-91.5 34z" />
    <glyph glyph-name="oneop" horiz-adv-x="353" 
d="M230 0h-94l83 393l-172 -76l-14 79l307 125z" />
    <glyph glyph-name="twoop" horiz-adv-x="548" 
d="M122 409l-3 91q89 21 196 21q130 0 172.5 -37t24.5 -123q-16 -76 -96 -143t-253 -138h297l-17 -80h-439l15 73q156 77 236 125t110 80t38 70q10 46 -14 65.5t-103 19.5q-35 0 -88 -7.5t-76 -16.5z" />
    <glyph glyph-name="threeop" horiz-adv-x="576" 
d="M144 137l18 85h89q78 0 116 24.5t51 84.5q12 57 -17.5 79t-126.5 22q-110 0 -188 -24l-3 87q120 26 223 26q143 0 192.5 -41t29.5 -132q-15 -75 -55 -116.5t-129 -49.5q63 -3 95.5 -27t35.5 -63t-6 -90q-24 -113 -98 -158.5t-222 -45.5q-103 0 -215 27l39 85
q69 -22 183 -22q106 0 148 27t57 97q15 71 -13.5 98t-113.5 27h-90z" />
    <glyph glyph-name="fourop" horiz-adv-x="571" 
d="M315 0h-349l5 27q231 303 404 480h145l-90 -426h96l-17 -81h-96l-41 -192h-98zM332 81l74 349q-118 -118 -295 -349h221z" />
    <glyph glyph-name="fiveop" horiz-adv-x="593" 
d="M143 507h413l-18 -87h-316l-40 -188q39 5 99 5q142 0 188 -49.5t21 -165.5q-26 -127 -99 -176t-221 -49q-97 0 -205 27l40 85q67 -22 171 -22t145.5 27.5t56.5 99.5q17 79 -9 108t-124 29q-103 0 -181 -16z" />
    <glyph glyph-name="sixop" horiz-adv-x="635" 
d="M650 686l-44 -90q-62 25 -155 25q-50 0 -77 -7q-67 -12 -106 -55.5t-66 -147.5q78 14 159 14q143 0 189.5 -49.5t21.5 -166.5q-27 -126 -95 -174.5t-208 -48.5q-75 0 -120 17t-68.5 59.5t-22.5 112.5t24 178q22 106 55 176.5t82 111t108 57t143 16.5q94 0 180 -28z
M288 76q89 0 124.5 27t50.5 98q16 77 -7.5 106.5t-110.5 30.5q-38 0 -58 -1q-50 -3 -105 -13q-15 -77 -16 -126.5t14.5 -76t40.5 -36t67 -9.5z" />
    <glyph glyph-name="sevenop" horiz-adv-x="502" 
d="M562 507l-7 -33q-101 -122 -235 -319.5t-216 -346.5h-116q95 165 214 339.5t206 272.5h-378l18 87h514z" />
    <glyph glyph-name="eightop" horiz-adv-x="624" 
d="M276 70q84 0 123 28.5t53 98.5q16 72 -12 102t-109 30q-80 0 -119.5 -30t-55.5 -102q-15 -70 10.5 -98.5t109.5 -28.5zM349 410q71 0 108 27t50 88q12 57 -12.5 80.5t-99.5 23.5t-109.5 -23.5t-46.5 -80.5q-13 -61 13 -88t97 -27zM259 -14q-135 0 -185.5 46t-26.5 158
q18 84 63 131t139 51q-85 8 -106 50.5t-5 117.5q19 91 81.5 132.5t193.5 41.5t176 -42t26 -132q-16 -75 -54.5 -117.5t-126.5 -50.5q62 -3 94 -27.5t35 -64t-6 -90.5q-24 -112 -93.5 -158t-204.5 -46z" />
    </font>
</defs>
</svg>
